<svg width="1440" height="425" viewBox="0 0 1440 425" fill="none" xmlns="http://www.w3.org/2000/svg">
<g clip-path="url(#clip0_288_397)">
<mask id="mask0_288_397" style="mask-type:alpha" maskUnits="userSpaceOnUse" x="0" y="-20" width="1440" height="876">
<rect y="-20" width="1440" height="876" fill="#1A1A1A"/>
</mask>
<g mask="url(#mask0_288_397)">
<g style="mix-blend-mode:soft-light" opacity="0.2">
<path d="M1101.69 -483.899C1164.45 -462.733 1214.2 -445.301 1252.88 -430.019C1291.58 -414.73 1319.13 -401.62 1337.55 -389.113C1355.97 -376.6 1365.06 -364.823 1367.21 -352.259C1369.37 -339.666 1364.61 -325.929 1354.46 -309.336C1344.45 -292.991 1329.31 -274.069 1310.91 -251.068C1254.68 -180.789 1167.99 -72.4289 1104.16 116.832C1061.79 242.46 1033.47 391.899 1006.97 542.663C1003.58 561.931 1000.22 581.22 996.87 600.484C973.983 731.997 951.298 862.347 920.707 976.736C885.625 1107.91 840.202 1217.86 772.349 1284.46C738.448 1317.74 698.955 1340.18 652.336 1349.06C605.706 1357.94 551.861 1353.26 489.242 1332.14C363.881 1289.87 280.067 1230.68 227.429 1157.95C174.793 1085.21 153.242 998.797 152.633 901.894C151.469 716.483 226.955 493.019 307.618 254.231C311.314 243.29 315.02 232.318 318.731 221.315C322.465 210.243 326.172 199.234 329.855 188.292C367.941 75.169 403.596 -30.7336 442.109 -124.564C484.347 -227.473 529.987 -315.772 585.967 -383.08C641.928 -450.367 708.204 -496.657 791.749 -515.607C875.317 -534.561 976.293 -526.189 1101.69 -483.899Z" stroke="url(#paint0_linear_288_397)" stroke-width="2.41377"/>
<path d="M1191.64 -435.745C1251.81 -408.066 1299.44 -385.477 1336.29 -366.194C1373.15 -346.903 1399.17 -330.956 1416.16 -316.573C1433.16 -302.184 1440.96 -289.512 1441.77 -276.792C1442.58 -264.041 1436.4 -250.884 1424.55 -235.456C1412.87 -220.261 1395.82 -203.043 1375.09 -182.114C1311.75 -118.169 1214.1 -19.5735 1130.63 161.886C1075.23 282.335 1031.28 427.945 988.999 575.067C983.596 593.868 978.22 612.694 972.852 631.496C936.2 759.856 899.872 887.081 857.367 997.599C808.625 1124.34 751.84 1228.87 677.332 1287.93C640.105 1317.44 598.462 1335.59 551.166 1339.49C503.859 1343.39 450.81 1333.05 390.772 1305.44C270.578 1250.15 193.486 1182.45 148.826 1104.56C104.168 1026.67 91.8665 938.462 101.498 842.037C119.927 657.54 218.597 443.301 324.034 214.37C328.865 203.881 333.71 193.362 338.562 182.813C343.445 172.197 348.293 161.641 353.112 151.149C402.935 42.6828 449.578 -58.8607 497.787 -148.098C550.66 -245.969 605.373 -328.952 668.15 -389.97C730.906 -450.969 801.702 -489.999 886.781 -500.017C971.883 -510.037 1071.41 -491.045 1191.64 -435.745Z" stroke="url(#paint1_linear_288_397)" stroke-width="2.41377"/>
<path d="M1254.52 -394.228C1312.35 -361.937 1358.07 -335.699 1393.3 -313.597C1428.55 -291.488 1453.23 -273.559 1469.05 -257.893C1484.88 -242.22 1491.66 -228.978 1491.48 -216.234C1491.29 -203.458 1484.1 -190.824 1471.08 -176.369C1458.26 -162.131 1439.91 -146.297 1417.61 -127.051C1349.47 -68.2444 1244.42 22.4261 1147.04 196.816C1082.41 312.573 1027.22 454.307 973.587 597.679C966.732 616.002 959.903 634.351 953.083 652.677C906.523 777.783 860.374 901.783 809.371 1008.65C750.884 1131.19 686.111 1230.98 607.22 1284.04C567.803 1310.55 524.87 1325.39 477.414 1325.59C429.947 1325.79 377.867 1311.34 320.168 1279.12C204.657 1214.62 133.085 1141.1 94.6429 1059.96C56.2017 978.826 50.8233 889.929 67.953 794.55C100.728 612.055 215.823 406.172 338.81 186.172C344.445 176.092 350.096 165.983 355.757 155.844C361.453 145.642 367.112 135.497 372.735 125.414C430.874 21.1676 485.301 -76.4247 540.33 -161.626C600.682 -255.071 661.706 -333.529 729.054 -389.461C796.381 -445.374 870.008 -478.758 955.609 -482.103C1041.23 -485.449 1138.97 -458.745 1254.52 -394.228Z" stroke="url(#paint2_linear_288_397)" stroke-width="2.41377"/>
<path d="M1306.42 -354.229C1361.93 -318.085 1405.76 -288.804 1439.41 -264.361C1473.07 -239.909 1496.48 -220.345 1511.2 -203.641C1525.93 -186.93 1531.8 -173.258 1530.75 -160.555C1529.69 -147.822 1521.67 -135.705 1507.69 -122.168C1493.93 -108.833 1474.55 -94.2822 1450.99 -76.5942C1379.02 -22.5504 1268.05 60.7773 1159.06 228.152C1086.71 339.253 1022.03 476.913 958.785 616.312C950.702 634.127 942.643 651.97 934.594 669.791C879.646 791.447 825.184 912.027 767.043 1015.18C700.369 1133.47 628.97 1228.63 546.658 1276.21C505.532 1299.98 461.69 1311.88 414.33 1308.85C366.959 1305.83 315.98 1287.87 260.602 1251.81C149.738 1179.62 83.323 1101.41 50.4793 1017.85C17.6363 934.287 18.3066 845.23 41.8733 751.234C86.965 571.385 215.774 373.793 353.415 162.651C359.722 152.978 366.047 143.275 372.383 133.545C378.759 123.753 385.093 114.015 391.388 104.337C456.471 4.27974 517.4 -89.3915 578.087 -170.66C644.645 -259.79 710.855 -333.924 781.846 -385.153C852.814 -436.366 928.538 -464.673 1014.17 -462.198C1099.82 -459.723 1195.52 -426.443 1306.42 -354.229Z" stroke="url(#paint3_linear_288_397)" stroke-width="2.41377"/>
<path d="M1355.58 -310.715C1408.5 -270.879 1450.23 -238.683 1482.14 -212.008C1514.06 -185.323 1536.09 -164.211 1549.64 -146.544C1563.2 -128.871 1568.12 -114.831 1566.21 -102.229C1564.29 -89.5972 1555.46 -78.054 1540.6 -65.4988C1525.96 -53.1317 1505.63 -39.9326 1480.93 -23.8881C1405.45 25.1344 1289.07 100.72 1168.94 260.292C1089.2 366.214 1015.3 499.155 942.722 633.929C933.446 651.152 924.191 668.406 914.949 685.637C851.852 803.273 789.313 919.869 724.289 1018.83C649.723 1132.31 572.016 1222.39 486.657 1264.26C444.009 1285.18 399.46 1294.06 352.416 1287.82C305.36 1281.58 255.721 1260.2 202.924 1220.46C97.2277 1140.89 36.2873 1058.35 9.20433 972.742C-17.878 887.141 -11.1507 798.336 18.7558 706.161C75.978 529.797 217.93 341.425 369.617 140.136C376.567 130.914 383.537 121.664 390.52 112.387C397.548 103.052 404.53 93.7675 411.469 84.5402C483.208 -10.858 550.368 -100.167 616.443 -177.119C688.91 -261.515 760.01 -330.973 834.322 -377.254C908.609 -423.52 986.083 -446.61 1071.35 -438.316C1156.64 -430.019 1249.85 -390.306 1355.58 -310.715Z" stroke="url(#paint4_linear_288_397)" stroke-width="2.41377"/>
<path d="M1394.73 -271.407C1445.27 -228.594 1485.09 -194.052 1515.41 -165.586C1545.74 -137.109 1566.52 -114.766 1579.03 -96.3491C1591.55 -77.9253 1595.66 -63.6256 1593.02 -51.1546C1590.38 -38.6537 1580.9 -27.6376 1565.34 -15.9577C1550.01 -4.45292 1528.97 7.55577 1503.38 22.1532C1425.2 66.7543 1304.67 135.523 1175.57 287.924C1089.87 389.086 1008.45 517.557 928.239 647.934C917.988 664.596 907.757 681.289 897.539 697.96C827.782 811.774 758.642 924.58 688.036 1019.64C607.067 1128.64 524.309 1214.1 436.684 1251C392.904 1269.43 347.918 1275.74 301.31 1266.8C254.691 1257.87 206.363 1233.67 155.939 1190.95C54.9927 1105.44 -1.10035 1019.53 -23.2162 932.509C-45.3316 845.492 -33.5091 757.221 1.64808 666.918C68.9167 494.136 221.466 314.238 384.476 122.004C391.944 113.197 399.435 104.363 406.94 95.5037C414.493 86.5877 421.997 77.7202 429.455 68.9072C506.561 -22.2082 578.745 -107.508 649.135 -180.533C726.336 -260.623 801.313 -325.877 878.162 -367.808C954.987 -409.726 1033.66 -428.324 1118.31 -415.14C1202.98 -401.953 1293.75 -356.946 1394.73 -271.407Z" stroke="url(#paint5_linear_288_397)" stroke-width="2.41377"/>
<path d="M1440.08 -219.584C1487.44 -173.273 1524.69 -135.978 1552.9 -105.421C1581.13 -74.8522 1600.26 -51.0832 1611.42 -31.8207C1622.59 -12.5507 1625.67 2.00586 1622.16 14.2571C1618.63 26.5378 1608.38 36.849 1592.03 47.3888C1575.92 57.7706 1554.07 68.2467 1527.51 80.9812C1446.35 119.89 1321.21 179.882 1181.57 322.682C1088.87 417.471 998.49 539.805 909.179 664.126C897.765 680.014 886.369 695.934 874.987 711.834C797.287 820.379 720.273 927.965 643.064 1017.74C554.523 1120.69 465.878 1200.03 375.843 1230.58C330.86 1245.84 285.539 1248.92 239.687 1236.68C193.824 1224.44 147.347 1196.86 100.099 1150.65C5.51221 1058.15 -44.3073 968.457 -60.1573 880.081C-76.0069 791.708 -57.9156 704.505 -16.4042 616.942C63.0224 449.4 228.02 280.846 404.332 100.735C412.41 92.4827 420.511 84.2064 428.63 75.9047C436.8 67.5504 444.917 59.241 452.985 50.9826C536.396 -34.3983 614.484 -114.33 689.905 -182.145C772.623 -256.522 852.066 -316.26 931.712 -352.601C1011.33 -388.929 1091.13 -401.866 1174.62 -382.676C1258.13 -363.48 1345.47 -312.11 1440.08 -219.584Z" stroke="url(#paint6_linear_288_397)" stroke-width="2.41377"/>
<path d="M1485.47 -159.129C1529.06 -109.252 1563.27 -69.1537 1589.01 -36.4806C1614.75 -3.79481 1631.96 21.3996 1641.58 41.4773C1651.21 61.5629 1653.14 76.316 1648.67 88.2541C1644.2 100.221 1633.17 109.698 1616.04 118.925C1599.17 128.013 1576.57 136.745 1549.09 147.36C1465.13 179.793 1335.68 229.799 1185.28 361.223C1085.44 448.46 985.759 563.339 886.984 680.283C874.361 695.228 861.753 710.207 849.161 725.167C763.197 827.293 677.994 928.516 593.991 1011.97C497.658 1107.67 403.071 1179.82 310.92 1203.22C264.879 1214.91 219.456 1214.43 174.704 1198.64C129.941 1182.85 85.7666 1151.71 42.2835 1101.94C-44.7683 1002.32 -87.4093 908.998 -96.2886 819.652C-105.168 730.309 -80.302 644.791 -32.0598 560.748C60.2453 399.942 237.938 244.83 427.815 79.0811C436.514 71.487 445.24 63.8707 453.983 56.2304C462.782 48.5416 471.526 40.8936 480.216 33.2925C570.058 -45.2931 654.166 -118.863 734.667 -180.563C822.957 -248.232 906.835 -301.565 989.082 -331.555C1071.3 -361.536 1151.87 -368.183 1233.6 -342.512C1315.35 -316.834 1398.4 -258.781 1485.47 -159.129Z" stroke="url(#paint7_linear_288_397)" stroke-width="2.41377"/>
<path d="M1526.92 -93.693C1566.36 -40.4794 1597.25 2.23495 1620.28 36.8678C1643.32 71.514 1658.45 98.0083 1666.43 118.793C1674.41 139.587 1675.15 154.447 1669.74 165.988C1664.32 177.557 1652.57 186.119 1634.76 193.942C1617.21 201.647 1593.98 208.537 1565.74 216.912C1479.45 242.503 1346.4 281.96 1185.94 400.891C1079.42 479.835 970.842 586.344 863.002 694.985C849.22 708.869 835.45 722.787 821.699 736.688C727.817 831.586 634.766 925.646 544.336 1002.09C440.635 1089.75 340.563 1154.08 246.831 1170.01C200 1177.97 154.762 1173.85 111.421 1154.51C68.0704 1135.18 26.5376 1100.59 -12.812 1047.5C-91.5885 941.213 -126.603 844.769 -128.284 754.999C-129.965 665.232 -98.3169 581.985 -43.486 502.084C61.4257 349.204 250.992 208.851 453.558 58.8742C462.839 52.0028 472.147 45.1111 481.476 38.1972C490.863 31.2393 500.193 24.3176 509.464 17.4383C605.323 -53.6842 695.064 -120.267 780.257 -175.308C873.692 -235.674 961.579 -282.104 1045.97 -305.397C1130.33 -328.684 1211.17 -328.843 1290.58 -296.697C1370.01 -264.541 1448.12 -200.012 1526.92 -93.693Z" stroke="url(#paint8_linear_288_397)" stroke-width="2.41377"/>
<path d="M1560.21 -30.926C1595.63 25.0468 1623.28 69.9188 1643.7 106.153C1664.13 142.401 1677.27 169.938 1683.7 191.254C1690.13 212.578 1689.77 227.453 1683.53 238.565C1677.27 249.703 1664.92 257.377 1646.58 263.867C1628.51 270.259 1604.84 275.42 1576.05 281.694C1488.12 300.863 1352.53 330.419 1183.74 437.214C1071.71 508.102 955.577 606.329 840.032 706.736C825.266 719.567 810.509 732.434 795.772 745.284C695.158 833.014 595.434 919.968 499.623 989.545C389.749 1069.33 285.213 1126.12 190.563 1135.11C143.273 1139.6 98.4613 1132.16 56.6611 1109.69C14.8511 1087.21 -24.0229 1049.66 -59.3572 993.82C-130.095 882.021 -157.915 783.261 -152.983 693.611C-148.051 603.964 -110.36 523.273 -49.7957 447.625C66.086 302.883 265.471 176.867 478.528 42.209C488.289 36.0394 498.08 29.8517 507.892 23.6432C517.766 17.3953 527.58 11.1792 537.333 5.00114C638.167 -58.8715 732.566 -118.667 821.58 -167.287C919.206 -220.611 1010.27 -260.445 1096.15 -277.463C1181.99 -294.475 1262.63 -288.683 1339.45 -250.778C1416.3 -212.863 1489.45 -142.758 1560.21 -30.926Z" stroke="url(#paint9_linear_288_397)" stroke-width="2.41377"/>
<path d="M1590.59 38.7052C1621.49 97.2918 1645.53 144.201 1663.03 181.93C1680.54 219.674 1691.47 248.159 1696.2 269.915C1700.94 291.679 1699.41 306.48 1692.31 317.066C1685.19 327.677 1672.28 334.355 1653.49 339.381C1634.97 344.332 1610.96 347.613 1581.78 351.602C1492.6 363.79 1355.11 382.582 1178.44 475.761C1061.17 537.612 937.675 626.394 814.585 717.394C798.855 729.024 783.131 740.69 767.427 752.34C660.221 831.879 553.963 910.714 452.973 972.534C337.161 1043.43 228.479 1091.81 133.415 1093.32C85.9186 1094.08 41.8316 1083.13 1.92954 1057.44C-37.9817 1031.74 -73.7797 991.251 -104.609 932.799C-166.328 815.78 -186.288 715.136 -174.315 626.153C-162.342 537.171 -118.418 459.697 -52.0873 389.051C74.8272 253.879 283.512 143.947 506.507 26.476C516.723 21.0939 526.97 15.696 537.241 10.2791C547.576 4.8278 557.849 -0.596679 568.058 -5.98787C673.607 -61.7258 772.419 -113.906 864.983 -155.369C966.504 -200.844 1060.42 -233.386 1147.37 -243.592C1234.29 -253.795 1314.22 -241.674 1387.82 -197.84C1461.44 -153.994 1528.85 -78.3487 1590.59 38.7052Z" stroke="url(#paint10_linear_288_397)" stroke-width="2.41377"/>
<path d="M1615.93 112.275C1642 173.162 1662.18 221.856 1676.59 260.873C1691 299.906 1699.6 329.179 1702.56 351.246C1705.52 373.321 1702.81 387.95 1694.88 397.929C1686.93 407.932 1673.52 413.548 1654.38 417.043C1635.53 420.485 1611.33 421.82 1581.92 423.443C1492.05 428.403 1353.49 436.05 1169.89 514.684C1048.01 566.881 917.761 645.418 787.736 726.2C771.119 736.524 754.506 746.884 737.914 757.231C624.645 827.868 512.378 897.881 406.733 951.359C285.583 1012.69 173.355 1052.15 78.4781 1045.99C31.0753 1042.92 -11.9858 1028.45 -49.6871 999.629C-87.3972 970.8 -119.814 927.553 -145.831 866.806C-197.917 745.192 -209.699 643.267 -190.592 555.538C-171.485 467.812 -121.458 394.131 -49.6482 329.061C87.7497 204.56 304.617 111.808 536.356 12.6955C546.973 8.15451 557.622 3.60017 568.295 -0.971186C579.037 -5.57156 589.713 -10.1503 600.323 -14.701C710.022 -61.7491 812.719 -105.794 908.325 -139.661C1013.18 -176.803 1109.42 -201.669 1196.9 -204.833C1284.36 -207.996 1363.05 -189.471 1432.88 -139.847C1502.73 -90.2081 1563.83 -9.37496 1615.93 112.275Z" stroke="url(#paint11_linear_288_397)" stroke-width="2.41377"/>
<path d="M1633.95 181.672C1655.43 244.328 1671.94 294.387 1683.4 334.366C1694.87 374.361 1701.28 404.193 1702.59 426.419C1703.9 448.653 1700.11 463.04 1691.46 472.402C1682.79 481.787 1669 486.391 1649.66 488.454C1630.6 490.486 1606.37 490.02 1576.92 489.454C1486.93 487.724 1348.19 485.056 1159.25 549.833C1033.84 592.831 898.107 661.475 762.44 732.374C745.102 741.435 727.765 750.532 710.451 759.618C592.247 821.645 475.089 883.124 365.763 928.606C240.391 980.762 125.542 1011.78 31.3847 998.592C-15.6585 992.002 -57.5261 974.379 -92.982 942.835C-128.446 911.284 -157.561 865.748 -178.993 803.236C-221.9 678.088 -226.077 575.57 -200.505 489.503C-174.934 403.438 -119.571 333.677 -43.1262 274.123C103.141 160.173 326.3 83.7884 564.761 2.1658C575.687 -1.57387 586.644 -5.32453 597.628 -9.09031C608.682 -12.88 619.668 -16.653 630.588 -20.4028C743.479 -59.1713 849.164 -95.4653 947.021 -122.135C1054.35 -151.386 1152.16 -169.033 1239.65 -165.689C1327.1 -162.345 1404.19 -138.026 1470.14 -83.351C1536.11 -28.6607 1591.03 56.4877 1633.95 181.672Z" stroke="url(#paint12_linear_288_397)" stroke-width="2.41377"/>
<path d="M1647.53 257.637C1663.94 321.81 1676.39 373.029 1684.62 413.797C1692.86 454.581 1696.85 484.829 1696.39 507.088C1695.92 529.356 1690.99 543.394 1681.62 552.035C1672.22 560.697 1658.11 564.184 1638.66 564.694C1619.51 565.196 1595.39 562.794 1566.08 559.875C1476.52 550.956 1338.43 537.204 1144.92 586.667C1016.47 619.501 875.685 677.073 734.783 736.898C716.777 744.544 698.768 752.226 680.782 759.899C557.998 812.277 436.3 864.192 323.687 900.787C194.547 942.753 77.5852 964.49 -15.2159 943.816C-61.5818 933.486 -101.906 912.571 -134.727 878.294C-167.555 844.009 -192.936 796.291 -209.301 732.265C-242.065 604.088 -238.033 501.564 -205.661 417.817C-173.291 334.072 -112.528 268.961 -31.5664 215.709C123.343 113.818 351.895 55.5195 596.118 -6.7766C607.308 -9.6308 618.53 -12.4934 629.78 -15.3689C641.101 -18.2628 652.354 -21.1453 663.538 -24.0101C779.167 -53.6288 887.416 -81.3569 987.093 -100.118C1096.41 -120.694 1195.33 -130.464 1282.26 -120.136C1369.17 -109.812 1444.07 -79.4065 1505.44 -19.6335C1566.83 40.156 1614.76 129.423 1647.53 257.637Z" stroke="url(#paint13_linear_288_397)" stroke-width="2.41377"/>
<path d="M1654.64 328.538C1666.26 393.746 1674.9 445.745 1680.1 487.009C1685.3 528.29 1687.05 558.751 1684.94 580.915C1682.83 603.087 1676.88 616.723 1666.9 624.648C1656.89 632.593 1642.56 635.029 1623.13 634.101C1603.98 633.187 1580.11 629.012 1551.1 623.936C1462.44 608.429 1325.74 584.519 1129.11 619.561C998.583 642.821 853.934 689.842 709 739.101C690.478 745.396 671.952 751.728 653.45 758.051C527.133 801.222 401.933 844.01 286.926 872.191C155.04 904.508 36.7922 917.55 -54.2293 890.08C-99.7059 876.356 -138.376 852.521 -168.576 815.914C-198.783 779.298 -220.572 729.837 -232.166 664.777C-255.377 534.531 -243.786 432.585 -205.32 351.456C-166.855 270.33 -101.451 209.883 -16.778 162.753C145.232 72.5777 377.463 31.3127 625.62 -12.782C636.99 -14.8023 648.393 -16.8285 659.824 -18.8657C671.328 -20.9157 682.763 -22.9595 694.128 -24.9908C811.629 -45.9916 921.629 -65.6519 1022.42 -77.0025C1132.96 -89.4511 1232.33 -91.8915 1318.26 -75.1734C1404.17 -58.4608 1476.62 -22.6081 1533.41 41.5326C1590.21 105.691 1631.43 198.253 1654.64 328.538Z" stroke="url(#paint14_linear_288_397)" stroke-width="2.41377"/>
<path d="M1656.51 398.572C1663.37 464.452 1668.21 516.94 1670.4 558.474C1672.59 600.023 1672.13 630.531 1668.41 652.483C1664.7 674.444 1657.77 687.611 1647.24 694.791C1636.68 701.988 1622.21 703.377 1602.9 701.041C1583.87 698.74 1560.37 692.843 1531.79 685.675C1444.5 663.773 1309.9 630.002 1111.23 650.677C979.367 664.401 831.687 700.797 683.559 739.405C664.629 744.339 645.692 749.309 626.779 754.273C497.662 788.16 369.687 821.746 252.937 841.504C119.053 864.162 0.170822 868.586 -88.6163 834.581C-132.977 817.591 -169.815 791.012 -197.278 752.309C-224.747 713.597 -242.888 662.685 -249.728 596.956C-263.422 465.368 -244.462 364.532 -200.208 286.41C-155.955 208.29 -86.3353 152.75 1.53504 111.892C169.663 33.7147 404.278 9.41694 654.981 -16.547C666.467 -17.7366 677.987 -18.9296 689.536 -20.1315C701.159 -21.3411 712.712 -22.5494 724.195 -23.7503C842.909 -36.1659 954.047 -47.7891 1055.39 -51.7931C1166.55 -56.1844 1265.83 -51.405 1350.32 -28.4928C1434.79 -5.58813 1504.45 35.4299 1556.43 103.524C1608.43 171.636 1642.81 266.946 1656.51 398.572Z" stroke="url(#paint15_linear_288_397)" stroke-width="2.41377"/>
<path d="M1652.57 476.909C1654.05 543.129 1654.6 595.836 1653.41 637.41C1652.22 679 1649.28 709.369 1643.79 730.948C1638.31 752.534 1630.33 765.094 1619.25 771.395C1608.15 777.711 1593.61 777.919 1574.55 774.021C1555.77 770.182 1532.83 762.394 1504.93 752.928C1419.7 724.004 1288.29 679.408 1088.61 683.871C956.06 686.833 805.91 711.109 655.135 737.552C635.867 740.932 616.588 744.347 597.334 747.757C465.89 771.039 335.609 794.116 217.641 804.321C82.358 816.024 -36.4906 810.773 -122.221 769.665C-165.054 749.127 -199.61 719.642 -223.837 678.836C-248.07 638.02 -262.014 585.802 -263.49 519.734C-266.446 387.469 -239.354 288.507 -188.898 214.239C-138.444 139.974 -64.5412 90.2747 26.3588 56.692C200.284 -7.56412 436.097 -12.7165 688.081 -18.2222C699.626 -18.4745 711.205 -18.7275 722.813 -18.9869C734.495 -19.248 746.109 -19.5135 757.651 -19.7773C876.982 -22.5051 988.696 -25.0587 1090.03 -20.8138C1201.18 -16.1582 1299.74 -3.32687 1382.09 26.3755C1464.42 56.0683 1530.52 102.612 1576.79 174.704C1623.08 246.817 1649.61 344.605 1652.57 476.909Z" stroke="url(#paint16_linear_288_397)" stroke-width="2.41377"/>
<path d="M1639.73 568.658C1634.85 634.714 1630.34 687.232 1625.17 728.499C1619.99 769.783 1614.15 799.73 1606.62 820.682C1599.09 841.643 1589.94 853.38 1578.31 858.588C1566.65 863.809 1552.16 862.622 1533.56 856.914C1515.24 851.291 1493.15 841.337 1466.29 829.238C1384.23 792.27 1257.7 735.272 1058.51 720.555C926.293 710.787 774.506 720.544 621.89 732.4C602.386 733.915 582.869 735.464 563.376 737.012C430.305 747.575 298.411 758.045 180.008 756.885C44.2263 755.554 -73.5702 738.924 -154.961 689.781C-195.626 665.228 -227.194 632.564 -247.394 589.621C-267.599 546.669 -276.468 493.353 -271.599 427.449C-261.851 295.51 -225.389 199.604 -168.041 130.52C-110.693 61.4379 -32.3632 19.0589 61.3395 -5.6475C240.627 -52.9199 475.847 -35.4234 727.196 -16.7272C738.712 -15.8706 750.262 -15.0114 761.842 -14.1559C773.495 -13.295 785.081 -12.445 796.595 -11.6002C915.637 -2.8661 1027.08 5.3105 1127.54 19.2587C1237.73 34.5563 1334.61 56.7853 1413.73 94.252C1492.83 131.706 1554.15 184.377 1593.3 260.577C1632.46 336.798 1649.48 436.68 1639.73 568.658Z" stroke="url(#paint17_linear_288_397)" stroke-width="2.41377"/>
<path d="M1621.07 648.494C1610.59 713.897 1601.65 765.842 1592.98 806.521C1584.32 847.216 1575.96 876.559 1566.68 896.796C1557.39 917.041 1547.28 927.959 1535.25 932.161C1523.19 936.372 1508.85 933.959 1490.8 926.692C1473.03 919.533 1451.86 907.739 1426.12 893.402C1347.5 849.599 1226.27 782.06 1029.05 750.479C898.138 729.516 746.071 726.347 593 725.197C573.437 725.05 553.859 724.936 534.306 724.823C400.818 724.046 268.511 723.276 150.634 712.064C15.4565 699.206 -100.502 672.631 -177.425 616.753C-215.857 588.835 -244.537 553.608 -261.017 509.105C-277.501 464.591 -281.81 410.715 -271.361 345.462C-250.442 214.828 -205.967 122.366 -142.958 58.402C-79.9507 -5.55999 1.69585 -41.1332 97.1583 -57.7919C279.813 -89.6662 512.697 -52.2553 761.55 -12.279C772.952 -10.4474 784.387 -8.61044 795.852 -6.7745C807.39 -4.92692 818.862 -3.09602 830.263 -1.27635C948.133 17.5366 1058.48 35.1489 1157.4 57.5792C1265.88 82.1796 1360.52 112.556 1436.18 156.608C1511.81 200.645 1568.44 258.334 1600.97 337.583C1633.51 416.854 1641.99 517.821 1621.07 648.494Z" stroke="url(#paint18_linear_288_397)" stroke-width="2.41377"/>
<path d="M1595.79 726.195C1579.82 790.476 1566.51 841.478 1554.43 881.278C1542.36 921.093 1531.54 949.623 1520.58 969.002C1509.61 988.388 1498.62 998.411 1486.27 1001.58C1473.89 1004.76 1459.81 1001.14 1442.45 992.368C1425.34 983.73 1405.25 970.187 1380.82 953.723C1306.18 903.422 1191.11 825.864 997.266 777.703C868.598 745.734 717.346 729.705 564.921 715.603C545.441 713.801 525.943 712.03 506.469 710.262C373.527 698.189 241.76 686.223 125.255 665.073C-8.3495 640.819 -121.642 604.525 -193.559 542.336C-229.491 511.265 -255.086 473.736 -267.74 427.998C-280.397 382.249 -280.13 328.202 -264.195 264.067C-232.294 135.673 -180.152 47.3067 -111.955 -11.094C-43.7599 -69.4933 40.6047 -98.0278 137.135 -106.546C321.832 -122.846 550.713 -65.8568 795.29 -4.9599C806.495 -2.16982 817.734 0.628471 829.003 3.42828C840.343 6.24587 851.618 9.04118 862.824 11.8193C978.679 40.5419 1087.14 67.4311 1183.8 98.1535C1289.81 131.848 1381.55 170.127 1453.2 220.424C1524.83 270.705 1576.38 332.98 1602.09 414.699C1627.8 496.44 1627.7 597.762 1595.79 726.195Z" stroke="url(#paint19_linear_288_397)" stroke-width="2.41377"/>
<path d="M1560.42 809.032C1538.52 871.543 1520.51 921.081 1504.77 959.581C1489.03 998.096 1475.6 1025.49 1462.88 1043.76C1450.15 1062.04 1438.27 1071 1425.68 1073C1413.06 1075.01 1399.38 1070.09 1382.91 1059.74C1366.68 1049.54 1347.94 1034.18 1325.16 1015.51C1255.54 958.468 1148.2 870.513 959.697 804.479C834.573 760.646 685.475 730.576 535.031 702.316C515.805 698.705 496.557 695.123 477.334 691.545C346.096 667.123 216.02 642.916 101.996 610.99C-28.7633 574.378 -138.176 527.673 -203.978 459.046C-236.854 424.758 -258.837 385.006 -267.168 338.286C-275.502 291.556 -270.194 237.769 -248.346 175.401C-204.606 50.5427 -144.447 -32.5738 -71.0998 -84.3578C2.24594 -136.14 88.9046 -156.68 185.808 -156.156C371.221 -155.154 593.787 -77.0612 831.616 6.38672C842.513 10.21 853.441 14.0446 864.4 17.8834C875.428 21.7467 886.393 25.5817 897.291 29.3931C1009.96 68.7985 1115.44 105.689 1208.81 145.295C1311.22 188.733 1398.98 235.402 1465.63 292.164C1532.26 348.908 1577.77 415.721 1595.74 499.481C1613.72 583.265 1604.17 684.136 1560.42 809.032Z" stroke="url(#paint20_linear_288_397)" stroke-width="2.41377"/>
<path d="M1520.88 882.512C1493.66 942.896 1471.44 990.692 1452.44 1027.69C1433.43 1064.7 1417.68 1090.83 1403.42 1107.93C1389.16 1125.05 1376.55 1132.94 1363.84 1133.85C1351.09 1134.75 1337.89 1128.67 1322.37 1116.94C1307.09 1105.38 1289.74 1088.46 1268.66 1067.89C1204.23 1005.04 1104.9 908.134 922.807 826.054C801.939 771.57 655.999 728.725 508.56 687.567C489.717 682.308 470.851 677.075 452.008 671.85C323.374 636.175 195.877 600.817 85.0391 559.154C-42.0659 511.377 -147.032 455.39 -206.656 381.332C-236.446 344.331 -254.91 302.828 -259.172 255.563C-263.436 208.287 -253.499 155.161 -226.341 94.9143C-171.974 -25.6964 -104.856 -103.302 -27.3068 -148.552C50.2403 -193.802 138.35 -206.774 234.846 -197.877C419.478 -180.852 634.461 -83.8143 864.187 19.8778C874.713 24.6286 885.269 29.3934 895.855 34.1651C906.507 38.9671 917.1 43.7354 927.628 48.4746C1036.47 97.471 1138.37 143.34 1227.97 190.869C1326.24 242.996 1409.63 297.076 1471.13 359.386C1532.6 421.677 1572.17 492.173 1582.83 577.174C1593.5 662.197 1575.27 761.866 1520.88 882.512Z" stroke="url(#paint21_linear_288_397)" stroke-width="2.41377"/>
<path d="M1481.46 943.423C1449.77 1001.59 1424.02 1047.58 1402.29 1083.04C1380.55 1118.52 1362.88 1143.39 1347.38 1159.38C1331.88 1175.37 1318.71 1182.29 1305.96 1182.24C1293.18 1182.19 1280.48 1175.13 1265.88 1162.26C1251.51 1149.59 1235.49 1131.41 1216.01 1109.31C1156.49 1041.8 1064.72 937.699 889.317 842.162C772.888 778.746 630.581 725.051 486.653 672.925C468.26 666.264 449.84 659.628 431.444 653C305.855 607.756 181.377 562.913 73.9852 513.036C-49.1683 455.838 -149.629 392.118 -203.516 313.788C-230.44 274.652 -245.731 231.878 -246.429 184.426C-247.126 136.964 -233.223 84.7345 -201.613 26.7005C-138.332 -89.4817 -65.5699 -161.822 15.1615 -201.114C95.8909 -240.406 184.726 -246.718 280.28 -230.591C463.11 -199.734 670.19 -86.8086 891.471 33.8605C901.609 39.3891 911.777 44.934 921.974 50.4881C932.236 56.0773 942.44 61.6285 952.581 67.1457C1057.43 124.186 1155.59 177.586 1241.37 231.716C1335.44 291.083 1414.53 351.28 1471.17 418.037C1527.79 484.773 1561.94 558.044 1566.19 643.606C1570.43 729.191 1544.76 827.206 1481.46 943.423Z" stroke="url(#paint22_linear_288_397)" stroke-width="2.41377"/>
<path d="M1424.84 1016.38C1387.74 1071.25 1357.7 1114.57 1332.68 1147.79C1307.64 1181.02 1287.68 1204.09 1270.72 1218.52C1253.76 1232.96 1239.99 1238.59 1227.3 1237.32C1214.59 1236.04 1202.61 1227.8 1189.32 1213.6C1176.23 1199.61 1162.01 1179.98 1144.74 1156.12C1091.95 1083.22 1010.56 970.825 845.096 858.949C735.265 784.688 598.747 717.628 460.465 651.975C442.793 643.585 425.092 635.218 407.414 626.861C286.728 569.813 167.11 513.269 64.9811 453.349C-52.1373 384.635 -146.042 311.598 -192.191 228.473C-215.248 186.942 -226.379 142.901 -222.534 95.6004C-218.689 48.2888 -199.854 -2.37119 -162.839 -57.1159C-88.7352 -166.713 -9.38753 -231.762 74.7319 -263.153C158.849 -294.543 247.881 -292.329 341.454 -267.137C520.495 -218.935 715.825 -86.7209 924.549 54.5593C934.112 61.0323 943.704 67.5243 953.323 74.0282C963.003 80.5733 972.629 87.075 982.197 93.5369C1081.11 160.344 1173.71 222.888 1253.92 284.973C1341.88 353.066 1414.86 420.552 1464.85 492.42C1514.82 564.265 1541.81 640.467 1537.85 726.043C1533.89 811.642 1498.96 906.752 1424.84 1016.38Z" stroke="url(#paint23_linear_288_397)" stroke-width="2.41377"/>
<path d="M1367.64 1077.61C1325.91 1129.06 1292.23 1169.6 1264.42 1200.53C1236.6 1231.46 1214.7 1252.71 1196.56 1265.62C1178.41 1278.52 1164.2 1282.94 1151.67 1280.57C1139.12 1278.2 1127.9 1268.95 1115.89 1253.65C1104.06 1238.57 1091.61 1217.78 1076.47 1192.51C1030.2 1115.31 958.875 996.271 803.75 870.455C700.78 786.941 570.597 708.285 438.536 630.877C421.659 620.985 404.751 611.112 387.865 601.253C272.587 533.945 158.328 467.231 61.7856 398.673C-48.9263 320.052 -136.138 239.14 -174.897 152.323C-194.262 108.947 -201.527 64.106 -193.592 17.3176C-185.654 -29.4816 -162.493 -78.3155 -120.866 -129.641C-37.529 -232.392 47.1654 -290.308 133.692 -314.279C220.216 -338.249 308.72 -328.316 399.754 -295.096C573.934 -231.536 757.051 -82.8661 952.725 75.9982C961.69 83.2769 970.681 90.5769 979.699 97.8911C988.775 105.252 997.8 112.565 1006.77 119.832C1099.51 194.973 1186.34 265.318 1260.85 334.132C1342.57 409.603 1409.41 483.168 1452.98 559.104C1496.53 635.015 1516.8 713.273 1505.43 798.182C1494.05 883.114 1451 974.833 1367.64 1077.61Z" stroke="url(#paint24_linear_288_397)" stroke-width="2.41377"/>
<path d="M1304.14 1134.64C1258.04 1182.19 1220.9 1219.6 1190.46 1247.94C1160.02 1276.3 1136.33 1295.53 1117.11 1306.78C1097.89 1318.03 1083.35 1321.17 1071.08 1317.71C1058.79 1314.23 1048.43 1304.03 1037.82 1287.72C1027.37 1271.66 1016.8 1249.85 1003.95 1223.35C964.698 1142.35 904.172 1017.48 760.775 878.441C665.591 786.151 542.872 696.295 418.17 607.516C402.233 596.17 386.264 584.842 370.316 573.529C261.439 496.293 153.525 419.741 63.4209 342.917C-39.9076 254.817 -119.625 166.512 -150.558 76.6087C-166.013 31.6906 -169.286 -13.617 -157.245 -59.5206C-145.202 -105.435 -117.815 -152.03 -71.8131 -199.475C20.2804 -294.457 109.763 -344.66 198.07 -360.887C286.374 -377.115 373.654 -359.397 461.394 -318.26C629.274 -239.551 798.532 -75.2765 979.396 100.263C987.683 108.306 995.994 116.372 1004.33 124.455C1012.72 132.589 1021.06 140.671 1029.36 148.703C1115.09 231.749 1195.36 309.493 1263.5 384.624C1338.23 467.023 1398.3 546.209 1434.98 625.699C1471.65 705.163 1484.93 784.907 1466.1 868.478C1447.26 952.072 1396.26 1039.63 1304.14 1134.64Z" stroke="url(#paint25_linear_288_397)" stroke-width="2.41377"/>
<path d="M1230.12 1189.71C1179.68 1232.64 1139.14 1266.33 1106.13 1291.63C1073.11 1316.95 1047.7 1333.83 1027.5 1343.19C1007.29 1352.56 992.51 1354.29 980.631 1349.67C968.723 1345.04 959.39 1333.9 950.388 1316.65C941.52 1299.66 933.082 1276.94 922.826 1249.33C891.489 1164.96 843.172 1034.87 713.718 882.765C627.788 781.802 514.216 680.63 398.568 580.342C383.789 567.525 368.975 554.723 354.181 541.937C253.183 454.651 153.077 368.138 70.7265 283.055C-23.7108 185.485 -94.6253 89.9666 -116.826 -2.48134C-127.918 -48.6707 -126.847 -94.0837 -110.475 -138.627C-94.0991 -183.18 -62.3849 -226.945 -12.0603 -269.777C88.6879 -355.524 182.558 -396.947 272.012 -404.662C361.463 -412.377 446.65 -386.4 530.058 -337.068C689.648 -242.677 842.434 -62.9807 1005.7 129.038C1013.18 137.836 1020.68 146.66 1028.21 155.502C1035.78 164.4 1043.31 173.243 1050.8 182.031C1128.21 272.889 1200.68 357.947 1261.32 439.245C1327.84 528.409 1380.07 612.973 1408.99 695.604C1437.9 778.208 1443.5 858.856 1416.76 940.245C1390.02 1021.66 1330.9 1103.94 1230.12 1189.71Z" stroke="url(#paint26_linear_288_397)" stroke-width="2.41377"/>
<path d="M1154.21 1235.81C1100.03 1273.91 1056.56 1303.73 1021.37 1325.89C986.164 1348.07 959.303 1362.54 938.326 1370C917.341 1377.46 902.467 1377.83 891.064 1372.14C879.633 1366.43 871.365 1354.48 863.986 1336.48C856.719 1318.74 850.407 1295.35 842.734 1266.91C819.291 1180.01 783.146 1046.03 668.231 882.662C591.953 774.223 488.169 663.033 382.236 552.531C368.698 538.41 355.125 524.299 341.57 510.207C249.029 414 157.306 318.645 83.1307 226.348C-1.9312 120.505 -63.7587 18.8683 -77.3613 -75.2298C-84.1575 -122.244 -78.9136 -167.366 -58.5138 -210.214C-38.1092 -253.072 -2.50364 -293.734 51.5475 -331.755C159.756 -407.872 257.039 -440.484 346.823 -439.938C436.604 -439.392 519.04 -405.689 597.557 -348.894C747.788 -240.223 883.397 -47.2344 1028.3 158.988C1034.94 168.437 1041.6 177.913 1048.28 187.41C1055.01 196.968 1061.69 206.466 1068.34 215.905C1137.06 313.498 1201.4 404.862 1254.31 491.394C1312.34 586.298 1356.58 675.309 1377.77 760.249C1398.96 845.163 1397.12 925.983 1363.01 1004.57C1328.89 1083.17 1262.45 1159.67 1154.21 1235.81Z" stroke="url(#paint27_linear_288_397)" stroke-width="2.41377"/>
<path d="M1062.26 1279.86C1004.37 1312.03 957.995 1337.09 920.659 1355.42C883.308 1373.75 855.069 1385.31 833.422 1390.51C811.767 1395.72 796.937 1394.52 786.198 1387.65C775.433 1380.77 768.473 1368.01 763.037 1349.33C757.682 1330.93 753.875 1306.99 749.247 1277.9C735.108 1189.02 713.308 1051.97 616.28 877.385C551.875 761.499 460.409 639.975 366.733 518.909C354.761 503.437 342.753 487.972 330.761 472.528C248.893 367.09 167.749 262.585 103.731 162.974C30.3172 48.7426 -20.436 -58.8525 -24.0295 -153.861C-25.8248 -201.329 -15.8471 -245.646 8.9619 -286.101C33.7767 -326.566 73.4757 -363.242 131.238 -395.345C246.877 -459.614 347.059 -481.774 436.284 -471.754C525.506 -461.734 603.924 -419.517 676.006 -354.75C813.927 -230.828 928.406 -24.6025 1050.73 195.765C1056.34 205.861 1061.96 215.987 1067.6 226.137C1073.28 236.35 1078.93 246.501 1084.54 256.59C1142.58 360.892 1196.91 458.537 1240.39 550.171C1288.08 650.67 1322.67 743.853 1334.78 830.557C1346.89 917.232 1336.52 997.407 1294.31 1071.95C1252.09 1146.52 1177.94 1215.57 1062.26 1279.86Z" stroke="url(#paint28_linear_288_397)" stroke-width="2.41377"/>
<path d="M976.378 1310.87C915.699 1337.43 867.165 1357.99 828.263 1372.7C789.346 1387.42 760.141 1396.25 738.098 1399.39C716.047 1402.53 701.397 1399.93 691.356 1392.08C681.29 1384.21 675.569 1370.84 671.923 1351.73C668.332 1332.91 666.806 1308.72 664.95 1279.32C659.281 1189.5 650.539 1051 570.457 868.026C517.3 746.57 437.736 616.94 355.93 487.557C345.476 471.023 334.985 454.492 324.507 437.984C252.977 325.276 182.079 213.564 127.768 108.344C65.487 -12.3176 25.1368 -124.23 30.5446 -219.153C33.2465 -266.578 47.3706 -309.752 75.8944 -347.68C104.425 -385.617 147.414 -418.375 207.954 -444.871C329.153 -497.915 430.981 -510.502 518.859 -492.088C606.733 -473.675 680.807 -424.231 746.442 -352.938C872.024 -216.528 966.487 -0.39961 1067.43 230.549C1072.05 241.13 1076.69 251.743 1081.35 262.38C1086.03 273.085 1090.69 283.724 1095.33 294.298C1143.24 403.622 1188.1 505.968 1222.72 601.303C1260.69 705.862 1286.31 801.899 1290.17 889.359C1294.02 976.791 1276.12 1055.63 1227.05 1125.84C1177.96 1196.08 1097.61 1257.81 976.378 1310.87Z" stroke="url(#paint29_linear_288_397)" stroke-width="2.41377"/>
<path d="M883.345 1334.57C820.326 1354.96 769.989 1370.6 729.817 1381.37C689.629 1392.15 659.691 1398.03 637.446 1398.96C615.192 1399.89 600.873 1395.85 591.662 1387.04C582.429 1378.2 578.064 1364.34 576.336 1344.96C574.635 1325.87 575.52 1301.65 576.597 1272.22C579.885 1182.27 584.956 1043.59 523.462 853.563C482.643 727.423 416.361 590.525 347.822 453.65C339.064 436.158 330.268 418.667 321.484 401.199C261.513 281.938 202.073 163.731 158.492 53.6333C108.515 -72.6229 79.4904 -187.993 94.3083 -281.907C101.712 -328.829 120.058 -370.385 152.211 -405.289C184.372 -440.201 230.405 -468.523 293.279 -488.869C419.151 -529.601 521.726 -532.002 607.337 -504.943C692.946 -477.885 761.738 -421.322 819.959 -343.857C931.358 -195.637 1003.87 28.8109 1081.35 268.65C1084.9 279.639 1088.46 290.66 1092.03 301.707C1095.63 312.825 1099.21 323.875 1102.77 334.858C1139.58 448.403 1174.04 554.702 1199.01 653.006C1226.39 760.822 1242.34 858.931 1237.48 946.341C1232.63 1033.72 1206.98 1110.39 1151.17 1175.38C1095.34 1240.39 1009.25 1293.83 883.345 1334.57Z" stroke="url(#paint30_linear_288_397)" stroke-width="2.41377"/>
<path d="M808.542 1346.66C744.116 1362.05 692.706 1373.68 651.813 1381.27C610.904 1388.85 580.595 1392.37 558.346 1391.55C536.089 1390.73 522.131 1385.57 513.64 1376.07C505.128 1366.54 501.866 1352.38 501.665 1332.92C501.467 1313.76 504.251 1289.68 507.635 1260.42C517.975 1171.01 533.918 1033.16 487.532 838.889C456.742 709.934 401.412 568.255 343.831 426.422C336.472 408.296 329.077 390.167 321.691 372.063C271.268 248.462 221.291 125.955 186.489 12.7757C146.578 -117.014 126.701 -234.307 148.846 -326.768C159.91 -372.964 181.462 -412.951 216.256 -445.223C251.059 -477.503 299.173 -502.123 363.451 -517.47C492.132 -548.195 594.579 -542.536 677.801 -508.839C761.022 -475.143 825.16 -413.355 877.12 -331.558C976.539 -175.05 1031.2 54.3981 1089.61 299.58C1092.29 310.813 1094.97 322.08 1097.67 333.374C1100.38 344.739 1103.09 356.037 1105.77 367.265C1133.55 483.35 1159.56 592.025 1176.74 691.987C1195.57 801.62 1203.77 900.678 1192.07 987.436C1180.36 1074.17 1148.77 1148.58 1088.03 1208.99C1027.28 1269.42 937.26 1315.93 808.542 1346.66Z" stroke="url(#paint31_linear_288_397)" stroke-width="2.41377"/>
<path d="M738.717 1352.59C673.345 1363.26 621.226 1371.13 579.89 1375.72C538.537 1380.32 508.054 1381.63 485.923 1379.19C463.784 1376.76 450.237 1370.6 442.459 1360.51C434.662 1350.38 432.436 1336.02 433.648 1316.6C434.843 1297.48 439.367 1273.67 444.867 1244.73C461.672 1156.31 487.582 1019.98 455.425 822.848C434.08 691.998 389.183 546.675 342.052 401.036C336.029 382.423 329.969 363.806 323.918 345.212C282.603 218.277 241.653 92.4643 215.16 -22.9432C184.779 -155.289 173.471 -273.715 202.271 -364.324C216.661 -409.594 241.06 -447.911 278.105 -477.572C315.16 -507.239 364.935 -528.301 430.157 -538.94C560.729 -560.24 662.495 -547.157 743.051 -507.507C823.605 -467.857 883.088 -401.574 928.972 -316.22C1016.76 -152.907 1054.62 79.9044 1095.08 328.68C1096.93 340.078 1098.79 351.51 1100.66 362.97C1102.54 374.503 1104.42 385.967 1106.28 397.36C1125.56 515.156 1143.6 625.432 1153.48 726.377C1164.3 837.089 1165.29 936.481 1147.31 1022.16C1129.34 1107.81 1092.43 1179.74 1027.47 1235.58C962.484 1291.43 869.328 1331.29 738.717 1352.59Z" stroke="url(#paint32_linear_288_397)" stroke-width="2.41377"/>
<path d="M676.37 1353.59C610.446 1360.01 557.927 1364.5 516.38 1366.41C474.817 1368.33 444.313 1367.66 422.386 1363.8C400.45 1359.94 387.33 1352.92 380.22 1342.35C373.093 1331.74 371.8 1317.26 374.265 1297.96C376.693 1278.95 382.746 1255.49 390.105 1226.97C412.587 1139.82 447.253 1005.44 427.901 806.648C415.056 674.692 379.644 526.773 342.022 378.392C337.215 359.429 332.371 340.459 327.533 321.513C294.507 192.173 261.773 63.9776 242.793 -52.9006C221.027 -186.933 217.395 -305.842 251.99 -394.401C269.275 -438.647 296.098 -475.307 334.983 -502.512C373.877 -529.723 424.909 -547.524 490.683 -553.927C622.358 -566.745 723.066 -547.113 800.892 -502.34C878.715 -457.568 933.791 -387.58 974.063 -299.44C1051.12 -130.795 1073.85 103.976 1098.15 354.847C1099.26 366.341 1100.38 377.869 1101.5 389.425C1102.63 401.055 1103.77 412.617 1104.89 424.107C1116.52 542.902 1127.4 654.114 1130.73 755.486C1134.38 866.666 1128.94 965.914 1105.46 1050.25C1082 1134.56 1040.52 1203.95 972.079 1255.48C903.621 1307.02 808.085 1340.77 676.37 1353.59Z" stroke="url(#paint33_linear_288_397)" stroke-width="2.41377"/>
<path d="M598.179 1349.14C531.951 1350.18 479.241 1350.4 437.676 1348.93C396.095 1347.47 365.745 1344.33 344.203 1338.7C322.653 1333.08 310.145 1325.02 303.917 1313.9C297.674 1302.75 297.56 1288.21 301.583 1269.18C305.545 1250.43 313.482 1227.53 323.131 1199.7C352.611 1114.66 398.065 983.545 394.907 783.836C392.81 651.273 369.516 500.968 344.059 350.024C340.805 330.734 337.517 311.434 334.232 292.159C311.809 160.565 289.585 30.1353 280.15 -87.8981C269.331 -223.254 275.359 -342.066 317.026 -427.526C337.843 -470.224 367.553 -504.587 408.517 -528.547C449.491 -552.512 501.799 -566.114 567.875 -567.159C700.157 -569.251 798.94 -541.513 872.876 -490.573C946.81 -439.634 996.025 -365.408 1029.01 -274.291C1092.13 -99.9495 1095.74 135.892 1099.6 387.907C1099.78 399.453 1099.96 411.033 1100.14 422.643C1100.32 434.327 1100.51 445.942 1100.7 457.486C1102.65 576.832 1104.47 688.561 1099.57 789.869C1094.19 900.978 1080.71 999.457 1050.47 1081.61C1020.24 1163.74 973.266 1229.54 900.873 1275.34C828.459 1321.16 730.499 1347.04 598.179 1349.14Z" stroke="url(#paint34_linear_288_397)" stroke-width="2.41377"/>
<path d="M492.579 1332.86C426.642 1326.57 374.232 1320.95 333.083 1314.9C291.919 1308.85 262.103 1302.37 241.316 1294.4C220.52 1286.42 208.981 1277.03 204.021 1265.28C199.049 1253.52 200.544 1239.06 206.647 1220.58C212.659 1202.39 223.081 1180.51 235.749 1153.91C274.454 1072.66 334.133 947.373 353.085 748.541C365.665 616.559 359.14 464.599 350.535 311.765C349.435 292.234 348.302 272.688 347.17 253.167C339.441 119.901 331.78 -12.186 335.46 -130.538C339.679 -266.26 358.813 -383.676 409.677 -464.003C435.09 -504.136 468.418 -535.001 511.781 -554.283C555.154 -573.569 608.646 -581.302 674.432 -575.031C806.133 -562.478 901.242 -523.983 969.09 -465.177C1036.94 -406.373 1077.64 -327.159 1100.34 -232.951C1143.79 -52.6982 1121.29 182.096 1097.25 432.99C1096.15 444.486 1095.05 456.014 1093.94 467.574C1092.83 479.206 1091.74 490.771 1090.65 502.264C1079.38 621.094 1068.84 732.338 1052.75 832.482C1035.11 942.314 1010.83 1038.7 971.687 1117.01C932.557 1195.29 878.594 1255.48 801.578 1293C724.541 1330.52 624.319 1345.41 492.579 1332.86Z" stroke="url(#paint35_linear_288_397)" stroke-width="2.41377"/>
<path d="M417.654 1313.85C352.432 1302.3 300.64 1292.5 260.109 1283.18C219.562 1273.85 190.36 1265 170.278 1255.39C150.188 1245.77 139.438 1235.49 135.434 1223.39C131.421 1211.26 134.069 1196.96 141.632 1179.04C149.082 1161.38 161.222 1140.41 175.979 1114.91C221.067 1037.02 290.587 916.914 325.401 720.238C348.51 589.688 354.176 437.693 357.838 284.661C358.306 265.104 358.741 245.53 359.176 225.982C362.144 92.525 365.085 -39.7514 378.231 -157.429C393.306 -292.377 421.781 -407.884 478.914 -483.879C507.46 -521.848 543.153 -549.945 587.921 -565.693C632.699 -581.444 686.638 -584.867 751.711 -573.349C881.984 -550.289 973.704 -504.301 1036.62 -440.251C1099.54 -376.202 1133.77 -293.983 1148.86 -198.26C1177.73 -15.1061 1136.5 217.132 1092.45 465.296C1090.43 476.666 1088.4 488.069 1086.38 499.503C1084.34 511.009 1082.33 522.449 1080.32 533.818C1059.57 651.364 1040.15 761.407 1016.1 859.94C989.723 968.007 957.796 1062.14 912.509 1137.06C867.236 1211.96 808.626 1267.63 728.853 1298.86C649.058 1330.1 547.965 1336.91 417.654 1313.85Z" stroke="url(#paint36_linear_288_397)" stroke-width="2.41377"/>
<path d="M340.191 1287.23C276.184 1270.19 225.41 1256.03 185.816 1243.3C146.207 1230.56 117.861 1219.27 98.6676 1207.99C79.4663 1196.7 69.6272 1185.54 66.6649 1173.14C63.6955 1160.72 67.5469 1146.7 76.6036 1129.48C85.5246 1112.52 99.4004 1092.65 116.267 1068.5C167.803 994.712 247.263 880.941 298.64 687.928C332.743 559.81 351.285 408.844 367.919 256.675C370.045 237.228 372.139 217.762 374.231 198.32C388.512 65.5967 402.667 -65.953 425.751 -182.09C452.222 -315.273 490.395 -427.947 553.771 -498.82C585.435 -534.23 623.384 -559.198 669.326 -571.089C715.279 -582.984 769.315 -581.819 833.175 -564.82C961.022 -530.789 1048.51 -477.185 1105.77 -408.027C1163.03 -338.87 1190.15 -254.043 1197.07 -157.385C1210.29 27.5582 1149.51 255.461 1084.55 498.991C1081.58 510.149 1078.59 521.339 1075.6 532.56C1072.6 543.852 1069.62 555.079 1066.65 566.237C1036.01 681.598 1007.32 789.597 974.994 885.734C939.542 991.173 899.743 1082.25 848.262 1153.06C796.798 1223.85 733.674 1274.35 651.539 1298.7C569.382 1323.05 468.075 1321.27 340.191 1287.23Z" stroke="url(#paint37_linear_288_397)" stroke-width="2.41377"/>
<path d="M275.519 1259.11C212.928 1237.44 163.325 1219.61 124.767 1204.02C86.1947 1188.42 58.7493 1175.09 40.4313 1162.44C22.106 1149.78 13.1087 1137.93 11.0602 1125.35C9.00671 1112.74 13.8719 1099.04 24.1626 1082.53C34.2991 1066.26 49.5895 1047.46 68.176 1024.61C124.965 954.785 212.526 847.123 277.869 658.381C321.242 533.097 350.765 383.89 378.474 233.342C382.015 214.103 385.526 194.841 389.033 175.605C412.974 44.2798 436.703 -85.8841 468.211 -200.024C504.343 -330.917 550.647 -440.5 619.032 -506.553C653.198 -539.555 692.87 -561.683 739.559 -570.186C786.258 -578.691 840.064 -573.58 902.512 -551.961C1027.53 -508.68 1110.87 -448.826 1162.92 -375.669C1214.97 -302.513 1235.83 -215.931 1235.66 -119.026C1235.34 66.389 1158.06 289.241 1075.49 527.374C1071.7 538.284 1067.91 549.227 1064.11 560.199C1060.29 571.241 1056.49 582.22 1052.72 593.132C1013.73 705.946 977.225 811.559 937.962 905.078C894.9 1007.64 848.553 1095.57 792.035 1162.43C735.536 1229.27 668.891 1275.03 585.197 1293.3C501.48 1311.59 400.574 1302.41 275.519 1259.11Z" stroke="url(#paint38_linear_288_397)" stroke-width="2.41377"/>
<path d="M194.289 1215.31C134.056 1187.76 86.3835 1165.27 49.4927 1146.07C12.5876 1126.85 -13.458 1110.96 -30.4827 1096.61C-47.5141 1082.26 -55.3376 1069.6 -56.1744 1056.89C-57.0132 1044.14 -50.861 1030.97 -39.0394 1015.51C-27.3949 1000.29 -10.3777 983.041 10.308 962.069C73.5111 897.991 170.961 799.191 254.044 617.558C309.193 496.993 352.842 351.291 394.812 204.081C400.176 185.268 405.512 166.431 410.841 147.618C447.224 19.1819 483.285 -108.119 525.558 -218.725C574.035 -345.565 630.601 -450.221 704.986 -509.436C742.15 -539.021 783.755 -557.256 831.043 -561.258C878.341 -565.261 931.412 -555.031 991.508 -527.542C1111.82 -472.51 1189.05 -404.965 1233.87 -327.168C1278.69 -249.372 1291.18 -161.192 1281.75 -64.7472C1263.71 119.788 1165.49 334.234 1060.53 563.384C1055.72 573.883 1050.9 584.413 1046.07 594.972C1041.21 605.598 1036.38 616.165 1031.58 626.666C981.989 735.237 935.559 836.878 887.537 926.216C834.869 1024.2 780.33 1107.29 717.681 1168.44C655.053 1229.57 584.339 1268.75 499.281 1278.95C414.2 1289.15 314.634 1270.36 194.289 1215.31Z" stroke="url(#paint39_linear_288_397)" stroke-width="2.41377"/>
<path d="M122.437 1167.51C64.9074 1134.68 19.4365 1108.02 -15.5896 1085.59C-50.6293 1063.16 -75.1499 1045 -90.8238 1029.19C-106.504 1013.37 -113.165 1000.06 -112.861 987.321C-112.557 974.548 -105.252 961.98 -92.0963 947.647C-79.1378 933.528 -60.6463 917.866 -38.1687 898.827C30.5098 840.655 136.402 750.963 235.389 577.484C301.096 462.331 357.595 321.115 412.557 178.246C419.581 159.988 426.58 141.704 433.569 123.443C481.288 -1.22691 528.586 -124.794 580.577 -231.179C640.199 -353.177 705.894 -452.357 785.275 -504.685C824.935 -530.83 868.004 -545.272 915.46 -545.031C962.927 -544.789 1014.87 -529.856 1072.27 -497.105C1187.18 -431.538 1258.06 -357.359 1295.75 -275.866C1333.44 -194.376 1337.99 -105.432 1319.98 -10.2164C1285.51 171.967 1168.51 376.773 1043.49 595.624C1037.76 605.651 1032.02 615.707 1026.26 625.793C1020.47 635.942 1014.72 646.034 1009 656.065C949.9 759.767 894.569 856.85 838.753 941.537C777.537 1034.42 715.788 1112.31 647.923 1167.61C580.081 1222.9 506.148 1255.6 420.519 1258.15C334.867 1260.7 237.378 1233.09 122.437 1167.51Z" stroke="url(#paint40_linear_288_397)" stroke-width="2.41377"/>
<path d="M56.9563 1115.05C2.49749 1077.35 -40.4842 1046.84 -73.4287 1021.45C-106.386 996.055 -129.236 975.836 -143.476 958.721C-157.722 941.6 -163.201 927.767 -161.792 915.099C-160.378 902.401 -152.009 890.516 -137.657 877.38C-123.521 864.441 -103.738 850.445 -79.6908 833.432C-6.21668 781.449 107.07 701.299 220.759 537.079C296.225 428.073 364.783 292.301 431.954 154.75C440.538 137.171 449.1 119.563 457.65 101.978C516.023 -18.0718 573.88 -137.06 634.921 -238.524C704.92 -354.879 778.986 -447.974 862.614 -493.205C904.396 -515.804 948.557 -526.449 995.813 -522.084C1043.08 -517.718 1093.53 -498.327 1147.86 -460.711C1256.64 -385.406 1320.81 -305.347 1351.27 -220.888C1381.73 -136.43 1378.54 -47.4276 1352.32 45.8627C1302.15 224.361 1167.79 418.225 1024.23 625.382C1017.65 634.873 1011.05 644.392 1004.44 653.939C997.79 663.546 991.183 673.1 984.616 682.596C916.724 780.769 853.166 872.677 790.201 952.193C721.144 1039.4 652.859 1111.63 580.445 1160.83C508.055 1210.01 431.56 1236.16 346.033 1231.26C260.483 1226.36 165.763 1190.38 56.9563 1115.05Z" stroke="url(#paint41_linear_288_397)" stroke-width="2.41377"/>
<path d="M-17.9271 1041.98C-67.9813 998.599 -107.405 963.611 -137.406 934.805C-167.418 905.989 -187.943 883.413 -200.245 864.857C-212.553 846.293 -216.502 831.948 -213.728 819.507C-210.948 807.037 -201.34 796.128 -185.65 784.624C-170.195 773.293 -149.012 761.522 -123.264 747.214C-44.5907 703.496 76.7112 636.089 207.521 485.152C294.351 384.962 377.213 257.415 458.889 127.95C469.327 111.404 479.745 94.8276 490.15 78.2724C561.184 -34.7481 631.59 -146.769 703.263 -241.023C785.454 -349.111 869.169 -433.636 957.204 -469.541C1001.19 -487.481 1046.24 -493.279 1092.75 -483.821C1139.26 -474.361 1187.32 -449.619 1237.25 -406.339C1337.23 -319.694 1392.35 -233.155 1413.49 -145.892C1434.62 -58.6314 1421.81 29.5012 1385.63 119.402C1316.42 291.416 1161.86 469.584 996.694 659.97C989.127 668.693 981.538 677.441 973.933 686.216C966.28 695.046 958.677 703.829 951.12 712.557C872.993 802.798 799.852 887.28 728.644 959.507C650.547 1038.72 574.84 1103.13 497.523 1144.19C420.231 1185.24 341.353 1202.95 256.861 1188.82C172.345 1174.68 82.0796 1128.65 -17.9271 1041.98Z" stroke="url(#paint42_linear_288_397)" stroke-width="2.41377"/>
<path d="M-68.8382 981.842C-115.184 934.522 -151.62 896.432 -179.17 865.274C-206.729 834.103 -225.343 809.927 -236.09 790.429C-246.841 770.922 -249.606 756.303 -245.826 744.13C-242.036 731.928 -231.57 721.84 -214.994 711.656C-198.665 701.623 -176.593 691.621 -149.762 679.462C-67.7829 642.312 58.6166 585.032 201.311 445.276C296.029 352.508 389.026 232.151 480.998 109.785C492.751 94.1468 504.488 78.4759 516.21 62.8253C596.233 -44.0196 675.548 -149.92 754.675 -238.009C845.415 -339.026 935.75 -416.435 1026.42 -445.035C1071.72 -459.324 1117.1 -461.426 1162.68 -448.203C1208.27 -434.977 1254.14 -406.395 1300.38 -359.183C1392.95 -264.666 1440.82 -173.917 1454.76 -85.2199C1468.71 3.47453 1448.74 90.2669 1405.35 176.915C1322.33 342.705 1153.73 507.662 973.58 683.93C965.326 692.006 957.048 700.106 948.752 708.231C940.404 716.407 932.109 724.539 923.865 732.622C838.633 816.185 758.84 894.414 681.974 960.587C597.671 1033.16 516.959 1091.17 436.548 1125.79C356.163 1160.39 276.103 1171.61 193.046 1150.62C109.967 1129.63 23.76 1076.39 -68.8382 981.842Z" stroke="url(#paint43_linear_288_397)" stroke-width="2.41377"/>
<path d="M-108.333 927.303C-151.264 876.863 -184.954 836.324 -210.262 803.32C-235.579 770.302 -252.461 744.886 -261.821 724.685C-271.185 704.476 -272.922 689.699 -268.302 677.82C-263.671 665.913 -252.527 656.579 -235.279 647.576C-218.291 638.708 -195.574 630.27 -167.96 620.013C-83.589 588.674 46.4992 540.353 198.597 410.894C299.558 324.962 400.727 211.387 501.012 95.7366C513.828 80.9571 526.629 66.1439 539.414 51.3498C626.698 -49.6514 713.209 -149.759 798.29 -232.113C895.858 -326.553 991.374 -397.47 1083.82 -419.673C1130.01 -430.767 1175.42 -429.697 1219.97 -413.326C1264.52 -396.951 1308.29 -365.238 1351.12 -314.915C1436.87 -214.169 1478.29 -120.3 1486.01 -30.8467C1493.73 58.6044 1467.76 143.792 1418.43 227.201C1324.04 386.795 1144.35 539.585 952.332 702.853C943.535 710.334 934.711 717.836 925.869 725.362C916.971 732.936 908.129 740.47 899.341 747.957C808.485 825.369 723.428 897.84 642.132 958.489C552.971 1025.01 468.408 1077.24 385.777 1106.16C303.174 1135.07 222.526 1140.67 141.136 1113.94C59.7242 1087.2 -22.5576 1028.08 -108.333 927.303Z" stroke="url(#paint44_linear_288_397)" stroke-width="2.41377"/>
<path d="M-147.381 864.08C-186.301 810.485 -216.769 767.472 -239.461 732.617C-262.162 697.749 -277.036 671.108 -284.813 650.247C-292.594 629.377 -293.188 614.51 -287.667 603.022C-282.133 591.506 -270.303 583.059 -252.414 575.41C-234.793 567.876 -211.494 561.212 -183.173 553.112C-96.6389 528.361 36.7834 490.2 198.397 372.835C305.674 294.931 415.287 189.482 524.178 81.8959C538.094 68.1466 551.999 54.3625 565.885 40.5963C660.685 -53.3847 754.647 -146.535 845.815 -222.093C950.364 -308.741 1051.06 -372.094 1144.94 -387.113C1191.85 -394.617 1237.04 -390.054 1280.19 -370.303C1323.35 -350.547 1364.55 -315.558 1403.38 -262.086C1481.12 -155.038 1515.19 -58.2578 1516 31.5241C1516.81 121.304 1484.35 204.239 1428.75 283.603C1322.35 435.455 1131.43 573.958 927.416 721.958C918.069 728.739 908.694 735.54 899.299 742.363C889.844 749.229 880.448 756.059 871.11 762.848C774.564 833.035 684.18 898.742 598.456 952.952C504.438 1012.41 416.104 1057.98 331.492 1080.45C246.908 1102.92 166.069 1102.29 86.9788 1069.37C7.86677 1036.45 -69.6186 971.16 -147.381 864.08Z" stroke="url(#paint45_linear_288_397)" stroke-width="2.41377"/>
<path d="M-180.405 800.256C-215.227 743.912 -242.408 698.75 -262.441 662.302C-282.483 625.84 -295.332 598.167 -301.535 576.784C-307.739 555.392 -307.225 540.523 -300.864 529.477C-294.488 518.406 -282.062 510.863 -263.653 504.567C-245.52 498.366 -221.79 493.455 -192.943 487.486C-104.807 469.248 31.0863 441.126 200.99 336.121C313.77 266.42 430.93 169.426 547.53 70.2463C562.431 57.5717 577.322 44.8615 592.194 32.1678C693.729 -54.4942 794.367 -140.39 890.908 -208.951C1001.62 -287.573 1106.75 -343.253 1201.49 -351.241C1248.82 -355.231 1293.55 -347.316 1335.11 -324.406C1376.68 -301.491 1415.16 -263.533 1449.9 -207.318C1519.45 -94.778 1546.23 4.27036 1540.35 93.8632C1534.47 183.454 1495.93 263.742 1434.57 338.745C1317.16 482.255 1116.46 606.157 901.991 738.556C892.165 744.622 882.31 750.706 872.432 756.81C862.493 762.954 852.614 769.066 842.796 775.14C741.292 837.944 646.267 896.739 556.744 944.415C458.56 996.705 367.078 1035.57 281.028 1051.68C195.006 1067.79 114.438 1061.14 38.0185 1022.43C-38.4223 983.703 -110.832 912.829 -180.405 800.256Z" stroke="url(#paint46_linear_288_397)" stroke-width="2.41377"/>
<path d="M-214.465 718.382C-243.964 659.078 -266.882 611.611 -283.484 573.477C-300.091 535.328 -310.345 506.591 -314.557 484.729C-318.771 462.858 -316.893 448.099 -309.545 437.684C-302.178 427.245 -289.112 420.875 -270.203 416.297C-251.577 411.788 -227.496 409.077 -198.223 405.783C-108.784 395.716 29.1175 380.195 207.948 291.239C326.652 232.191 452.225 146.368 577.442 58.3166C593.444 47.0638 609.441 35.7748 625.417 24.5004C734.482 -52.4692 842.582 -128.758 945.012 -188.162C1062.48 -256.284 1172.28 -302.072 1267.35 -301.325C1314.85 -300.951 1358.66 -288.961 1397.95 -262.331C1437.24 -235.694 1472.06 -194.362 1501.49 -135.194C1560.42 -16.742 1577.98 84.3469 1563.9 173.021C1549.81 261.693 1504.06 338.102 1436.07 407.152C1305.98 539.272 1094.74 644.216 869.023 756.357C858.681 761.495 848.309 766.648 837.913 771.82C827.451 777.024 817.052 782.203 806.718 787.35C699.875 840.565 599.851 890.384 506.328 929.637C403.756 972.687 309.091 1002.99 221.925 1011.13C134.788 1019.26 55.1705 1005.25 -17.3704 959.677C-89.9312 914.095 -155.525 836.87 -214.465 718.382Z" stroke="url(#paint47_linear_288_397)" stroke-width="2.41377"/>
<path d="M-238.44 642.788C-262.968 581.261 -281.909 532.071 -295.321 492.703C-308.738 453.318 -316.596 423.836 -318.998 401.702C-321.4 379.559 -318.316 365.003 -310.137 355.228C-301.938 345.429 -288.392 340.154 -269.171 337.145C-250.238 334.181 -226.015 333.459 -196.571 332.58C-106.607 329.896 32.1034 325.757 217.637 251.794C340.792 202.698 472.992 127.482 605.019 50.0154C621.892 40.1154 638.762 30.1787 655.61 20.2549C770.63 -47.494 884.633 -114.644 991.597 -165.431C1114.26 -223.672 1227.45 -260.285 1322.14 -251.729C1369.45 -247.454 1412.13 -231.904 1449.09 -202.137C1486.06 -172.363 1517.37 -128.31 1541.84 -66.9235C1590.84 55.9694 1600.04 158.16 1578.71 245.377C1557.39 332.592 1505.52 404.984 1432.09 468.215C1291.58 589.2 1072.44 676.435 838.265 769.652C827.536 773.923 816.775 778.206 805.989 782.506C795.135 786.833 784.347 791.14 773.624 795.421C662.77 839.679 558.992 881.111 462.56 912.547C356.798 947.025 259.963 969.448 172.424 970.397C84.9121 971.346 6.71537 950.836 -61.8363 899.461C-130.407 848.071 -189.434 765.718 -238.44 642.788Z" stroke="url(#paint48_linear_288_397)" stroke-width="2.41377"/>
<path d="M-254.055 576.264C-274.164 513.155 -289.575 462.747 -300.165 422.528C-310.76 382.292 -316.511 352.328 -317.339 330.079C-318.168 307.821 -314.061 293.521 -305.21 284.349C-296.338 275.155 -282.453 270.853 -263.067 269.212C-243.971 267.596 -219.758 268.591 -190.326 269.799C-100.398 273.492 38.2578 279.185 228.563 218.544C354.885 178.292 492.079 112.625 629.26 44.702C646.791 36.0216 664.322 27.3043 681.831 18.5984C801.359 -40.8362 919.83 -99.7451 1030.12 -142.831C1156.6 -192.241 1272.1 -220.747 1365.95 -205.508C1412.84 -197.894 1454.31 -179.361 1489.07 -147.051C1523.84 -114.734 1551.95 -68.5743 1572.01 -5.60951C1612.18 120.444 1614.12 223.029 1586.68 308.518C1559.24 394.004 1502.37 462.541 1424.64 520.414C1275.92 631.147 1051.15 702.646 810.965 779.048C799.96 782.548 788.924 786.059 777.86 789.584C766.727 793.132 755.66 796.664 744.662 800.175C630.952 836.472 524.501 870.453 426.085 894.982C318.147 921.885 219.968 937.394 132.581 932.142C45.2217 926.893 -31.3264 900.898 -96.0683 844.797C-160.828 788.681 -213.876 702.355 -254.055 576.264Z" stroke="url(#paint49_linear_288_397)" stroke-width="2.41377"/>
<path d="M-265.606 503.175C-280.818 438.709 -292.319 387.268 -299.795 346.355C-307.274 305.426 -310.71 275.109 -309.83 252.862C-308.95 230.606 -303.759 216.662 -294.231 208.196C-284.68 199.71 -270.506 196.485 -251.051 196.335C-231.888 196.188 -207.822 199.036 -178.569 202.497C-89.189 213.073 48.622 229.38 243.016 183.508C372.052 153.059 513.877 98.1039 655.862 40.8978C674.007 33.5871 692.155 26.2396 710.279 18.9016C834.012 -31.1942 956.651 -80.8469 1069.92 -115.35C1199.82 -154.918 1317.16 -174.485 1409.56 -152.096C1455.73 -140.909 1495.66 -119.251 1527.84 -84.3721C1560.03 -49.4847 1584.52 -1.30506 1599.7 63.0126C1630.08 191.774 1624.15 294.206 1590.24 377.339C1556.32 460.471 1494.36 524.445 1412.43 576.189C1255.66 675.194 1026.07 729.25 780.732 787.013C769.491 789.66 758.218 792.314 746.917 794.981C735.544 797.664 724.24 800.338 713.004 802.995C596.847 830.468 488.103 856.186 388.096 873.098C278.414 891.647 179.334 899.583 92.607 887.647C5.90767 875.715 -68.4222 843.928 -128.672 783.029C-188.939 722.113 -235.213 631.974 -265.606 503.175Z" stroke="url(#paint50_linear_288_397)" stroke-width="2.41377"/>
<path d="M-271.088 438.707C-281.944 373.366 -289.97 321.27 -294.686 279.948C-299.404 238.609 -300.8 208.13 -298.43 185.992C-296.06 163.846 -289.946 150.281 -279.872 142.473C-269.773 134.646 -255.415 132.378 -235.993 133.534C-216.863 134.672 -193.043 139.127 -164.088 144.542C-75.6178 161.087 60.7898 186.597 257.822 153.862C388.609 132.133 533.8 86.8099 679.3 39.2522C697.895 33.1745 716.495 27.0603 735.07 20.954C861.884 -20.733 987.576 -62.0514 1102.91 -88.8828C1235.16 -119.652 1353.55 -131.308 1444.25 -102.773C1489.56 -88.5166 1527.95 -64.2303 1557.72 -27.2719C1587.49 9.69512 1608.7 59.4085 1619.53 124.599C1641.21 255.108 1628.43 356.912 1589.02 437.584C1549.6 518.254 1483.49 577.931 1398.28 624.065C1235.22 712.336 1002.52 750.877 753.864 792.061C742.472 793.948 731.046 795.84 719.591 797.743C708.064 799.658 696.606 801.568 685.218 803.466C567.479 823.088 457.256 841.458 356.34 851.627C245.661 862.78 146.273 864.056 60.5407 846.332C-25.1636 828.614 -97.1951 791.914 -153.227 727.113C-209.274 662.293 -249.399 569.254 -271.088 438.707Z" stroke="url(#paint51_linear_288_397)" stroke-width="2.41377"/>
</g>
</g>
</g>
<defs>
<linearGradient id="paint0_linear_288_397" x1="304.838" y1="258.661" x2="1079.36" y2="519.864" gradientUnits="userSpaceOnUse">
<stop stop-color="white"/>
<stop offset="1" stop-color="white" stop-opacity="0.36"/>
</linearGradient>
<linearGradient id="paint1_linear_288_397" x1="320.801" y1="218.482" x2="1063.4" y2="560.043" gradientUnits="userSpaceOnUse">
<stop stop-color="white"/>
<stop offset="1" stop-color="white" stop-opacity="0.36"/>
</linearGradient>
<linearGradient id="paint2_linear_288_397" x1="335.266" y1="190.018" x2="1048.93" y2="588.509" gradientUnits="userSpaceOnUse">
<stop stop-color="white"/>
<stop offset="1" stop-color="white" stop-opacity="0.36"/>
</linearGradient>
<linearGradient id="paint3_linear_288_397" x1="349.619" y1="166.249" x2="1034.58" y2="612.28" gradientUnits="userSpaceOnUse">
<stop stop-color="white"/>
<stop offset="1" stop-color="white" stop-opacity="0.36"/>
</linearGradient>
<linearGradient id="paint4_linear_288_397" x1="365.584" y1="143.467" x2="1018.61" y2="635.062" gradientUnits="userSpaceOnUse">
<stop stop-color="white"/>
<stop offset="1" stop-color="white" stop-opacity="0.36"/>
</linearGradient>
<linearGradient id="paint5_linear_288_397" x1="380.258" y1="125.098" x2="1003.94" y2="653.429" gradientUnits="userSpaceOnUse">
<stop stop-color="white"/>
<stop offset="1" stop-color="white" stop-opacity="0.36"/>
</linearGradient>
<linearGradient id="paint6_linear_288_397" x1="399.904" y1="103.519" x2="984.295" y2="675.009" gradientUnits="userSpaceOnUse">
<stop stop-color="white"/>
<stop offset="1" stop-color="white" stop-opacity="0.36"/>
</linearGradient>
<linearGradient id="paint7_linear_288_397" x1="423.183" y1="81.5102" x2="961.018" y2="697.016" gradientUnits="userSpaceOnUse">
<stop stop-color="white"/>
<stop offset="1" stop-color="white" stop-opacity="0.36"/>
</linearGradient>
<linearGradient id="paint8_linear_288_397" x1="448.746" y1="60.9238" x2="935.453" y2="717.605" gradientUnits="userSpaceOnUse">
<stop stop-color="white"/>
<stop offset="1" stop-color="white" stop-opacity="0.36"/>
</linearGradient>
<linearGradient id="paint9_linear_288_397" x1="473.578" y1="43.8987" x2="910.622" y2="734.628" gradientUnits="userSpaceOnUse">
<stop stop-color="white"/>
<stop offset="1" stop-color="white" stop-opacity="0.36"/>
</linearGradient>
<linearGradient id="paint10_linear_288_397" x1="501.439" y1="27.771" x2="882.761" y2="750.756" gradientUnits="userSpaceOnUse">
<stop stop-color="white"/>
<stop offset="1" stop-color="white" stop-opacity="0.36"/>
</linearGradient>
<linearGradient id="paint11_linear_288_397" x1="531.2" y1="13.5777" x2="853" y2="764.949" gradientUnits="userSpaceOnUse">
<stop stop-color="white"/>
<stop offset="1" stop-color="white" stop-opacity="0.36"/>
</linearGradient>
<linearGradient id="paint12_linear_288_397" x1="559.555" y1="2.66259" x2="824.645" y2="775.864" gradientUnits="userSpaceOnUse">
<stop stop-color="white"/>
<stop offset="1" stop-color="white" stop-opacity="0.36"/>
</linearGradient>
<linearGradient id="paint13_linear_288_397" x1="590.889" y1="-6.69768" x2="793.313" y2="785.223" gradientUnits="userSpaceOnUse">
<stop stop-color="white"/>
<stop offset="1" stop-color="white" stop-opacity="0.36"/>
</linearGradient>
<linearGradient id="paint14_linear_288_397" x1="620.399" y1="-13.0895" x2="763.802" y2="791.615" gradientUnits="userSpaceOnUse">
<stop stop-color="white"/>
<stop offset="1" stop-color="white" stop-opacity="0.36"/>
</linearGradient>
<linearGradient id="paint15_linear_288_397" x1="649.796" y1="-17.2326" x2="734.404" y2="795.759" gradientUnits="userSpaceOnUse">
<stop stop-color="white"/>
<stop offset="1" stop-color="white" stop-opacity="0.36"/>
</linearGradient>
<linearGradient id="paint16_linear_288_397" x1="682.968" y1="-19.3269" x2="701.233" y2="797.851" gradientUnits="userSpaceOnUse">
<stop stop-color="white"/>
<stop offset="1" stop-color="white" stop-opacity="0.36"/>
</linearGradient>
<linearGradient id="paint17_linear_288_397" x1="722.214" y1="-18.3173" x2="661.989" y2="796.843" gradientUnits="userSpaceOnUse">
<stop stop-color="white"/>
<stop offset="1" stop-color="white" stop-opacity="0.36"/>
</linearGradient>
<linearGradient id="paint18_linear_288_397" x1="756.721" y1="-14.2865" x2="627.481" y2="792.814" gradientUnits="userSpaceOnUse">
<stop stop-color="white"/>
<stop offset="1" stop-color="white" stop-opacity="0.36"/>
</linearGradient>
<linearGradient id="paint19_linear_288_397" x1="790.647" y1="-7.36905" x2="593.555" y2="785.895" gradientUnits="userSpaceOnUse">
<stop stop-color="white"/>
<stop offset="1" stop-color="white" stop-opacity="0.36"/>
</linearGradient>
<linearGradient id="paint20_linear_288_397" x1="827.219" y1="3.555" x2="556.982" y2="774.973" gradientUnits="userSpaceOnUse">
<stop stop-color="white"/>
<stop offset="1" stop-color="white" stop-opacity="0.36"/>
</linearGradient>
<linearGradient id="paint21_linear_288_397" x1="860.051" y1="16.6765" x2="524.149" y2="761.85" gradientUnits="userSpaceOnUse">
<stop stop-color="white"/>
<stop offset="1" stop-color="white" stop-opacity="0.36"/>
</linearGradient>
<linearGradient id="paint22_linear_288_397" x1="887.587" y1="30.3574" x2="496.614" y2="748.169" gradientUnits="userSpaceOnUse">
<stop stop-color="white"/>
<stop offset="1" stop-color="white" stop-opacity="0.36"/>
</linearGradient>
<linearGradient id="paint23_linear_288_397" x1="921.018" y1="50.7008" x2="463.183" y2="727.828" gradientUnits="userSpaceOnUse">
<stop stop-color="white"/>
<stop offset="1" stop-color="white" stop-opacity="0.36"/>
</linearGradient>
<linearGradient id="paint24_linear_288_397" x1="949.542" y1="71.8478" x2="434.66" y2="706.679" gradientUnits="userSpaceOnUse">
<stop stop-color="white"/>
<stop offset="1" stop-color="white" stop-opacity="0.36"/>
</linearGradient>
<linearGradient id="paint25_linear_288_397" x1="976.593" y1="95.8477" x2="407.608" y2="682.678" gradientUnits="userSpaceOnUse">
<stop stop-color="white"/>
<stop offset="1" stop-color="white" stop-opacity="0.36"/>
</linearGradient>
<linearGradient id="paint26_linear_288_397" x1="1003.33" y1="124.375" x2="380.873" y2="654.151" gradientUnits="userSpaceOnUse">
<stop stop-color="white"/>
<stop offset="1" stop-color="white" stop-opacity="0.36"/>
</linearGradient>
<linearGradient id="paint27_linear_288_397" x1="1026.38" y1="154.127" x2="357.826" y2="624.4" gradientUnits="userSpaceOnUse">
<stop stop-color="white"/>
<stop offset="1" stop-color="white" stop-opacity="0.36"/>
</linearGradient>
<linearGradient id="paint28_linear_288_397" x1="1049.33" y1="190.727" x2="334.873" y2="587.799" gradientUnits="userSpaceOnUse">
<stop stop-color="white"/>
<stop offset="1" stop-color="white" stop-opacity="0.36"/>
</linearGradient>
<linearGradient id="paint29_linear_288_397" x1="1066.5" y1="225.401" x2="317.698" y2="553.125" gradientUnits="userSpaceOnUse">
<stop stop-color="white"/>
<stop offset="1" stop-color="white" stop-opacity="0.36"/>
</linearGradient>
<linearGradient id="paint30_linear_288_397" x1="1080.94" y1="263.436" x2="303.261" y2="515.093" gradientUnits="userSpaceOnUse">
<stop stop-color="white"/>
<stop offset="1" stop-color="white" stop-opacity="0.36"/>
</linearGradient>
<linearGradient id="paint31_linear_288_397" x1="1089.62" y1="294.35" x2="294.583" y2="484.176" gradientUnits="userSpaceOnUse">
<stop stop-color="white"/>
<stop offset="1" stop-color="white" stop-opacity="0.36"/>
</linearGradient>
<linearGradient id="paint32_linear_288_397" x1="1095.46" y1="323.464" x2="288.741" y2="455.062" gradientUnits="userSpaceOnUse">
<stop stop-color="white"/>
<stop offset="1" stop-color="white" stop-opacity="0.36"/>
</linearGradient>
<linearGradient id="paint33_linear_288_397" x1="1098.87" y1="349.666" x2="285.332" y2="428.86" gradientUnits="userSpaceOnUse">
<stop stop-color="white"/>
<stop offset="1" stop-color="white" stop-opacity="0.36"/>
</linearGradient>
<linearGradient id="paint34_linear_288_397" x1="1100.74" y1="382.802" x2="283.46" y2="395.726" gradientUnits="userSpaceOnUse">
<stop stop-color="white"/>
<stop offset="1" stop-color="white" stop-opacity="0.36"/>
</linearGradient>
<linearGradient id="paint35_linear_288_397" x1="1098.95" y1="428.043" x2="285.253" y2="350.484" gradientUnits="userSpaceOnUse">
<stop stop-color="white"/>
<stop offset="1" stop-color="white" stop-opacity="0.36"/>
</linearGradient>
<linearGradient id="paint36_linear_288_397" x1="1094.53" y1="460.5" x2="289.664" y2="318.028" gradientUnits="userSpaceOnUse">
<stop stop-color="white"/>
<stop offset="1" stop-color="white" stop-opacity="0.36"/>
</linearGradient>
<linearGradient id="paint37_linear_288_397" x1="1087.04" y1="494.389" x2="297.16" y2="284.136" gradientUnits="userSpaceOnUse">
<stop stop-color="white"/>
<stop offset="1" stop-color="white" stop-opacity="0.36"/>
</linearGradient>
<linearGradient id="paint38_linear_288_397" x1="1078.3" y1="522.966" x2="305.897" y2="255.56" gradientUnits="userSpaceOnUse">
<stop stop-color="white"/>
<stop offset="1" stop-color="white" stop-opacity="0.36"/>
</linearGradient>
<linearGradient id="paint39_linear_288_397" x1="1063.75" y1="559.266" x2="320.445" y2="219.26" gradientUnits="userSpaceOnUse">
<stop stop-color="white"/>
<stop offset="1" stop-color="white" stop-opacity="0.36"/>
</linearGradient>
<linearGradient id="paint40_linear_288_397" x1="1047.07" y1="591.81" x2="337.13" y2="186.717" gradientUnits="userSpaceOnUse">
<stop stop-color="white"/>
<stop offset="1" stop-color="white" stop-opacity="0.36"/>
</linearGradient>
<linearGradient id="paint41_linear_288_397" x1="1028.12" y1="621.893" x2="356.077" y2="156.633" gradientUnits="userSpaceOnUse">
<stop stop-color="white"/>
<stop offset="1" stop-color="white" stop-opacity="0.36"/>
</linearGradient>
<linearGradient id="paint42_linear_288_397" x1="1000.95" y1="656.924" x2="383.254" y2="121.602" gradientUnits="userSpaceOnUse">
<stop stop-color="white"/>
<stop offset="1" stop-color="white" stop-opacity="0.36"/>
</linearGradient>
<linearGradient id="paint43_linear_288_397" x1="978.067" y1="681.242" x2="406.133" y2="97.2849" gradientUnits="userSpaceOnUse">
<stop stop-color="white"/>
<stop offset="1" stop-color="white" stop-opacity="0.36"/>
</linearGradient>
<linearGradient id="paint44_linear_288_397" x1="956.995" y1="700.485" x2="427.202" y2="78.0432" gradientUnits="userSpaceOnUse">
<stop stop-color="white"/>
<stop offset="1" stop-color="white" stop-opacity="0.36"/>
</linearGradient>
<linearGradient id="paint45_linear_288_397" x1="932.248" y1="719.955" x2="451.95" y2="58.5724" gradientUnits="userSpaceOnUse">
<stop stop-color="white"/>
<stop offset="1" stop-color="white" stop-opacity="0.36"/>
</linearGradient>
<linearGradient id="paint46_linear_288_397" x1="906.958" y1="736.919" x2="477.239" y2="41.6096" gradientUnits="userSpaceOnUse">
<stop stop-color="white"/>
<stop offset="1" stop-color="white" stop-opacity="0.36"/>
</linearGradient>
<linearGradient id="paint47_linear_288_397" x1="874.12" y1="755.183" x2="510.078" y2="23.3449" gradientUnits="userSpaceOnUse">
<stop stop-color="white"/>
<stop offset="1" stop-color="white" stop-opacity="0.36"/>
</linearGradient>
<linearGradient id="paint48_linear_288_397" x1="843.441" y1="768.901" x2="540.756" y2="9.62748" gradientUnits="userSpaceOnUse">
<stop stop-color="white"/>
<stop offset="1" stop-color="white" stop-opacity="0.36"/>
</linearGradient>
<linearGradient id="paint49_linear_288_397" x1="816.181" y1="778.665" x2="568.018" y2="-0.134841" gradientUnits="userSpaceOnUse">
<stop stop-color="white"/>
<stop offset="1" stop-color="white" stop-opacity="0.36"/>
</linearGradient>
<linearGradient id="paint50_linear_288_397" x1="785.962" y1="787.031" x2="598.238" y2="-8.50224" gradientUnits="userSpaceOnUse">
<stop stop-color="white"/>
<stop offset="1" stop-color="white" stop-opacity="0.36"/>
</linearGradient>
<linearGradient id="paint51_linear_288_397" x1="759.082" y1="792.429" x2="625.118" y2="-13.9003" gradientUnits="userSpaceOnUse">
<stop stop-color="white"/>
<stop offset="1" stop-color="white" stop-opacity="0.36"/>
</linearGradient>
<clipPath id="clip0_288_397">
<rect width="1440" height="425" fill="white"/>
</clipPath>
</defs>
</svg>
