<svg width="57" height="67" viewBox="0 0 57 67" fill="none" xmlns="http://www.w3.org/2000/svg">
<path d="M15.9951 -0.000976562L40.9951 -0.000976563V66.999L28.4951 58.9334L15.9951 66.999L15.9951 -0.000976562Z" fill="white"/>
<mask id="mask0_18112_126989" style="mask-type:alpha" maskUnits="userSpaceOnUse" x="15" y="-1" width="26" height="68">
<path d="M15.9951 -0.000976562L40.9951 -0.000976563V66.999L28.4951 58.9334L15.9951 66.999L15.9951 -0.000976562Z" fill="white"/>
</mask>
<g mask="url(#mask0_18112_126989)">
<rect x="15.9951" y="-0.000976562" width="8.33333" height="67" fill="#E52E40"/>
<rect x="24.3291" y="-0.000976562" width="8.33333" height="67" fill="#F6F8FA"/>
<rect x="32.6621" y="-0.000976562" width="8.33333" height="67" fill="#0E6A8E"/>
</g>
<g filter="url(#filter0_i_18112_126989)">
<path d="M28.4955 55.159C43.1863 55.159 55.0955 43.2498 55.0955 28.559C55.0955 13.8682 43.1863 1.95898 28.4955 1.95898C13.8047 1.95898 1.89551 13.8682 1.89551 28.559C1.89551 43.2498 13.8047 55.159 28.4955 55.159Z" fill="#96561C"/>
</g>
<g filter="url(#filter1_ii_18112_126989)">
<path d="M28.507 54.3188C42.7338 54.3188 54.2669 42.7857 54.2669 28.5588C54.2669 14.332 42.7338 2.79883 28.507 2.79883C14.2802 2.79883 2.74707 14.332 2.74707 28.5588C2.74707 42.7857 14.2802 54.3188 28.507 54.3188Z" fill="url(#paint0_linear_18112_126989)"/>
</g>
<g filter="url(#filter2_f_18112_126989)">
<path d="M42.961 28.554C42.9002 36.7396 36.1828 43.3288 27.9541 43.2682C19.7254 43.2076 13.1067 36.5203 13.1675 28.3347C13.2284 20.1492 19.9458 13.56 28.1745 13.6206C36.4031 13.6812 43.0218 20.3685 42.961 28.554Z" stroke="white" stroke-width="0.636361"/>
</g>
<g filter="url(#filter3_i_18112_126989)">
<path d="M27.8677 43.4479C36.1907 43.5092 42.9912 36.8435 43.0528 28.5554C43.1144 20.2673 36.4137 13.5023 28.0907 13.441C19.7677 13.3798 12.9671 20.0454 12.9055 28.3335C12.8439 36.6216 19.5447 43.3866 27.8677 43.4479Z" stroke="#96561C" stroke-width="0.8512"/>
</g>
<g filter="url(#filter4_i_18112_126989)">
<path d="M27.8677 43.4479C36.1907 43.5092 42.9912 36.8435 43.0528 28.5554C43.1144 20.2673 36.4137 13.5023 28.0907 13.441C19.7677 13.3798 12.9671 20.0454 12.9055 28.3335C12.8439 36.6216 19.5447 43.3866 27.8677 43.4479Z" stroke="#96561C" stroke-width="0.8512"/>
</g>
<g filter="url(#filter5_i_18112_126989)">
<path d="M20.248 35.0411V31.2792H18.042V29.349H20.248V26.9461H18.042V25.0158H20.248V21.2539H22.2964V25.0158H24.6599V21.2539H26.7083V25.0158H28.9143V26.9461H26.7083V29.349H28.9143V31.2792H26.7083V35.0411H24.6599V31.2792H22.2964V35.0411H20.248ZM22.2964 29.349H24.6599V26.9461H22.2964V29.349Z" fill="#96561C"/>
<path d="M34.7993 35.0411V22.9084H34.4645L32.3964 27.4188H29.9737L32.9085 21.2539H37.084V35.0411H34.7993Z" fill="#96561C"/>
</g>
<g filter="url(#filter6_i_18112_126989)">
<path d="M12.8764 39.1269L11.9154 40.1653C11.5886 40.5185 11.5243 41.0397 11.7556 41.461L12.4356 42.6999L11.3922 41.7435C11.0374 41.4183 10.5137 41.3543 10.0903 41.5844L8.84545 42.2612L9.80644 41.2228C10.1333 40.8697 10.1976 40.3485 9.9663 39.9271L9.28627 38.6882L10.3296 39.6446C10.6845 39.9699 11.2082 40.0339 11.6316 39.8037L12.8764 39.1269Z" fill="#96561C"/>
</g>
<g filter="url(#filter7_i_18112_126989)">
<path d="M44.3481 38.2363L45.593 38.9131C46.0164 39.1433 46.5401 39.0793 46.8949 38.754L47.9383 37.7976L47.2582 39.0365C47.027 39.4579 47.0913 39.9791 47.4181 40.3322L48.3791 41.3706L47.1342 40.6938C46.7108 40.4637 46.1871 40.5277 45.8323 40.8529L44.7889 41.8093L45.469 40.5704C45.7002 40.1491 45.6359 39.6279 45.3091 39.2747L44.3481 38.2363Z" fill="#96561C"/>
</g>
<g filter="url(#filter8_i_18112_126989)">
<path d="M20.3744 47.5415C20.2496 47.7959 20.0749 47.9845 19.8503 48.1074C19.6276 48.2312 19.3702 48.2857 19.0782 48.2708C18.7861 48.2559 18.4756 48.1686 18.1467 48.0088C17.9287 47.9029 17.7407 47.7835 17.5826 47.6505C17.4245 47.5176 17.2984 47.377 17.2043 47.2287L17.3765 46.9826C17.4246 47.0646 17.482 47.1426 17.5488 47.2166C17.6156 47.2905 17.6917 47.358 17.7771 47.419C17.8625 47.48 17.9557 47.5351 18.0568 47.5842C18.2411 47.6737 18.4225 47.7166 18.6009 47.713C18.7804 47.7073 18.946 47.6522 19.0978 47.5477C19.2507 47.4413 19.3779 47.2845 19.4794 47.0774C19.5974 46.8368 19.6514 46.6042 19.6413 46.3795C19.6333 46.1558 19.5647 45.9528 19.4358 45.7705C19.3097 45.5872 19.1288 45.4383 18.893 45.3237L18.6612 45.2111L17.0218 48.5539C17.0005 48.5973 16.994 48.6405 17.0023 48.6836C17.0116 48.7248 17.0396 48.7628 17.0862 48.7977L17.3274 48.9588C17.3751 48.9917 17.4035 49.0263 17.4128 49.0625C17.4229 49.0968 17.4169 49.1366 17.3947 49.1819C17.3744 49.2233 17.3431 49.2496 17.3008 49.2608C17.2585 49.272 17.2056 49.2622 17.1422 49.2314L15.5906 48.4778C15.5292 48.4479 15.4899 48.413 15.4727 48.3729C15.4556 48.3328 15.4571 48.2921 15.4775 48.2506C15.5142 48.1757 15.582 48.1451 15.6807 48.1589L15.8646 48.2043C15.9219 48.2125 15.9692 48.2087 16.0065 48.1926C16.0458 48.1775 16.0761 48.1483 16.0973 48.1049L17.6381 44.9633C17.6594 44.9199 17.6639 44.8781 17.6517 44.838C17.6414 44.7988 17.6154 44.7593 17.5736 44.7195L17.4246 44.6031C17.3529 44.5341 17.3354 44.4622 17.3722 44.3872C17.3935 44.3438 17.4248 44.3175 17.4661 44.3083C17.5084 44.2971 17.5603 44.3064 17.6217 44.3363L19.0633 45.0365C19.4973 45.2473 19.8349 45.4919 20.0763 45.7703C20.3186 46.0467 20.4639 46.3383 20.5122 46.6451C20.5635 46.9508 20.5175 47.2496 20.3744 47.5415Z" fill="#96561C"/>
<path d="M23.7508 49.4733C23.7211 49.588 23.6649 49.6688 23.5823 49.7156C23.5023 49.7608 23.3993 49.7673 23.2733 49.735L21.2745 49.2229L21.3388 48.9743L22.6521 49.3107C22.761 49.3386 22.8281 49.3037 22.8534 49.206C22.926 48.9254 22.9294 48.7008 22.8637 48.5322C22.7986 48.3614 22.6796 48.2539 22.5066 48.2095C22.3742 48.1756 22.2463 48.1859 22.1229 48.2404C22.0001 48.2928 21.8893 48.3868 21.7904 48.5223C21.6943 48.6563 21.619 48.8285 21.5646 49.0389C21.4579 49.4512 21.4751 49.7853 21.6161 50.0413C21.7577 50.2951 21.9886 50.463 22.3089 50.5451C22.4968 50.5932 22.672 50.5984 22.8343 50.5607C22.9966 50.523 23.1348 50.4462 23.249 50.3304C23.2985 50.2978 23.3368 50.277 23.3642 50.2682C23.3915 50.2593 23.4169 50.2579 23.4404 50.2639C23.4746 50.2727 23.495 50.2949 23.5017 50.3306C23.5111 50.3647 23.509 50.4038 23.4953 50.4479C23.4406 50.6242 23.3336 50.7736 23.1745 50.896C23.0159 51.0162 22.8233 51.0961 22.5968 51.1355C22.3708 51.1728 22.1255 51.1575 21.8607 51.0896C21.551 51.0103 21.2928 50.8773 21.0861 50.6907C20.8799 50.5019 20.7379 50.2763 20.6601 50.0139C20.5828 49.7493 20.5837 49.464 20.6629 49.158C20.7464 48.835 20.8844 48.5655 21.0769 48.3497C21.2714 48.1344 21.5075 47.9876 21.7851 47.9091C22.0654 47.8291 22.3731 47.832 22.7084 47.9179C22.9946 47.9913 23.2256 48.106 23.4015 48.2621C23.578 48.4161 23.6949 48.5978 23.7523 48.8074C23.8123 49.0154 23.8118 49.2374 23.7508 49.4733Z" fill="#96561C"/>
<path d="M27.6272 49.8774C27.6182 49.9956 27.577 50.0849 27.5038 50.1454C27.433 50.2038 27.3327 50.2281 27.203 50.2182L25.1451 50.0614L25.1647 49.8054L26.5169 49.9084C26.629 49.917 26.689 49.8709 26.6967 49.7702C26.7189 49.4814 26.6829 49.2597 26.5886 49.105C26.4945 48.9482 26.3584 48.863 26.1804 48.8494C26.044 48.8391 25.9199 48.8714 25.808 48.9465C25.6962 49.0195 25.6036 49.1313 25.5301 49.2819C25.459 49.4306 25.4151 49.6132 25.3984 49.8298C25.3658 50.2543 25.4413 50.5803 25.6251 50.8078C25.809 51.0331 26.0658 51.1583 26.3956 51.1834C26.5891 51.1982 26.7625 51.1728 26.9156 51.1075C27.0688 51.0421 27.1915 50.9425 27.2836 50.8087C27.3266 50.7679 27.3607 50.7408 27.3861 50.7273C27.4114 50.7139 27.4362 50.708 27.4604 50.7099C27.4956 50.7126 27.5196 50.7309 27.5325 50.7649C27.5477 50.7969 27.5524 50.8357 27.5467 50.8815C27.5238 51.0647 27.4447 51.2303 27.3095 51.3785C27.1744 51.5245 26.9988 51.6365 26.7827 51.7147C26.5668 51.7907 26.3225 51.8183 26.0499 51.7976C25.7311 51.7733 25.4535 51.6872 25.2172 51.5393C24.981 51.3893 24.8016 51.1919 24.6789 50.947C24.5563 50.7 24.5072 50.4189 24.5314 50.1038C24.557 49.7712 24.6456 49.482 24.7972 49.236C24.951 48.9902 25.1577 48.8046 25.4172 48.6791C25.6791 48.5516 25.9827 48.501 26.3279 48.5272C26.6225 48.5497 26.8701 48.6225 27.0707 48.7456C27.2715 48.8665 27.4186 49.0252 27.5118 49.2216C27.6075 49.4159 27.6459 49.6346 27.6272 49.8774Z" fill="#96561C"/>
<path d="M29.6642 49.9904C29.6368 49.6711 29.659 49.4006 29.7307 49.1786C29.8044 48.9543 29.9103 48.7823 30.0483 48.6627C30.1861 48.5409 30.3396 48.4728 30.5088 48.4584C30.7197 48.4405 30.8874 48.4868 31.012 48.5974C31.1364 48.7057 31.2081 48.8714 31.2272 49.0945C31.2439 49.2891 31.2158 49.439 31.143 49.5443C31.07 49.6474 30.9686 49.7045 30.839 49.7155C30.7072 49.7267 30.6031 49.7003 30.5268 49.6363C30.4527 49.5721 30.4103 49.4777 30.3996 49.3531L30.3892 49.2317C30.3834 49.1639 30.3626 49.115 30.3268 49.085C30.2931 49.0527 30.2421 49.0394 30.174 49.0452C30.0949 49.0519 30.0218 49.09 29.9548 49.1596C29.8897 49.2268 29.8408 49.3267 29.8079 49.4595C29.775 49.5922 29.7672 49.7592 29.7844 49.9603L29.6642 49.9904ZM29.6255 48.7647L29.7448 49.4979L29.8896 51.187C29.8949 51.2482 29.9109 51.2931 29.9377 51.3217C29.9643 51.348 30.0121 51.3638 30.0812 51.369L30.3652 51.3911C30.4187 51.3953 30.4586 51.4085 30.4848 51.4305C30.5132 51.4523 30.5292 51.484 30.5328 51.5255C30.5365 51.5692 30.5231 51.6056 30.4924 51.6347C30.4637 51.6613 30.4186 51.6773 30.357 51.6825L28.818 51.8132C28.7543 51.8186 28.7071 51.8105 28.6765 51.7889C28.6457 51.7651 28.6285 51.7324 28.6249 51.6909C28.6221 51.6581 28.6296 51.6288 28.6473 51.6031C28.665 51.5773 28.6941 51.5561 28.7348 51.5395L28.8602 51.4925C28.8986 51.476 28.9264 51.4516 28.9435 51.4193C28.9605 51.3849 28.9661 51.3337 28.9603 51.2659L28.8005 49.403C28.7956 49.3461 28.7834 49.3064 28.7637 49.2839C28.7441 49.2613 28.7142 49.2484 28.6741 49.2452L28.5013 49.2434C28.4588 49.2382 28.428 49.2265 28.4087 49.2083C28.3894 49.1901 28.3785 49.1657 28.3759 49.1351C28.3727 49.0979 28.3811 49.0675 28.4012 49.0438C28.4233 49.0177 28.462 48.9912 28.5173 48.9645L29.0919 48.6977C29.1982 48.6468 29.276 48.6127 29.3254 48.5952C29.377 48.5776 29.4171 48.5676 29.4457 48.5652C29.494 48.5611 29.5317 48.5744 29.5587 48.6052C29.5878 48.6357 29.6101 48.6889 29.6255 48.7647Z" fill="#96561C"/>
<path d="M32.6133 46.5751L33.4922 50.6294C33.5066 50.6959 33.5259 50.7434 33.5502 50.7719C33.5761 50.7978 33.6098 50.813 33.6514 50.8175L33.7812 50.8233C33.8254 50.8295 33.8598 50.8423 33.8843 50.8618C33.9105 50.8786 33.9274 50.9042 33.9348 50.9385C33.9436 50.9793 33.9358 51.0157 33.9112 51.048C33.8882 51.0776 33.8455 51.0991 33.783 51.1125L32.5092 51.3861C32.4466 51.3995 32.3988 51.3974 32.3657 51.3798C32.3321 51.3601 32.3109 51.3298 32.302 51.2891C32.2951 51.2569 32.2987 51.2269 32.313 51.1992C32.3273 51.1714 32.3535 51.1467 32.3917 51.125L32.5101 51.0626C32.5461 51.0414 32.5705 51.0137 32.5834 50.9795C32.5959 50.9431 32.5949 50.8917 32.5804 50.8252L31.8201 47.3179C31.808 47.2621 31.7908 47.2243 31.7684 47.2044C31.7456 47.1823 31.7152 47.172 31.6771 47.1735L31.503 47.1974C31.4623 47.1972 31.4302 47.1895 31.4066 47.1743C31.3852 47.1587 31.371 47.1348 31.364 47.1026C31.3566 47.0683 31.3613 47.0381 31.3782 47.012C31.3946 46.9838 31.4296 46.9527 31.4832 46.9188L32.0339 46.5715C32.111 46.5213 32.1729 46.4844 32.2197 46.4609C32.2686 46.4369 32.3114 46.421 32.3481 46.4132C32.4213 46.3974 32.4805 46.4049 32.5255 46.4357C32.5705 46.4664 32.5998 46.5129 32.6133 46.5751Z" fill="#96561C"/>
<path d="M34.9823 47.6686L35.7305 49.9879C35.7514 50.0527 35.7753 50.098 35.8022 50.124C35.8305 50.1472 35.8656 50.1591 35.9075 50.1595L36.0372 50.1526C36.0819 50.1545 36.1173 50.1639 36.1436 50.1809C36.1714 50.1951 36.1906 50.2189 36.2014 50.2523C36.2142 50.292 36.21 50.3291 36.1887 50.3636C36.1688 50.3953 36.1284 50.4208 36.0675 50.4403L34.8267 50.8367C34.7658 50.8562 34.718 50.8588 34.6833 50.8445C34.6479 50.8282 34.6238 50.8001 34.611 50.7604C34.6009 50.7291 34.6016 50.6989 34.6131 50.6699C34.6246 50.6409 34.6482 50.6137 34.6841 50.5884L34.7958 50.5147C34.8295 50.4901 34.8511 50.4602 34.8606 50.4249C34.8694 50.3875 34.8633 50.3364 34.8424 50.2716L34.2661 48.4851C34.2486 48.4308 34.2277 48.3948 34.2035 48.3772C34.1786 48.3575 34.1463 48.3506 34.1065 48.3564L33.9387 48.3962C33.8961 48.4005 33.8634 48.396 33.8405 48.3826C33.8176 48.3691 33.8011 48.3468 33.791 48.3154C33.7802 48.282 33.782 48.2515 33.7962 48.2239C33.8098 48.1942 33.8416 48.1598 33.8915 48.1208L34.4054 47.7215C34.4772 47.664 34.5352 47.6213 34.5794 47.5933C34.6258 47.5647 34.6668 47.5447 34.7025 47.5333C34.7739 47.5105 34.8335 47.5122 34.8813 47.5384C34.9291 47.5646 34.9628 47.608 34.9823 47.6686ZM34.2455 47.1503C34.0775 47.204 33.9283 47.2044 33.7977 47.1516C33.6687 47.0961 33.5815 46.9983 33.5364 46.8583C33.4912 46.7183 33.5055 46.5904 33.5794 46.4746C33.6546 46.3561 33.7762 46.27 33.9442 46.2163C34.1142 46.162 34.2645 46.1612 34.395 46.214C34.5249 46.2648 34.6124 46.3601 34.6575 46.5001C34.7027 46.6401 34.688 46.7704 34.6134 46.891C34.5382 47.0096 34.4155 47.096 34.2455 47.1503Z" fill="#96561C"/>
<path d="M36.9586 46.9557C36.8206 47.0195 36.7289 47.1042 36.6834 47.2099C36.639 47.3127 36.6414 47.4169 36.6906 47.5224C36.7203 47.586 36.7617 47.6383 36.8148 47.6791C36.8699 47.719 36.9487 47.7418 37.0511 47.7477C37.1535 47.7536 37.2921 47.738 37.4668 47.7008C37.8065 47.6212 38.0826 47.5903 38.2952 47.6082C38.5098 47.6252 38.6793 47.6811 38.8038 47.776C38.9274 47.8689 39.0254 47.9929 39.0979 48.1482C39.227 48.4248 39.2311 48.6915 39.1102 48.9482C38.9904 49.202 38.7425 49.4158 38.3665 49.5896C38.2345 49.6506 38.1199 49.689 38.0228 49.7049C37.9286 49.7218 37.8494 49.7318 37.7852 49.7349C37.7209 49.738 37.6678 49.7492 37.6258 49.7686C37.5838 49.788 37.555 49.8147 37.5392 49.8486C37.5234 49.8825 37.5086 49.916 37.4948 49.949C37.482 49.9839 37.4556 50.0107 37.4156 50.0291C37.3796 50.0458 37.3465 50.0478 37.3162 50.0351C37.2889 50.0235 37.2552 49.9956 37.2151 49.9512L36.7398 49.4486C36.6824 49.3881 36.6485 49.3336 36.638 49.2852C36.6267 49.2348 36.6388 49.1905 36.6744 49.1522C36.7121 49.113 36.7521 49.0945 36.7944 49.0967C36.8379 49.096 36.8857 49.1126 36.938 49.1465C37.0995 49.2582 37.2521 49.3377 37.3958 49.385C37.5405 49.4294 37.6786 49.4466 37.8101 49.4367C37.9436 49.4258 38.0703 49.3926 38.1903 49.3371C38.3623 49.2576 38.4741 49.1636 38.5255 49.0551C38.579 48.9457 38.5788 48.8333 38.525 48.7179C38.4925 48.6482 38.4452 48.5938 38.3832 48.5547C38.3212 48.5157 38.23 48.4949 38.1098 48.4924C37.9895 48.4899 37.8266 48.5108 37.6211 48.555C37.3351 48.6194 37.0947 48.6434 36.8998 48.627C36.7069 48.6097 36.5473 48.5541 36.4207 48.4601C36.2953 48.3632 36.194 48.2322 36.1169 48.067C36.0361 47.8938 36.0105 47.7218 36.0402 47.5508C36.0689 47.3778 36.1465 47.2186 36.273 47.073C36.3987 46.9254 36.5675 46.8026 36.7795 46.7046C36.9154 46.6417 37.03 46.6033 37.1232 46.5893C37.2183 46.5743 37.2979 46.5678 37.362 46.5696C37.4251 46.5695 37.4797 46.5588 37.5257 46.5375C37.5737 46.5153 37.6061 46.4858 37.623 46.449C37.6389 46.4102 37.6543 46.3728 37.6691 46.3369C37.684 46.301 37.7104 46.2743 37.7484 46.2567C37.7784 46.2429 37.8085 46.2423 37.8387 46.2549C37.8709 46.2666 37.9041 46.2961 37.9383 46.3432L38.35 46.8425C38.4003 46.9087 38.4317 46.9656 38.4442 47.0131C38.4557 47.0586 38.4426 47.1009 38.405 47.1401C38.3673 47.1793 38.3264 47.1957 38.2822 47.1896C38.238 47.1834 38.1849 47.1608 38.1229 47.1217C37.9024 46.9671 37.6928 46.8825 37.4939 46.868C37.297 46.8525 37.1186 46.8817 36.9586 46.9557Z" fill="#96561C"/>
<path d="M38.8422 46.1229L38.6909 46.1688C38.635 46.1837 38.5918 46.1879 38.5614 46.1813C38.5316 46.1717 38.5077 46.153 38.4898 46.1253C38.466 46.0884 38.4601 46.053 38.4723 46.0191C38.4852 45.9822 38.5129 45.9501 38.5556 45.9228L38.7253 45.8142C38.7698 45.7857 38.8015 45.7537 38.8205 45.7181C38.8413 45.6813 38.8531 45.6306 38.8561 45.5662L38.8819 44.9548C38.8886 44.8801 38.9025 44.8203 38.9234 44.7756C38.9462 44.7297 38.9761 44.6949 39.0132 44.6712C39.0522 44.6463 39.0911 44.6396 39.1301 44.6512C39.1678 44.661 39.2016 44.6889 39.2314 44.7351L40.7608 47.1025C40.8443 47.2317 40.9331 47.3144 41.0273 47.3507C41.1215 47.3869 41.215 47.3754 41.3077 47.316C41.3763 47.2721 41.4203 47.2245 41.4395 47.173C41.4605 47.1204 41.4709 47.0695 41.4705 47.0201C41.4701 46.9708 41.4717 46.9267 41.4754 46.8878C41.4798 46.8459 41.4987 46.8142 41.5321 46.7929C41.5599 46.7751 41.5881 46.7701 41.6167 46.7779C41.6453 46.7856 41.674 46.8117 41.7026 46.856C41.7687 46.9624 41.7967 47.0828 41.7865 47.2171C41.7781 47.3503 41.7312 47.4847 41.6458 47.6202C41.561 47.7527 41.4416 47.8682 41.2877 47.9667C41.0503 48.1186 40.8257 48.1788 40.614 48.1473C40.4011 48.114 40.2165 47.9764 40.0603 47.7346L39.0765 46.2117C39.0455 46.1637 39.012 46.1343 38.9761 46.1233C38.9421 46.1112 38.8974 46.1111 38.8422 46.1229ZM39.4439 45.7457L39.265 45.4688L40.1887 44.8778C40.2332 44.8493 40.2735 44.8366 40.3096 44.8396C40.3444 44.8408 40.3726 44.858 40.394 44.8913C40.4262 44.9411 40.4289 44.9981 40.4022 45.0621C40.3754 45.1262 40.3073 45.1933 40.1979 45.2633L39.4439 45.7457Z" fill="#96561C"/>
</g>
<g filter="url(#filter9_i_18112_126989)">
<path d="M11.045 33.681L6.953 34.6632L6.56186 33.0462C6.50168 32.8007 6.49566 32.5611 6.54982 32.3455C6.60398 32.1239 6.70628 31.9383 6.85672 31.7826C7.01318 31.6269 7.21778 31.5191 7.47052 31.4592L7.54875 31.4412C7.80149 31.3813 8.03617 31.3873 8.24679 31.4592C8.45741 31.5311 8.63793 31.6508 8.78236 31.8185C8.92678 31.9922 9.02908 32.1958 9.08926 32.4414L9.32996 33.4295L10.9006 33.0522L11.051 33.681H11.045ZM8.74625 33.5672L8.5236 32.639C8.46944 32.4174 8.36714 32.2557 8.2167 32.1539C8.06626 32.0521 7.89175 32.0221 7.68715 32.07L7.62697 32.082C7.42238 32.1299 7.27193 32.2377 7.18769 32.3934C7.10344 32.5492 7.08539 32.7468 7.13955 32.9684L7.3622 33.8906L8.73422 33.5613L8.74625 33.5672Z" fill="#96561C"/>
</g>
<g filter="url(#filter10_i_18112_126989)">
<path d="M10.2512 29.9266L6.03888 29.9984L6.00879 28.2377C6.00879 27.9802 6.04489 27.7466 6.13516 27.549C6.21941 27.3514 6.35179 27.1957 6.51427 27.0819C6.68276 26.9681 6.88134 26.9082 7.11603 26.9082H7.18223C7.447 26.9082 7.65762 26.9621 7.82009 27.0879C7.98257 27.2136 8.0969 27.3633 8.1631 27.543H8.25938C8.25938 27.3873 8.31354 27.2675 8.4038 27.1717C8.49407 27.0759 8.63247 27.028 8.80698 27.028L10.2031 27.004L10.2151 27.6568L8.90928 27.6808C8.80097 27.6808 8.71672 27.7107 8.65052 27.7706C8.58433 27.8245 8.55424 27.9203 8.56026 28.0401L8.58433 29.3157L10.2452 29.2858L10.2572 29.9325L10.2512 29.9266ZM7.98859 29.3157L7.97053 28.2736C7.97053 28.0401 7.90434 27.8664 7.78399 27.7406C7.66363 27.6149 7.50116 27.555 7.29656 27.555H7.24842C7.04382 27.555 6.88134 27.6269 6.76701 27.7526C6.65267 27.8784 6.5925 28.064 6.59852 28.2976L6.61657 29.3397L7.98859 29.3157Z" fill="#96561C"/>
</g>
<g filter="url(#filter11_i_18112_126989)">
<path d="M10.7145 24.3809C10.6061 24.884 10.3775 25.2553 10.0285 25.4889C9.67943 25.7224 9.24014 25.7823 8.69856 25.6685L7.73574 25.4649C7.20017 25.3511 6.82106 25.1116 6.59841 24.7582C6.37576 24.3989 6.3216 23.9677 6.42991 23.4646C6.53823 22.9616 6.7669 22.5903 7.11592 22.3507C7.46495 22.1112 7.91025 22.0513 8.44582 22.1651L9.40864 22.3687C9.9442 22.4825 10.3233 22.722 10.546 23.0814C10.7686 23.4407 10.8228 23.8719 10.7145 24.3749V24.3809ZM10.1428 24.2552C10.215 23.9318 10.1729 23.6623 10.0164 23.4467C9.86598 23.2311 9.62527 23.0874 9.2943 23.0155L8.28334 22.7999C7.95237 22.728 7.67556 22.764 7.44689 22.8957C7.21822 23.0275 7.06778 23.261 7.00159 23.5844C6.93539 23.9018 6.97752 24.1653 7.12796 24.3869C7.2784 24.6085 7.5191 24.7522 7.85007 24.8241L8.86103 25.0397C9.192 25.1116 9.46881 25.0756 9.69748 24.9379C9.92615 24.8001 10.0766 24.5726 10.1428 24.2552Z" fill="#96561C"/>
</g>
<g filter="url(#filter12_i_18112_126989)">
<path d="M11.9119 20.7514C11.7314 21.1287 11.4847 21.3862 11.1657 21.5119C10.8468 21.6377 10.4918 21.6078 10.1066 21.4281L9.78169 21.2784L10.0585 20.6915L10.3835 20.8412C10.5881 20.937 10.7746 20.955 10.9491 20.9011C11.1236 20.8472 11.256 20.7154 11.3583 20.5058C11.4546 20.3022 11.4666 20.1225 11.3884 19.9728C11.3162 19.8171 11.1718 19.6973 10.9672 19.5955L8.83091 18.6014L8.51799 19.2662L7.98242 19.0146L8.76471 17.3438L9.30028 17.5893L9.1017 18.0145L11.238 19.0086C11.6351 19.1943 11.8879 19.4338 12.0022 19.7393C12.1165 20.0387 12.0864 20.3801 11.9059 20.7514H11.9119Z" fill="#96561C"/>
</g>
<g filter="url(#filter13_i_18112_126989)">
<path d="M13.1041 18.3256L9.74023 15.8043L11.3349 13.6963L11.8043 14.0496L10.6008 15.6426L11.5636 16.3673L12.6708 14.906L13.1402 15.2594L12.0329 16.7146L13.0198 17.4513L14.2414 15.8343L14.7108 16.1876L13.0981 18.3196L13.1041 18.3256Z" fill="#96561C"/>
</g>
<g filter="url(#filter14_i_18112_126989)">
<path d="M16.5933 14.5594C16.2021 14.8947 15.7989 15.0504 15.3837 15.0265C14.9685 15.0025 14.5774 14.7809 14.2163 14.3677L13.5724 13.6251C13.2114 13.2119 13.0549 12.7987 13.091 12.3794C13.1271 11.9662 13.3437 11.5889 13.7349 11.2595C14.12 10.9302 14.5051 10.7864 14.8963 10.8164C15.2874 10.8523 15.6425 11.0499 15.9614 11.4152L15.9855 11.4452L15.4981 11.8644L15.4619 11.8225C15.2754 11.6069 15.0648 11.4811 14.8301 11.4452C14.5954 11.4093 14.3547 11.4931 14.114 11.7027C13.8733 11.9123 13.7469 12.1459 13.7349 12.4094C13.7229 12.6729 13.8312 12.9364 14.0598 13.1939L14.7218 13.9545C14.9444 14.212 15.1851 14.3557 15.4559 14.3857C15.7207 14.4156 15.9734 14.3258 16.2202 14.1162C16.4609 13.9126 16.5812 13.691 16.5752 13.4514C16.5752 13.2119 16.4789 12.9903 16.2984 12.7747L16.2322 12.6968L16.7196 12.2776L16.7738 12.3435C17.0927 12.7088 17.2371 13.0861 17.2131 13.4754C17.189 13.8647 16.9844 14.224 16.5993 14.5534L16.5933 14.5594Z" fill="#96561C"/>
</g>
<g filter="url(#filter15_i_18112_126989)">
<path d="M19.3681 12.5165L17.635 9.34844L16.4977 9.96529L16.2148 9.45025L19.0552 7.91113L19.338 8.42617L18.2007 9.04301L19.9337 12.2111L19.3621 12.5225L19.3681 12.5165Z" fill="#96561C"/>
</g>
<g filter="url(#filter16_i_18112_126989)">
<path d="M25.073 10.5463C24.5615 10.6361 24.1343 10.5702 23.7793 10.3367C23.4242 10.1091 23.2016 9.71984 23.1053 9.18683L22.9308 8.22264C22.8345 7.68365 22.9067 7.24646 23.1534 6.9051C23.4001 6.56374 23.7793 6.34815 24.2908 6.25831C24.8023 6.16848 25.2295 6.23436 25.5845 6.46792C25.9396 6.6955 26.1622 7.08477 26.2645 7.61777L26.439 8.58196C26.5353 9.12096 26.4631 9.55814 26.2104 9.8995C25.9576 10.2409 25.5785 10.4565 25.073 10.5463ZM24.9707 9.97137C25.2957 9.91148 25.5304 9.77373 25.6748 9.54616C25.8192 9.32458 25.8614 9.04909 25.8012 8.71971L25.6146 7.7076C25.5545 7.37822 25.416 7.13268 25.2054 6.97697C24.9948 6.82126 24.724 6.76736 24.3931 6.82725C24.0741 6.88714 23.8394 7.02488 23.695 7.25245C23.5506 7.47404 23.5024 7.74952 23.5626 8.0849L23.7492 9.097C23.8093 9.42638 23.9478 9.67193 24.1644 9.82763C24.381 9.98334 24.6458 10.0372 24.9707 9.97735V9.97137Z" fill="#96561C"/>
</g>
<g filter="url(#filter17_i_18112_126989)">
<path d="M27.7502 10.1452L27.9066 5.95898L30.5062 6.05481L30.4822 6.64171L28.5324 6.56984L28.4843 7.77958L30.2776 7.84545L30.2535 8.43236L28.4602 8.36648L28.394 10.1751L27.7441 10.1511L27.7502 10.1452Z" fill="#96561C"/>
</g>
<g filter="url(#filter18_i_18112_126989)">
<path d="M33.8702 11.0557L35.0497 7.64805L33.8281 7.22883L34.0207 6.67188L37.0837 7.71991L36.8911 8.27687L35.6695 7.85766L34.4901 11.2653L33.8763 11.0557H33.8702Z" fill="#96561C"/>
</g>
<g filter="url(#filter19_i_18112_126989)">
<path d="M36.4697 12.0555L38.6842 8.49219L39.2378 8.83355L38.287 10.3607L39.7915 11.289L40.7422 9.76181L41.2959 10.1032L39.0814 13.6665L38.5278 13.3251L39.4846 11.786L37.9802 10.8578L37.0233 12.3969L36.4697 12.0555Z" fill="#96561C"/>
</g>
<g filter="url(#filter20_i_18112_126989)">
<path d="M39.9482 14.3784L42.8788 11.3721L44.7864 13.2106L44.3772 13.6298L42.939 12.2404L42.0965 13.1028L43.4144 14.3725L43.0052 14.7917L41.6873 13.5161L40.8268 14.3964L42.2891 15.8038L41.8799 16.223L39.9543 14.3605L39.9482 14.3784Z" fill="#96561C"/>
</g>
<g filter="url(#filter21_i_18112_126989)">
<path d="M43.7637 18.7329L47.296 16.3613L47.5788 16.9422L44.3955 19.0204L44.4376 19.1102L48.1204 18.0681L48.6139 19.0862L45.4907 21.2961L45.5328 21.3799L49.1494 20.2061L49.4323 20.787L45.3644 22.0447L44.8709 21.0266L48.0362 18.7868L47.9941 18.7029L44.2571 19.763L43.7637 18.7389V18.7329Z" fill="#96561C"/>
</g>
<g filter="url(#filter22_i_18112_126989)">
<path d="M45.7607 23.4696L49.8948 22.6611L50.4063 25.2543L49.8287 25.3681L49.4435 23.4097L48.2581 23.6433L48.6131 25.4339L48.0354 25.5477L47.6804 23.7571L46.4708 23.9966L46.862 25.9849L46.2843 26.0987L45.7668 23.4756L45.7607 23.4696Z" fill="#96561C"/>
</g>
<g filter="url(#filter23_i_18112_126989)">
<path d="M46.3444 27.0333L50.5567 27.0693L50.5326 29.7103H49.9429L49.961 27.7101L48.7514 27.6981L48.7394 29.5247H48.1497L48.1617 27.6921L46.9281 27.6801L46.91 29.7043H46.3203L46.3444 27.0273V27.0333Z" fill="#96561C"/>
</g>
<g filter="url(#filter24_i_18112_126989)">
<path d="M46.2124 30.6321L50.3284 31.5304L50.19 32.1592L48.481 31.7879L48.463 31.8838L49.835 33.7822L49.6545 34.6087L48.0357 32.3149L45.5264 33.7702L45.7129 32.9198L47.807 31.734L47.8311 31.6382L46.086 31.2549L46.2244 30.6201L46.2124 30.6321Z" fill="#96561C"/>
</g>
<defs>
<filter id="filter0_i_18112_126989" x="1.89551" y="1.95898" width="53.2002" height="53.4437" filterUnits="userSpaceOnUse" color-interpolation-filters="sRGB">
<feFlood flood-opacity="0" result="BackgroundImageFix"/>
<feBlend mode="normal" in="SourceGraphic" in2="BackgroundImageFix" result="shape"/>
<feColorMatrix in="SourceAlpha" type="matrix" values="0 0 0 0 0 0 0 0 0 0 0 0 0 0 0 0 0 0 127 0" result="hardAlpha"/>
<feOffset dy="0.243477"/>
<feGaussianBlur stdDeviation="0.152173"/>
<feComposite in2="hardAlpha" operator="arithmetic" k2="-1" k3="1"/>
<feColorMatrix type="matrix" values="0 0 0 0 0 0 0 0 0 0 0 0 0 0 0 0 0 0 0.25 0"/>
<feBlend mode="normal" in2="shape" result="effect1_innerShadow_18112_126989"/>
</filter>
<filter id="filter1_ii_18112_126989" x="2.74707" y="2.79883" width="51.5195" height="51.5195" filterUnits="userSpaceOnUse" color-interpolation-filters="sRGB">
<feFlood flood-opacity="0" result="BackgroundImageFix"/>
<feBlend mode="normal" in="SourceGraphic" in2="BackgroundImageFix" result="shape"/>
<feColorMatrix in="SourceAlpha" type="matrix" values="0 0 0 0 0 0 0 0 0 0 0 0 0 0 0 0 0 0 127 0" result="hardAlpha"/>
<feOffset/>
<feGaussianBlur stdDeviation="1.21739"/>
<feComposite in2="hardAlpha" operator="arithmetic" k2="-1" k3="1"/>
<feColorMatrix type="matrix" values="0 0 0 0 1 0 0 0 0 1 0 0 0 0 1 0 0 0 0.55 0"/>
<feBlend mode="normal" in2="shape" result="effect1_innerShadow_18112_126989"/>
<feColorMatrix in="SourceAlpha" type="matrix" values="0 0 0 0 0 0 0 0 0 0 0 0 0 0 0 0 0 0 127 0" result="hardAlpha"/>
<feOffset/>
<feGaussianBlur stdDeviation="1.21739"/>
<feComposite in2="hardAlpha" operator="arithmetic" k2="-1" k3="1"/>
<feColorMatrix type="matrix" values="0 0 0 0 1 0 0 0 0 1 0 0 0 0 1 0 0 0 0.35 0"/>
<feBlend mode="normal" in2="effect1_innerShadow_18112_126989" result="effect2_innerShadow_18112_126989"/>
</filter>
<filter id="filter2_f_18112_126989" x="9.89743" y="10.3506" width="36.3331" height="36.1876" filterUnits="userSpaceOnUse" color-interpolation-filters="sRGB">
<feFlood flood-opacity="0" result="BackgroundImageFix"/>
<feBlend mode="normal" in="SourceGraphic" in2="BackgroundImageFix" result="shape"/>
<feGaussianBlur stdDeviation="1.4756" result="effect1_foregroundBlur_18112_126989"/>
</filter>
<filter id="filter3_i_18112_126989" x="12.4795" y="13.0146" width="30.999" height="31.1029" filterUnits="userSpaceOnUse" color-interpolation-filters="sRGB">
<feFlood flood-opacity="0" result="BackgroundImageFix"/>
<feBlend mode="normal" in="SourceGraphic" in2="BackgroundImageFix" result="shape"/>
<feColorMatrix in="SourceAlpha" type="matrix" values="0 0 0 0 0 0 0 0 0 0 0 0 0 0 0 0 0 0 127 0" result="hardAlpha"/>
<feOffset dy="0.243477"/>
<feGaussianBlur stdDeviation="0.152173"/>
<feComposite in2="hardAlpha" operator="arithmetic" k2="-1" k3="1"/>
<feColorMatrix type="matrix" values="0 0 0 0 0 0 0 0 0 0 0 0 0 0 0 0 0 0 0.25 0"/>
<feBlend mode="normal" in2="shape" result="effect1_innerShadow_18112_126989"/>
</filter>
<filter id="filter4_i_18112_126989" x="12.4795" y="13.0146" width="30.999" height="31.1029" filterUnits="userSpaceOnUse" color-interpolation-filters="sRGB">
<feFlood flood-opacity="0" result="BackgroundImageFix"/>
<feBlend mode="normal" in="SourceGraphic" in2="BackgroundImageFix" result="shape"/>
<feColorMatrix in="SourceAlpha" type="matrix" values="0 0 0 0 0 0 0 0 0 0 0 0 0 0 0 0 0 0 127 0" result="hardAlpha"/>
<feOffset dy="0.243477"/>
<feGaussianBlur stdDeviation="0.152173"/>
<feComposite in2="hardAlpha" operator="arithmetic" k2="-1" k3="1"/>
<feColorMatrix type="matrix" values="0 0 0 0 0 0 0 0 0 0 0 0 0 0 0 0 0 0 0.25 0"/>
<feBlend mode="normal" in2="shape" result="effect1_innerShadow_18112_126989"/>
</filter>
<filter id="filter5_i_18112_126989" x="18.042" y="21.2539" width="19.3602" height="14.1053" filterUnits="userSpaceOnUse" color-interpolation-filters="sRGB">
<feFlood flood-opacity="0" result="BackgroundImageFix"/>
<feBlend mode="normal" in="SourceGraphic" in2="BackgroundImageFix" result="shape"/>
<feColorMatrix in="SourceAlpha" type="matrix" values="0 0 0 0 0 0 0 0 0 0 0 0 0 0 0 0 0 0 127 0" result="hardAlpha"/>
<feOffset dx="0.31818" dy="0.31818"/>
<feGaussianBlur stdDeviation="0.31818"/>
<feComposite in2="hardAlpha" operator="arithmetic" k2="-1" k3="1"/>
<feColorMatrix type="matrix" values="0 0 0 0 0 0 0 0 0 0 0 0 0 0 0 0 0 0 0.2 0"/>
<feBlend mode="normal" in2="shape" result="effect1_innerShadow_18112_126989"/>
</filter>
<filter id="filter6_i_18112_126989" x="8.8457" y="38.6885" width="4.03027" height="4.26626" filterUnits="userSpaceOnUse" color-interpolation-filters="sRGB">
<feFlood flood-opacity="0" result="BackgroundImageFix"/>
<feBlend mode="normal" in="SourceGraphic" in2="BackgroundImageFix" result="shape"/>
<feColorMatrix in="SourceAlpha" type="matrix" values="0 0 0 0 0 0 0 0 0 0 0 0 0 0 0 0 0 0 127 0" result="hardAlpha"/>
<feOffset dy="0.254546"/>
<feGaussianBlur stdDeviation="0.159091"/>
<feComposite in2="hardAlpha" operator="arithmetic" k2="-1" k3="1"/>
<feColorMatrix type="matrix" values="0 0 0 0 0 0 0 0 0 0 0 0 0 0 0 0 0 0 0.25 0"/>
<feBlend mode="normal" in2="shape" result="effect1_innerShadow_18112_126989"/>
</filter>
<filter id="filter7_i_18112_126989" x="44.3477" y="37.7979" width="4.03125" height="4.26626" filterUnits="userSpaceOnUse" color-interpolation-filters="sRGB">
<feFlood flood-opacity="0" result="BackgroundImageFix"/>
<feBlend mode="normal" in="SourceGraphic" in2="BackgroundImageFix" result="shape"/>
<feColorMatrix in="SourceAlpha" type="matrix" values="0 0 0 0 0 0 0 0 0 0 0 0 0 0 0 0 0 0 127 0" result="hardAlpha"/>
<feOffset dy="0.254546"/>
<feGaussianBlur stdDeviation="0.159091"/>
<feComposite in2="hardAlpha" operator="arithmetic" k2="-1" k3="1"/>
<feColorMatrix type="matrix" values="0 0 0 0 0 0 0 0 0 0 0 0 0 0 0 0 0 0 0.25 0"/>
<feBlend mode="normal" in2="shape" result="effect1_innerShadow_18112_126989"/>
</filter>
<filter id="filter8_i_18112_126989" x="15.4609" y="44.3037" width="26.3271" height="7.76529" filterUnits="userSpaceOnUse" color-interpolation-filters="sRGB">
<feFlood flood-opacity="0" result="BackgroundImageFix"/>
<feBlend mode="normal" in="SourceGraphic" in2="BackgroundImageFix" result="shape"/>
<feColorMatrix in="SourceAlpha" type="matrix" values="0 0 0 0 0 0 0 0 0 0 0 0 0 0 0 0 0 0 127 0" result="hardAlpha"/>
<feOffset dy="0.254546"/>
<feGaussianBlur stdDeviation="0.159091"/>
<feComposite in2="hardAlpha" operator="arithmetic" k2="-1" k3="1"/>
<feColorMatrix type="matrix" values="0 0 0 0 0 0 0 0 0 0 0 0 0 0 0 0 0 0 0.25 0"/>
<feBlend mode="normal" in2="shape" result="effect1_innerShadow_18112_126989"/>
</filter>
<filter id="filter9_i_18112_126989" x="6.5127" y="31.4004" width="4.53809" height="3.50225" filterUnits="userSpaceOnUse" color-interpolation-filters="sRGB">
<feFlood flood-opacity="0" result="BackgroundImageFix"/>
<feBlend mode="normal" in="SourceGraphic" in2="BackgroundImageFix" result="shape"/>
<feColorMatrix in="SourceAlpha" type="matrix" values="0 0 0 0 0 0 0 0 0 0 0 0 0 0 0 0 0 0 127 0" result="hardAlpha"/>
<feOffset dy="0.239552"/>
<feGaussianBlur stdDeviation="0.14972"/>
<feComposite in2="hardAlpha" operator="arithmetic" k2="-1" k3="1"/>
<feColorMatrix type="matrix" values="0 0 0 0 0 0 0 0 0 0 0 0 0 0 0 0 0 0 0.25 0"/>
<feBlend mode="normal" in2="shape" result="effect1_innerShadow_18112_126989"/>
</filter>
<filter id="filter10_i_18112_126989" x="6.00879" y="26.9082" width="4.24805" height="3.3294" filterUnits="userSpaceOnUse" color-interpolation-filters="sRGB">
<feFlood flood-opacity="0" result="BackgroundImageFix"/>
<feBlend mode="normal" in="SourceGraphic" in2="BackgroundImageFix" result="shape"/>
<feColorMatrix in="SourceAlpha" type="matrix" values="0 0 0 0 0 0 0 0 0 0 0 0 0 0 0 0 0 0 127 0" result="hardAlpha"/>
<feOffset dy="0.239552"/>
<feGaussianBlur stdDeviation="0.14972"/>
<feComposite in2="hardAlpha" operator="arithmetic" k2="-1" k3="1"/>
<feColorMatrix type="matrix" values="0 0 0 0 0 0 0 0 0 0 0 0 0 0 0 0 0 0 0.25 0"/>
<feBlend mode="normal" in2="shape" result="effect1_innerShadow_18112_126989"/>
</filter>
<filter id="filter11_i_18112_126989" x="6.37598" y="22.1094" width="4.39258" height="3.85479" filterUnits="userSpaceOnUse" color-interpolation-filters="sRGB">
<feFlood flood-opacity="0" result="BackgroundImageFix"/>
<feBlend mode="normal" in="SourceGraphic" in2="BackgroundImageFix" result="shape"/>
<feColorMatrix in="SourceAlpha" type="matrix" values="0 0 0 0 0 0 0 0 0 0 0 0 0 0 0 0 0 0 127 0" result="hardAlpha"/>
<feOffset dy="0.239552"/>
<feGaussianBlur stdDeviation="0.14972"/>
<feComposite in2="hardAlpha" operator="arithmetic" k2="-1" k3="1"/>
<feColorMatrix type="matrix" values="0 0 0 0 0 0 0 0 0 0 0 0 0 0 0 0 0 0 0.25 0"/>
<feBlend mode="normal" in2="shape" result="effect1_innerShadow_18112_126989"/>
</filter>
<filter id="filter12_i_18112_126989" x="7.98242" y="17.3438" width="4.08691" height="4.48467" filterUnits="userSpaceOnUse" color-interpolation-filters="sRGB">
<feFlood flood-opacity="0" result="BackgroundImageFix"/>
<feBlend mode="normal" in="SourceGraphic" in2="BackgroundImageFix" result="shape"/>
<feColorMatrix in="SourceAlpha" type="matrix" values="0 0 0 0 0 0 0 0 0 0 0 0 0 0 0 0 0 0 127 0" result="hardAlpha"/>
<feOffset dy="0.239552"/>
<feGaussianBlur stdDeviation="0.14972"/>
<feComposite in2="hardAlpha" operator="arithmetic" k2="-1" k3="1"/>
<feColorMatrix type="matrix" values="0 0 0 0 0 0 0 0 0 0 0 0 0 0 0 0 0 0 0.25 0"/>
<feBlend mode="normal" in2="shape" result="effect1_innerShadow_18112_126989"/>
</filter>
<filter id="filter13_i_18112_126989" x="9.74023" y="13.6963" width="4.9707" height="4.86846" filterUnits="userSpaceOnUse" color-interpolation-filters="sRGB">
<feFlood flood-opacity="0" result="BackgroundImageFix"/>
<feBlend mode="normal" in="SourceGraphic" in2="BackgroundImageFix" result="shape"/>
<feColorMatrix in="SourceAlpha" type="matrix" values="0 0 0 0 0 0 0 0 0 0 0 0 0 0 0 0 0 0 127 0" result="hardAlpha"/>
<feOffset dy="0.239552"/>
<feGaussianBlur stdDeviation="0.14972"/>
<feComposite in2="hardAlpha" operator="arithmetic" k2="-1" k3="1"/>
<feColorMatrix type="matrix" values="0 0 0 0 0 0 0 0 0 0 0 0 0 0 0 0 0 0 0.25 0"/>
<feBlend mode="normal" in2="shape" result="effect1_innerShadow_18112_126989"/>
</filter>
<filter id="filter14_i_18112_126989" x="13.0859" y="10.8125" width="4.12988" height="4.45635" filterUnits="userSpaceOnUse" color-interpolation-filters="sRGB">
<feFlood flood-opacity="0" result="BackgroundImageFix"/>
<feBlend mode="normal" in="SourceGraphic" in2="BackgroundImageFix" result="shape"/>
<feColorMatrix in="SourceAlpha" type="matrix" values="0 0 0 0 0 0 0 0 0 0 0 0 0 0 0 0 0 0 127 0" result="hardAlpha"/>
<feOffset dy="0.239552"/>
<feGaussianBlur stdDeviation="0.14972"/>
<feComposite in2="hardAlpha" operator="arithmetic" k2="-1" k3="1"/>
<feColorMatrix type="matrix" values="0 0 0 0 0 0 0 0 0 0 0 0 0 0 0 0 0 0 0.25 0"/>
<feBlend mode="normal" in2="shape" result="effect1_innerShadow_18112_126989"/>
</filter>
<filter id="filter15_i_18112_126989" x="16.2148" y="7.91113" width="3.71875" height="4.85088" filterUnits="userSpaceOnUse" color-interpolation-filters="sRGB">
<feFlood flood-opacity="0" result="BackgroundImageFix"/>
<feBlend mode="normal" in="SourceGraphic" in2="BackgroundImageFix" result="shape"/>
<feColorMatrix in="SourceAlpha" type="matrix" values="0 0 0 0 0 0 0 0 0 0 0 0 0 0 0 0 0 0 127 0" result="hardAlpha"/>
<feOffset dy="0.239552"/>
<feGaussianBlur stdDeviation="0.14972"/>
<feComposite in2="hardAlpha" operator="arithmetic" k2="-1" k3="1"/>
<feColorMatrix type="matrix" values="0 0 0 0 0 0 0 0 0 0 0 0 0 0 0 0 0 0 0.25 0"/>
<feBlend mode="normal" in2="shape" result="effect1_innerShadow_18112_126989"/>
</filter>
<filter id="filter16_i_18112_126989" x="22.8896" y="6.21973" width="3.59082" height="4.60479" filterUnits="userSpaceOnUse" color-interpolation-filters="sRGB">
<feFlood flood-opacity="0" result="BackgroundImageFix"/>
<feBlend mode="normal" in="SourceGraphic" in2="BackgroundImageFix" result="shape"/>
<feColorMatrix in="SourceAlpha" type="matrix" values="0 0 0 0 0 0 0 0 0 0 0 0 0 0 0 0 0 0 127 0" result="hardAlpha"/>
<feOffset dy="0.239552"/>
<feGaussianBlur stdDeviation="0.14972"/>
<feComposite in2="hardAlpha" operator="arithmetic" k2="-1" k3="1"/>
<feColorMatrix type="matrix" values="0 0 0 0 0 0 0 0 0 0 0 0 0 0 0 0 0 0 0.25 0"/>
<feBlend mode="normal" in2="shape" result="effect1_innerShadow_18112_126989"/>
</filter>
<filter id="filter17_i_18112_126989" x="27.7441" y="5.95898" width="2.76172" height="4.45537" filterUnits="userSpaceOnUse" color-interpolation-filters="sRGB">
<feFlood flood-opacity="0" result="BackgroundImageFix"/>
<feBlend mode="normal" in="SourceGraphic" in2="BackgroundImageFix" result="shape"/>
<feColorMatrix in="SourceAlpha" type="matrix" values="0 0 0 0 0 0 0 0 0 0 0 0 0 0 0 0 0 0 127 0" result="hardAlpha"/>
<feOffset dy="0.239552"/>
<feGaussianBlur stdDeviation="0.14972"/>
<feComposite in2="hardAlpha" operator="arithmetic" k2="-1" k3="1"/>
<feColorMatrix type="matrix" values="0 0 0 0 0 0 0 0 0 0 0 0 0 0 0 0 0 0 0.25 0"/>
<feBlend mode="normal" in2="shape" result="effect1_innerShadow_18112_126989"/>
</filter>
<filter id="filter18_i_18112_126989" x="33.8281" y="6.67188" width="3.25586" height="4.8333" filterUnits="userSpaceOnUse" color-interpolation-filters="sRGB">
<feFlood flood-opacity="0" result="BackgroundImageFix"/>
<feBlend mode="normal" in="SourceGraphic" in2="BackgroundImageFix" result="shape"/>
<feColorMatrix in="SourceAlpha" type="matrix" values="0 0 0 0 0 0 0 0 0 0 0 0 0 0 0 0 0 0 127 0" result="hardAlpha"/>
<feOffset dy="0.239552"/>
<feGaussianBlur stdDeviation="0.14972"/>
<feComposite in2="hardAlpha" operator="arithmetic" k2="-1" k3="1"/>
<feColorMatrix type="matrix" values="0 0 0 0 0 0 0 0 0 0 0 0 0 0 0 0 0 0 0.25 0"/>
<feBlend mode="normal" in2="shape" result="effect1_innerShadow_18112_126989"/>
</filter>
<filter id="filter19_i_18112_126989" x="36.4697" y="8.49219" width="4.82617" height="5.41436" filterUnits="userSpaceOnUse" color-interpolation-filters="sRGB">
<feFlood flood-opacity="0" result="BackgroundImageFix"/>
<feBlend mode="normal" in="SourceGraphic" in2="BackgroundImageFix" result="shape"/>
<feColorMatrix in="SourceAlpha" type="matrix" values="0 0 0 0 0 0 0 0 0 0 0 0 0 0 0 0 0 0 127 0" result="hardAlpha"/>
<feOffset dy="0.239552"/>
<feGaussianBlur stdDeviation="0.14972"/>
<feComposite in2="hardAlpha" operator="arithmetic" k2="-1" k3="1"/>
<feColorMatrix type="matrix" values="0 0 0 0 0 0 0 0 0 0 0 0 0 0 0 0 0 0 0.25 0"/>
<feBlend mode="normal" in2="shape" result="effect1_innerShadow_18112_126989"/>
</filter>
<filter id="filter20_i_18112_126989" x="39.9482" y="11.3721" width="4.83789" height="5.09014" filterUnits="userSpaceOnUse" color-interpolation-filters="sRGB">
<feFlood flood-opacity="0" result="BackgroundImageFix"/>
<feBlend mode="normal" in="SourceGraphic" in2="BackgroundImageFix" result="shape"/>
<feColorMatrix in="SourceAlpha" type="matrix" values="0 0 0 0 0 0 0 0 0 0 0 0 0 0 0 0 0 0 127 0" result="hardAlpha"/>
<feOffset dy="0.239552"/>
<feGaussianBlur stdDeviation="0.14972"/>
<feComposite in2="hardAlpha" operator="arithmetic" k2="-1" k3="1"/>
<feColorMatrix type="matrix" values="0 0 0 0 0 0 0 0 0 0 0 0 0 0 0 0 0 0 0.25 0"/>
<feBlend mode="normal" in2="shape" result="effect1_innerShadow_18112_126989"/>
</filter>
<filter id="filter21_i_18112_126989" x="43.7637" y="16.3613" width="5.66895" height="5.92315" filterUnits="userSpaceOnUse" color-interpolation-filters="sRGB">
<feFlood flood-opacity="0" result="BackgroundImageFix"/>
<feBlend mode="normal" in="SourceGraphic" in2="BackgroundImageFix" result="shape"/>
<feColorMatrix in="SourceAlpha" type="matrix" values="0 0 0 0 0 0 0 0 0 0 0 0 0 0 0 0 0 0 127 0" result="hardAlpha"/>
<feOffset dy="0.239552"/>
<feGaussianBlur stdDeviation="0.14972"/>
<feComposite in2="hardAlpha" operator="arithmetic" k2="-1" k3="1"/>
<feColorMatrix type="matrix" values="0 0 0 0 0 0 0 0 0 0 0 0 0 0 0 0 0 0 0.25 0"/>
<feBlend mode="normal" in2="shape" result="effect1_innerShadow_18112_126989"/>
</filter>
<filter id="filter22_i_18112_126989" x="45.7607" y="22.6611" width="4.64551" height="3.67705" filterUnits="userSpaceOnUse" color-interpolation-filters="sRGB">
<feFlood flood-opacity="0" result="BackgroundImageFix"/>
<feBlend mode="normal" in="SourceGraphic" in2="BackgroundImageFix" result="shape"/>
<feColorMatrix in="SourceAlpha" type="matrix" values="0 0 0 0 0 0 0 0 0 0 0 0 0 0 0 0 0 0 127 0" result="hardAlpha"/>
<feOffset dy="0.239552"/>
<feGaussianBlur stdDeviation="0.14972"/>
<feComposite in2="hardAlpha" operator="arithmetic" k2="-1" k3="1"/>
<feColorMatrix type="matrix" values="0 0 0 0 0 0 0 0 0 0 0 0 0 0 0 0 0 0 0.25 0"/>
<feBlend mode="normal" in2="shape" result="effect1_innerShadow_18112_126989"/>
</filter>
<filter id="filter23_i_18112_126989" x="46.3203" y="27.0273" width="4.23633" height="2.92217" filterUnits="userSpaceOnUse" color-interpolation-filters="sRGB">
<feFlood flood-opacity="0" result="BackgroundImageFix"/>
<feBlend mode="normal" in="SourceGraphic" in2="BackgroundImageFix" result="shape"/>
<feColorMatrix in="SourceAlpha" type="matrix" values="0 0 0 0 0 0 0 0 0 0 0 0 0 0 0 0 0 0 127 0" result="hardAlpha"/>
<feOffset dy="0.239552"/>
<feGaussianBlur stdDeviation="0.14972"/>
<feComposite in2="hardAlpha" operator="arithmetic" k2="-1" k3="1"/>
<feColorMatrix type="matrix" values="0 0 0 0 0 0 0 0 0 0 0 0 0 0 0 0 0 0 0.25 0"/>
<feBlend mode="normal" in2="shape" result="effect1_innerShadow_18112_126989"/>
</filter>
<filter id="filter24_i_18112_126989" x="45.5264" y="30.6201" width="4.80176" height="4.22783" filterUnits="userSpaceOnUse" color-interpolation-filters="sRGB">
<feFlood flood-opacity="0" result="BackgroundImageFix"/>
<feBlend mode="normal" in="SourceGraphic" in2="BackgroundImageFix" result="shape"/>
<feColorMatrix in="SourceAlpha" type="matrix" values="0 0 0 0 0 0 0 0 0 0 0 0 0 0 0 0 0 0 127 0" result="hardAlpha"/>
<feOffset dy="0.239552"/>
<feGaussianBlur stdDeviation="0.14972"/>
<feComposite in2="hardAlpha" operator="arithmetic" k2="-1" k3="1"/>
<feColorMatrix type="matrix" values="0 0 0 0 0 0 0 0 0 0 0 0 0 0 0 0 0 0 0.25 0"/>
<feBlend mode="normal" in2="shape" result="effect1_innerShadow_18112_126989"/>
</filter>
<linearGradient id="paint0_linear_18112_126989" x1="10.3991" y1="-10.0166" x2="-7.83795" y2="62.3641" gradientUnits="userSpaceOnUse">
<stop offset="0.0946799" stop-color="#FEDE6D"/>
<stop offset="0.370604" stop-color="#EAB94C"/>
<stop offset="0.75" stop-color="#FFED71"/>
<stop offset="0.866546" stop-color="#FAD27B"/>
</linearGradient>
</defs>
</svg>
