<svg width="57" height="66" viewBox="0 0 57 66" fill="none" xmlns="http://www.w3.org/2000/svg">
<mask id="mask0_18112_126884" style="mask-type:alpha" maskUnits="userSpaceOnUse" x="1" y="34" width="30" height="32">
<path d="M15.0386 65.8893C24.1168 58.1517 30.0935 47.9428 30.9734 42.0067L16.5321 34.5293C15.5513 41.354 7.27478 51.9958 1.52051 57.9197C8.59316 57.9197 10.7905 57.2428 13.4272 56.8733C15.0888 59.4734 14.7465 62.3603 15.0386 65.8893Z" fill="#D9D9D9"/>
</mask>
<g mask="url(#mask0_18112_126884)">
<path d="M10.5723 62.489L27.1254 35.5146L32.9847 40.5401L33.7172 44.9742L23.1701 62.489L12.6963 68.2531L10.5723 62.489Z" fill="#E52E40"/>
<path d="M12.2571 60.7895C17.6038 55.7643 26.1733 43.1271 26.686 37.0669L21.0462 34.0371L5.51855 58.7941L12.2571 60.7895Z" fill="#F6F8FA"/>
<path d="M-0.415039 57.5382C4.21393 55.8237 12.4026 40.7626 15.9183 33.4463L21.4848 35.2199C22.8325 40.3634 12.5247 53.375 7.20233 59.2379H-0.415039V57.5382Z" fill="#0E6A8E"/>
</g>
<mask id="mask1_18112_126884" style="mask-type:alpha" maskUnits="userSpaceOnUse" x="25" y="34" width="31" height="32">
<path d="M41.7632 65.8893C32.685 58.1517 26.7083 47.9428 25.8283 42.0067L40.2696 34.5293C41.2505 41.354 49.527 51.9958 55.2812 57.9197C48.2086 57.9197 46.0113 57.2428 43.3745 56.8733C41.7129 59.4734 42.0552 62.3603 41.7632 65.8893Z" fill="#D9D9D9"/>
</mask>
<g mask="url(#mask1_18112_126884)">
<path d="M46.2295 62.489L29.6764 35.5146L23.817 40.5401L23.0846 44.9742L33.6317 62.489L44.1055 68.2531L46.2295 62.489Z" fill="#E52E40"/>
<path d="M44.5457 60.7895C39.1989 55.7643 30.6294 43.1271 30.1168 37.0669L35.7565 34.0371L51.2842 58.7941L44.5457 60.7895Z" fill="#F6F8FA"/>
<path d="M57.2168 57.5382C52.5878 55.8237 44.3992 40.7626 40.8835 33.4463L35.3169 35.2199C33.9692 40.3634 44.2771 53.375 49.5994 59.2379H57.2168V57.5382Z" fill="#0E6A8E"/>
</g>
<g filter="url(#filter0_i_18112_126884)">
<path d="M34.0289 1.15559C36.7746 0.427176 39.6791 1.49661 41.3196 3.84004L43.6495 7.16835C44.3267 8.13568 45.2389 8.91005 46.2982 9.41672L49.9429 11.16C52.509 12.3874 54.0545 15.0953 53.8222 17.9573L53.4922 22.022C53.3963 23.2033 53.6031 24.3898 54.0926 25.4667L55.7769 29.1721C56.9628 31.7811 56.4261 34.8604 54.4297 36.9017L51.5942 39.8009C50.7701 40.6435 50.1747 41.6868 49.8654 42.8301L48.8012 46.7638C48.0519 49.5335 45.6841 51.5434 42.8578 51.8089L38.8435 52.1861C37.6768 52.2957 36.5578 52.7077 35.5944 53.3824L32.2797 55.7038C29.9458 57.3383 26.8549 57.3383 24.5211 55.7038L21.2064 53.3824C20.243 52.7077 19.124 52.2957 17.9573 52.1861L13.943 51.8089C11.1166 51.5434 8.74887 49.5335 7.9996 46.7638L6.93542 42.8301C6.62613 41.6868 6.03069 40.6435 5.2066 39.8009L2.37112 36.9017C0.374695 34.8604 -0.162036 31.781 1.02385 29.1721L2.70815 25.4667C3.19766 24.3898 3.40446 23.2033 3.30856 22.022L2.9786 17.9573C2.74629 15.0953 4.29173 12.3874 6.8579 11.16L10.5026 9.41672C11.5618 8.91006 12.4741 8.13568 13.1513 7.16835L15.4812 3.84004C17.1217 1.49662 20.0262 0.427175 22.7719 1.15559L26.6716 2.19014C27.805 2.49082 28.9958 2.49082 30.1292 2.19014L34.0289 1.15559Z" fill="#96561C"/>
</g>
<g filter="url(#filter1_ii_18112_126884)">
<path d="M34.3313 1.97566C36.6813 1.35193 39.1673 2.26768 40.5714 4.27431L43.226 8.06801C43.8056 8.89632 44.5864 9.5594 45.4931 9.99325L49.6455 11.9803C51.8419 13.0313 53.1647 15.3501 52.9658 17.8007L52.5899 22.4338C52.5078 23.4453 52.6848 24.4612 53.1038 25.3834L55.0228 29.6069C56.0378 31.8409 55.5784 34.4777 53.8696 36.2256L50.6391 39.5302C49.9337 40.2517 49.4241 41.1451 49.1594 42.1241L47.9469 46.6079C47.3056 48.9795 45.279 50.7006 42.8599 50.9279L38.2864 51.3578C37.2878 51.4516 36.33 51.8044 35.5054 52.3822L31.7289 55.0282C29.7313 56.4278 27.0858 56.4278 25.0883 55.0282L21.3117 52.3822C20.4871 51.8044 19.5293 51.4516 18.5308 51.3578L13.9572 50.9279C11.5381 50.7006 9.51151 48.9795 8.8702 46.6079L7.65775 42.1241C7.39303 41.1451 6.88339 40.2517 6.17804 39.5302L2.9475 36.2256C1.23875 34.4777 0.779358 31.8409 1.79437 29.6069L3.71333 25.3834C4.13231 24.4612 4.30931 23.4453 4.22723 22.4338L3.8513 17.8007C3.65246 15.3501 4.97522 13.0313 7.17162 11.9803L11.3241 9.99325C12.2307 9.55941 13.0115 8.89632 13.5911 8.06801L16.2457 4.27431C17.6498 2.26768 20.1358 1.35193 22.4859 1.97566L26.9289 3.15487C27.8989 3.41234 28.9182 3.41234 29.8883 3.15487L34.3313 1.97566Z" fill="url(#paint0_linear_18112_126884)"/>
</g>
<g filter="url(#filter2_di_18112_126884)">
<path d="M37.145 16.6036L36.0446 15.0497C35.0043 13.5807 33.1625 12.9104 31.4214 13.367L29.5795 13.85C29.0026 14.0013 28.3963 14.0013 27.8193 13.85L25.9775 13.367C24.2364 12.9104 22.3946 13.5807 21.3543 15.0497L20.2538 16.6036C19.9091 17.0904 19.4447 17.4801 18.9054 17.7351L17.184 18.549C15.5567 19.3184 14.5767 21.0158 14.7241 22.8097L14.8799 24.7075C14.9287 25.3019 14.8235 25.899 14.5742 26.4409L13.7787 28.1709C13.0267 29.8063 13.3671 31.7365 14.6331 33.0161L15.9723 34.3696C16.3918 34.7937 16.695 35.3187 16.8524 35.894L17.355 37.7306C17.8302 39.4668 19.3316 40.7266 21.1239 40.8931L23.0198 41.0691C23.6138 41.1243 24.1835 41.3316 24.6739 41.6712L26.2395 42.755C27.7194 43.7796 29.6794 43.7796 31.1594 42.755L32.7249 41.6712C33.2154 41.3316 33.7851 41.1243 34.379 41.0691L36.275 40.8931C38.0673 40.7266 39.5687 39.4668 40.0438 37.7306L40.5465 35.894C40.7039 35.3187 41.007 34.7937 41.4266 34.3696L42.7658 33.0161C44.0318 31.7365 44.3721 29.8063 43.6201 28.1709L42.8246 26.4409C42.5754 25.899 42.4701 25.3019 42.519 24.7075L42.6748 22.8097C42.8221 21.0158 41.8421 19.3184 40.2149 18.549L38.4934 17.7351C37.9542 17.4801 37.4898 17.0904 37.145 16.6036Z" stroke="#96561C" stroke-width="0.852174" shape-rendering="crispEdges"/>
</g>
<g opacity="0.6" filter="url(#filter3_f_18112_126884)">
<path d="M35.4485 15.4718L36.5489 17.0258C36.9662 17.615 37.5284 18.0868 38.1812 18.3954L39.9026 19.2093C41.2549 19.8487 42.0692 21.2592 41.9468 22.7499L41.791 24.6477C41.7319 25.3673 41.8593 26.0901 42.161 26.7461L42.9565 28.4761C43.5814 29.8351 43.2986 31.439 42.2466 32.5023L40.9073 33.8559C40.3995 34.3692 40.0325 35.0048 39.8419 35.7012L39.3393 37.5378C38.9445 38.9805 37.6968 40.0275 36.2074 40.1658L34.3115 40.3418C33.5925 40.4086 32.9029 40.6596 32.3092 41.0706L30.7436 42.1544C29.5138 43.0058 27.8851 43.0058 26.6553 42.1544L25.0897 41.0706C24.496 40.6596 23.8064 40.4086 23.0874 40.3418L21.1914 40.1658C19.7021 40.0275 18.4544 38.9805 18.0596 37.5378L17.5569 35.7012C17.3663 35.0048 16.9994 34.3692 16.4915 33.8559L15.1523 32.5023C14.1003 31.439 13.8175 29.8351 14.4424 28.4761L15.2379 26.7461C15.5395 26.0901 15.667 25.3673 15.6079 24.6477L15.452 22.7499C15.3296 21.2592 16.144 19.8487 17.4962 19.2093L19.2176 18.3954C19.8704 18.0868 20.4326 17.615 20.8499 17.0258L21.9504 15.4718C22.8148 14.2512 24.3453 13.6941 25.7922 14.0735L27.634 14.5565C28.3325 14.7397 29.0664 14.7397 29.7648 14.5565L31.6067 14.0735C33.0535 13.6941 34.584 14.2512 35.4485 15.4718Z" stroke="white" stroke-width="0.608693"/>
</g>
<g filter="url(#filter4_i_18112_126884)">
<path d="M21.0256 35.1171V31.3547H18.8447V29.4242H21.0256V27.021H18.8447V25.0906H21.0256V21.3281H23.0508V25.0906H25.3874V21.3281H27.4126V25.0906H29.5935V27.021H27.4126V29.4242H29.5935V31.3547H27.4126V35.1171H25.3874V31.3547H23.0508V35.1171H21.0256ZM23.0508 29.4242H25.3874V27.021H23.0508V29.4242Z" fill="#96561C"/>
<path d="M35.4116 35.1171V22.9828H35.0806L33.036 27.4938H30.6409L33.5422 21.3281H37.6704V35.1171H35.4116Z" fill="#96561C"/>
</g>
<g filter="url(#filter5_i_18112_126884)">
<path d="M14.2368 40.5253L13.3223 41.5298C13.0113 41.8714 12.9501 42.3756 13.1702 42.7832L13.8173 43.9816L12.8244 43.0565C12.4867 42.7418 11.9883 42.6799 11.5854 42.9026L10.4007 43.5573L11.3153 42.5528C11.6263 42.2112 11.6875 41.707 11.4674 41.2994L10.8202 40.1009L11.8132 41.0261C12.1509 41.3408 12.6492 41.4027 13.0521 41.18L14.2368 40.5253Z" fill="#96561C"/>
</g>
<g filter="url(#filter6_i_18112_126884)">
<path d="M43.4429 39.6846L44.6276 40.3393C45.0305 40.562 45.5289 40.5001 45.8666 40.1854L46.8595 39.2603L46.2123 40.4587C45.9922 40.8663 46.0534 41.3705 46.3645 41.7121L47.279 42.7166L46.0943 42.0619C45.6914 41.8392 45.193 41.9012 44.8553 42.2158L43.8624 43.141L44.5095 41.9425C44.7296 41.5349 44.6685 41.0307 44.3574 40.6891L43.4429 39.6846Z" fill="#96561C"/>
</g>
<g filter="url(#filter7_i_18112_126884)">
<path d="M21.3722 46.6955C21.2535 46.9416 21.0872 47.1241 20.8734 47.2429C20.6615 47.3627 20.4166 47.4154 20.1387 47.401C19.8607 47.3866 19.5652 47.3021 19.2522 47.1476C19.0448 47.0451 18.8658 46.9296 18.7154 46.801C18.5649 46.6724 18.4449 46.5364 18.3553 46.3929L18.5192 46.1549C18.565 46.2342 18.6197 46.3097 18.6832 46.3812C18.7468 46.4528 18.8192 46.518 18.9005 46.5771C18.9818 46.6361 19.0705 46.6893 19.1667 46.7368C19.342 46.8234 19.5146 46.8649 19.6845 46.8614C19.8552 46.856 20.0129 46.8027 20.1574 46.7016C20.3028 46.5986 20.4238 46.4469 20.5205 46.2466C20.6328 46.0139 20.6841 45.7888 20.6746 45.5715C20.6669 45.3551 20.6017 45.1588 20.479 44.9824C20.359 44.8051 20.1869 44.661 19.9624 44.5502L19.7418 44.4413L18.1817 47.6749C18.1614 47.7169 18.1552 47.7587 18.1631 47.8004C18.172 47.8402 18.1986 47.877 18.243 47.9107L18.4726 48.0666C18.5179 48.0984 18.545 48.1318 18.5537 48.1669C18.5634 48.2 18.5577 48.2385 18.5365 48.2824C18.5172 48.3225 18.4874 48.3479 18.4472 48.3588C18.4069 48.3696 18.3566 48.3601 18.2963 48.3303L16.8197 47.6012C16.7612 47.5724 16.7238 47.5386 16.7075 47.4998C16.6912 47.461 16.6927 47.4216 16.712 47.3815C16.747 47.309 16.8115 47.2795 16.9054 47.2928L17.0804 47.3367C17.1349 47.3447 17.1799 47.3409 17.2155 47.3254C17.2529 47.3108 17.2817 47.2825 17.3019 47.2405L18.7682 44.2015C18.7884 44.1595 18.7927 44.1191 18.7811 44.0803C18.7714 44.0424 18.7466 44.0042 18.7068 43.9657L18.565 43.8531C18.4968 43.7864 18.4802 43.7168 18.5151 43.6443C18.5354 43.6023 18.5652 43.5768 18.6045 43.5679C18.6448 43.5571 18.6941 43.5661 18.7526 43.595L20.1245 44.2724C20.5375 44.4763 20.8588 44.7129 21.0885 44.9822C21.3191 45.2496 21.4574 45.5317 21.5034 45.8284C21.5522 46.1241 21.5084 46.4132 21.3722 46.6955Z" fill="#96561C"/>
<path d="M24.5854 48.5642C24.5572 48.6753 24.5037 48.7534 24.425 48.7987C24.3489 48.8424 24.2508 48.8487 24.1309 48.8174L22.2288 48.3221L22.29 48.0815L23.5398 48.407C23.6434 48.434 23.7073 48.4002 23.7314 48.3057C23.8004 48.0343 23.8037 47.817 23.7412 47.6539C23.6792 47.4887 23.5659 47.3847 23.4013 47.3418C23.2753 47.309 23.1536 47.3189 23.0362 47.3716C22.9193 47.4223 22.8138 47.5132 22.7198 47.6444C22.6283 47.774 22.5567 47.9405 22.5049 48.1441C22.4034 48.5429 22.4197 48.8661 22.5539 49.1137C22.6886 49.3592 22.9084 49.5217 23.2132 49.601C23.392 49.6476 23.5587 49.6527 23.7132 49.6162C23.8676 49.5797 23.9992 49.5054 24.1079 49.3934C24.1549 49.3618 24.1914 49.3418 24.2175 49.3332C24.2435 49.3246 24.2677 49.3232 24.29 49.3291C24.3225 49.3375 24.342 49.359 24.3484 49.3936C24.3573 49.4266 24.3552 49.4644 24.3422 49.5071C24.2902 49.6776 24.1884 49.8221 24.0369 49.9405C23.886 50.0568 23.7027 50.1341 23.4872 50.1722C23.2721 50.2082 23.0386 50.1935 22.7866 50.1278C22.492 50.0511 22.2463 49.9225 22.0495 49.7419C21.8533 49.5593 21.7181 49.341 21.6441 49.0872C21.5705 48.8313 21.5714 48.5553 21.6467 48.2593C21.7262 47.9468 21.8576 47.6862 22.0407 47.4774C22.2259 47.2691 22.4506 47.1271 22.7147 47.0512C22.9814 46.9738 23.2743 46.9766 23.5934 47.0597C23.8657 47.1306 24.0856 47.2416 24.253 47.3926C24.4209 47.5416 24.5322 47.7174 24.5868 47.9201C24.6439 48.1213 24.6435 48.336 24.5854 48.5642Z" fill="#96561C"/>
<path d="M28.2744 48.9552C28.2658 49.0695 28.2266 49.1559 28.157 49.2144C28.0895 49.2709 27.9941 49.2944 27.8707 49.2848L25.9122 49.1332L25.931 48.8856L27.2178 48.9852C27.3245 48.9934 27.3815 48.9489 27.3889 48.8515C27.41 48.5721 27.3757 48.3576 27.286 48.208C27.1965 48.0563 27.067 47.9739 26.8975 47.9608C26.7678 47.9508 26.6496 47.9821 26.5431 48.0547C26.4368 48.1253 26.3486 48.2334 26.2787 48.3791C26.211 48.5229 26.1692 48.6996 26.1533 48.9092C26.1223 49.3198 26.1942 49.6351 26.369 49.8552C26.5441 50.0731 26.7885 50.1943 27.1024 50.2186C27.2865 50.2328 27.4514 50.2083 27.5972 50.1451C27.743 50.0819 27.8598 49.9855 27.9474 49.856C27.9883 49.8166 28.0208 49.7904 28.0449 49.7774C28.0691 49.7643 28.0926 49.7587 28.1156 49.7605C28.1491 49.7631 28.172 49.7808 28.1842 49.8137C28.1987 49.8446 28.2032 49.8822 28.1978 49.9265C28.176 50.1037 28.1007 50.2639 27.972 50.4072C27.8435 50.5485 27.6764 50.6569 27.4707 50.7325C27.2652 50.806 27.0327 50.8327 26.7733 50.8126C26.4699 50.7892 26.2058 50.7059 25.9809 50.5629C25.7561 50.4177 25.5854 50.2267 25.4686 49.9899C25.352 49.7509 25.3052 49.479 25.3283 49.1742C25.3526 48.8525 25.4369 48.5727 25.5812 48.3347C25.7276 48.097 25.9242 47.9174 26.1712 47.796C26.4205 47.6726 26.7094 47.6237 27.0379 47.6491C27.3182 47.6708 27.5539 47.7412 27.7448 47.8603C27.9359 47.9773 28.0758 48.1308 28.1646 48.3208C28.2556 48.5088 28.2922 48.7203 28.2744 48.9552Z" fill="#96561C"/>
<path d="M30.2129 49.0645C30.1868 48.7557 30.2079 48.4939 30.2762 48.2792C30.3463 48.0622 30.4471 47.8959 30.5784 47.7801C30.7096 47.6623 30.8557 47.5964 31.0166 47.5825C31.2174 47.5652 31.377 47.61 31.4955 47.7169C31.6139 47.8218 31.6822 47.982 31.7004 48.1978C31.7163 48.386 31.6895 48.5311 31.6202 48.633C31.5507 48.7327 31.4543 48.7879 31.3309 48.7986C31.2055 48.8094 31.1064 48.7839 31.0338 48.7219C30.9633 48.6599 30.9229 48.5685 30.9128 48.448L30.9028 48.3306C30.8973 48.265 30.8775 48.2177 30.8435 48.1887C30.8114 48.1574 30.7629 48.1445 30.6981 48.1501C30.6228 48.1566 30.5533 48.1935 30.4894 48.2608C30.4275 48.3258 30.3809 48.4225 30.3496 48.5509C30.3183 48.6793 30.3109 48.8408 30.3273 49.0354L30.2129 49.0645ZM30.176 47.8788L30.2896 48.5881L30.4274 50.222C30.4324 50.2813 30.4477 50.3247 30.4732 50.3523C30.4985 50.3778 30.544 50.3931 30.6097 50.398L30.8801 50.4194C30.931 50.4236 30.9689 50.4363 30.9938 50.4576C31.0209 50.4787 31.0361 50.5093 31.0395 50.5495C31.0431 50.5918 31.0302 50.627 31.001 50.6551C30.9737 50.6809 30.9308 50.6963 30.8722 50.7014L29.4076 50.8278C29.347 50.833 29.3021 50.8252 29.2729 50.8043C29.2436 50.7812 29.2273 50.7496 29.2239 50.7094C29.2212 50.6777 29.2283 50.6494 29.2451 50.6245C29.262 50.5996 29.2897 50.5791 29.3284 50.563L29.4478 50.5175C29.4843 50.5016 29.5108 50.478 29.5271 50.4468C29.5432 50.4134 29.5485 50.364 29.543 50.2984L29.391 48.4963C29.3863 48.4413 29.3747 48.4029 29.356 48.381C29.3373 48.3592 29.3089 48.3468 29.2707 48.3437L29.1063 48.3419C29.0658 48.3368 29.0364 48.3255 29.0181 48.3079C28.9998 48.2904 28.9893 48.2668 28.9869 48.2371C28.9838 48.2012 28.9919 48.1717 29.011 48.1488C29.032 48.1235 29.0688 48.098 29.1214 48.0721L29.6683 47.814C29.7694 47.7648 29.8435 47.7317 29.8905 47.7149C29.9396 47.6979 29.9778 47.6882 30.005 47.6858C30.051 47.6819 30.0868 47.6947 30.1125 47.7245C30.1402 47.7541 30.1614 47.8055 30.176 47.8788Z" fill="#96561C"/>
<path d="M33.0194 45.7607L33.8558 49.6827C33.8696 49.747 33.888 49.7929 33.911 49.8205C33.9357 49.8455 33.9678 49.8602 34.0074 49.8646L34.1309 49.8702C34.173 49.8762 34.2057 49.8886 34.229 49.9074C34.254 49.9237 34.27 49.9484 34.277 49.9816C34.2855 50.0211 34.278 50.0564 34.2545 50.0875C34.2327 50.1162 34.1921 50.137 34.1326 50.15L32.9203 50.4146C32.8608 50.4276 32.8153 50.4255 32.7838 50.4085C32.7518 50.3895 32.7316 50.3602 32.7232 50.3208C32.7166 50.2897 32.7201 50.2607 32.7336 50.2338C32.7472 50.207 32.7722 50.183 32.8085 50.1621L32.9212 50.1017C32.9555 50.0811 32.9787 50.0544 32.991 50.0213C33.0028 49.9861 33.0019 49.9364 32.9882 49.872L32.2646 46.4792C32.2531 46.4253 32.2367 46.3887 32.2154 46.3694C32.1937 46.3481 32.1647 46.3382 32.1285 46.3395L31.9628 46.3627C31.9241 46.3624 31.8935 46.355 31.8711 46.3404C31.8507 46.3253 31.8372 46.3022 31.8305 46.271C31.8234 46.2378 31.8279 46.2086 31.844 46.1834C31.8597 46.1561 31.893 46.126 31.9439 46.0932L32.468 45.7573C32.5414 45.7087 32.6003 45.673 32.6448 45.6503C32.6914 45.6271 32.7321 45.6117 32.767 45.6041C32.8368 45.5888 32.893 45.5961 32.9359 45.6258C32.9787 45.6556 33.0066 45.7005 33.0194 45.7607Z" fill="#96561C"/>
<path d="M35.274 46.8185L35.9859 49.0621C36.0058 49.1247 36.0286 49.1686 36.0542 49.1938C36.0811 49.2162 36.1145 49.2277 36.1543 49.2281L36.2779 49.2214C36.3203 49.2233 36.3541 49.2324 36.3791 49.2488C36.4055 49.2625 36.4238 49.2855 36.4341 49.3179C36.4463 49.3563 36.4422 49.3921 36.4219 49.4255C36.403 49.4561 36.3646 49.4809 36.3067 49.4997L35.1258 49.8832C35.0679 49.902 35.0224 49.9045 34.9894 49.8907C34.9557 49.8749 34.9328 49.8478 34.9206 49.8094C34.911 49.7791 34.9116 49.7499 34.9225 49.7218C34.9335 49.6937 34.956 49.6675 34.9901 49.643L35.0964 49.5717C35.1285 49.5479 35.1491 49.5189 35.1581 49.4848C35.1664 49.4486 35.1607 49.3992 35.1408 49.3366L34.5924 47.6084C34.5757 47.5558 34.5558 47.521 34.5328 47.504C34.5091 47.4849 34.4783 47.4782 34.4404 47.4838L34.2807 47.5223C34.2402 47.5266 34.2091 47.5222 34.1873 47.5092C34.1655 47.4962 34.1499 47.4745 34.1402 47.4442C34.13 47.4119 34.1316 47.3823 34.1452 47.3556C34.1581 47.3269 34.1883 47.2937 34.2359 47.2559L34.7249 46.8697C34.7932 46.8141 34.8484 46.7727 34.8905 46.7457C34.9346 46.718 34.9736 46.6986 35.0076 46.6876C35.0755 46.6655 35.1323 46.6672 35.1778 46.6925C35.2233 46.7179 35.2553 46.7599 35.274 46.8185ZM34.5727 46.3172C34.4128 46.3691 34.2708 46.3695 34.1466 46.3184C34.0238 46.2647 33.9409 46.1701 33.8979 46.0347C33.8549 45.8992 33.8685 45.7755 33.9388 45.6635C34.0104 45.5489 34.1261 45.4656 34.286 45.4137C34.4478 45.3611 34.5908 45.3604 34.715 45.4114C34.8386 45.4605 34.9219 45.5527 34.9648 45.6882C35.0078 45.8236 34.9938 45.9496 34.9229 46.0663C34.8512 46.181 34.7345 46.2646 34.5727 46.3172Z" fill="#96561C"/>
<path d="M37.1547 46.1289C37.0234 46.1906 36.9361 46.2725 36.8928 46.3748C36.8505 46.4742 36.8528 46.575 36.8996 46.677C36.9279 46.7386 36.9673 46.7892 37.0178 46.8286C37.0703 46.8672 37.1452 46.8893 37.2427 46.895C37.3402 46.9007 37.472 46.8856 37.6383 46.8496C37.9616 46.7726 38.2244 46.7428 38.4267 46.7601C38.6309 46.7765 38.7922 46.8306 38.9107 46.9224C39.0283 47.0122 39.1216 47.1322 39.1905 47.2824C39.3134 47.55 39.3173 47.808 39.2023 48.0564C39.0882 48.3019 38.8523 48.5087 38.4945 48.6768C38.3689 48.7358 38.2599 48.773 38.1674 48.7883C38.0778 48.8047 38.0024 48.8144 37.9413 48.8173C37.8802 48.8203 37.8296 48.8312 37.7897 48.85C37.7497 48.8687 37.7222 48.8945 37.7072 48.9273C37.6922 48.9601 37.6781 48.9925 37.665 49.0244C37.6527 49.0582 37.6276 49.0841 37.5895 49.102C37.5553 49.1181 37.5238 49.12 37.495 49.1078C37.469 49.0966 37.437 49.0695 37.3987 49.0266L36.9465 48.5404C36.8918 48.4818 36.8595 48.4291 36.8496 48.3823C36.8388 48.3335 36.8503 48.2907 36.8842 48.2537C36.9201 48.2158 36.9581 48.1979 36.9984 48.2C37.0398 48.1993 37.0853 48.2154 37.1351 48.2482C37.2888 48.3562 37.434 48.4331 37.5707 48.4789C37.7084 48.5218 37.8398 48.5385 37.965 48.5288C38.092 48.5183 38.2127 48.4862 38.3268 48.4325C38.4905 48.3556 38.5969 48.2647 38.6459 48.1598C38.6968 48.0539 38.6966 47.9452 38.6453 47.8335C38.6144 47.7661 38.5694 47.7135 38.5104 47.6757C38.4514 47.6379 38.3646 47.6178 38.2502 47.6154C38.1357 47.613 37.9807 47.6332 37.7851 47.6759C37.513 47.7382 37.2842 47.7615 37.0987 47.7456C36.9152 47.7289 36.7632 47.675 36.6428 47.5842C36.5234 47.4904 36.4271 47.3637 36.3537 47.2039C36.2768 47.0364 36.2524 46.8699 36.2806 46.7045C36.3079 46.5372 36.3818 46.3832 36.5022 46.2423C36.6218 46.0995 36.7824 45.9808 36.9842 45.886C37.1136 45.8252 37.2226 45.788 37.3113 45.7744C37.4018 45.76 37.4776 45.7536 37.5385 45.7554C37.5986 45.7553 37.6506 45.7449 37.6943 45.7243C37.74 45.7029 37.7709 45.6743 37.7869 45.6387C37.8021 45.6012 37.8167 45.565 37.8308 45.5303C37.845 45.4956 37.8701 45.4697 37.9063 45.4527C37.9348 45.4393 37.9635 45.4387 37.9922 45.451C38.0229 45.4623 38.0545 45.4908 38.087 45.5364L38.4788 46.0194C38.5267 46.0834 38.5566 46.1384 38.5684 46.1844C38.5794 46.2284 38.5669 46.2693 38.5311 46.3072C38.4953 46.3451 38.4564 46.3611 38.4143 46.3551C38.3722 46.3491 38.3217 46.3272 38.2626 46.2894C38.0529 46.1399 37.8533 46.0581 37.6641 46.044C37.4767 46.029 37.3069 46.0573 37.1547 46.1289Z" fill="#96561C"/>
<path d="M38.9472 45.3233L38.8033 45.3677C38.7501 45.3821 38.7089 45.3861 38.6799 45.3797C38.6516 45.3704 38.6289 45.3524 38.6119 45.3256C38.5892 45.2899 38.5836 45.2556 38.5952 45.2229C38.6074 45.1871 38.6339 45.1561 38.6745 45.1297L38.836 45.0246C38.8783 44.9971 38.9085 44.9661 38.9265 44.9316C38.9463 44.8961 38.9576 44.8471 38.9604 44.7847L38.985 44.1933C38.9914 44.121 39.0046 44.0632 39.0245 44.02C39.0462 43.9756 39.0746 43.9419 39.11 43.919C39.147 43.8948 39.1841 43.8884 39.2212 43.8996C39.2571 43.9091 39.2892 43.9361 39.3176 43.9807L40.773 46.2708C40.8525 46.3958 40.937 46.4759 41.0267 46.5109C41.1163 46.546 41.2053 46.5348 41.2935 46.4774C41.3588 46.435 41.4006 46.3889 41.4189 46.3391C41.439 46.2882 41.4488 46.2389 41.4484 46.1912C41.448 46.1435 41.4496 46.1008 41.4531 46.0632C41.4573 46.0227 41.4753 45.992 41.507 45.9714C41.5335 45.9542 41.5604 45.9493 41.5876 45.9568C41.6148 45.9644 41.6421 45.9895 41.6693 46.0324C41.7322 46.1353 41.7588 46.2518 41.7491 46.3818C41.7412 46.5106 41.6966 46.6406 41.6153 46.7717C41.5346 46.8999 41.421 47.0116 41.2745 47.1069C41.0485 47.2539 40.8348 47.3121 40.6333 47.2816C40.4307 47.2494 40.2551 47.1163 40.1064 46.8823L39.1702 45.4092C39.1407 45.3628 39.1088 45.3343 39.0747 45.3237C39.0422 45.3119 38.9998 45.3118 38.9472 45.3233ZM39.5198 44.9584L39.3496 44.6906L40.2286 44.1188C40.271 44.0913 40.3093 44.079 40.3436 44.0819C40.3768 44.0831 40.4036 44.0997 40.424 44.1318C40.4547 44.1801 40.4572 44.2352 40.4318 44.2971C40.4063 44.3591 40.3415 44.424 40.2374 44.4917L39.5198 44.9584Z" fill="#96561C"/>
</g>
<g filter="url(#filter8_i_18112_126884)">
<path d="M12.8672 36.0278L9.04377 37.7442L8.36869 36.2091C8.26713 35.9734 8.21934 35.7438 8.23129 35.5141C8.24324 35.2844 8.30895 35.085 8.43441 34.9037C8.55987 34.7224 8.73909 34.5774 8.97208 34.4746L9.04377 34.4444C9.28273 34.3356 9.50974 34.2993 9.72481 34.3296C9.94585 34.3598 10.137 34.4504 10.3103 34.5894C10.4835 34.7345 10.6209 34.9218 10.7225 35.1515L11.1347 36.0882L12.6043 35.4295L12.8672 36.0278ZM10.603 36.33L10.2147 35.4537C10.1251 35.2421 9.99365 35.1031 9.83235 35.0246C9.66507 34.946 9.49182 34.9521 9.30065 35.0367L9.24688 35.0608C9.05571 35.1454 8.93026 35.2784 8.87649 35.4537C8.82272 35.6289 8.84065 35.8223 8.93026 36.0278L9.3126 36.9041L10.597 36.33H10.603Z" fill="#96561C"/>
</g>
<g filter="url(#filter9_i_18112_126884)">
<path d="M11.4164 32.4312L7.31821 33.2592L6.97171 31.5186C6.92392 31.2648 6.91794 31.0291 6.97171 30.8115C7.0195 30.6 7.11509 30.4187 7.25847 30.2797C7.40185 30.1407 7.58704 30.044 7.81406 29.9956L7.87977 29.9835C8.13666 29.9291 8.3577 29.9533 8.53692 30.044C8.71614 30.1346 8.85355 30.2676 8.94913 30.4308L9.04472 30.4126C9.02082 30.2615 9.04472 30.1286 9.12238 30.0198C9.19407 29.911 9.31953 29.8385 9.49278 29.8022L10.8489 29.5303L10.9743 30.1769L9.70187 30.4308C9.59434 30.4549 9.51667 30.4972 9.46888 30.5637C9.42109 30.6302 9.40316 30.7269 9.42706 30.8478L9.67797 32.1109L11.2969 31.7845L11.4224 32.4251L11.4164 32.4312ZM9.09849 32.2317L8.89537 31.1983C8.84757 30.9686 8.75796 30.8055 8.61459 30.7027C8.47718 30.6 8.30393 30.5698 8.10679 30.606L8.05899 30.6181C7.86185 30.6604 7.7125 30.7511 7.62289 30.9022C7.53328 31.0472 7.50938 31.2406 7.55717 31.4703L7.76029 32.5037L9.09849 32.2317Z" fill="#96561C"/>
</g>
<g filter="url(#filter10_i_18112_126884)">
<path d="M10.8781 26.8412C10.8602 27.361 10.7048 27.7659 10.4061 28.0681C10.1074 28.3642 9.68925 28.5032 9.13963 28.4851L8.15988 28.4549C7.61624 28.4367 7.20403 28.2736 6.92325 27.9533C6.64246 27.639 6.51103 27.222 6.52896 26.7022C6.54688 26.1825 6.70221 25.7715 7.00091 25.4754C7.29961 25.1732 7.72377 25.0342 8.26742 25.0523L9.24717 25.0826C9.79081 25.1007 10.203 25.2699 10.4838 25.5842C10.7646 25.8984 10.896 26.3215 10.8781 26.8412ZM10.2986 26.8231C10.3106 26.4907 10.2209 26.2308 10.0357 26.0435C9.85055 25.8561 9.58769 25.7594 9.25314 25.7474L8.2256 25.7171C7.89105 25.7051 7.62221 25.7897 7.42507 25.9649C7.22792 26.1402 7.12039 26.394 7.10844 26.7264C7.0965 27.0528 7.18611 27.3126 7.3713 27.506C7.5565 27.6994 7.81936 27.7961 8.15391 27.8082L9.18145 27.8384C9.516 27.8505 9.78483 27.7659 9.98198 27.5846C10.1791 27.4033 10.2867 27.1555 10.2926 26.8292L10.2986 26.8231Z" fill="#96561C"/>
</g>
<g filter="url(#filter11_i_18112_126884)">
<path d="M11.398 23.0214C11.2904 23.4323 11.0933 23.7285 10.8065 23.9098C10.5198 24.0911 10.1673 24.1274 9.75509 24.0186L9.4086 23.9279L9.57587 23.2994L9.92237 23.39C10.1374 23.4444 10.3226 23.4323 10.4839 23.3477C10.6452 23.2631 10.7528 23.106 10.8125 22.8824C10.8663 22.6648 10.8484 22.4835 10.7468 22.3445C10.6452 22.2055 10.4899 22.1088 10.2689 22.0484L8.00469 21.444L7.81949 22.1571L7.25195 22.0061L7.71793 20.2051L8.28547 20.3562L8.16599 20.8094L10.4302 21.4138C10.8484 21.5226 11.1411 21.722 11.3084 22C11.4756 22.278 11.5055 22.6165 11.398 23.0214Z" fill="#96561C"/>
</g>
<g filter="url(#filter12_i_18112_126884)">
<path d="M12.1274 20.398L8.39355 18.5003L9.57642 16.1191L10.1021 16.3851L9.20603 18.186L10.2814 18.73L11.0998 17.0801L11.6255 17.346L10.8071 18.9959L11.9003 19.5519L12.8084 17.7267L13.3341 17.9926L12.1393 20.398H12.1274Z" fill="#96561C"/>
</g>
<g filter="url(#filter13_i_18112_126884)">
<path d="M14.8637 16.0298C14.5411 16.4287 14.1767 16.6583 13.7645 16.7067C13.3523 16.755 12.9341 16.61 12.5099 16.2655L11.7453 15.643C11.3211 15.2985 11.0881 14.9117 11.0523 14.4947C11.0164 14.0777 11.1598 13.6668 11.4764 13.2619C11.793 12.869 12.1455 12.6515 12.5338 12.6152C12.9221 12.5789 13.3045 12.7119 13.6809 13.0201L13.7107 13.0443L13.3105 13.5459L13.2686 13.5096C13.0476 13.3283 12.8206 13.2437 12.5876 13.2498C12.3546 13.2558 12.1336 13.3827 11.9364 13.6305C11.7393 13.8843 11.6556 14.1382 11.6915 14.4041C11.7273 14.67 11.8827 14.9057 12.1455 15.1293L12.9281 15.7699C13.191 15.9875 13.4538 16.0842 13.7227 16.0661C13.9915 16.0479 14.2185 15.915 14.4216 15.6612C14.6188 15.4134 14.6964 15.1716 14.6487 14.9359C14.6068 14.7002 14.4754 14.4947 14.2544 14.3134L14.1767 14.247L14.577 13.7453L14.6427 13.7997C15.019 14.108 15.2281 14.4524 15.27 14.8453C15.3118 15.2381 15.1803 15.6309 14.8637 16.0238V16.0298Z" fill="#96561C"/>
</g>
<g filter="url(#filter14_i_18112_126884)">
<path d="M17.2112 13.503L14.953 10.6686L13.9554 11.4845L13.585 11.0251L16.0881 8.98242L16.4585 9.44173L15.4608 10.2576L17.719 13.092L17.2172 13.503H17.2112Z" fill="#96561C"/>
</g>
<g filter="url(#filter15_i_18112_126884)">
<path d="M22.4257 10.5234C21.9477 10.7047 21.5116 10.7168 21.1293 10.5476C20.747 10.3844 20.4542 10.0399 20.2631 9.52622L19.9166 8.59551C19.7254 8.08181 19.7194 7.62854 19.8986 7.2478C20.0779 6.86705 20.4124 6.58301 20.8903 6.4017C21.3683 6.22039 21.8044 6.2083 22.1927 6.37752C22.581 6.5407 22.8678 6.88518 23.0589 7.39889L23.4054 8.3296C23.5966 8.8433 23.6026 9.29657 23.4174 9.67731C23.2322 10.0581 22.9036 10.3421 22.4197 10.5234H22.4257ZM22.2226 9.97345C22.5332 9.85862 22.7363 9.67127 22.8379 9.42952C22.9394 9.18778 22.9275 8.90373 22.814 8.58343L22.4496 7.61041C22.3301 7.29615 22.1568 7.07858 21.9179 6.95771C21.6789 6.83684 21.4101 6.83684 21.0994 6.95771C20.7947 7.07253 20.5976 7.25384 20.4901 7.50163C20.3885 7.74941 20.3945 8.03346 20.514 8.34773L20.8724 9.32074C20.9919 9.63501 21.1711 9.85257 21.4101 9.97345C21.649 10.0883 21.9179 10.0943 22.2226 9.97345Z" fill="#96561C"/>
</g>
<g filter="url(#filter16_i_18112_126884)">
<path d="M24.9705 9.64102L24.373 5.45283L26.93 5.07812L27.0136 5.66435L25.0959 5.94235L25.2692 7.15107L27.0315 6.89724L27.1152 7.48346L25.3528 7.73729L25.6097 9.54432L24.9705 9.63497V9.64102Z" fill="#96561C"/>
</g>
<g filter="url(#filter17_i_18112_126884)">
<path d="M31.1125 9.44781L31.6562 5.85189L30.3896 5.65849L30.4793 5.07227L33.6575 5.56179L33.5679 6.14802L32.3014 5.94858L31.7577 9.5445L31.1185 9.44781H31.1125Z" fill="#96561C"/>
</g>
<g filter="url(#filter18_i_18112_126884)">
<path d="M33.8311 9.96775L35.3604 6.02734L35.9578 6.26304L35.3007 7.9492L36.9376 8.59586L37.5947 6.9097L38.1921 7.1454L36.6628 11.0858L36.0654 10.8501L36.7225 9.15187L35.0856 8.50521L34.4285 10.2034L33.8311 9.96775Z" fill="#96561C"/>
</g>
<g filter="url(#filter19_i_18112_126884)">
<path d="M37.6418 11.6531L39.9717 8.13574L42.1582 9.62246L41.8297 10.112L40.1748 8.99393L39.5057 10.0032L41.0172 11.0306L40.6886 11.5201L39.1772 10.4927L38.4961 11.5201L40.1748 12.6563L39.8463 13.1459L37.6299 11.6471L37.6418 11.6531Z" fill="#96561C"/>
</g>
<g filter="url(#filter20_i_18112_126884)">
<path d="M41.9503 15.0083L45.3376 12.5244L46.0485 13.5156L43.5454 16.489L43.5992 16.5676L47.1717 15.0869L47.8826 16.078L44.4953 18.5619L44.1249 18.0482L47.1418 15.8363L47.088 15.7577L43.5394 17.2263L42.9002 16.3379L45.3854 13.3826L45.3316 13.304L42.3147 15.516L41.9443 15.0023L41.9503 15.0083Z" fill="#96561C"/>
</g>
<g filter="url(#filter21_i_18112_126884)">
<path d="M45.4153 21.0942C45.2361 20.6047 45.2301 20.1696 45.3914 19.7828C45.5587 19.396 45.8932 19.0999 46.407 18.9065L47.327 18.562C47.8408 18.3686 48.2828 18.3626 48.6592 18.5499C49.0356 18.7373 49.3164 19.0696 49.4956 19.5592C49.6748 20.0487 49.6867 20.4838 49.5195 20.8767C49.3582 21.2695 49.0177 21.5596 48.5099 21.753L47.5898 22.0975C47.0761 22.2909 46.634 22.2969 46.2576 22.1096C45.8813 21.9222 45.6005 21.5838 45.4213 21.1003L45.4153 21.0942ZM45.9589 20.8888C46.0724 21.203 46.2576 21.4085 46.4966 21.5112C46.7415 21.614 47.0163 21.6019 47.333 21.4871L48.2948 21.1245C48.6054 21.0036 48.8205 20.8283 48.94 20.5866C49.0595 20.3509 49.0595 20.0729 48.94 19.7586C48.8265 19.4504 48.6473 19.2449 48.4023 19.1422C48.1574 19.0394 47.8766 19.0455 47.5659 19.1603L46.6041 19.5229C46.2935 19.6438 46.0784 19.8251 45.9589 20.0668C45.8394 20.3086 45.8394 20.5805 45.9589 20.8888Z" fill="#96561C"/>
</g>
<g filter="url(#filter22_i_18112_126884)">
<path d="M46.3097 23.6444L50.4617 23.1367L50.611 24.3817L47.0206 25.9772L47.0326 26.0739L50.7544 25.6146L50.8321 26.2552L46.6801 26.7629L46.5307 25.5179L50.1212 23.9224L50.1092 23.8257L46.3814 24.285L46.3037 23.6444H46.3097Z" fill="#96561C"/>
</g>
<g filter="url(#filter23_i_18112_126884)">
<path d="M46.5734 28.9016L50.1519 29.2582L50.2773 27.9648L50.8628 28.0253L50.5462 31.2586L49.9667 31.1982L50.0921 29.9048L46.5137 29.5483L46.5794 28.9016H46.5734Z" fill="#96561C"/>
</g>
<g filter="url(#filter24_i_18112_126884)">
<path d="M46.1971 31.6641L50.1639 32.9936L49.9607 33.6161L48.2581 33.048L47.7085 34.7342L49.4111 35.3023L49.208 35.9248L45.2412 34.5952L45.4443 33.9727L47.1589 34.5468L47.7085 32.8607L45.9939 32.2866L46.1971 31.6701V31.6641Z" fill="#96561C"/>
</g>
<defs>
<filter id="filter0_i_18112_126884" x="0.400391" y="0.929688" width="56" height="56.2435" filterUnits="userSpaceOnUse" color-interpolation-filters="sRGB">
<feFlood flood-opacity="0" result="BackgroundImageFix"/>
<feBlend mode="normal" in="SourceGraphic" in2="BackgroundImageFix" result="shape"/>
<feColorMatrix in="SourceAlpha" type="matrix" values="0 0 0 0 0 0 0 0 0 0 0 0 0 0 0 0 0 0 127 0" result="hardAlpha"/>
<feOffset dy="0.243477"/>
<feGaussianBlur stdDeviation="0.152173"/>
<feComposite in2="hardAlpha" operator="arithmetic" k2="-1" k3="1"/>
<feColorMatrix type="matrix" values="0 0 0 0 0 0 0 0 0 0 0 0 0 0 0 0 0 0 0.25 0"/>
<feBlend mode="normal" in2="shape" result="effect1_innerShadow_18112_126884"/>
</filter>
<filter id="filter1_ii_18112_126884" x="1.26074" y="1.78223" width="54.2959" height="54.2959" filterUnits="userSpaceOnUse" color-interpolation-filters="sRGB">
<feFlood flood-opacity="0" result="BackgroundImageFix"/>
<feBlend mode="normal" in="SourceGraphic" in2="BackgroundImageFix" result="shape"/>
<feColorMatrix in="SourceAlpha" type="matrix" values="0 0 0 0 0 0 0 0 0 0 0 0 0 0 0 0 0 0 127 0" result="hardAlpha"/>
<feOffset/>
<feGaussianBlur stdDeviation="1.21739"/>
<feComposite in2="hardAlpha" operator="arithmetic" k2="-1" k3="1"/>
<feColorMatrix type="matrix" values="0 0 0 0 1 0 0 0 0 1 0 0 0 0 1 0 0 0 0.55 0"/>
<feBlend mode="normal" in2="shape" result="effect1_innerShadow_18112_126884"/>
<feColorMatrix in="SourceAlpha" type="matrix" values="0 0 0 0 0 0 0 0 0 0 0 0 0 0 0 0 0 0 127 0" result="hardAlpha"/>
<feOffset/>
<feGaussianBlur stdDeviation="1.21739"/>
<feComposite in2="hardAlpha" operator="arithmetic" k2="-1" k3="1"/>
<feColorMatrix type="matrix" values="0 0 0 0 1 0 0 0 0 1 0 0 0 0 1 0 0 0 0.35 0"/>
<feBlend mode="normal" in2="effect1_innerShadow_18112_126884" result="effect2_innerShadow_18112_126884"/>
</filter>
<filter id="filter2_di_18112_126884" x="5.65268" y="6.46839" width="46.0931" height="45.7591" filterUnits="userSpaceOnUse" color-interpolation-filters="sRGB">
<feFlood flood-opacity="0" result="BackgroundImageFix"/>
<feColorMatrix in="SourceAlpha" type="matrix" values="0 0 0 0 0 0 0 0 0 0 0 0 0 0 0 0 0 0 127 0" result="hardAlpha"/>
<feOffset dy="0.973913"/>
<feGaussianBlur stdDeviation="3.65217"/>
<feComposite in2="hardAlpha" operator="out"/>
<feColorMatrix type="matrix" values="0 0 0 0 0 0 0 0 0 0 0 0 0 0 0 0 0 0 0.15 0"/>
<feBlend mode="normal" in2="BackgroundImageFix" result="effect1_dropShadow_18112_126884"/>
<feBlend mode="normal" in="SourceGraphic" in2="effect1_dropShadow_18112_126884" result="shape"/>
<feColorMatrix in="SourceAlpha" type="matrix" values="0 0 0 0 0 0 0 0 0 0 0 0 0 0 0 0 0 0 127 0" result="hardAlpha"/>
<feOffset dy="0.243477"/>
<feGaussianBlur stdDeviation="0.152173"/>
<feComposite in2="hardAlpha" operator="arithmetic" k2="-1" k3="1"/>
<feColorMatrix type="matrix" values="0 0 0 0 0 0 0 0 0 0 0 0 0 0 0 0 0 0 0.25 0"/>
<feBlend mode="normal" in2="shape" result="effect2_innerShadow_18112_126884"/>
</filter>
<filter id="filter3_f_18112_126884" x="12.3487" y="12.1905" width="32.702" height="32.368" filterUnits="userSpaceOnUse" color-interpolation-filters="sRGB">
<feFlood flood-opacity="0" result="BackgroundImageFix"/>
<feBlend mode="normal" in="SourceGraphic" in2="BackgroundImageFix" result="shape"/>
<feGaussianBlur stdDeviation="0.730435" result="effect1_foregroundBlur_18112_126884"/>
</filter>
<filter id="filter4_i_18112_126884" x="18.8447" y="21.3281" width="19.1295" height="14.0934" filterUnits="userSpaceOnUse" color-interpolation-filters="sRGB">
<feFlood flood-opacity="0" result="BackgroundImageFix"/>
<feBlend mode="normal" in="SourceGraphic" in2="BackgroundImageFix" result="shape"/>
<feColorMatrix in="SourceAlpha" type="matrix" values="0 0 0 0 0 0 0 0 0 0 0 0 0 0 0 0 0 0 127 0" result="hardAlpha"/>
<feOffset dx="0.304346" dy="0.304346"/>
<feGaussianBlur stdDeviation="0.304346"/>
<feComposite in2="hardAlpha" operator="arithmetic" k2="-1" k3="1"/>
<feColorMatrix type="matrix" values="0 0 0 0 0 0 0 0 0 0 0 0 0 0 0 0 0 0 0.2 0"/>
<feBlend mode="normal" in2="shape" result="effect1_innerShadow_18112_126884"/>
</filter>
<filter id="filter5_i_18112_126884" x="10.4004" y="40.1006" width="3.83691" height="4.12434" filterUnits="userSpaceOnUse" color-interpolation-filters="sRGB">
<feFlood flood-opacity="0" result="BackgroundImageFix"/>
<feBlend mode="normal" in="SourceGraphic" in2="BackgroundImageFix" result="shape"/>
<feColorMatrix in="SourceAlpha" type="matrix" values="0 0 0 0 0 0 0 0 0 0 0 0 0 0 0 0 0 0 127 0" result="hardAlpha"/>
<feOffset dy="0.243478"/>
<feGaussianBlur stdDeviation="0.152174"/>
<feComposite in2="hardAlpha" operator="arithmetic" k2="-1" k3="1"/>
<feColorMatrix type="matrix" values="0 0 0 0 0 0 0 0 0 0 0 0 0 0 0 0 0 0 0.25 0"/>
<feBlend mode="normal" in2="shape" result="effect1_innerShadow_18112_126884"/>
</filter>
<filter id="filter6_i_18112_126884" x="43.4434" y="39.2607" width="3.83594" height="4.12336" filterUnits="userSpaceOnUse" color-interpolation-filters="sRGB">
<feFlood flood-opacity="0" result="BackgroundImageFix"/>
<feBlend mode="normal" in="SourceGraphic" in2="BackgroundImageFix" result="shape"/>
<feColorMatrix in="SourceAlpha" type="matrix" values="0 0 0 0 0 0 0 0 0 0 0 0 0 0 0 0 0 0 127 0" result="hardAlpha"/>
<feOffset dy="0.243478"/>
<feGaussianBlur stdDeviation="0.152174"/>
<feComposite in2="hardAlpha" operator="arithmetic" k2="-1" k3="1"/>
<feColorMatrix type="matrix" values="0 0 0 0 0 0 0 0 0 0 0 0 0 0 0 0 0 0 0.25 0"/>
<feBlend mode="normal" in2="shape" result="effect1_innerShadow_18112_126884"/>
</filter>
<filter id="filter7_i_18112_126884" x="16.6963" y="43.5635" width="25.0547" height="7.5091" filterUnits="userSpaceOnUse" color-interpolation-filters="sRGB">
<feFlood flood-opacity="0" result="BackgroundImageFix"/>
<feBlend mode="normal" in="SourceGraphic" in2="BackgroundImageFix" result="shape"/>
<feColorMatrix in="SourceAlpha" type="matrix" values="0 0 0 0 0 0 0 0 0 0 0 0 0 0 0 0 0 0 127 0" result="hardAlpha"/>
<feOffset dy="0.243478"/>
<feGaussianBlur stdDeviation="0.152174"/>
<feComposite in2="hardAlpha" operator="arithmetic" k2="-1" k3="1"/>
<feColorMatrix type="matrix" values="0 0 0 0 0 0 0 0 0 0 0 0 0 0 0 0 0 0 0.25 0"/>
<feBlend mode="normal" in2="shape" result="effect1_innerShadow_18112_126884"/>
</filter>
<filter id="filter8_i_18112_126884" x="8.22949" y="34.3193" width="4.6377" height="3.81701" filterUnits="userSpaceOnUse" color-interpolation-filters="sRGB">
<feFlood flood-opacity="0" result="BackgroundImageFix"/>
<feBlend mode="normal" in="SourceGraphic" in2="BackgroundImageFix" result="shape"/>
<feColorMatrix in="SourceAlpha" type="matrix" values="0 0 0 0 0 0 0 0 0 0 0 0 0 0 0 0 0 0 127 0" result="hardAlpha"/>
<feOffset dy="0.39221"/>
<feGaussianBlur stdDeviation="0.245131"/>
<feComposite in2="hardAlpha" operator="arithmetic" k2="-1" k3="1"/>
<feColorMatrix type="matrix" values="0 0 0 0 0 0 0 0 0 0 0 0 0 0 0 0 0 0 0.25 0"/>
<feBlend mode="normal" in2="shape" result="effect1_innerShadow_18112_126884"/>
</filter>
<filter id="filter9_i_18112_126884" x="6.93359" y="29.5303" width="4.48926" height="4.12073" filterUnits="userSpaceOnUse" color-interpolation-filters="sRGB">
<feFlood flood-opacity="0" result="BackgroundImageFix"/>
<feBlend mode="normal" in="SourceGraphic" in2="BackgroundImageFix" result="shape"/>
<feColorMatrix in="SourceAlpha" type="matrix" values="0 0 0 0 0 0 0 0 0 0 0 0 0 0 0 0 0 0 127 0" result="hardAlpha"/>
<feOffset dy="0.39221"/>
<feGaussianBlur stdDeviation="0.245131"/>
<feComposite in2="hardAlpha" operator="arithmetic" k2="-1" k3="1"/>
<feColorMatrix type="matrix" values="0 0 0 0 0 0 0 0 0 0 0 0 0 0 0 0 0 0 0.25 0"/>
<feBlend mode="normal" in2="shape" result="effect1_innerShadow_18112_126884"/>
</filter>
<filter id="filter10_i_18112_126884" x="6.52734" y="25.0508" width="4.35254" height="3.82776" filterUnits="userSpaceOnUse" color-interpolation-filters="sRGB">
<feFlood flood-opacity="0" result="BackgroundImageFix"/>
<feBlend mode="normal" in="SourceGraphic" in2="BackgroundImageFix" result="shape"/>
<feColorMatrix in="SourceAlpha" type="matrix" values="0 0 0 0 0 0 0 0 0 0 0 0 0 0 0 0 0 0 127 0" result="hardAlpha"/>
<feOffset dy="0.39221"/>
<feGaussianBlur stdDeviation="0.245131"/>
<feComposite in2="hardAlpha" operator="arithmetic" k2="-1" k3="1"/>
<feColorMatrix type="matrix" values="0 0 0 0 0 0 0 0 0 0 0 0 0 0 0 0 0 0 0.25 0"/>
<feBlend mode="normal" in2="shape" result="effect1_innerShadow_18112_126884"/>
</filter>
<filter id="filter11_i_18112_126884" x="7.25195" y="20.2051" width="4.20898" height="4.26721" filterUnits="userSpaceOnUse" color-interpolation-filters="sRGB">
<feFlood flood-opacity="0" result="BackgroundImageFix"/>
<feBlend mode="normal" in="SourceGraphic" in2="BackgroundImageFix" result="shape"/>
<feColorMatrix in="SourceAlpha" type="matrix" values="0 0 0 0 0 0 0 0 0 0 0 0 0 0 0 0 0 0 127 0" result="hardAlpha"/>
<feOffset dy="0.39221"/>
<feGaussianBlur stdDeviation="0.245131"/>
<feComposite in2="hardAlpha" operator="arithmetic" k2="-1" k3="1"/>
<feColorMatrix type="matrix" values="0 0 0 0 0 0 0 0 0 0 0 0 0 0 0 0 0 0 0.25 0"/>
<feBlend mode="normal" in2="shape" result="effect1_innerShadow_18112_126884"/>
</filter>
<filter id="filter12_i_18112_126884" x="8.39355" y="16.1191" width="4.94043" height="4.67151" filterUnits="userSpaceOnUse" color-interpolation-filters="sRGB">
<feFlood flood-opacity="0" result="BackgroundImageFix"/>
<feBlend mode="normal" in="SourceGraphic" in2="BackgroundImageFix" result="shape"/>
<feColorMatrix in="SourceAlpha" type="matrix" values="0 0 0 0 0 0 0 0 0 0 0 0 0 0 0 0 0 0 127 0" result="hardAlpha"/>
<feOffset dy="0.39221"/>
<feGaussianBlur stdDeviation="0.245131"/>
<feComposite in2="hardAlpha" operator="arithmetic" k2="-1" k3="1"/>
<feColorMatrix type="matrix" values="0 0 0 0 0 0 0 0 0 0 0 0 0 0 0 0 0 0 0.25 0"/>
<feBlend mode="normal" in2="shape" result="effect1_innerShadow_18112_126884"/>
</filter>
<filter id="filter13_i_18112_126884" x="11.0469" y="12.6094" width="4.23047" height="4.49866" filterUnits="userSpaceOnUse" color-interpolation-filters="sRGB">
<feFlood flood-opacity="0" result="BackgroundImageFix"/>
<feBlend mode="normal" in="SourceGraphic" in2="BackgroundImageFix" result="shape"/>
<feColorMatrix in="SourceAlpha" type="matrix" values="0 0 0 0 0 0 0 0 0 0 0 0 0 0 0 0 0 0 127 0" result="hardAlpha"/>
<feOffset dy="0.39221"/>
<feGaussianBlur stdDeviation="0.245131"/>
<feComposite in2="hardAlpha" operator="arithmetic" k2="-1" k3="1"/>
<feColorMatrix type="matrix" values="0 0 0 0 0 0 0 0 0 0 0 0 0 0 0 0 0 0 0.25 0"/>
<feBlend mode="normal" in2="shape" result="effect1_innerShadow_18112_126884"/>
</filter>
<filter id="filter14_i_18112_126884" x="13.585" y="8.98242" width="4.13379" height="4.91272" filterUnits="userSpaceOnUse" color-interpolation-filters="sRGB">
<feFlood flood-opacity="0" result="BackgroundImageFix"/>
<feBlend mode="normal" in="SourceGraphic" in2="BackgroundImageFix" result="shape"/>
<feColorMatrix in="SourceAlpha" type="matrix" values="0 0 0 0 0 0 0 0 0 0 0 0 0 0 0 0 0 0 127 0" result="hardAlpha"/>
<feOffset dy="0.39221"/>
<feGaussianBlur stdDeviation="0.245131"/>
<feComposite in2="hardAlpha" operator="arithmetic" k2="-1" k3="1"/>
<feColorMatrix type="matrix" values="0 0 0 0 0 0 0 0 0 0 0 0 0 0 0 0 0 0 0.25 0"/>
<feBlend mode="normal" in2="shape" result="effect1_innerShadow_18112_126884"/>
</filter>
<filter id="filter15_i_18112_126884" x="19.7686" y="6.25781" width="3.78418" height="4.80139" filterUnits="userSpaceOnUse" color-interpolation-filters="sRGB">
<feFlood flood-opacity="0" result="BackgroundImageFix"/>
<feBlend mode="normal" in="SourceGraphic" in2="BackgroundImageFix" result="shape"/>
<feColorMatrix in="SourceAlpha" type="matrix" values="0 0 0 0 0 0 0 0 0 0 0 0 0 0 0 0 0 0 127 0" result="hardAlpha"/>
<feOffset dy="0.39221"/>
<feGaussianBlur stdDeviation="0.245131"/>
<feComposite in2="hardAlpha" operator="arithmetic" k2="-1" k3="1"/>
<feColorMatrix type="matrix" values="0 0 0 0 0 0 0 0 0 0 0 0 0 0 0 0 0 0 0.25 0"/>
<feBlend mode="normal" in2="shape" result="effect1_innerShadow_18112_126884"/>
</filter>
<filter id="filter16_i_18112_126884" x="24.373" y="5.07812" width="2.74219" height="4.95471" filterUnits="userSpaceOnUse" color-interpolation-filters="sRGB">
<feFlood flood-opacity="0" result="BackgroundImageFix"/>
<feBlend mode="normal" in="SourceGraphic" in2="BackgroundImageFix" result="shape"/>
<feColorMatrix in="SourceAlpha" type="matrix" values="0 0 0 0 0 0 0 0 0 0 0 0 0 0 0 0 0 0 127 0" result="hardAlpha"/>
<feOffset dy="0.39221"/>
<feGaussianBlur stdDeviation="0.245131"/>
<feComposite in2="hardAlpha" operator="arithmetic" k2="-1" k3="1"/>
<feColorMatrix type="matrix" values="0 0 0 0 0 0 0 0 0 0 0 0 0 0 0 0 0 0 0.25 0"/>
<feBlend mode="normal" in2="shape" result="effect1_innerShadow_18112_126884"/>
</filter>
<filter id="filter17_i_18112_126884" x="30.3896" y="5.07227" width="3.26758" height="4.86487" filterUnits="userSpaceOnUse" color-interpolation-filters="sRGB">
<feFlood flood-opacity="0" result="BackgroundImageFix"/>
<feBlend mode="normal" in="SourceGraphic" in2="BackgroundImageFix" result="shape"/>
<feColorMatrix in="SourceAlpha" type="matrix" values="0 0 0 0 0 0 0 0 0 0 0 0 0 0 0 0 0 0 127 0" result="hardAlpha"/>
<feOffset dy="0.39221"/>
<feGaussianBlur stdDeviation="0.245131"/>
<feComposite in2="hardAlpha" operator="arithmetic" k2="-1" k3="1"/>
<feColorMatrix type="matrix" values="0 0 0 0 0 0 0 0 0 0 0 0 0 0 0 0 0 0 0.25 0"/>
<feBlend mode="normal" in2="shape" result="effect1_innerShadow_18112_126884"/>
</filter>
<filter id="filter18_i_18112_126884" x="33.8311" y="6.02734" width="4.36133" height="5.4508" filterUnits="userSpaceOnUse" color-interpolation-filters="sRGB">
<feFlood flood-opacity="0" result="BackgroundImageFix"/>
<feBlend mode="normal" in="SourceGraphic" in2="BackgroundImageFix" result="shape"/>
<feColorMatrix in="SourceAlpha" type="matrix" values="0 0 0 0 0 0 0 0 0 0 0 0 0 0 0 0 0 0 127 0" result="hardAlpha"/>
<feOffset dy="0.39221"/>
<feGaussianBlur stdDeviation="0.245131"/>
<feComposite in2="hardAlpha" operator="arithmetic" k2="-1" k3="1"/>
<feColorMatrix type="matrix" values="0 0 0 0 0 0 0 0 0 0 0 0 0 0 0 0 0 0 0.25 0"/>
<feBlend mode="normal" in2="shape" result="effect1_innerShadow_18112_126884"/>
</filter>
<filter id="filter19_i_18112_126884" x="37.6299" y="8.13574" width="4.52832" height="5.40198" filterUnits="userSpaceOnUse" color-interpolation-filters="sRGB">
<feFlood flood-opacity="0" result="BackgroundImageFix"/>
<feBlend mode="normal" in="SourceGraphic" in2="BackgroundImageFix" result="shape"/>
<feColorMatrix in="SourceAlpha" type="matrix" values="0 0 0 0 0 0 0 0 0 0 0 0 0 0 0 0 0 0 127 0" result="hardAlpha"/>
<feOffset dy="0.39221"/>
<feGaussianBlur stdDeviation="0.245131"/>
<feComposite in2="hardAlpha" operator="arithmetic" k2="-1" k3="1"/>
<feColorMatrix type="matrix" values="0 0 0 0 0 0 0 0 0 0 0 0 0 0 0 0 0 0 0.25 0"/>
<feBlend mode="normal" in2="shape" result="effect1_innerShadow_18112_126884"/>
</filter>
<filter id="filter20_i_18112_126884" x="41.9443" y="12.5244" width="5.93848" height="6.42932" filterUnits="userSpaceOnUse" color-interpolation-filters="sRGB">
<feFlood flood-opacity="0" result="BackgroundImageFix"/>
<feBlend mode="normal" in="SourceGraphic" in2="BackgroundImageFix" result="shape"/>
<feColorMatrix in="SourceAlpha" type="matrix" values="0 0 0 0 0 0 0 0 0 0 0 0 0 0 0 0 0 0 127 0" result="hardAlpha"/>
<feOffset dy="0.39221"/>
<feGaussianBlur stdDeviation="0.245131"/>
<feComposite in2="hardAlpha" operator="arithmetic" k2="-1" k3="1"/>
<feColorMatrix type="matrix" values="0 0 0 0 0 0 0 0 0 0 0 0 0 0 0 0 0 0 0.25 0"/>
<feBlend mode="normal" in2="shape" result="effect1_innerShadow_18112_126884"/>
</filter>
<filter id="filter21_i_18112_126884" x="45.2754" y="18.4131" width="4.3623" height="4.22522" filterUnits="userSpaceOnUse" color-interpolation-filters="sRGB">
<feFlood flood-opacity="0" result="BackgroundImageFix"/>
<feBlend mode="normal" in="SourceGraphic" in2="BackgroundImageFix" result="shape"/>
<feColorMatrix in="SourceAlpha" type="matrix" values="0 0 0 0 0 0 0 0 0 0 0 0 0 0 0 0 0 0 127 0" result="hardAlpha"/>
<feOffset dy="0.39221"/>
<feGaussianBlur stdDeviation="0.245131"/>
<feComposite in2="hardAlpha" operator="arithmetic" k2="-1" k3="1"/>
<feColorMatrix type="matrix" values="0 0 0 0 0 0 0 0 0 0 0 0 0 0 0 0 0 0 0.25 0"/>
<feBlend mode="normal" in2="shape" result="effect1_innerShadow_18112_126884"/>
</filter>
<filter id="filter22_i_18112_126884" x="46.3037" y="23.1367" width="4.52832" height="4.01819" filterUnits="userSpaceOnUse" color-interpolation-filters="sRGB">
<feFlood flood-opacity="0" result="BackgroundImageFix"/>
<feBlend mode="normal" in="SourceGraphic" in2="BackgroundImageFix" result="shape"/>
<feColorMatrix in="SourceAlpha" type="matrix" values="0 0 0 0 0 0 0 0 0 0 0 0 0 0 0 0 0 0 127 0" result="hardAlpha"/>
<feOffset dy="0.39221"/>
<feGaussianBlur stdDeviation="0.245131"/>
<feComposite in2="hardAlpha" operator="arithmetic" k2="-1" k3="1"/>
<feColorMatrix type="matrix" values="0 0 0 0 0 0 0 0 0 0 0 0 0 0 0 0 0 0 0.25 0"/>
<feBlend mode="normal" in2="shape" result="effect1_innerShadow_18112_126884"/>
</filter>
<filter id="filter23_i_18112_126884" x="46.5137" y="27.9648" width="4.34961" height="3.68616" filterUnits="userSpaceOnUse" color-interpolation-filters="sRGB">
<feFlood flood-opacity="0" result="BackgroundImageFix"/>
<feBlend mode="normal" in="SourceGraphic" in2="BackgroundImageFix" result="shape"/>
<feColorMatrix in="SourceAlpha" type="matrix" values="0 0 0 0 0 0 0 0 0 0 0 0 0 0 0 0 0 0 127 0" result="hardAlpha"/>
<feOffset dy="0.39221"/>
<feGaussianBlur stdDeviation="0.245131"/>
<feComposite in2="hardAlpha" operator="arithmetic" k2="-1" k3="1"/>
<feColorMatrix type="matrix" values="0 0 0 0 0 0 0 0 0 0 0 0 0 0 0 0 0 0 0.25 0"/>
<feBlend mode="normal" in2="shape" result="effect1_innerShadow_18112_126884"/>
</filter>
<filter id="filter24_i_18112_126884" x="45.2412" y="31.6641" width="4.92285" height="4.65295" filterUnits="userSpaceOnUse" color-interpolation-filters="sRGB">
<feFlood flood-opacity="0" result="BackgroundImageFix"/>
<feBlend mode="normal" in="SourceGraphic" in2="BackgroundImageFix" result="shape"/>
<feColorMatrix in="SourceAlpha" type="matrix" values="0 0 0 0 0 0 0 0 0 0 0 0 0 0 0 0 0 0 127 0" result="hardAlpha"/>
<feOffset dy="0.39221"/>
<feGaussianBlur stdDeviation="0.245131"/>
<feComposite in2="hardAlpha" operator="arithmetic" k2="-1" k3="1"/>
<feColorMatrix type="matrix" values="0 0 0 0 0 0 0 0 0 0 0 0 0 0 0 0 0 0 0.25 0"/>
<feBlend mode="normal" in2="shape" result="effect1_innerShadow_18112_126884"/>
</filter>
<linearGradient id="paint0_linear_18112_126884" x1="9.32507" y1="-11.7236" x2="-9.89448" y2="64.5566" gradientUnits="userSpaceOnUse">
<stop offset="0.0946799" stop-color="#FEDE6D"/>
<stop offset="0.370604" stop-color="#EAB94C"/>
<stop offset="0.75" stop-color="#FFED71"/>
<stop offset="0.866546" stop-color="#FAD27B"/>
</linearGradient>
</defs>
</svg>
