<?xml version="1.0" encoding="utf-8"?>
<svg width="210" height="80" viewBox="0 0 210 80" fill="none" xmlns="http://www.w3.org/2000/svg">
<path d="M31.7399 33.8601C32.3999 34.5201 32.7999 35.4201 32.7999 36.4001C32.7999 38.38 31.1799 40 29.1999 40H22.4001V32.8001H29.1999C30.1799 32.8001 31.0799 33.2001 31.7399 33.8601ZM26.16 16.0004C12.9002 15.9204 2.08045 26.6002 2.00045 39.84C1.92045 53.0798 12.6002 63.9196 25.84 63.9996C39.0998 64.0796 49.8996 53.3997 49.9796 40.16C50.0796 26.9002 39.3997 16.0804 26.16 16.0004ZM35.1198 42.4C33.5999 43.9199 31.4799 44.8399 29.1599 44.8199L22.3601 44.7799L22.3201 51.9798L17.5202 51.9598L17.6802 27.9602L29.2799 28.0402C33.9198 28.0802 37.6598 31.8602 37.6198 36.5001C37.5998 38.8 36.6598 40.88 35.1198 42.4Z" fill="#FF6154"/>
<path d="M73.3591 32.0002H65.9992V47.9999H69.3592V42.1H73.3591C76.759 42.1 78.639 39.8001 78.639 37.0601C78.639 34.3202 76.779 32.0002 73.3591 32.0002ZM72.8791 39.1601H69.3392V34.9402H72.8791C74.1991 34.9402 75.2191 35.7402 75.2191 37.0601C75.2191 38.3801 74.1991 39.1601 72.8791 39.1601ZM80.659 47.9999V36.3401H83.6589V37.8801C84.4789 36.8801 85.8789 36.0602 87.2988 36.0602V38.9801C87.0788 38.9401 86.8189 38.9001 86.4789 38.9001C85.4789 38.9001 84.1589 39.4601 83.6789 40.2001V47.9999H80.659ZM94.4187 36.0602C90.6788 36.0602 88.4188 38.8001 88.4188 42.02C88.4188 45.24 90.6788 47.9999 94.4187 47.9999C98.1586 47.9999 100.459 45.24 100.459 42.02C100.459 38.8001 98.1986 36.0602 94.4187 36.0602ZM94.4387 45.34C92.5788 45.34 91.5388 43.82 91.5388 42.02C91.5388 40.2201 92.5788 38.7201 94.4387 38.7201C96.2987 38.7201 97.3587 40.2601 97.3587 42.02C97.3587 43.78 96.3187 45.34 94.4387 45.34ZM110.538 32.0002V37.8001C109.638 36.6201 108.358 36.0602 107.018 36.0602C104.119 36.0602 101.979 38.3201 101.979 42.02C101.979 45.72 104.159 47.9999 107.018 47.9999C108.418 47.9999 109.638 47.3999 110.538 46.26V47.9999H113.558V32.0002H110.538ZM110.538 44.04C110.038 44.8 108.958 45.34 107.978 45.34C106.258 45.34 105.079 44 105.079 42.02C105.079 40.0401 106.258 38.7201 107.978 38.7201C108.958 38.7201 110.038 39.2601 110.538 40.0201V44.04ZM124.198 47.9999V46.28C123.418 47.1199 122.058 47.9999 120.198 47.9999C117.698 47.9999 116.518 46.64 116.518 44.42V36.3401H119.518V43.24C119.518 44.82 120.338 45.34 121.618 45.34C122.778 45.34 123.698 44.7 124.218 44.04V36.3401H127.218V47.9999H124.198ZM129.438 42.02C129.438 38.5401 131.978 36.0602 135.478 36.0602C137.818 36.0602 139.218 37.0801 139.978 38.1201L138.018 39.9601C137.478 39.1601 136.658 38.7401 135.618 38.7401C133.798 38.7401 132.538 40.0601 132.538 42.04C132.538 44.02 133.818 45.36 135.618 45.36C136.658 45.36 137.478 44.88 138.018 44.12L139.978 45.96C139.218 47 137.818 48.0399 135.478 48.0399C131.978 47.9999 129.438 45.52 129.438 42.02Z" fill="black"/>
<path d="M142.558 44.86V38.9401H140.678V36.3201H142.558V33.2002H145.558V36.3201H147.858V38.9401H145.558V44.06C145.558 44.8 145.938 45.34 146.598 45.34C147.038 45.34 147.478 45.18 147.638 44.98L148.278 47.2599C147.838 47.6599 147.038 47.9999 145.778 47.9999C143.658 47.9999 142.558 46.92 142.558 44.86Z" fill="black"/>
<path d="M167.017 47.9999V41.1001H159.598V47.9999H156.258V32.0002H159.598V38.1801H167.017V32.0002H170.377V47.9999H167.017ZM181.097 47.9999V46.28C180.317 47.1199 178.957 47.9999 177.097 47.9999C174.597 47.9999 173.417 46.64 173.417 44.42V36.3401H176.417V43.24C176.417 44.82 177.237 45.34 178.517 45.34C179.677 45.34 180.597 44.7 181.117 44.04V36.3401H184.117V47.9999H181.097ZM194.737 47.9999V40.8401C194.737 39.2601 193.917 38.7201 192.637 38.7201C191.457 38.7201 190.557 39.3801 190.037 40.0401V47.9999H187.037V36.3401H190.037V37.8001C190.777 36.9601 192.177 36.0602 194.017 36.0602C196.537 36.0602 197.737 37.4801 197.737 39.6801V47.9999H194.737Z" fill="black"/>
<path d="M201.337 44.86V38.9401H199.457V36.3201H201.337V33.2002H204.337V36.3201H206.637V38.9401H204.337V44.06C204.337 44.8 204.717 45.34 205.377 45.34C205.817 45.34 206.257 45.18 206.417 44.98L207.057 47.2599C206.617 47.6599 205.817 47.9999 204.557 47.9999C202.437 47.9999 201.337 46.92 201.337 44.86Z" fill="black"/>
</svg>
