<?xml version="1.0" encoding="utf-8"?>
<svg width="210" height="80" viewBox="0 0 210 80" fill="none" xmlns="http://www.w3.org/2000/svg">
<path d="M21.8636 17C23.6558 18.1836 25.5157 19.1304 27.308 20.2126C28.0182 20.6184 28.7283 21.0241 29.4723 21.4976L24.2984 24.5749L9.79113 33.1304C9.41915 33.3333 9.35152 33.6038 9.35152 33.9758V43.0048C9.35152 43.7149 9.35152 43.7149 8.74282 43.343L2.11481 39.4879C1.94573 39.2512 2.01336 38.9807 2.01336 38.7439V28.7681C1.97954 28.3285 2.28389 28.1932 2.55442 28.0241L14.5254 21.058L20.5447 17.5411C20.8829 17.3382 21.2211 17.1691 21.593 17.0338C21.6945 17 21.7621 17 21.8636 17ZM34.1389 33.9082C34.1727 33.4009 34.0037 33.1304 33.564 32.8599L25.5496 28.1932C25.3467 28.0918 25.1438 27.9227 24.8732 27.7536L32.1438 23.5266C32.4143 23.3575 32.651 23.2898 32.9892 23.4927L41.4433 28.3623C41.7476 28.5314 41.8152 28.7343 41.8152 29.0724V51.0193C41.8152 51.2898 41.7814 51.5265 41.5109 51.6618L34.4771 55.8212C34.3756 55.8888 34.2742 55.8888 34.1389 55.9565V33.9082ZM2.11481 51.628V43.2753L8.709 46.9275L21.1873 54.0966C21.6945 54.4009 22.0665 54.3671 22.5737 54.0628L30.6558 49.227L30.8587 49.1256C31.0278 49.227 30.9602 49.3623 30.9602 49.4975L30.994 57.3429C30.994 57.6811 30.9602 57.9178 30.622 58.0869L22.5061 62.855C22.2017 63.0241 21.965 63.0579 21.6607 62.8888L2.11481 51.628Z" fill="#65BD52"/>
<path d="M19.7332 30.7971C20.4771 30.3913 21.1534 29.6812 21.8636 29.6812C22.5399 29.6812 23.2501 30.3913 23.9264 30.7971L25.11 31.5073C25.0761 31.744 24.8732 31.7778 24.738 31.8792L16.5544 36.6473C16.1486 36.8841 16.0133 37.1546 16.0133 37.5942C16.0472 38.8116 16.0133 40.029 16.0133 41.3816C15.1679 40.9082 14.4578 40.401 13.6462 40.0628C12.6993 39.657 12.395 39.0821 12.4964 38.0676C12.5979 37.1884 12.5303 36.3092 12.4964 35.3961C12.4964 35.058 12.5979 34.8889 12.9022 34.7198L19.7332 30.7971ZM17.9747 48.6183L12.9361 45.7101C12.6317 45.5411 12.4964 45.3382 12.5303 44.9662V42.227C12.4964 41.686 12.6655 41.686 13.0713 41.9227L21.2549 46.6908C21.6269 46.9275 21.8974 46.9275 22.2694 46.6908C23.3515 46.0145 24.4674 45.4058 25.651 44.6956V48.2464C25.651 48.4831 25.5496 48.6183 25.3467 48.7198L22.1003 50.6473C21.8298 50.8164 21.6607 50.715 21.424 50.5797C20.308 49.971 19.1583 49.2947 17.9747 48.6183ZM29.9457 34.3816C30.7573 34.6522 30.994 35.1594 30.9602 36.0048C30.8926 38.9469 30.9264 41.8889 30.9602 44.8309C30.9602 45.3043 30.8249 45.5411 30.4191 45.7439C29.5061 46.2174 28.6269 46.7923 27.6462 47.3671C27.6462 47.0628 27.6124 46.8261 27.6124 46.6232L27.6462 37.5266C27.6462 37.1546 27.5447 36.9517 27.2066 36.7488C26.0568 36.1063 24.9409 35.43 23.7235 34.7198L26.9699 32.8261C27.1728 32.6908 27.3418 32.8599 27.5109 32.9275L29.9457 34.3816Z" fill="#505B5D"/>
<path fill-rule="evenodd" clip-rule="evenodd" d="M206.602 34.2126C206.501 34.0773 206.501 34.0435 206.501 34.0435C206.873 33.942 207.11 33.5701 207.076 33.1981V33.0966C207.042 32.5894 206.636 32.2512 206.129 32.2512H205.013V35.3961H205.453V34.1111H206.061L206.704 35.3961H207.211L206.602 34.2126ZM206.061 33.773H205.453V32.6232H206.129C206.4 32.657 206.636 32.8937 206.602 33.1643V33.2319C206.602 33.5701 206.366 33.8068 206.061 33.773ZM206.602 34.2126C206.501 34.0773 206.501 34.0435 206.501 34.0435C206.873 33.942 207.11 33.5701 207.076 33.1981V33.0966C207.042 32.5894 206.636 32.2512 206.129 32.2512H205.013V35.3961H205.453V34.1111H206.061L206.704 35.3961H207.211L206.602 34.2126ZM206.061 33.773H205.453V32.6232H206.129C206.4 32.657 206.636 32.8937 206.602 33.1643V33.2319C206.602 33.5701 206.366 33.8068 206.061 33.773ZM206.602 34.2126C206.501 34.0773 206.501 34.0435 206.501 34.0435C206.873 33.942 207.11 33.5701 207.076 33.1981V33.0966C207.042 32.5894 206.636 32.2512 206.129 32.2512H205.013V35.3961H205.453V34.1111H206.061L206.704 35.3961H207.211L206.602 34.2126ZM206.061 33.773H205.453V32.6232H206.129C206.4 32.657 206.636 32.8937 206.602 33.1643V33.2319C206.602 33.5701 206.366 33.8068 206.061 33.773ZM206.602 34.2126C206.501 34.0773 206.501 34.0435 206.501 34.0435C206.873 33.942 207.11 33.5701 207.076 33.1981V33.0966C207.042 32.5894 206.636 32.2512 206.129 32.2512H205.013V35.3961H205.453V34.1111H206.061L206.704 35.3961H207.211L206.602 34.2126ZM206.061 33.773H205.453V32.6232H206.129C206.4 32.657 206.636 32.8937 206.602 33.1643V33.2319C206.602 33.5701 206.366 33.8068 206.061 33.773ZM206.602 34.2126C206.501 34.0773 206.501 34.0435 206.501 34.0435C206.873 33.942 207.11 33.5701 207.076 33.1981V33.0966C207.042 32.5894 206.636 32.2512 206.129 32.2512H205.013V35.3961H205.453V34.1111H206.061L206.704 35.3961H207.211L206.602 34.2126ZM206.061 33.773H205.453V32.6232H206.129C206.4 32.657 206.636 32.8937 206.602 33.1643V33.2319C206.602 33.5701 206.366 33.8068 206.061 33.773ZM206.602 34.2126C206.501 34.0773 206.501 34.0435 206.501 34.0435C206.873 33.942 207.11 33.5701 207.076 33.1981V33.0966C207.042 32.5894 206.636 32.2512 206.129 32.2512H205.013V35.3961H205.453V34.1111H206.061L206.704 35.3961H207.211L206.602 34.2126ZM206.061 33.773H205.453V32.6232H206.129C206.4 32.657 206.636 32.8937 206.602 33.1643V33.2319C206.602 33.5701 206.366 33.8068 206.061 33.773ZM205.96 30.8986H205.892C204.303 30.9324 203.052 32.2512 203.086 33.8406C203.086 35.43 204.371 36.715 205.96 36.715C207.549 36.715 208.834 35.43 208.834 33.8406V33.773C208.834 32.1836 207.549 30.8986 205.96 30.8986ZM208.395 33.8406V33.9082C208.396 34.2283 208.334 34.5455 208.212 34.8416C208.09 35.1376 207.911 35.4065 207.685 35.6329C207.458 35.8592 207.189 36.0385 206.893 36.1604C206.597 36.2823 206.28 36.3443 205.96 36.343H205.892C204.54 36.2754 203.525 35.1594 203.559 33.8406V33.5701C203.627 32.2512 204.776 31.2029 206.095 31.2705C207.414 31.3382 208.496 32.5217 208.395 33.8406ZM206.501 34.0435C206.873 33.942 207.11 33.5701 207.076 33.1981V33.0966C207.042 32.5894 206.636 32.2512 206.129 32.2512H205.013V35.3961H205.453V34.1111H206.061L206.704 35.3961H207.211L206.602 34.2126C206.501 34.0773 206.501 34.0435 206.501 34.0435ZM206.061 33.773H205.453V32.6232H206.129C206.4 32.657 206.636 32.8937 206.602 33.1643V33.2319C206.602 33.5701 206.366 33.8068 206.061 33.773ZM206.602 34.2126C206.501 34.0773 206.501 34.0435 206.501 34.0435C206.873 33.942 207.11 33.5701 207.076 33.1981V33.0966C207.042 32.5894 206.636 32.2512 206.129 32.2512H205.013V35.3961H205.453V34.1111H206.061L206.704 35.3961H207.211L206.602 34.2126ZM206.061 33.773H205.453V32.6232H206.129C206.4 32.657 206.636 32.8937 206.602 33.1643V33.2319C206.602 33.5701 206.366 33.8068 206.061 33.773ZM206.602 34.2126C206.501 34.0773 206.501 34.0435 206.501 34.0435C206.873 33.942 207.11 33.5701 207.076 33.1981V33.0966C207.042 32.5894 206.636 32.2512 206.129 32.2512H205.013V35.3961H205.453V34.1111H206.061L206.704 35.3961H207.211L206.602 34.2126ZM206.061 33.773H205.453V32.6232H206.129C206.4 32.657 206.636 32.8937 206.602 33.1643V33.2319C206.602 33.5701 206.366 33.8068 206.061 33.773Z" fill="#505B5D"/>
<path d="M164.4 46.7584V56.8695H161.661V31.2367H164.4V33.9758L164.67 33.773C166.327 31.6425 168.559 30.8986 171.129 30.8986C176.54 30.8986 179.482 35.2609 179.854 38.9807C180.192 42.1932 179.448 45.0338 177.182 47.4686C174.308 50.5459 167.612 51.0531 164.704 47.0966C164.636 47.029 164.569 46.9275 164.4 46.7584ZM164.298 40.4348V41.1787L164.4 42.0241C164.873 44.4589 166.09 46.3526 168.525 47.0628C171.061 47.8406 173.429 47.4348 175.289 45.4058C177.148 43.3768 177.52 40.9082 176.844 38.3382C175.39 32.6232 168.965 32.4203 166.327 35.0242C164.873 36.5459 164.264 38.372 164.298 40.4348ZM185.298 41.5169C185.4 44.5604 188.105 47.2319 191.216 47.3671C193.617 47.4686 195.612 46.7584 196.931 44.5942C196.999 44.4589 197.235 44.3237 197.371 44.3237C198.25 44.2898 199.129 44.3237 200.11 44.3237C199.603 45.744 198.859 46.9275 197.743 47.8406C194.834 50.3092 191.487 50.5121 188.071 49.2609C184.723 48.0435 182.931 45.4058 182.458 41.9227C182.119 39.5217 182.424 37.1884 183.743 35.0918C185.535 32.1836 188.24 30.8986 191.622 30.9324C196.83 31 200.482 34.6184 200.651 39.8261C200.685 40.3671 200.651 40.9082 200.651 41.5507H185.298V41.5169ZM197.709 38.8792C197.472 35.7005 194.733 33.401 191.284 33.4348C188.173 33.4686 185.501 35.9372 185.366 38.8792H197.709ZM154.052 34.0435V31.2705H156.791V49.599H154.052V46.8261L153.409 47.5362C151.448 49.6666 148.912 50.1401 146.173 49.8357C141.776 49.3623 138.97 45.6763 138.598 41.686C138.327 38.6763 138.902 35.9372 140.999 33.6377C144.042 30.2899 149.859 29.9517 153.004 32.9275C153.342 33.2319 153.646 33.5701 154.052 34.0435ZM141.337 40.9082C141.438 41.3816 141.506 42.2947 141.81 43.1739C143.636 48.314 149.892 48.3816 152.361 45.5749C153.917 43.8164 154.39 41.7198 154.119 39.4541C153.545 34.0097 148.675 32.3188 144.888 34.1449C142.318 35.3623 141.371 37.6957 141.337 40.9082ZM118.883 23.9324H121.588V34.0097L122.163 33.401C124.327 30.9662 127.066 30.3575 130.076 31.3044C133.086 32.2512 134.709 34.5169 135.013 37.5942C135.216 39.7923 135.115 41.9903 135.148 44.2222V49.599H132.376V39.1498C132.376 37.6957 132.105 36.343 131.124 35.1932C129.67 33.5024 127.776 33.0966 125.714 33.6377C123.549 34.2126 122.231 35.6329 121.791 37.8309C121.69 38.3382 121.656 38.8454 121.656 39.3527V49.5652H118.917L118.883 23.9324ZM76.6123 41.0773C76.5785 43.9855 75.3611 46.9613 72.1485 48.7536C67.0085 51.628 58.8587 49.4638 58.3515 41.1787C58.2162 38.8454 58.5882 36.6473 59.9408 34.686C61.8007 32.0145 64.4384 30.8647 67.6171 30.8986C73.0616 31.0338 76.6123 34.8551 76.6123 41.0773ZM73.8055 40.1304C73.7717 39.7585 73.7379 39.1159 73.6027 38.4734C73.0616 35.8019 71.1002 33.942 68.4626 33.5362C65.7234 33.1304 63.2548 34.2802 61.9698 36.6812C61.023 38.4396 60.8877 40.3671 61.2597 42.2947C62.1389 46.8599 67.3128 49.0241 71.0664 46.3526C73.0616 44.8985 73.7717 42.8019 73.8055 40.1304ZM114.723 36.1401H111.917C111.612 34.314 110.293 33.5362 108.636 33.4348C107.453 33.3333 106.202 33.4348 105.018 33.6377C104.477 33.7053 103.902 34.1111 103.53 34.5507C102.651 35.5652 102.921 37.2222 104.206 37.7295C105.762 38.3382 107.419 38.7101 109.008 39.2174C110.361 39.657 111.781 39.9952 113.066 40.6377C116.448 42.2609 115.805 47.1304 113.235 48.6183C112.322 49.1256 111.308 49.5652 110.293 49.7343C107.757 50.2077 105.255 50.1401 102.955 48.8212C101.095 47.7391 99.9794 46.1836 99.8442 43.9179H102.651C102.651 43.9179 102.719 43.9517 102.719 43.9855C103.26 46.2512 104.714 47.4348 107.013 47.57C108.366 47.6377 109.685 47.5362 110.936 47.029C112.255 46.4879 112.863 45.2029 112.458 43.9855C112.187 43.2077 111.578 42.7681 110.902 42.5652C109.313 42.058 107.656 41.686 106.066 41.2126C104.917 40.8744 103.733 40.5024 102.651 39.9952C99.2017 38.372 99.9794 33.6377 102.482 32.1159C104.68 30.7633 110.124 30.3913 112.694 32.4203C113.844 33.2995 114.554 34.5507 114.723 36.1401ZM83.0374 49.599H80.2983V31.2367H83.0036V33.9082L84.5592 32.4203C87.8732 29.4445 95.1437 30.5604 96.3273 37.0531C96.4625 37.6957 96.4963 38.372 96.4963 39.0145V49.5652H93.7234V48.8212L93.6896 38.4734C93.6219 35.4976 91.5253 33.4348 88.6509 33.4348C85.6075 33.4348 83.1727 35.5652 83.0712 38.5072C82.9698 41.9227 83.0374 45.3382 83.0374 48.7874V49.599Z" fill="#505B5D"/>
</svg>
