<svg width="123" height="24" viewBox="0 0 123 24" fill="none" xmlns="http://www.w3.org/2000/svg">
<path d="M19.1487 0L11.6529 4.30495V17.7409L7.51714 20.1384L3.35607 17.739V12.9421L7.51714 10.566L10.1927 12.1176V8.23657L7.4938 6.70437L0 11.0579V19.6698L7.51908 24L15.0129 19.6698V6.23576L19.1739 3.83634L23.3331 6.23576V11.0113L19.1739 13.4321L16.4751 11.8668V15.7284L19.1487 17.2704L26.7164 12.9654V4.30495L19.1487 0Z" fill="white"/>
<path fill-rule="evenodd" clip-rule="evenodd" d="M63.1256 18.6528H66.4856V0.235268H63.1256V18.6528ZM41.525 5.56104C43.1175 5.56104 44.4378 6.20075 45.4819 7.47824C46.528 8.75572 47.0491 10.3404 47.0491 12.2324C47.0491 14.1243 46.5261 15.709 45.4819 16.9865C44.4358 18.2639 43.1175 18.9037 41.525 18.9037C40.3973 18.9037 39.4173 18.5556 38.589 17.8576C37.7762 17.144 37.1793 16.1815 36.7962 14.9701V23.6306H33.4362V5.80993H36.7962V9.49266C37.1773 8.28129 37.7762 7.32657 38.589 6.63047C39.4192 5.91687 40.3973 5.56104 41.525 5.56104ZM40.3039 15.8412C41.2159 15.8412 41.9878 15.5009 42.6178 14.8204C43.2478 14.1243 43.5628 13.261 43.5628 12.2324C43.5628 11.2038 43.2478 10.3735 42.6178 9.69294C41.9878 8.99683 41.2159 8.64684 40.3039 8.64684C39.2909 8.64684 38.4548 8.98711 37.7898 9.66766C37.1268 10.3482 36.7943 11.2018 36.7943 12.2304C36.7943 13.259 37.1268 14.1223 37.7898 14.8184C38.4529 15.499 39.2909 15.8393 40.3039 15.8393V15.8412ZM47.9416 12.2324C47.9416 14.1243 48.5969 15.709 49.9074 16.9865C51.218 18.2639 52.8532 18.9037 54.8113 18.9037C56.7693 18.9037 58.4046 18.2639 59.7151 16.9865C61.0256 15.709 61.6809 14.1243 61.6809 12.2324C61.6809 10.3404 61.0256 8.75572 59.7151 7.47824C58.4046 6.20075 56.7693 5.56104 54.8113 5.56104C52.8532 5.56104 51.218 6.20075 49.9074 7.47824C48.5969 8.75572 47.9416 10.3404 47.9416 12.2324ZM52.3963 14.8204C51.7488 14.1243 51.426 13.261 51.426 12.2324C51.426 11.2038 51.7488 10.3735 52.3963 9.69294C53.0438 8.99683 53.8488 8.64684 54.8113 8.64684C55.7738 8.64684 56.5788 8.98711 57.2262 9.66766C57.8737 10.3482 58.1965 11.2018 58.1965 12.2304C58.1965 13.259 57.8737 14.1223 57.2262 14.8184C56.5788 15.499 55.7738 15.8393 54.8113 15.8393C53.8488 15.8393 53.0438 15.499 52.3963 14.8184V14.8204ZM97.5263 16.9865C96.2158 15.709 95.5605 14.1243 95.5605 12.2324C95.5605 10.3404 96.2158 8.75572 97.5263 7.47824C98.8369 6.20075 100.472 5.56104 102.43 5.56104C104.388 5.56104 106.023 6.20075 107.334 7.47824C108.645 8.75572 109.3 10.3404 109.3 12.2324C109.3 14.1243 108.645 15.709 107.334 16.9865C106.023 18.2639 104.388 18.9037 102.43 18.9037C100.472 18.9037 98.8388 18.2639 97.5263 16.9865ZM99.043 12.2324C99.043 13.261 99.3658 14.1243 100.013 14.8204C100.661 15.5009 101.466 15.8412 102.428 15.8412C103.391 15.8412 104.196 15.5009 104.843 14.8204C105.491 14.1243 105.813 13.261 105.813 12.2324C105.813 11.2038 105.491 10.3482 104.843 9.6696C104.196 8.98905 103.391 8.64878 102.428 8.64878C101.466 8.64878 100.661 8.99683 100.013 9.69488C99.3658 10.3754 99.043 11.2213 99.043 12.2343V12.2324ZM118.242 5.56104C119.669 5.56104 120.815 6.05881 121.676 7.05436C122.555 8.0499 122.994 9.31961 122.994 10.8615V18.6509H119.634V11.4585C119.634 10.6282 119.37 9.94765 118.837 9.41683C118.306 8.886 117.643 8.61962 116.846 8.61962C115.95 8.61962 115.221 8.886 114.657 9.41683C114.093 9.94765 113.811 10.6282 113.811 11.4585V18.6509H110.451V5.80993H113.811V9.096C114.143 8.00129 114.699 7.13797 115.479 6.50797C116.276 5.87798 117.196 5.56298 118.242 5.56298V5.56104ZM74.5569 15.2287L77.9907 5.82159H81.4012L74.3333 23.6422H70.9228L72.7155 19.1117L67.4636 5.82159H71.0978L74.5569 15.2287ZM90.9561 5.80993V9.02794C90.2561 6.92797 88.5276 5.80993 86.2273 5.80993C82.7546 5.80993 80.7013 8.84322 80.7013 12.0321C80.7013 15.2209 82.739 18.5031 86.2273 18.5031C88.5276 18.5031 90.2561 16.8445 90.9561 14.7445V17.2081C90.9561 18.2542 90.6159 19.1156 89.9353 19.7962C89.2548 20.4767 88.4264 20.817 87.4465 20.817C86.1184 20.817 85.1326 20.1539 84.4851 18.8259L81.4732 20.4184C82.0371 21.4645 82.8421 22.3006 83.8882 22.9325C84.9343 23.5625 86.1204 23.8775 87.4465 23.8775C89.4045 23.8775 91.0397 23.2397 92.3503 21.9603C93.6608 20.6828 94.3161 19.0981 94.3161 17.2062V5.80993H90.9561ZM89.9859 14.4723C89.3384 15.1198 88.5256 15.4426 87.5476 15.4426C86.5695 15.4426 85.8054 15.1198 85.1579 14.4723C84.5104 13.8093 84.1876 12.9965 84.1876 12.034C84.1876 11.0715 84.5104 10.2665 85.1579 9.61905C85.8054 8.97156 86.6006 8.64878 87.5476 8.64878C88.4945 8.64878 89.3403 8.97156 89.9859 9.61905C90.6334 10.249 90.9561 11.054 90.9561 12.034C90.9561 13.014 90.6334 13.8268 89.9859 14.4723Z" fill="white"/>
</svg>
