<?xml version="1.0" encoding="utf-8"?>
<svg width="210" height="80" viewBox="0 0 210 80" fill="none" xmlns="http://www.w3.org/2000/svg">
<path d="M76.5726 51.4968L78.5471 46.9108C80.6809 48.5031 83.5153 49.3312 86.3178 49.3312C88.3879 49.3312 89.6936 48.535 89.6936 47.3248C89.6618 43.949 77.3051 46.5923 77.2095 38.121C77.1777 33.8216 80.9994 30.5095 86.4134 30.5095C89.63 30.5095 92.8465 31.3057 95.1395 33.1209L93.2924 37.8025C91.1905 36.4649 88.579 35.5095 86.0949 35.5095C84.407 35.5095 83.2924 36.3057 83.2924 37.3248C83.3242 40.6369 95.7765 38.8216 95.9038 46.9108C95.9038 51.3057 92.1777 54.3949 86.8274 54.3949C82.9102 54.3949 79.3115 53.4713 76.5726 51.4968ZM152.337 45.2547C151.35 46.9745 149.503 48.1528 147.369 48.1528C144.216 48.1528 141.668 45.6051 141.668 42.4522C141.668 39.2993 144.216 36.7515 147.369 36.7515C149.503 36.7515 151.35 37.9299 152.337 39.6496L157.783 36.6241C155.745 32.9936 151.828 30.5095 147.369 30.5095C140.777 30.5095 135.426 35.8598 135.426 42.4522C135.426 49.0445 140.777 54.3949 147.369 54.3949C151.859 54.3949 155.745 51.9426 157.783 48.2802L152.337 45.2547ZM98.6427 20.605H105.458V53.949H98.6427V20.605ZM160.458 20.605V53.949H167.273V43.949L175.363 53.949H184.089L173.802 42.07L183.324 30.9872H174.98L167.273 40.191V20.605H160.458ZM125.713 30.9872V33.6942C124.598 31.8152 121.827 30.5095 118.929 30.5095C112.942 30.5095 108.229 35.7961 108.229 42.4203C108.229 49.0445 112.942 54.3949 118.929 54.3949C121.827 54.3949 124.598 53.0891 125.713 51.2102V53.9172H132.528V30.9872H125.713ZM125.713 45.3184C124.726 46.9426 122.687 48.1528 120.394 48.1528C117.241 48.1528 114.694 45.6051 114.694 42.4522C114.694 39.2993 117.241 36.7515 120.394 36.7515C122.687 36.7515 124.726 38.0254 125.713 39.6815V45.3184Z" fill="black"/>
<path d="M34.4405 45.2864C34.441 45.8386 34.3325 46.3854 34.1214 46.8956C33.9103 47.4058 33.6006 47.8694 33.2102 48.2599C32.8197 48.6503 32.3562 48.96 31.8459 49.1711C31.3357 49.3822 30.7889 49.4906 30.2367 49.4902C29.6846 49.4902 29.138 49.3815 28.628 49.1702C28.1179 48.959 27.6545 48.6493 27.2641 48.2589C26.8738 47.8686 26.5641 47.4052 26.3529 46.8951C26.1416 46.3851 26.0329 45.8384 26.0329 45.2864C26.0329 44.7343 26.1416 44.1877 26.3529 43.6777C26.5641 43.1676 26.8738 42.7042 27.2641 42.3138C27.6545 41.9235 28.1179 41.6138 28.628 41.4026C29.138 41.1913 29.6846 41.0826 30.2367 41.0826H34.4405V45.2864ZM36.5424 45.2864C36.5424 44.1715 36.9854 43.1022 37.7737 42.3138C38.5621 41.5255 39.6314 41.0826 40.7463 41.0826C41.8612 41.0826 42.9305 41.5255 43.7188 42.3138C44.5072 43.1022 44.9501 44.1715 44.9501 45.2864V55.796C44.9501 56.9109 44.5072 57.9802 43.7188 58.7685C42.9305 59.5569 41.8612 59.9998 40.7463 59.9998C39.6314 59.9998 38.5621 59.5569 37.7737 58.7685C36.9854 57.9802 36.5424 56.9109 36.5424 55.796V45.2864Z" fill="#E01E5A"/>
<path d="M40.7453 28.4077C40.1931 28.4081 39.6462 28.2996 39.136 28.0885C38.6258 27.8774 38.1622 27.5678 37.7718 27.1773C37.3813 26.7869 37.0717 26.3233 36.8606 25.8131C36.6495 25.3028 36.541 24.756 36.5414 24.2038C36.5414 23.6518 36.6502 23.1051 36.8614 22.5951C37.0727 22.0851 37.3823 21.6216 37.7727 21.2313C38.1631 20.8409 38.6265 20.5313 39.1365 20.32C39.6466 20.1087 40.1932 20 40.7453 20C41.2973 20 41.844 20.1087 42.354 20.32C42.864 20.5313 43.3275 20.8409 43.7178 21.2313C44.1082 21.6216 44.4178 22.0851 44.6291 22.5951C44.8404 23.1051 44.9491 23.6518 44.9491 24.2038V28.4077H40.7453ZM40.7453 30.5414C41.8602 30.5414 42.9294 30.9843 43.7178 31.7727C44.5062 32.5611 44.9491 33.6303 44.9491 34.7453C44.9491 35.8602 44.5062 36.9294 43.7178 37.7178C42.9294 38.5062 41.8602 38.9491 40.7453 38.9491H30.2038C29.0889 38.9491 28.0196 38.5062 27.2313 37.7178C26.4429 36.9294 26 35.8602 26 34.7453C26 33.6303 26.4429 32.5611 27.2313 31.7727C28.0196 30.9843 29.0889 30.5414 30.2038 30.5414H40.7453Z" fill="#36C5F0"/>
<path d="M57.5921 34.7453C57.5921 33.6303 58.035 32.5611 58.8234 31.7727C59.6118 30.9843 60.681 30.5414 61.796 30.5414C62.9109 30.5414 63.9802 30.9843 64.7685 31.7727C65.5569 32.5611 65.9998 33.6303 65.9998 34.7453C66.0002 35.2974 65.8918 35.8443 65.6807 36.3545C65.4695 36.8647 65.1599 37.3283 64.7695 37.7187C64.379 38.1092 63.9154 38.4188 63.4052 38.6299C62.895 38.8411 62.3481 38.9495 61.796 38.9491H57.5921V34.7453ZM55.4902 34.7453C55.4902 35.2973 55.3815 35.844 55.1702 36.354C54.959 36.864 54.6493 37.3275 54.2589 37.7178C53.8686 38.1082 53.4052 38.4178 52.8951 38.6291C52.3851 38.8404 51.8384 38.9491 51.2864 38.9491C50.7343 38.9491 50.1877 38.8404 49.6777 38.6291C49.1676 38.4178 48.7042 38.1082 48.3138 37.7178C47.9235 37.3275 47.6138 36.864 47.4026 36.354C47.1913 35.844 47.0826 35.2973 47.0826 34.7453V24.2038C47.0826 23.0889 47.5255 22.0196 48.3138 21.2313C49.1022 20.4429 50.1715 20 51.2864 20C52.4013 20 53.4706 20.4429 54.2589 21.2313C55.0473 22.0196 55.4902 23.0889 55.4902 24.2038V34.7453Z" fill="#2EB67D"/>
<path d="M51.2864 51.5921C52.4013 51.5921 53.4706 52.035 54.2589 52.8234C55.0473 53.6118 55.4902 54.681 55.4902 55.796C55.4902 56.9109 55.0473 57.9802 54.2589 58.7685C53.4706 59.5569 52.4013 59.9998 51.2864 59.9998C50.7342 60.0002 50.1874 59.8918 49.6772 59.6807C49.1669 59.4695 48.7033 59.1599 48.3129 58.7695C47.9225 58.379 47.6128 57.9154 47.4017 57.4052C47.1906 56.895 47.0821 56.3481 47.0826 55.796V51.5921H51.2864ZM51.2864 49.4902C50.7343 49.4902 50.1877 49.3815 49.6777 49.1702C49.1676 48.959 48.7042 48.6493 48.3138 48.2589C47.9235 47.8686 47.6138 47.4052 47.4026 46.8951C47.1913 46.3851 47.0826 45.8384 47.0826 45.2864C47.0826 44.7343 47.1913 44.1877 47.4026 43.6777C47.6138 43.1676 47.9235 42.7042 48.3138 42.3138C48.7042 41.9235 49.1676 41.6138 49.6777 41.4026C50.1877 41.1913 50.7343 41.0826 51.2864 41.0826H61.8278C62.9427 41.0826 64.012 41.5255 64.8004 42.3138C65.5887 43.1022 66.0316 44.1715 66.0316 45.2864C66.0316 46.4013 65.5887 47.4706 64.8004 48.2589C64.012 49.0473 62.9427 49.4902 61.8278 49.4902H51.2864Z" fill="#ECB22E"/>
</svg>
