<?xml version="1.0" encoding="utf-8"?><svg width="210" height="80" viewBox="0 0 210 80" fill="none" xmlns="http://www.w3.org/2000/svg">
<path d="M45.0588 32.1029C44.0441 32.1029 43.2941 32.5441 42.6324 33.5147L40.6912 36.3382V28.3088H36.0147V36.3382L34.0735 33.5147C33.4118 32.5441 32.6618 32.1029 31.6471 32.1029C30.0588 32.1029 29 33.25 29 34.6618C29 35.8529 29.5735 36.6471 30.7647 37.4412L38.3088 42.2941L45.8529 37.4412C47.0441 36.6471 47.6176 35.8971 47.6176 34.6618C47.6618 33.25 46.6029 32.1029 45.0588 32.1029Z" fill="#0AAD0A"/>
<path d="M38.3088 43.4853C42.8088 43.4853 46.4706 46.8382 46.4706 51.6471H30.1471C30.1471 46.8382 33.8529 43.4853 38.3088 43.4853Z" fill="#FF7009"/>
<path d="M56.0441 33.4265C54.3235 33.4265 53.2206 32.3676 53.2206 30.6912C53.2206 29.0147 54.3676 28 56.0441 28C57.7206 28 58.8676 29.0588 58.8676 30.7353C58.8676 32.4118 57.7647 33.4265 56.0441 33.4265ZM58.5588 34.4853V51.6471H53.4853V34.4853H58.5588Z" fill="#003D29"/>
<path d="M66.1029 34.4853V37.6618H66.3676C67.3382 35.4118 69.0147 34.1324 71.7059 34.1324C75.3676 34.1324 77.6176 36.2941 77.6176 40.5294V51.6471H72.5441V41.5C72.5441 39.1176 71.5294 38.0588 69.5 38.0588C67.4706 38.0588 66.2353 39.2059 66.2353 41.6324V51.6471H61.1618V34.4853H66.1029Z" fill="#003D29"/>
<path d="M84.0588 46.2206C84.2353 47.7206 85.1618 48.4706 86.7941 48.4706C88.6029 48.4706 89.3088 47.7647 89.3088 46.8382C89.3088 45.9118 88.8235 45.3382 87.2794 45.2059L85.0735 44.9412C81.1471 44.5 79.5147 42.7353 79.5147 39.8235C79.5147 36.5588 81.9853 34.1765 86.7059 34.1765C91.4265 34.1765 93.5 36.3824 93.8088 39.7353H89.1323C89 38.4559 88.25 37.7059 86.6176 37.7059C84.9853 37.7059 84.1912 38.4118 84.1912 39.3382C84.1912 40.1765 84.7206 40.6176 86 40.7941L88.4706 41.1029C92.3529 41.6324 94.0294 43.1765 94.0294 46.2647C94.0294 49.6176 91.4265 52 86.75 52C82.0735 52 79.5147 49.7059 79.1618 46.2206H84.0588Z" fill="#003D29"/>
<path d="M96.9853 46.6176V38.5H94.8235V35.1471C97.647 34.9706 98.75 33.9118 98.8382 31.3088H102.059V34.4853H105.897V38.5H102.059V45.7353C102.059 47.4559 102.765 47.9853 104.176 47.9853C104.574 47.9853 105.015 47.9412 105.456 47.8529V51.6912C104.618 51.9118 103.824 52 102.941 52C98.75 52 96.9853 50.1029 96.9853 46.6176Z" fill="#003D29"/>
<path d="M117.059 48.7794C116.265 50.8088 114.765 51.9559 112.118 51.9559C108.721 51.9559 106.868 49.8382 106.868 47.1029C106.868 44.5882 108.279 42.8235 112.206 42.0735L115.118 41.5441C116.618 41.2794 117.147 40.75 117.147 39.8676C117.147 38.6765 116.309 38.0147 114.721 38.0147C112.956 38.0147 112.074 38.8088 111.897 40.1765H107.088C107.618 36.4706 110.309 34.1324 114.897 34.1324C119.838 34.1324 122.221 36.6471 122.221 40.4853V51.6029H117.324V48.7794H117.059ZM117.103 43.75C116.662 44.0588 116.088 44.3235 115.294 44.5L113.794 44.8529C112.471 45.1618 111.985 45.7794 111.985 46.7059C111.985 47.8971 112.824 48.6029 114.279 48.6029C116 48.6029 117.147 47.6765 117.147 45.4706V43.75H117.103Z" fill="#003D29"/>
<path d="M133.206 34.1324C138.544 34.1324 141.544 37.0441 141.897 41.7206H136.868C136.603 39.6029 135.456 38.2353 133.162 38.2353C130.559 38.2353 129.103 39.8676 129.103 42.9118C129.103 46.1765 130.691 47.8088 133.206 47.8088C135.368 47.8088 136.691 46.5294 136.956 44.2353H141.985C141.5 49.0441 138.279 51.9118 133.029 51.9118C127.25 51.9118 123.941 48.4265 123.941 43.0441C124.029 37.7059 127.647 34.1324 133.206 34.1324Z" fill="#003D29"/>
<path d="M153.5 48.7794C152.706 50.8088 151.206 51.9559 148.559 51.9559C145.162 51.9559 143.309 49.8382 143.309 47.1029C143.309 44.5882 144.721 42.8235 148.647 42.0735L151.559 41.5441C153.059 41.2794 153.588 40.75 153.588 39.8676C153.588 38.6765 152.75 38.0147 151.162 38.0147C149.397 38.0147 148.515 38.8088 148.338 40.1765H143.529C144.059 36.4706 146.75 34.1324 151.338 34.1324C156.279 34.1324 158.662 36.6471 158.662 40.4853V51.6029H153.765V48.7794H153.5ZM153.544 43.75C153.103 44.0588 152.529 44.3235 151.735 44.5L150.235 44.8529C148.912 45.1618 148.426 45.7794 148.426 46.7059C148.426 47.8971 149.265 48.6029 150.721 48.6029C152.441 48.6029 153.588 47.6765 153.588 45.4706V43.75H153.544Z" fill="#003D29"/>
<path d="M165.853 34.4853V38.6324H166.118C166.956 35.1471 168.191 34.1765 169.868 34.1765C170.221 34.1765 170.574 34.2206 170.882 34.3529V39.1176C170.485 39.0735 170.044 39.0294 169.515 39.0294C167.132 39.0294 166.162 40 166.162 42.6912V51.6912H161.088V34.4853H165.853Z" fill="#003D29"/>
<path d="M172.426 34.6618C173.75 34.1324 174.279 33.0735 174.368 31.3088H177.5V34.4853H181.338V38.5H177.5V45.7353C177.5 47.4559 178.206 47.9853 179.618 47.9853C180.015 47.9853 180.456 47.9412 180.897 47.8529V51.6912C180.059 51.9118 179.265 52 178.382 52C174.235 52 172.426 50.1471 172.426 46.6176V34.6618Z" fill="#003D29"/>
</svg>
