<?xml version="1.0" encoding="utf-8"?>
<svg width="210" height="80" viewBox="0 0 210 80" fill="none" xmlns="http://www.w3.org/2000/svg">
<path d="M52.6627 41.4154C52.4637 39.127 51.2034 37.6346 48.9482 36.8718C49.8769 36.308 50.706 35.7774 51.3029 34.9151C53.127 32.1293 52.132 28.0832 49.1804 26.4913C47.9201 25.7948 46.5272 25.43 45.1011 25.43L35.9809 25.3305C35.2181 25.3305 35.0522 25.5295 35.0522 26.2923L35.0854 48.181V48.4794C35.0191 48.9437 35.2181 49.1427 35.7155 49.1096C39.3637 49.0101 43.0118 49.2754 46.7262 48.9106C47.9201 48.7116 48.9814 48.3468 49.9432 47.7498C52.2315 46.2574 52.8948 44.0022 52.6627 41.4154ZM39.9275 34.3181V29.9736C39.9275 29.6419 39.8611 29.2771 40.3918 29.3103C41.9505 29.3766 43.5092 29.1444 45.0348 29.4761C46.4941 29.8077 47.1905 30.6037 47.2568 32.0629C47.3232 33.688 46.7262 34.6166 45.2338 35.0146C43.6087 35.4789 41.9505 35.2467 40.2923 35.2467C39.6953 35.2799 40.027 34.7161 39.9275 34.3181ZM44.2057 45.1298C42.9786 45.163 41.7847 45.1298 40.5576 45.1298C40.0601 45.1298 39.9275 44.9972 39.9275 44.4997C39.9606 42.8083 39.9606 41.1169 39.9275 39.4255C39.9275 38.928 40.0269 38.6959 40.5907 38.729C42.0168 38.7622 43.4429 38.729 44.8358 38.7622C45.8639 38.7954 46.7594 39.1602 47.3895 40.1219C48.5503 43.0736 47.2237 45.0966 44.2057 45.1298ZM203.595 31.5986C203.031 31.1343 201.771 31.5323 200.842 31.4328C199.748 31.3001 199.284 31.665 199.383 32.7594C199.383 32.7926 199.284 32.8257 199.25 32.8589C196.398 29.8741 190.296 30.3715 188.372 35.8105C188.074 36.6728 187.842 37.5683 187.775 38.4637C187.51 41.7802 187.775 44.964 190.263 47.6172C191.523 48.8111 192.949 49.3749 194.607 49.4081C196.299 49.4744 197.758 48.9106 199.051 47.7167C199.184 49.5407 198.952 51.1326 197.227 51.8954C194.806 52.9567 192.684 52.227 190.827 50.4362C190.329 51.0994 189.898 51.8291 189.367 52.3929C188.671 53.1557 188.936 53.62 189.633 54.1506C191.755 55.7425 194.143 56.1736 196.73 55.9415C201.274 55.5104 203.827 52.7577 203.827 48.2141V34.4176C203.794 33.4559 204.258 32.1624 203.595 31.5986ZM199.085 42.8414C199.085 44.5328 198.289 45.4283 196.564 45.561C196.299 45.5941 196.034 45.561 195.669 45.561C194.11 45.3951 193.281 44.4665 192.85 43.1731C192.186 41.1832 192.22 39.1602 192.949 37.2035C193.679 35.2799 195.437 34.484 197.393 35.1472C198.62 35.5784 199.085 36.2417 199.085 37.5351V42.8414ZM147.447 35.2136C146.32 32.2619 143.832 30.8358 140.715 31.1343C139.256 31.267 138.062 31.9634 137 33.0247C136.835 31.9634 136.238 31.466 135.21 31.466C134.579 31.466 133.916 31.5323 133.286 31.466C132.556 31.3996 132.424 31.665 132.424 32.3614V55.1124C132.424 55.7757 132.59 55.9747 133.253 55.9415C134.248 55.8752 135.276 55.8752 136.304 55.9415C137.034 56.0078 137.199 55.7093 137.166 55.046V47.6835C137.995 48.4463 138.758 48.9769 139.687 49.2422C143.036 50.204 146.187 48.6453 147.514 45.1961C148.708 41.8797 148.674 38.4969 147.447 35.2136ZM142.771 44.1017C142.174 45.3951 140.914 45.8263 139.322 45.5278C138.128 45.3288 137.332 44.5992 137.133 43.4053V37.2366C137.133 36.6065 137.365 36.1422 137.796 35.7442C139.355 34.3513 142.041 34.7493 142.871 36.6397C143.965 39.0938 143.865 41.6475 142.771 44.1017ZM113.686 47.0534L115.045 49.1096H109.971C109.474 49.1096 109.374 48.7116 109.175 48.4131L105.527 42.7088C105.129 42.0455 104.93 42.2113 104.466 42.6093C103.637 43.3389 103.272 44.1349 103.371 45.2625C103.471 46.2906 103.371 47.3518 103.405 48.4131C103.438 49.0101 103.206 49.1759 102.642 49.1427C101.514 49.1096 100.42 49.1096 99.2922 49.1427C98.7284 49.1759 98.6289 48.9437 98.6289 48.4463V24.7004C98.6289 24.1366 98.8611 24.0371 99.3585 24.0371C100.453 24.0703 101.514 24.1034 102.609 24.0371C103.338 24.0039 103.438 24.3024 103.438 24.8994V37.8004C104.101 37.0376 104.599 36.4075 105.129 35.7774L108.346 31.9966C108.578 31.7313 108.777 31.4328 109.242 31.4328C110.933 31.466 112.624 31.4328 114.515 31.4328L111.397 35.0478C110.502 36.109 109.606 37.1703 108.678 38.1652C108.28 38.5964 108.213 38.928 108.578 39.4255L113.686 47.0534ZM77.105 33.3232C72.263 29.1113 64.9668 31.068 63.3085 36.9381C62.7779 38.7954 62.7779 40.6526 63.0764 42.5761C63.607 45.9258 65.8954 48.4794 68.9797 49.1759C72.7273 50.0382 76.1432 48.8443 78.1 46.0916C80.2557 43.0404 80.3552 36.308 77.105 33.3232ZM74.3192 43.5711C73.8217 44.8977 72.7605 45.561 71.3344 45.5941C69.9083 45.6273 68.8802 44.9972 68.2501 43.7369C67.9184 43.0736 67.7526 42.344 67.6863 41.5149C67.5536 40.0225 67.6199 38.6627 68.0511 37.3361C68.5817 35.8105 69.643 35.0146 71.1022 34.9814C72.661 34.9483 73.8217 35.6447 74.3855 37.1703C75.1483 39.2928 75.1152 41.4817 74.3192 43.5711ZM180.745 38.6627V37.9662C180.711 36.905 180.678 35.7774 179.518 35.2799C178.29 34.7493 176.997 34.7824 175.869 35.6116C175.239 36.0427 174.908 36.6397 174.908 37.5019L174.941 48.2473C174.941 48.9437 174.775 49.1759 174.045 49.1427C173.017 49.0764 171.956 49.1096 170.895 49.1427C170.397 49.1759 170.198 49.0432 170.198 48.4794V32.1624C170.198 31.6318 170.364 31.466 170.895 31.4991C171.823 31.5323 172.719 31.5655 173.614 31.4991C174.41 31.4328 174.808 31.665 174.742 32.5272C174.709 32.7594 174.675 33.0579 174.941 33.3232C176.367 31.7645 178.158 31.1012 180.28 31.1675C182.933 31.267 184.658 32.6599 185.222 35.2467C185.388 35.9764 185.454 36.706 185.487 37.4688L185.52 48.3136C185.52 48.9769 185.354 49.2091 184.691 49.1759C183.696 49.1096 182.734 49.1096 181.74 49.1759C181.01 49.2422 180.745 49.0432 180.778 48.2473L180.745 38.6627ZM121.944 49.4081C119.489 49.2422 117.433 48.4463 115.974 46.4896C115.808 46.2574 115.642 45.9921 115.477 45.7268C114.515 43.8364 114.747 43.4716 116.803 43.4716H117.831C118.694 43.4716 119.423 43.3389 119.821 44.5992C120.352 46.2574 123.834 46.5891 125.028 45.2625C125.691 44.5328 125.525 43.4716 124.696 42.9078C123.967 42.4435 123.171 42.2445 122.342 42.0455C120.882 41.7139 119.456 41.3822 118.13 40.6194C114.913 38.7954 114.614 34.9483 117.5 32.6267C120.252 30.4379 125.525 30.5374 128.212 32.8257C129.207 33.688 129.771 34.7493 129.969 36.0427C130.069 36.6728 129.87 36.8055 129.306 36.7723C128.179 36.7392 127.084 36.7392 125.957 36.7723C125.492 36.7723 125.26 36.706 125.161 36.1422C124.995 35.2136 124.365 34.6498 123.436 34.5171C122.342 34.3513 121.247 34.285 120.451 35.2467C119.755 36.0759 120.02 37.1703 121.048 37.7009C121.944 38.1984 122.972 38.3311 123.967 38.53C125.194 38.7954 126.388 39.127 127.482 39.724C130.732 41.548 130.964 45.6936 127.946 47.8493C126.156 49.2091 124.133 49.4744 121.944 49.4081ZM82.2124 35.0809C84.4676 31.267 89.5086 29.9072 93.2894 32.0629C95.3124 33.2237 96.3737 35.0146 96.5727 37.3361C96.6059 37.8336 96.5395 38.0989 95.9426 38.0326C95.3788 37.9662 94.7818 38.0326 94.218 38.0326C93.1236 38.0326 92.0291 38.3311 91.7638 36.5733C91.598 35.4457 90.4372 34.9814 89.2433 34.9483C87.983 34.9151 86.9218 35.3794 86.4575 36.5733C85.5289 39.0275 85.5289 41.548 86.4575 44.0022C86.9218 45.1961 88.0494 45.6936 89.5749 45.5941C90.9347 45.4946 91.6975 44.8977 92.0955 43.5379C92.2281 43.1399 92.3608 43.0073 92.7919 43.0073C93.8532 43.0404 94.8813 43.0404 95.9426 43.0073C96.6059 42.9741 96.639 43.2726 96.5727 43.8032C96.3405 46.3237 94.1848 48.5789 91.3658 49.2091C85.9268 50.4693 81.6486 47.3187 81.1511 41.6144C80.9853 39.3592 81.1511 37.1703 82.2124 35.0809ZM55.6475 32.7262L55.6143 24.9325C55.5812 24.1366 55.8465 23.9708 56.5761 24.0039C57.6042 24.0703 58.6655 24.0371 59.7268 24.0039C60.2906 23.9708 60.39 24.1697 60.39 24.7004V48.4131C60.39 48.9437 60.2242 49.1096 59.6936 49.1096C58.6655 49.0764 57.6042 49.0432 56.5429 49.1096C55.747 49.1759 55.5812 48.8774 55.6143 48.1478L55.6475 32.7262ZM156.369 36.308C155.506 36.8386 155.241 37.5683 155.241 38.4969L155.274 48.0483C155.307 48.9769 155.009 49.2091 154.147 49.1427C153.185 49.0764 152.19 49.1096 151.195 49.1427C150.664 49.1759 150.498 48.9769 150.498 48.4463V32.0961C150.498 31.5986 150.631 31.4328 151.129 31.466H153.881C154.677 31.3996 155.208 31.5323 155.075 32.4941C155.042 32.7262 155.108 32.9584 155.175 33.3564L155.838 32.5604C156.932 31.3333 158.292 30.9685 159.884 31.1675C160.382 31.2338 160.58 31.4328 160.547 31.9634C160.481 33.0579 160.481 34.1191 160.514 35.2136C160.547 35.8105 160.315 35.8769 159.818 35.8105C158.657 35.711 157.496 35.6779 156.369 36.308ZM167.081 48.3468C167.081 48.9106 166.915 49.1096 166.351 49.1096C165.224 49.0764 164.129 49.0764 163.001 49.1096C162.504 49.1096 162.305 49.0101 162.305 48.4463V32.1293C162.305 31.5986 162.471 31.4328 162.968 31.4328C164.096 31.466 165.19 31.466 166.318 31.4328C166.981 31.3996 167.081 31.665 167.081 32.2619V48.3468ZM167.379 26.8561C167.114 28.647 166.119 29.4429 164.361 29.3103C162.935 29.1776 162.007 28.1827 162.073 26.7566C162.106 25.4632 163.035 24.5677 164.428 24.4351C166.086 24.3024 167.081 25.0984 167.379 26.8561Z" fill="#030303"/>
<path d="M7.42608 45.9258L7.09443 45.0635L6.39798 42.4766C6.23215 41.7802 6.16582 41.0506 6.06633 40.3209C6 39.724 6 39.0938 6 38.4969C6 37.0708 6.23215 35.7111 6.76279 34.3845C7.32659 32.9584 8.02304 31.6318 9.05115 30.471C9.88026 29.5093 10.842 28.7465 11.9033 28.0832C13.4518 27.1259 15.1261 26.3892 16.878 25.8943C17.8398 25.5958 18.8347 25.3637 19.8297 25.1647C20.7251 24.9657 21.6206 24.833 22.5492 24.7335C23.6104 24.6009 24.6717 24.5014 25.7661 24.4351C27.1922 24.3687 28.6183 24.3687 30.0444 24.3687C30.2765 24.3687 30.5087 24.4019 30.7408 24.4019C30.8403 24.4019 30.9067 24.4351 30.8735 24.5677L30.8072 27.2541C30.774 27.8179 30.774 28.4148 30.7408 28.9786L30.5418 31.3996L30.3429 33.1905L30.0112 35.3131C29.9117 35.9432 29.7791 36.5733 29.6464 37.1703C29.3479 38.5964 28.9168 39.9893 28.3861 41.349C27.955 42.4435 27.4244 43.5047 26.6947 44.4665C26.3631 44.8977 25.9651 45.3288 25.5671 45.7268C25.2687 46.0584 24.937 46.3569 24.6054 46.6554C23.9089 47.2524 23.113 47.7167 22.2838 48.1146C21.5211 48.4794 20.7583 48.7448 19.9623 48.9106C19.315 49.04 18.6621 49.1396 18.0056 49.2091C17.1102 49.3086 16.2147 49.3086 15.2861 49.2422C14.2912 49.1759 13.2962 49.0432 12.3345 48.8111C12.036 48.7448 11.7375 48.6784 11.4058 48.5789C11.3395 48.5789 11.2732 48.5458 11.2069 48.5126C12.4008 45.9589 13.86 43.5711 15.5514 41.3159C17.2428 39.0607 18.9674 36.905 20.9904 34.9483L20.294 35.3462L16.7785 37.6346C15.6841 38.3974 14.6228 39.1933 13.5615 40.0225C12.2018 41.0837 10.9084 42.2113 9.68128 43.4384C8.91849 44.2012 8.22203 45.0303 7.49241 45.8263C7.45924 45.8263 7.45925 45.8594 7.42608 45.9258Z" fill="#62C477"/>
</svg>
