<?xml version="1.0" encoding="utf-8"?>
<svg width="210" height="80" viewBox="0 0 210 80" fill="none" xmlns="http://www.w3.org/2000/svg">
<path d="M109.572 28.0601C109.572 28.8884 109.241 29.6827 108.652 30.2684C108.062 30.8541 107.263 31.1832 106.429 31.1832C105.596 31.1832 104.796 30.8541 104.207 30.2684C103.618 29.6827 103.286 28.8884 103.286 28.0601C103.281 27.6485 103.359 27.2401 103.515 26.8588C103.671 26.4776 103.903 26.1312 104.195 25.8402C104.488 25.5491 104.837 25.3193 105.22 25.1642C105.604 25.009 106.015 24.9318 106.429 24.9369C108.218 24.985 109.572 26.3784 109.572 28.0601ZM97.291 33.6817C96.9042 33.6817 96.6141 34.018 96.6141 34.3544V35.1231C96.6141 35.1231 95.1152 33.2012 91.924 33.2012C86.6538 33.2012 82.5439 37.1892 82.5439 42.7147C82.5439 48.2402 86.6054 52.2282 91.924 52.2282C95.1635 52.2282 96.6141 50.2583 96.6141 50.2583V51.0751C96.6141 51.4595 96.9042 51.7477 97.291 51.7477H101.207V33.6817H97.291ZM96.6141 45.9339C95.8888 46.991 94.4383 47.9039 92.6976 47.9039C89.6032 47.9039 87.234 45.982 87.234 42.7147C87.234 39.4474 89.6032 37.5255 92.6976 37.5255C94.3899 37.5255 95.9371 38.4865 96.6141 39.4955V45.9339ZM104.108 33.6817H108.75V51.7477H104.108V33.6817ZM173.444 33.2012C170.253 33.2012 168.754 35.1231 168.754 35.1231V24.985H164.112V51.7477H168.028C168.415 51.7477 168.705 51.4114 168.705 51.0751V50.2583C168.705 50.2583 169.092 50.7387 169.866 51.2673C170.639 51.7477 171.8 52.2763 173.395 52.2763C178.666 52.2763 182.776 48.2402 182.776 42.7628C182.776 37.2853 178.666 33.2012 173.444 33.2012ZM172.67 47.8559C170.881 47.8559 169.479 46.9429 168.754 45.8859V39.4474C169.479 38.4865 171.026 37.4775 172.67 37.4775C175.765 37.4775 178.134 39.3994 178.134 42.6667C178.134 45.9339 175.765 47.8559 172.67 47.8559ZM161.694 41.033V51.7958H157.053V41.5616C157.053 38.5826 156.086 37.3814 153.475 37.3814C152.073 37.3814 150.622 38.1021 149.703 39.1592V51.7477H145.062V33.6817H148.736C149.123 33.6817 149.413 34.018 149.413 34.3544V35.1231C150.767 33.7297 152.556 33.2012 154.345 33.2012C156.376 33.2012 158.068 33.7778 159.422 34.9309C161.066 36.2763 161.694 38.006 161.694 41.033ZM133.796 33.2012C130.605 33.2012 129.106 35.1231 129.106 35.1231V24.985H124.464V51.7477H128.381C128.767 51.7477 129.058 51.4114 129.058 51.0751V50.2583C129.058 50.2583 129.444 50.7387 130.218 51.2673C130.992 51.7477 132.152 52.2763 133.748 52.2763C139.018 52.2763 143.128 48.2402 143.128 42.7628C143.176 37.2372 139.066 33.2012 133.796 33.2012ZM133.022 47.8559C131.233 47.8559 129.831 46.9429 129.106 45.8859V39.4474C129.831 38.4865 131.378 37.4775 133.022 37.4775C136.117 37.4775 138.486 39.3994 138.486 42.6667C138.486 45.9339 136.117 47.8559 133.022 47.8559ZM120.451 33.2012C121.853 33.2012 122.579 33.4414 122.579 33.4414V37.7177C122.579 37.7177 118.71 36.4204 116.293 39.1592V51.7958H111.651V33.6817H115.568C115.954 33.6817 116.245 34.018 116.245 34.3544V35.1231C117.115 34.1141 119.001 33.2012 120.451 33.2012ZM72.2452 50.1141L71.5199 48.3844L70.4078 45.9339L70.3595 45.8859C67.0233 38.6787 63.4453 31.3754 59.6739 24.1682L59.5289 23.8799C59.1421 23.1592 58.7553 22.3904 58.3684 21.6216C57.8849 20.7568 57.4014 19.8438 56.6278 18.979C55.0806 17.0571 52.8564 16 50.4872 16C48.118 16 45.8939 17.0571 44.2983 18.8829C43.573 19.7477 43.0412 20.6607 42.5577 21.5255L41.3973 23.7838L41.2522 24.0721C37.5292 31.2793 33.9028 38.5826 30.5666 45.7898L30.5183 45.8859L29.4062 48.3363C29.1473 48.9057 28.9055 49.4825 28.6809 50.0661C28.0524 51.8438 27.859 53.5255 28.1007 55.2553C28.6326 58.8589 31.0501 61.8859 34.3864 63.2312C35.6435 63.7598 36.949 64 38.3028 64C38.6896 64 39.1731 63.952 39.5599 63.9039C41.1555 63.7117 42.7994 63.1832 44.395 62.2703C46.3774 61.1652 48.2631 59.5796 50.3905 57.2733C52.518 59.5796 54.452 61.1652 56.3861 62.2703C57.9816 63.1832 59.6256 63.7117 61.2211 63.9039C61.608 63.952 62.0915 64 62.4783 64C63.8321 64 65.1859 63.7598 66.3947 63.2312C69.7793 61.8859 72.1485 58.8108 72.6803 55.2553C73.0671 53.5736 72.8737 51.8919 72.2452 50.1141ZM50.4389 52.6126C47.8279 49.3453 46.1356 46.2703 45.5554 43.6757C45.3137 42.5706 45.2653 41.6096 45.4104 40.7447C45.5071 39.976 45.7972 39.3033 46.184 38.7267C47.1027 37.4294 48.6499 36.6126 50.4389 36.6126C52.2279 36.6126 53.8235 37.3814 54.6938 38.7267C55.0806 39.3033 55.3707 39.976 55.4674 40.7447C55.6124 41.6096 55.5641 42.6186 55.3223 43.6757C54.7421 46.2222 53.0498 49.2973 50.4389 52.6126ZM69.7309 54.8709C69.3925 57.3694 67.7002 59.5315 65.331 60.4925C64.1706 60.973 62.9134 61.1171 61.6563 60.973C60.4475 60.8288 59.2388 60.4444 57.9816 59.7237C56.241 58.7628 54.5004 57.2733 52.4696 55.0631C55.6608 51.1712 57.5948 47.6156 58.3201 44.4444C58.6586 42.955 58.7069 41.6096 58.5618 40.3604C58.3684 39.1592 57.9333 38.0541 57.2564 37.0931C55.7575 34.9309 53.2432 33.6817 50.4389 33.6817C47.6345 33.6817 45.1203 34.979 43.6214 37.0931C42.9445 38.0541 42.5093 39.1592 42.3159 40.3604C42.1225 41.6096 42.1709 43.003 42.5577 44.4444C43.2829 47.6156 45.2653 51.2192 48.4081 55.1111C46.4258 57.3213 44.6368 58.8108 42.8961 59.7718C41.639 60.4925 40.4302 60.8769 39.2215 61.021C37.916 61.1652 36.6589 60.973 35.5468 60.5405C33.1776 59.5796 31.4853 57.4174 31.1468 54.9189C31.0018 53.7177 31.0985 52.5165 31.582 51.1712C31.7271 50.6907 31.9688 50.2102 32.2106 49.6336C32.549 48.8649 32.9358 48.048 33.3226 47.2312L33.371 47.1351C36.7072 39.976 40.2852 32.6727 44.0082 25.5616L44.1533 25.2733L45.3137 23.0631C45.7005 22.2943 46.1356 21.5736 46.6675 20.9489C47.6829 19.7958 49.0367 19.1712 50.5356 19.1712C52.0345 19.1712 53.3883 19.7958 54.4037 20.9489C54.9355 21.5736 55.3707 22.2943 55.7575 23.0631L56.9179 25.2733L57.063 25.5616C60.7376 32.7207 64.3156 40.024 67.6518 47.1832V47.2312C68.0386 48 68.3771 48.8649 68.7639 49.6336C69.0057 50.2102 69.2474 50.6907 69.3925 51.1712C69.7793 52.4204 69.9243 53.6216 69.7309 54.8709Z" fill="#F15C61"/>
</svg>
