<?xml version="1.0" encoding="utf-8"?>
<svg width="210" height="80" viewBox="0 0 210 80" fill="none" xmlns="http://www.w3.org/2000/svg">
<path d="M46.5152 24.8163C42.9167 24.8163 38.7584 25.616 35 26.9754V63.6002C36.2795 63.8401 37.5589 64 38.8384 64C40.0379 64 41.3174 63.8401 42.5169 63.6002V53.2045C43.3165 53.2845 44.3561 53.4444 45.5556 53.4444C54.9917 53.4444 60.3494 47.8467 60.3494 38.7305C60.3494 29.6943 54.9117 24.8163 46.5152 24.8163ZM45.3957 47.127C44.4225 47.1231 43.4543 46.9886 42.5169 46.7272V31.7734C43.4765 31.4536 44.516 31.2137 45.5556 31.2137C49.394 31.2137 52.8326 33.6926 52.8326 39.0504C52.8326 43.9284 50.1937 47.127 45.3957 47.127ZM174.782 37.2112C174.782 30.0142 169.984 24.8963 162.947 24.8963C155.11 24.8963 149.912 30.414 149.912 39.3703C149.912 48.3265 155.43 53.5244 163.826 53.5244C167.185 53.5244 170.383 53.0446 173.262 51.8451C173.262 49.686 172.782 48.2466 171.743 46.3274C169.984 46.9671 167.505 47.6068 165.346 47.6068C160.148 47.6068 157.909 45.6077 157.349 41.6093H174.382C174.702 40.01 174.782 38.5706 174.782 37.2112ZM157.509 36.4115C158.149 32.4931 160.068 30.7339 162.787 30.7339C165.825 30.7339 167.745 32.893 167.745 36.4115H157.509ZM64.1878 22.9771C66.5068 23.3769 69.2257 23.5369 71.9446 22.9771V16.4198C69.5456 15.94 66.9067 15.8601 64.1878 16.4198V22.9771ZM64.1878 25.4561V52.8047C66.5868 53.3644 69.3856 53.3644 71.8646 52.8047V25.4561C69.3856 26.0158 66.5068 26.0158 64.1878 25.4561ZM114.247 24.7364C111.048 24.7364 107.93 25.2162 105.531 26.5756V26.8155C105.531 28.8946 106.09 30.5739 107.05 32.0133C109.049 31.0537 110.968 30.6539 113.287 30.6539C117.286 30.6539 119.045 31.8534 119.045 35.6118C118.245 35.5319 117.206 35.4519 116.006 35.4519C107.93 35.4519 103.851 39.2103 103.851 44.4881C103.851 50.0858 107.93 53.4444 115.606 53.4444C119.445 53.4444 123.923 52.6447 126.322 51.8451V35.6918C126.322 28.6547 122.723 24.7364 114.247 24.7364ZM119.045 47.3669C118.085 47.6868 116.886 47.8467 115.846 47.8467C112.408 47.8467 110.728 46.4073 110.728 44.2482C110.728 41.8492 112.568 40.3299 116.486 40.3299C117.366 40.3299 118.245 40.4098 119.045 40.7297V47.3669ZM148.713 52.2449C148.952 50.1658 148.633 48.4065 147.833 46.8871C146.873 47.207 145.674 47.3669 144.554 47.3669C142.075 47.3669 140.956 46.1674 140.956 42.409V31.2936H147.673C148.153 29.2945 148.153 27.2153 147.673 25.3761H140.956V16.4198C138.397 15.8601 135.758 15.8601 133.359 16.4198V25.3761H128.961C128.481 27.2153 128.481 29.2945 128.961 31.2936H133.359V42.329C133.359 49.3661 136.398 53.2845 143.515 53.2845C145.914 53.2845 147.593 52.8846 148.713 52.2449Z" fill="#4E4E4E"/>
<path d="M90.9769 32.3337L89.4575 38.0913H91.0568C96.4946 38.0913 98.2538 35.2125 100.173 30.6544L102.412 25.2967C94.8153 24.7369 92.5762 26.2563 90.9769 32.3337Z" fill="#3EC4FC"/>
<path d="M75.1427 25.3765L77.3818 30.7343C79.301 35.2924 81.0602 38.1712 86.498 38.1712H88.0973L86.5779 32.4136C84.9786 26.2562 82.7395 24.7368 75.1427 25.3765Z" fill="#FFBD00"/>
<path d="M86.5779 45.8485L88.0973 40.0909H86.498C81.0602 40.0909 79.301 42.9697 77.3818 47.5278L75.1427 52.8855C82.7395 53.4453 84.9786 51.9259 86.5779 45.8485Z" fill="#F18B37"/>
<path d="M102.412 52.8038L100.173 47.446C98.2538 42.8879 96.4946 40.0091 91.0568 40.0091H89.4575L90.9769 45.7667C92.5762 51.9241 94.8153 53.4435 102.412 52.8038Z" fill="#0090DB"/>
</svg>
