<?xml version="1.0" encoding="utf-8"?><svg width="210" height="80" viewBox="0 0 210 80" fill="none" xmlns="http://www.w3.org/2000/svg">
<path d="M86.4277 31.867C82.7733 31.867 80.2856 33.1446 78.9925 35.6856C78.6131 36.4177 78.8239 36.9775 79.611 37.3364L81.0446 37.9681C81.3257 38.0973 81.6208 38.1403 81.93 38.0973C82.2111 37.9394 82.436 37.6953 82.5906 37.4082C83.0123 36.8053 83.5885 36.3315 84.2491 36.0157C84.9097 35.7119 85.6361 35.5882 86.3574 35.6568C86.8634 35.5994 87.3553 35.6568 87.8332 35.8148C88.311 35.9727 88.7467 36.2311 89.1262 36.5756C89.7306 37.3364 90.0257 38.3126 89.9555 39.2888V40.308L86.4979 40.1214C84.3335 39.9491 82.1549 40.4085 80.2434 41.4421C79.5732 41.9852 79.0465 42.6908 78.7114 43.4949C78.388 44.2986 78.2625 45.171 78.346 46.0358C78.2898 46.8684 78.4022 47.701 78.6974 48.4906C79.0066 49.2658 79.4704 49.9692 80.0748 50.529C81.2273 51.4908 83.3215 51.9789 86.3574 51.9789C88.5529 52.0852 90.748 51.7587 92.8227 51.0171C93.2267 50.8793 93.583 50.6251 93.8487 50.285C94.0595 49.8687 94.1579 49.395 94.1158 48.9356V39.4323C94.1158 34.3936 91.5577 31.867 86.4277 31.867ZM89.9555 47.6436C89.9525 47.7629 89.9132 47.8783 89.843 47.9738C89.7707 48.0644 89.6724 48.1297 89.5619 48.1604C88.3748 48.3777 87.1696 48.4739 85.9638 48.4475C85.0362 48.548 84.0945 48.3327 83.2934 47.8446C83.0485 47.6069 82.8567 47.318 82.7312 46.9976C82.6187 46.6818 82.5625 46.3373 82.5906 45.9927C82.5625 45.6482 82.6187 45.318 82.7593 45.0022C82.884 44.6862 83.0875 44.4091 83.3496 44.1983C84.1648 43.7273 85.1015 43.522 86.0341 43.6097L89.9555 43.7964V47.6436ZM97.236 37.7671C97.2079 36.9488 97.3625 36.1306 97.6857 35.3841C98.0094 34.637 98.5004 33.978 99.1193 33.4605C100.722 32.2833 102.675 31.7235 104.629 31.867C108.48 31.867 111.052 33.1734 112.317 35.786C112.415 35.9296 112.486 36.0875 112.5 36.2598C112.528 36.432 112.5 36.6043 112.444 36.7622C112.382 36.9251 112.286 37.0721 112.162 37.1929C112.037 37.3068 111.888 37.3902 111.727 37.4369L110.11 38.0973C109.838 38.2427 109.529 38.2979 109.225 38.2552C108.958 38.0973 108.733 37.8676 108.592 37.5805C108.185 36.9201 107.609 36.389 106.92 36.0588C106.231 35.7286 105.472 35.5994 104.713 35.6856C102.464 35.6856 101.34 36.3459 101.34 37.6666C101.312 37.9968 101.382 38.3413 101.551 38.6284C101.72 38.9155 101.973 39.1452 102.282 39.2888C103.336 39.662 104.432 39.8773 105.557 39.9348C107.482 40.0209 109.365 40.5664 111.052 41.5282C111.697 42.024 112.205 42.6817 112.528 43.4375C112.851 44.1983 112.978 45.0166 112.893 45.8348C112.921 46.6858 112.752 47.5316 112.401 48.304C112.052 49.075 111.532 49.753 110.883 50.285C109.213 51.5033 107.183 52.0964 105.135 51.9646C100.918 51.9646 98.2479 50.486 97.1235 47.5288C97.0392 47.3852 96.997 47.2129 96.997 47.055C96.997 46.8828 97.0251 46.7249 97.0954 46.5669C97.1657 46.409 97.2641 46.2798 97.4046 46.1793C97.5311 46.0789 97.6857 46.0071 97.8544 45.9784L99.4707 45.4616C99.6061 45.3896 99.7542 45.3462 99.9063 45.3339C100.058 45.3215 100.211 45.3405 100.356 45.3898C100.644 45.5599 100.856 45.838 100.946 46.165C101.495 47.5144 102.844 48.1748 105.008 48.1748C107.552 48.1748 108.817 47.457 108.817 46.0071C108.845 45.6626 108.775 45.318 108.592 45.0309C108.424 44.7295 108.157 44.4998 107.848 44.3562C106.765 43.9643 105.635 43.7276 104.488 43.6528L102.352 43.337C101.691 43.2078 101.059 43.0212 100.426 42.7628C99.808 42.5331 99.2318 42.2029 98.7399 41.7722C98.2664 41.3253 97.8966 40.776 97.6576 40.1644C97.3502 39.3954 97.2065 38.5685 97.236 37.7384V37.7671ZM115.339 37.7671C115.311 36.9488 115.465 36.1306 115.789 35.3841C116.112 34.637 116.603 33.978 117.222 33.4605C118.824 32.2833 120.778 31.7235 122.732 31.867C126.583 31.867 129.155 33.1734 130.42 35.786C130.518 35.9296 130.589 36.0875 130.603 36.2598C130.631 36.432 130.603 36.6043 130.546 36.7622C130.485 36.9251 130.389 37.0721 130.265 37.1929C130.14 37.3068 129.991 37.3902 129.83 37.4369L128.213 38.0973C127.941 38.2427 127.632 38.2979 127.328 38.2552C127.061 38.0973 126.836 37.8676 126.695 37.5805C126.288 36.9201 125.711 36.389 125.023 36.0588C124.338 35.7172 123.573 35.5827 122.816 35.6712C120.567 35.6712 119.443 36.3315 119.443 37.6522C119.415 37.9824 119.485 38.3269 119.654 38.6141C119.822 38.9012 120.075 39.1308 120.385 39.2744C121.439 39.6476 122.535 39.863 123.659 39.9204C125.585 40.0065 127.468 40.552 129.155 41.5138C129.8 42.0096 130.308 42.6674 130.631 43.4231C130.954 44.184 131.08 45.0022 130.996 45.8205C131.024 46.6715 130.855 47.5172 130.504 48.2896C130.154 49.0606 129.635 49.7386 128.986 50.2706C127.317 51.4929 125.288 52.0911 123.238 51.9646C119.021 51.9646 116.351 50.486 115.226 47.5288C115.142 47.3852 115.1 47.2129 115.1 47.055C115.1 46.8828 115.128 46.7249 115.198 46.5669C115.269 46.409 115.367 46.2798 115.507 46.1793C115.634 46.0789 115.789 46.0071 115.957 45.9784L117.574 45.4616C117.709 45.3896 117.857 45.3462 118.009 45.3339C118.161 45.3215 118.314 45.3405 118.459 45.3898C118.747 45.5599 118.959 45.838 119.049 46.165C119.598 47.5144 120.947 48.1748 123.111 48.1748C125.655 48.1748 126.92 47.457 126.92 46.0071C126.948 45.6626 126.878 45.318 126.695 45.0309C126.527 44.7295 126.26 44.4998 125.95 44.3562C124.868 43.9543 123.744 43.7246 122.591 43.6528L120.455 43.337C119.794 43.2078 119.162 43.0212 118.529 42.7628C117.911 42.5331 117.335 42.2029 116.843 41.7722C116.369 41.3253 116 40.776 115.76 40.1644C115.465 39.3892 115.311 38.571 115.339 37.7527V37.7671ZM148.523 43.2939C149.605 43.2939 150.139 42.7628 150.139 41.7148V39.4754C150.181 38.4561 150.013 37.4513 149.647 36.5182C149.282 35.5707 148.734 34.7237 148.045 34.006C147.202 33.2451 146.218 32.6709 145.15 32.312C144.089 31.9395 142.965 31.7929 141.847 31.8814C139.598 31.7235 137.391 32.4556 135.648 33.9198C134.903 34.6807 134.341 35.5994 133.962 36.6187C133.596 37.6235 133.442 38.7145 133.512 39.7912V44.1265C133.47 45.1745 133.61 46.2224 133.962 47.1986C134.313 48.1891 134.847 49.0935 135.55 49.8543C136.393 50.6152 137.377 51.2037 138.445 51.577C139.513 51.9359 140.652 52.0794 141.776 51.9789C145.529 51.9789 148.129 50.8018 149.535 48.4475C150.069 47.6292 149.928 47.012 149.113 46.6244L147.848 45.921C147.551 45.7034 147.185 45.6062 146.822 45.6482C146.481 45.784 146.197 46.0381 146.021 46.366C145.543 47.0407 144.897 47.5862 144.152 47.9164C143.409 48.2622 142.589 48.4009 141.776 48.3183C140.68 48.3901 139.612 48.0599 138.74 47.3708C138.375 47.0263 138.094 46.61 137.911 46.1363C137.725 45.6628 137.648 45.152 137.686 44.6433V43.2939H148.523ZM137.672 40.0209V39.2026C137.644 38.6858 137.728 38.169 137.911 37.6953C138.106 37.2203 138.393 36.7905 138.755 36.432C139.633 35.7297 140.733 35.3822 141.847 35.4559C142.961 35.3753 144.064 35.7235 144.939 36.432C145.29 36.7909 145.571 37.2216 145.754 37.6953C145.937 38.1834 146.007 38.6858 145.979 39.2026V40.0209H137.672ZM161.453 31.867H162.606C162.915 31.8383 163.224 31.9244 163.463 32.1111C163.562 32.2403 163.632 32.3838 163.674 32.5417C163.716 32.6996 163.73 32.8575 163.716 33.0154V34.6233C163.744 34.9391 163.66 35.2549 163.463 35.4989C163.224 35.6999 162.915 35.786 162.606 35.7573H161.327C160.174 35.7286 159.022 35.8865 157.911 36.2023C157.813 36.2023 157.715 36.2598 157.644 36.3459C157.574 36.432 157.546 36.5325 157.546 36.6474V50.2994C157.574 50.6152 157.49 50.931 157.307 51.175C157.192 51.2743 157.058 51.3477 156.914 51.3904C156.773 51.4334 156.618 51.4478 156.464 51.4334H154.482C154.173 51.4621 153.864 51.376 153.625 51.175C153.428 50.931 153.344 50.6152 153.372 50.2994V35.0539C153.344 34.6089 153.428 34.1495 153.639 33.7476C153.933 33.3748 154.329 33.0999 154.777 32.958C156.928 32.2259 159.191 31.867 161.453 31.867ZM170.926 28.0054C171.236 27.9767 171.545 28.0628 171.784 28.2495C171.881 28.3668 171.953 28.5037 171.995 28.6514C172.037 28.795 172.051 28.9529 172.037 29.1108V32.4125H176.127C176.436 32.3838 176.745 32.4699 176.984 32.6566C177.081 32.7739 177.153 32.9109 177.195 33.0585C177.237 33.2021 177.251 33.36 177.237 33.5179V35.2118C177.265 35.5276 177.181 35.8435 176.984 36.0875C176.745 36.2885 176.436 36.3746 176.127 36.3459H172.037V43.7246C171.882 44.9304 172.191 46.1506 172.88 47.1412C173.827 47.7874 174.965 48.0767 176.099 47.9594C176.408 47.9307 176.731 48.0168 176.998 48.2035C177.097 48.3327 177.167 48.4762 177.209 48.6341C177.251 48.792 177.265 48.9499 177.251 49.1079V50.8018C177.265 50.9597 177.251 51.1176 177.209 51.2755C177.167 51.4334 177.097 51.577 176.998 51.7062C176.731 51.8928 176.422 51.9933 176.099 51.9789C173.077 52.0794 170.955 51.5339 169.718 50.3711C168.481 49.194 167.862 47.0407 167.862 43.8968V36.389H165.389C165.234 36.4033 165.08 36.389 164.939 36.3459C164.794 36.3032 164.66 36.2299 164.545 36.1306C164.363 35.8722 164.278 35.5564 164.321 35.2549V33.561C164.292 33.2595 164.363 32.9437 164.545 32.6996C164.784 32.513 165.094 32.4269 165.389 32.4556H167.862V29.1251C167.848 28.9672 167.862 28.8093 167.905 28.6658C167.946 28.5181 168.018 28.3811 168.115 28.2638C168.362 28.0779 168.667 27.991 168.973 28.0198H170.912L170.926 28.0054ZM179.331 37.7671C179.303 36.9488 179.458 36.1306 179.781 35.3841C180.105 34.637 180.596 33.978 181.215 33.4605C182.817 32.2833 184.771 31.7235 186.724 31.867C190.575 31.867 193.147 33.1734 194.412 35.786C194.511 35.9296 194.581 36.0875 194.595 36.2598C194.623 36.432 194.595 36.6043 194.539 36.7622C194.477 36.9251 194.381 37.0721 194.258 37.1929C194.131 37.3077 193.991 37.3938 193.822 37.4369L192.206 38.0973C191.934 38.2427 191.624 38.2979 191.32 38.2552C191.053 38.0973 190.828 37.8676 190.688 37.5805C190.28 36.9201 189.704 36.389 189.015 36.0588C188.331 35.7172 187.565 35.5827 186.809 35.6712C184.56 35.6712 183.435 36.3315 183.435 37.6522C183.407 37.9824 183.478 38.3269 183.646 38.6141C183.815 38.9012 184.068 39.1308 184.363 39.2744C185.417 39.6476 186.513 39.863 187.638 39.9204C189.563 40.0065 191.447 40.552 193.133 41.5138C193.778 42.0096 194.287 42.6674 194.609 43.4231C194.932 44.184 195.059 45.0022 194.975 45.8205C195.002 46.6715 194.834 47.5172 194.483 48.2896C194.133 49.0606 193.613 49.7386 192.965 50.2706C191.296 51.4929 189.266 52.0911 187.216 51.9646C183 51.9646 180.329 50.486 179.205 47.5288C179.121 47.3852 179.078 47.2129 179.078 47.055C179.078 46.8828 179.106 46.7249 179.177 46.5669C179.247 46.409 179.345 46.2798 179.486 46.1793C179.627 46.0789 179.767 46.0071 179.936 45.9784L181.552 45.4616C181.687 45.3896 181.836 45.3462 181.988 45.3339C182.14 45.3215 182.293 45.3405 182.438 45.3898C182.722 45.5644 182.932 45.8407 183.028 46.165C183.576 47.5144 184.925 48.1748 187.09 48.1748C189.634 48.1748 190.899 47.457 190.899 46.0071C190.93 45.6672 190.856 45.3259 190.688 45.0309C190.519 44.7295 190.252 44.4998 189.943 44.3562C188.861 43.9543 187.736 43.7246 186.584 43.6528L184.447 43.337C183.787 43.2078 183.154 43.0212 182.522 42.7628C181.903 42.5331 181.327 42.2029 180.835 41.7722C180.362 41.3253 179.992 40.776 179.753 40.1644C179.448 39.3994 179.3 38.5786 179.317 37.7527L179.331 37.7671Z" fill="#0B0F1E"/>
<path d="M58.9922 50.9597C63.4617 50.9597 67.0739 47.2704 67.0739 42.7053C67.0739 38.1403 63.4617 34.451 58.9922 34.451C54.5227 34.451 50.9106 38.1403 50.9106 42.7053C50.9106 47.2704 54.5227 50.9597 58.9922 50.9597Z" fill="#FF8585"/>
<path d="M37.4459 49.1366C39.1121 49.1366 40.7101 48.4605 41.8884 47.2571C43.0666 46.0537 43.7285 44.4215 43.7285 42.7197C43.7285 41.0178 43.0666 39.3857 41.8884 38.1823C40.7101 36.9789 39.1121 36.3028 37.4459 36.3028C35.7796 36.3028 34.1816 36.9789 33.0034 38.1823C31.8252 39.3857 31.1633 41.0178 31.1633 42.7197C31.1633 44.4215 31.8252 46.0537 33.0034 47.2571C34.1816 48.4605 35.7796 49.1366 37.4459 49.1366Z" fill="#F5D159"/>
<path d="M19.4836 47.299C21.9572 47.299 23.9671 45.2462 23.9671 42.7197C23.9671 40.1931 21.9572 38.1403 19.4836 38.1403C17.0099 38.1403 15 40.1931 15 42.7197C15 45.2462 17.0099 47.299 19.4836 47.299Z" fill="#90C1FE"/>
</svg>
