<?xml version="1.0" encoding="utf-8"?><svg width="210" height="80" viewBox="0 0 210 80" fill="none" xmlns="http://www.w3.org/2000/svg">
<path d="M54.539 29.6228H52.5785C50.3033 29.6228 48.1214 30.5266 46.5126 32.1353C44.9038 33.7441 44 35.9261 44 38.2012V42.1123C44 44.3875 44.9038 46.5695 46.5126 48.1782C48.1214 49.787 50.3033 50.6908 52.5785 50.6908H54.5589C56.8341 50.6908 59.016 49.787 60.6248 48.1782C62.2336 46.5695 63.1374 44.3875 63.1374 42.1123V38.2212C63.1374 33.4741 59.286 29.6228 54.539 29.6228ZM59.1666 42.391C59.1666 45.1377 56.9374 47.3669 54.1907 47.3669H52.7178C51.3998 47.3643 50.1368 46.8389 49.2057 45.906C48.2747 44.9731 47.7518 43.7089 47.7518 42.391V38.1216C47.7518 35.3749 49.9811 33.1457 52.7278 33.1457H54.1907C56.9374 33.1457 59.1666 35.3749 59.1666 38.1216V42.391ZM99.2726 32.3794C102.368 27.8911 109.324 28.6972 111.125 32.7476C111.255 32.6083 111.354 32.4988 111.454 32.3794C113.643 29.573 117.365 28.5281 120.669 29.8716C123.177 30.8866 124.54 32.887 124.729 35.5043C124.928 38.2212 124.859 40.9579 124.889 43.6947C124.909 45.277 124.899 46.8594 124.889 48.4417C124.879 49.6757 124.162 50.3525 122.938 50.3226C121.724 50.2927 121.107 49.6757 121.107 48.4317V38.251C121.107 37.6539 121.067 37.0468 120.987 36.4497C120.689 34.1508 119.365 32.887 117.166 32.7775C114.748 32.6581 112.847 33.9518 112.359 36.0915C112.23 36.6786 112.18 37.2857 112.18 37.8828C112.16 41.3659 112.17 44.8391 112.18 48.3223C112.18 49.009 112.13 49.6558 111.434 50.024C110.667 50.4321 109.891 50.4221 109.125 50.0141C108.468 49.6658 108.378 49.0587 108.378 48.3919V37.9525C108.378 37.4051 108.359 36.8577 108.269 36.3203C107.851 33.8423 106.368 32.678 103.811 32.7775C101.561 32.8571 99.7801 34.4494 99.591 36.6687C99.4815 37.9823 99.5214 39.3159 99.5214 40.6295C99.5214 43.1871 99.5114 45.7447 99.5214 48.3123C99.5214 49.1483 99.3522 49.8549 98.4565 50.1733C97.4215 50.5415 96.0482 50.3724 95.5605 49.6956C95.3416 49.3971 95.2222 48.9592 95.2222 48.581C95.2023 42.8289 95.2023 37.0767 95.2222 31.3245C95.2222 30.1303 95.8989 29.6427 97.3319 29.6526C98.6655 29.6526 99.2726 30.1801 99.3124 31.3743C99.3223 31.7126 99.3124 32.051 99.3124 32.3794H99.2726ZM135.039 46.6802C137.995 42.2118 140.961 37.7534 143.996 33.1656C143.608 33.1457 143.349 33.1159 143.081 33.1159H136.443C135.318 33.1159 134.811 32.5984 134.821 31.4738C134.821 30.3791 135.358 29.8417 136.463 29.8317H146.126C147.061 29.8317 148.037 29.8815 148.494 30.8767C148.972 31.9017 148.574 32.7874 147.967 33.6831C145.061 37.9226 142.205 42.2019 139.329 46.4613C139.289 46.521 139.279 46.6106 139.209 46.8195H140.075C142.344 46.7996 144.613 46.7698 146.892 46.7598C148.047 46.7598 148.584 47.3072 148.574 48.4516C148.564 49.5264 148.086 50.024 146.992 50.034C143.688 50.0738 140.384 50.1037 137.07 50.1037C136.522 50.1037 136.184 50.243 135.865 50.7107C134.413 52.92 132.91 55.0895 131.427 57.2789C130.87 58.1049 129.715 58.2443 128.76 57.5775C127.894 56.9804 127.804 56.234 128.511 55.2886C129.616 53.8157 130.691 52.3229 131.845 50.8899C132.323 50.3027 132.382 49.825 132.094 49.1085C129.825 43.5255 127.605 37.9226 125.376 32.3197C124.849 30.9961 125.326 30.0805 126.69 29.7123C127.785 29.4138 128.471 29.7621 128.889 30.8966C130.561 35.4147 132.213 39.9528 133.875 44.4709C134.134 45.1675 134.432 45.8443 134.701 46.5309C134.801 46.5707 134.91 46.6006 135.01 46.6404L135.039 46.6802Z" fill="black"/>
<path d="M152.087 41.2568C151.868 44.8594 153.948 47.1284 157.491 47.2279C159.471 47.2876 161.372 46.9294 163.163 46.0437C164.368 45.4565 165.313 45.9143 165.572 47.1583C165.751 48.034 165.313 48.5714 164.577 48.9496C162.318 50.0941 159.899 50.4822 157.391 50.3926C156.446 50.3628 155.491 50.2732 154.575 50.0543C151.52 49.3079 149.519 47.3971 148.753 44.3319C148.057 41.5255 148.017 38.6693 148.664 35.8729C149.709 31.3448 153.58 28.9265 158.625 29.4141C163.94 29.9316 166.706 34.0119 166.408 39.0575C166.318 40.6299 165.681 41.2071 164.099 41.227C160.417 41.2568 156.735 41.2469 153.062 41.2469H152.087V41.2568ZM162.686 38.331C162.915 36.0918 162.089 34.0815 160.466 33.2854C158.317 32.2205 156.108 32.1907 154.077 33.5541C152.425 34.6587 152.007 36.4003 152.047 38.331H162.686ZM84.713 32.947C83.887 32.947 83.1804 32.9669 82.4639 32.947C81.5185 32.9172 81.1005 32.4494 81.0906 31.4543C81.0707 30.4193 81.5284 29.8719 82.454 29.8421C83.1705 29.8222 83.887 29.8421 84.723 29.8421C84.723 28.5981 84.7329 27.4039 84.723 26.2096C84.713 25.4732 84.8225 24.8164 85.5689 24.478C86.3849 24.1197 87.2408 24.0799 87.9275 24.6472C88.2658 24.9258 88.4748 25.513 88.5047 25.9807C88.5843 27.2347 88.5345 28.4886 88.5345 29.8321H92.7442C93.7891 29.8321 94.3564 30.3994 94.3564 31.4045C94.3564 32.4295 93.8289 32.9371 92.7342 32.947H88.5843C88.5743 33.2555 88.5445 33.5342 88.5445 33.8029V44.0632C88.5843 46.8398 89.7785 47.7056 92.4854 46.9294C93.7294 46.5711 94.3663 46.8896 94.635 48.0141C94.8241 48.8103 94.5156 49.5268 93.7195 49.8353C91.5699 50.6514 89.3904 50.7011 87.2607 49.7457C85.748 49.069 85.1509 47.6857 84.9121 46.1531C84.7827 45.3072 84.7329 44.4414 84.7329 43.5756C84.713 40.0726 84.7329 36.5695 84.7329 32.9371L84.713 32.947ZM99.5811 24.3884C99.601 25.8116 98.5361 26.8764 97.0931 26.8864C95.6501 26.9063 94.5455 25.8613 94.5355 24.4482C94.5156 23.0648 95.6203 22 97.0633 22C98.4665 22 99.5612 23.0449 99.5811 24.3884ZM81.5782 34.8677C80.9015 32.2405 79.2893 30.3396 76.5625 29.7027C73.2485 28.9165 70.2231 29.3942 67.765 32.33C67.7451 31.912 67.7252 31.6632 67.7153 31.4144C67.6655 30.2302 67.0485 29.643 65.8543 29.653C64.6501 29.653 64.0331 30.2401 64.0331 31.4443C64.0231 39.6048 64.0231 47.7753 64.0331 55.9358C64.0331 57.2196 64.68 57.8167 65.9737 57.8067C67.2674 57.7968 67.8446 57.2096 67.8546 55.896C67.8646 53.5673 67.8546 51.2385 67.8646 48.9098C67.8646 48.6311 67.8845 48.3525 67.9044 48.0141C68.0437 48.1037 68.1233 48.1335 68.183 48.1833C72.6414 52.5323 80.0556 50.5319 81.618 44.5111C82.454 41.3165 82.3942 38.0623 81.5782 34.8677ZM75.6768 46.6209C75.6768 46.6209 75.617 46.6607 75.5772 46.6706C75.4976 46.7104 75.418 46.7403 75.3284 46.7801C75.1891 46.8398 75.0398 46.8896 74.8806 46.9294C74.6418 46.9891 74.393 47.0388 74.1243 47.0787C73.9949 47.0886 73.8655 47.1085 73.7262 47.1185C73.7063 47.1284 73.6864 47.1284 73.6665 47.1185C73.5371 47.1284 73.3978 47.1284 73.2585 47.1284H73.0097C71.3079 47.0687 69.7654 46.3621 68.8199 45.2575C68.4517 44.8295 68.1731 44.3518 68.0138 43.8244C68.0138 43.8144 68.0039 43.8045 68.0039 43.7945C67.9641 43.6652 67.9342 43.5358 67.9143 43.4064L67.7252 40.1422C67.8048 38.9978 67.765 37.8334 67.974 36.7188C68.4418 34.2507 70.5715 32.7082 73.3082 32.7082H73.4973C73.6466 32.7082 73.7859 32.7181 73.9252 32.738C74.0446 32.748 74.1641 32.7579 74.2835 32.7779C74.393 32.7878 74.4925 32.8077 74.602 32.8376C74.7313 32.8575 74.8607 32.8873 74.9801 32.9271C75.8061 33.1461 76.4729 33.5441 76.9904 34.1313C77.0003 34.1313 77.0103 34.1512 77.0203 34.1612C77.5776 34.818 77.9557 35.6937 78.1448 36.7984C78.513 39.1072 78.5926 41.4459 77.9458 43.7149C77.5776 44.9987 76.9008 45.9143 75.9554 46.4716C75.8658 46.5313 75.7763 46.5811 75.6768 46.6209Z" fill="black"/>
</svg>
