<?xml version="1.0" encoding="utf-8"?>
<svg width="210" height="80" viewBox="0 0 210 80" fill="none" xmlns="http://www.w3.org/2000/svg">
<path d="M86.5427 34.0905H92.1356V51.608H86.5427V34.0905ZM93.2965 34.0905H98.6784V36.5176H98.7839C100.05 34.6181 101.739 33.5628 104.166 33.5628C107.965 33.5628 110.286 36.3065 110.286 40.2111V51.608H104.693V41.2663C104.693 39.3668 103.744 38.206 101.95 38.206C100.05 38.206 98.8894 39.7889 98.8894 41.8995V51.608H93.2965C93.2965 51.7136 93.2965 34.0905 93.2965 34.0905Z" fill="#E60023"/>
<path d="M89.2864 32.8241C91.1514 32.8241 92.6633 31.3122 92.6633 29.4472C92.6633 27.5822 91.1514 26.0704 89.2864 26.0704C87.4214 26.0704 85.9095 27.5822 85.9095 29.4472C85.9095 31.3122 87.4214 32.8241 89.2864 32.8241Z" fill="#E60023"/>
<path d="M149.648 33.8794H149.121C147.01 33.8794 145.533 34.8291 144.266 36.9397H144.161V34.0905H138.779V51.608H144.372V43.6935C144.372 40 146.377 38.3116 149.648 38.6281V33.8794ZM177.085 40.6332C174.869 40.2111 172.864 40 172.864 38.8392C172.864 37.7839 173.92 37.2563 175.291 37.2563C176.874 37.2563 177.93 37.7839 178.141 39.2613H183.312C182.995 35.7789 180.357 33.6683 175.397 33.6683C171.281 33.6683 167.799 35.5678 167.799 39.2613C167.799 43.3769 171.07 44.2211 174.131 44.7487C176.452 45.1709 178.563 45.3819 178.563 46.8593C178.563 48.0201 177.507 48.6533 175.819 48.6533C174.131 48.6533 172.97 47.9146 172.653 46.5427H167.271C167.693 50.1306 170.859 52.3467 175.819 52.3467C180.462 52.3467 183.839 50.3417 183.839 46.5427C183.734 41.8995 180.146 41.1608 177.085 40.6332Z" fill="#E60023"/>
<path d="M158.618 48.1256C156.296 48.1256 155.03 46.6482 154.714 44.3266H167.271C167.271 40.7387 166.322 37.6784 164.211 35.7789C162.628 34.407 160.729 33.5628 158.196 33.5628C152.814 33.5628 149.121 37.5729 149.121 42.8492C149.121 48.1256 152.708 52.1357 158.513 52.1357C160.729 52.1357 162.523 51.5025 164 50.5528C165.583 49.4975 166.533 48.0201 166.955 46.4372H161.467C161.045 47.4925 160.095 48.1256 158.618 48.1256ZM158.301 37.5729C160.095 37.5729 161.467 38.9447 161.573 40.9497H154.608C155.03 38.9447 156.191 37.5729 158.301 37.5729ZM193.548 47.4925H192.598C191.437 47.4925 190.593 47.1759 190.593 45.804V37.5729H193.442V34.0905H190.593V28.603H185.105V34.196H183.417V37.5729H185.105V47.0703C185.105 50.8693 187.427 51.9246 190.698 51.9246C191.965 51.9246 192.915 51.8191 193.442 51.7136L193.548 47.4925ZM120.312 47.4925H119.573C118.412 47.4925 117.568 47.1759 117.568 45.804V37.5729H120.206V34.0905H117.568V28.603H112.186V34.196H110.392V37.5729H112.186V47.0703C112.186 50.8693 114.508 51.9246 117.779 51.9246C118.834 51.9246 119.784 51.8191 120.312 51.7136V47.4925ZM129.281 48.1256C127.065 48.1256 125.693 46.6482 125.377 44.3266H138.04C138.04 40.7387 137.09 37.6784 134.98 35.7789C133.502 34.407 131.497 33.5628 128.965 33.5628C123.688 33.5628 119.995 37.5729 119.995 42.8492C119.995 48.1256 123.583 52.2412 129.281 52.0301C131.497 52.0301 133.291 51.5025 134.769 50.4472C136.352 49.392 137.301 47.9146 137.724 46.3317H132.236C131.708 47.4925 130.759 48.1256 129.281 48.1256ZM129.176 37.6784C130.97 37.6784 132.236 38.9447 132.447 41.0553H125.588C126.01 39.0502 127.065 37.6784 129.176 37.6784ZM83.2713 29.3417C81.794 27.9699 79.5779 27.1256 76.6231 27.1256H66.9146V51.7136H72.5075V43.4824H77.4673C82.5326 43.4824 85.804 40.2111 85.804 35.4623C85.804 33.0352 84.8542 30.9246 83.2713 29.3417ZM76.8342 38.7337H72.5075V32.2965H76.8342C78.9447 32.2965 80.211 33.4573 80.211 35.4623C80.211 37.4673 79.0502 38.7337 76.8342 38.7337ZM38 19C35.2418 18.9986 32.5105 19.5408 29.962 20.5957C27.4135 21.6506 25.098 23.1974 23.1477 25.1477C21.1974 27.098 19.6506 29.4135 18.5957 31.962C17.5408 34.5105 16.9986 37.2418 17 40C17 48.8643 22.4874 56.5678 30.402 59.6281C30.191 57.9397 30.0854 55.407 30.5075 53.6131C30.9296 51.9246 32.9347 43.1658 32.9347 43.1658C32.9347 43.1658 32.3015 41.8995 32.3015 40C32.3015 37.0452 33.9899 34.9347 36.1005 34.9347C37.8945 34.9347 38.7387 36.3065 38.7387 37.8894C38.7387 39.6834 37.5779 42.4271 36.9447 44.8543C36.4171 46.9648 38 48.6533 40.1105 48.6533C43.804 48.6533 46.7588 44.7487 46.7588 39.0502C46.7588 33.9849 43.1708 30.5025 38 30.5025C31.9849 30.5025 28.5025 34.9347 28.5025 39.5779C28.5025 41.3719 29.2412 43.2714 30.0854 44.3266C30.1752 44.4025 30.2351 44.5079 30.2544 44.6238C30.2738 44.7398 30.2513 44.8589 30.191 44.9598C30.0854 45.593 29.6633 47.0703 29.5578 47.3869C29.4523 47.809 29.2412 47.809 28.8191 47.7035C26.1809 46.4372 24.598 42.6382 24.598 39.5779C24.598 32.9296 29.4523 26.809 38.5276 26.809C45.809 26.809 51.5075 31.9799 51.5075 38.9447C51.5075 45.9095 46.9698 52.0301 40.6382 52.0301C38.5276 52.0301 36.5226 50.9749 35.7839 49.603L34.5176 54.5628C34.0955 56.3568 32.7236 58.6784 31.8794 60.0503C33.8844 60.6834 35.8894 61 38.1055 61C40.8637 61.0014 43.595 60.4592 46.1435 59.4043C48.692 58.3494 51.0075 56.8026 52.9579 54.8523C54.9082 52.902 56.455 50.5865 57.5098 48.038C58.5647 45.4895 59.1069 42.7581 59.1055 40C59.1055 28.392 49.608 19 38 19Z" fill="#E60023"/>
</svg>
