<?xml version="1.0" encoding="utf-8"?>
<svg width="210" height="80" viewBox="0 0 210 80" fill="none" xmlns="http://www.w3.org/2000/svg">
<g clip-path="url(#clip0_19_28)">
<path d="M8.48324 29.7669C10.6419 28.4035 12.9521 27.4945 15.4138 27.1537C16.8151 26.9265 18.2542 27.0401 19.6933 27.0022C21.3976 26.9643 23.0261 27.4188 24.5788 27.949C26.8511 28.7443 28.8583 29.9941 30.6762 31.5847C32.4183 33.0996 33.7438 34.8796 34.8042 36.8868C35.6374 38.5153 36.3191 40.2195 36.5085 42.0752C36.6978 43.7037 36.8115 45.3322 36.7357 46.9607C36.6221 48.8922 36.0919 50.7858 35.3345 52.6037C34.3877 54.8002 33.0621 56.7696 31.3579 58.4359C28.7826 60.9734 25.6771 62.6397 22.1171 63.3593C20.9052 63.6244 19.6933 63.6623 18.4057 63.8138V56.656H11.3994V62.0338H5.8322V56.656H1.24969V51.922H5.90794V56.4287H11.2479V49.3845H18.4814V56.3908C22.7231 56.6181 28.1388 53.4747 29.3507 47.5288C30.6383 41.2042 26.4724 35.5991 20.6401 34.3494C14.0504 32.9481 7.27133 38.0229 7.23346 45.3322H0.0377887C-0.0379552 43.7795 0.189277 42.3025 0.530124 40.8633C1.43905 37.0383 3.48414 33.857 6.43815 31.2817C7.0441 30.7137 7.76367 30.2971 8.48324 29.7669ZM149.859 46.8471C149.67 48.3999 149.026 49.7633 148.193 51.013C147.057 52.7173 145.542 54.0049 143.648 54.8381C142.436 55.3683 141.187 55.6713 139.823 55.7849C137.74 55.9364 135.809 55.5955 133.991 54.6109C130.848 52.9066 128.84 50.3313 128.272 46.7335C127.742 43.628 128.348 40.7497 130.242 38.2502C131.946 36.0157 134.18 34.6145 136.983 34.0843C140.353 33.4404 143.383 34.2358 146.034 36.3566C148.041 37.9851 149.291 40.1438 149.821 42.6812C150.08 44.0567 150.093 45.4671 149.859 46.8471ZM136.68 38.3638H136.604C133.877 39.3106 131.756 42.3404 132.135 45.5595C132.325 47.188 132.93 48.5892 134.029 49.7254C135.619 51.316 137.589 52.1492 139.899 51.8083C141.338 51.619 142.588 51.0888 143.648 50.1041C145.542 48.3241 146.375 46.1654 145.921 43.5901C145.618 41.848 144.709 40.4468 143.307 39.3863C141.376 37.9093 139.141 37.417 136.68 38.3638ZM58.0955 55.0275C54.4977 55.8985 50.8998 55.3683 47.302 55.5577V34.2736C47.4914 34.2736 47.6807 34.2358 47.8701 34.2358H54.7628C56.6185 34.2736 58.4363 34.6902 60.1406 35.4477C62.8674 36.6974 64.5716 38.8183 65.1018 41.6965C65.6699 44.6505 65.5941 47.6046 64.155 50.4071C63.4354 51.8462 62.3372 52.9445 60.9359 53.7019C60.0648 54.1943 59.0802 54.573 58.0955 55.0275ZM60.5193 48.6271C61.504 46.7335 61.504 44.6884 61.1631 42.6812C60.8601 40.977 59.8755 39.6514 58.247 38.9319C57.2623 38.4774 56.2398 38.1366 55.1415 38.0987H51.3543V51.7705C53.5509 51.7705 55.7474 51.9598 57.7925 51.0509C58.9287 50.5586 59.9134 49.9147 60.5193 48.6271ZM76.7664 41.0906C77.7889 40.5225 78.8493 40.2195 80.0234 40.1438C81.4625 40.068 82.7501 40.4846 83.8863 41.3557C83.962 41.3936 83.9999 41.4314 84.1514 41.545C84.1893 41.1663 84.1893 40.8633 84.1893 40.5225H88.0143V41.0906V54.0807C87.9765 56.2015 87.4463 58.133 85.8556 59.6478C84.8331 60.6325 83.5833 61.2006 82.1442 61.4278C80.4778 61.6551 78.8115 61.6551 77.2587 60.9355C76.5391 60.5946 75.8953 60.1402 75.2894 59.6857C74.797 59.307 74.3804 58.8525 74.0017 58.3981C73.8881 58.2844 73.8881 57.9436 74.0017 57.83C74.6455 57.1483 75.3651 56.5423 76.0468 55.8606C76.3498 55.5955 76.4634 55.5198 76.7664 55.8985C77.7132 57.0725 78.8115 57.9815 80.4399 58.0193C82.5986 58.0572 84.3408 56.5423 84.0757 54.27C83.3182 54.4973 82.5608 54.8002 81.7655 54.9896C79.7583 55.4062 77.8647 55.0275 76.1983 53.7777C74.5319 52.5279 73.6987 50.8615 73.4336 48.8165C73.1307 46.6578 73.4715 44.6505 74.797 42.9463C75.2894 42.3025 76.0468 41.7723 76.7664 41.0906ZM82.0684 51.3918C82.5608 50.9752 83.1667 50.6343 83.5076 50.1041C84.5301 48.5135 84.4165 45.7867 82.7501 44.4233C81.3867 43.325 79.1523 43.5523 78.054 44.9535C77.183 46.0518 77.1451 47.3016 77.2587 48.5514C77.3723 49.5739 77.8647 50.4828 78.7736 51.0888C79.7961 51.7705 80.8565 51.7705 82.0684 51.3918ZM178.793 53.9292C177.619 55.0653 176.218 55.5955 174.628 55.7849C172.999 56.0121 171.484 55.747 170.045 55.0653C168 54.0807 166.826 52.4143 166.371 50.2177C165.879 47.9833 166.031 45.8624 167.129 43.8174C168.379 41.4693 170.31 40.2195 173.037 40.1438C174.514 40.1059 175.877 40.4089 177.089 41.2421C178.642 42.2646 179.475 43.8174 179.816 45.5973C180.043 46.7714 180.043 47.9454 180.195 49.233H170.272C170.121 50.1798 170.84 51.4296 171.901 51.922C173.34 52.5658 175.461 52.7551 177.544 50.2177C178.301 50.9752 179.059 51.6947 179.816 52.4143C179.93 52.5279 180.005 52.793 179.967 52.8688C179.558 53.2022 179.167 53.5561 178.793 53.9292ZM172.469 46.0897H175.877C175.461 44.1582 174.476 43.8174 173.378 43.7037C171.976 43.5523 171.105 44.2339 170.386 45.9003C170.537 45.9382 170.689 46.0518 170.802 46.0518C171.371 46.0897 171.863 46.0897 172.469 46.0897ZM116.305 54.7624C116.267 54.27 116.115 54.4973 115.926 54.6487C114.79 55.4819 113.54 55.9743 112.139 55.8985C110.397 55.8228 108.844 55.2547 107.821 53.7019C106.647 51.8841 106.95 48.3999 109.412 47.0743C111.306 46.0518 113.275 45.9003 115.358 46.3169C115.623 46.3548 115.85 46.3927 116.115 46.4684C116.532 44.9914 115.396 43.8174 113.767 43.7416C112.404 43.6659 111.268 44.1961 110.472 45.3701C109.942 46.1275 109.866 45.7867 108.579 44.4991C108.389 44.2718 108.162 44.0825 107.935 43.8931C107.556 43.5901 107.556 43.325 107.821 42.9463C108.882 41.4693 110.359 40.674 112.101 40.3331C113.729 40.0302 115.358 40.1438 116.949 40.7876C118.577 41.4693 119.6 42.6812 119.94 44.4233C120.054 45.0293 120.054 45.6731 120.054 46.3169V55.4819H116.305V54.7624ZM114.146 49.4982C113.502 49.3845 112.82 49.4603 112.177 49.6118C111.495 49.8011 111.116 50.2935 111.116 50.9373C111.116 51.5811 111.457 52.0734 112.177 52.2628C113.54 52.6415 114.79 52.2628 115.926 51.5054C116.077 51.3918 116.153 51.1266 116.191 50.8994C116.229 50.5586 116.191 50.2177 116.191 49.839C115.509 49.6875 114.828 49.5739 114.146 49.4982ZM190.761 54.7624C190.723 54.27 190.572 54.4973 190.382 54.6487C189.246 55.4819 187.996 55.9743 186.595 55.8985C184.853 55.8228 183.3 55.2547 182.278 53.7019C181.104 51.8841 181.407 48.3999 183.868 47.0743C185.762 46.0518 187.731 45.9003 189.814 46.3169C190.079 46.3548 190.307 46.3927 190.572 46.4684C190.988 44.9914 189.852 43.8174 188.224 43.7416C186.86 43.6659 185.724 44.1961 184.929 45.3701C184.398 46.1275 184.323 45.7867 183.035 44.4991C182.846 44.2718 182.618 44.0825 182.391 43.8931C182.013 43.5901 182.013 43.325 182.278 42.9463C183.338 41.4693 184.815 40.674 186.557 40.3331C188.186 40.0302 189.814 40.1438 191.405 40.7876C193.033 41.4693 194.056 42.6812 194.397 44.4233C194.51 45.0293 194.51 45.6731 194.51 46.3169V55.4819H190.761V54.7624ZM188.602 49.4982C187.958 49.3845 187.277 49.4603 186.633 49.6118C185.951 49.8011 185.573 50.2935 185.573 50.9373C185.573 51.5811 185.913 52.0734 186.633 52.2628C187.996 52.6415 189.246 52.2628 190.382 51.5054C190.534 51.3918 190.609 51.1266 190.647 50.8994C190.685 50.5586 190.647 50.2177 190.647 49.839C189.966 49.6875 189.284 49.5739 188.602 49.4982ZM206.516 55.5198C205.985 55.5577 206.137 55.2168 206.137 54.9896V46.8471C206.137 45.711 205.834 44.6505 204.774 44.0446C203.334 43.2114 201.479 43.8174 200.835 45.4837C200.646 45.9382 200.57 46.4684 200.57 46.9986V54.9138V55.5198H196.745V40.5982H200.418C200.418 40.7876 200.418 41.0148 200.456 41.2799C201.744 40.3331 203.183 40.068 204.698 40.1816C206.667 40.371 208.637 41.3936 209.432 43.628C209.811 44.7642 210 45.9003 210 47.0365V55.5198H206.516ZM157.964 52.1492C159.289 52.4143 160.501 52.3764 161.486 51.3918C161.94 50.9752 162.357 50.4828 162.811 49.9905L165.425 52.4143C162.736 56.5045 157.244 56.656 154.252 54.2321C150.465 51.1645 150.503 45.0293 153.987 41.9238C156.866 39.3485 162.433 39.3106 165.046 43.1357L162.774 45.8246C162.092 45.2565 161.6 44.7642 161.069 44.3854C158.759 42.7569 156.184 44.0446 155.54 46.5441C155.086 48.362 155.275 50.142 156.866 51.4675C157.169 51.7705 157.547 51.922 157.964 52.1492ZM98.5428 36.5838L100.323 36.4323H102.254V40.5225H105.738V44.0446H102.254V50.3692C102.292 51.5054 102.936 51.9977 104.11 52.0356L105.701 51.9598V55.5577C103.731 55.4819 101.648 55.9364 99.8683 54.6109C99.1108 54.0428 98.77 53.1717 98.6185 52.3007C98.5049 51.6569 98.5049 51.0509 98.5049 50.4071V44.1203H96.384V40.5982H98.5049C98.5427 39.197 98.5428 37.9093 98.5428 36.5838ZM122.364 38.8561V34.3115H126.189V55.5198H122.364V38.8561ZM90.4381 46.3548V40.5604H94.2632V55.4819H90.4381V46.3548ZM68.5482 55.5198H67.4877V40.5982H71.2749V55.5577H68.5482V55.5198ZM90.1352 35.4477C90.5896 34.3494 91.7258 33.8192 92.7862 34.0464C94.036 34.2736 94.6798 34.9932 94.7556 36.243C94.8313 37.417 94.2632 38.3638 92.862 38.7425C91.8015 39.0076 90.476 38.3638 90.173 37.3034C89.9837 36.7353 90.1352 36.0915 90.1352 35.4477ZM67.4499 34.9932C68.4724 33.7055 70.366 33.5162 71.4643 35.1068C72.2217 36.243 71.8051 38.1744 69.9873 38.6668C69.192 38.894 68.018 38.5532 67.5635 37.9093C66.9575 37.0004 66.9197 35.7885 67.4499 34.9932Z" fill="#0069FF"/>
</g>
<defs>
<clipPath id="clip0_19_28">
<rect width="210" height="80" fill="white"/>
</clipPath>
</defs>
</svg>
