<?xml version="1.0" encoding="utf-8"?><svg width="210" height="80" viewBox="0 0 210 80" fill="none" xmlns="http://www.w3.org/2000/svg">
<path d="M37.4399 17C37.4399 17 36.7048 18.5938 31.3568 28.1564C27.8257 34.4594 28.3169 39.7078 32.3632 45.3478C36.7289 51.455 36.9487 51.7985 36.9487 51.7985H28.6123C16.5216 51.7744 15 62 15 62H30.8656L36.9487 51.7744H58.4715L37.4399 17Z" fill="#279E92"/>
<path d="M66.2789 51.747L68.855 49.1983L75.9171 32.79L74.9382 30.4852H78.9844L87.8841 51.7813H79.6199L82.7834 49.2567L80.8702 44.7055H71.9705L70.15 49.0266L74.076 51.7744H66.2789V51.747ZM72.3861 43.7025H80.4305L76.4564 34.0575L72.3861 43.7025ZM96.4438 52.0905C95.1145 52.1214 93.8093 51.7573 92.6929 51.0359C91.6213 50.3352 90.7557 49.3632 90.1889 48.2159C89.6084 47.0275 89.313 45.7154 89.3336 44.3929C89.3268 43.0431 89.629 41.7069 90.2164 40.491C90.7866 39.275 91.6968 38.2549 92.8406 37.5507C94.0772 36.7676 95.5198 36.3726 96.9831 36.4207C98.0066 36.4207 99.0268 36.589 99.9989 36.9118C101.002 37.2691 101.95 37.7637 102.819 38.382L100.394 41.1298L96.7151 37.1488C95.8324 37.2519 95.0046 37.6194 94.3348 38.2033C93.6512 38.801 93.112 39.5498 92.7651 40.3879C92.401 41.2466 92.2189 42.174 92.2258 43.1083C92.2017 44.1834 92.4731 45.2448 93.0124 46.1756C93.5001 47.024 94.2214 47.7144 95.0939 48.161C95.9698 48.6281 96.9487 48.8617 97.9414 48.848C98.9134 48.848 99.8752 48.6384 100.761 48.2365C101.713 47.79 102.558 47.1477 103.238 46.3474C103.004 47.3194 102.616 48.2469 102.084 49.0953C101.52 49.9849 100.758 50.7337 99.8546 51.2798C98.8001 51.8225 97.6288 52.1008 96.4438 52.0905ZM111.578 52.0905C110.248 52.1248 108.94 51.7573 107.823 51.0359C106.752 50.3387 105.886 49.3632 105.323 48.2159C104.739 47.0275 104.447 45.7154 104.464 44.3929C104.461 43.0431 104.763 41.7069 105.347 40.491C105.917 39.275 106.827 38.2549 107.971 37.5507C109.208 36.7676 110.654 36.3726 112.117 36.4207C113.141 36.4207 114.161 36.589 115.133 36.9118C116.136 37.2691 117.084 37.7637 117.953 38.382L115.524 41.1298L111.846 37.1488C110.966 37.2519 110.135 37.6194 109.469 38.2033C108.785 38.801 108.246 39.5498 107.899 40.3879C107.535 41.2466 107.353 42.174 107.36 43.1083C107.336 44.1834 107.607 45.2448 108.143 46.1756C108.631 47.024 109.355 47.7144 110.228 48.161C111.104 48.6281 112.083 48.8617 113.072 48.848C114.044 48.848 115.006 48.6384 115.892 48.2365C116.843 47.7935 117.688 47.1477 118.368 46.3474C118.135 47.3194 117.747 48.2469 117.218 49.0953C116.651 49.9849 115.888 50.7337 114.985 51.2798C113.931 51.8225 112.763 52.1008 111.578 52.0905ZM127.199 52.0905C125.781 52.1282 124.379 51.7744 123.153 51.06C122.033 50.3902 121.127 49.4216 120.529 48.264C119.904 47.0275 119.588 45.657 119.612 44.2693C119.584 42.8507 119.921 41.4458 120.594 40.1956C121.219 39.0174 122.174 38.0453 123.342 37.3996C124.582 36.7195 125.977 36.3726 127.388 36.3966C128.8 36.3588 130.191 36.7161 131.411 37.4271C132.541 38.09 133.458 39.0586 134.059 40.2196C134.687 41.4561 135.007 42.8301 134.99 44.2178C135.017 45.6364 134.681 47.0412 134.011 48.2915C133.379 49.4662 132.427 50.4349 131.263 51.084C130.016 51.7641 128.618 52.1111 127.199 52.0905ZM127.639 51.2077C128.745 51.2352 129.762 50.5997 130.215 49.5899C130.779 48.5113 131.074 47.0378 131.074 45.1761C131.084 43.8777 130.926 42.5828 130.603 41.3256C130.363 40.2608 129.879 39.2681 129.181 38.43C128.604 37.7225 127.739 37.3172 126.828 37.3275C125.722 37.3 124.706 37.9354 124.252 38.9453C123.689 40.0238 123.418 41.4974 123.418 43.3591C123.404 44.6574 123.562 45.9524 123.885 47.2095C124.118 48.2709 124.596 49.2636 125.283 50.1051C125.863 50.8093 126.729 51.2111 127.639 51.2077ZM136.714 51.747L139.386 49.638V33.185L136.371 31.5157L142.845 29.4788V49.6654L145.518 51.7744H136.714V51.747ZM156.31 48.951C155.674 49.8681 154.867 50.6547 153.929 51.2592C153.109 51.7813 152.154 52.063 151.182 52.0664C150.082 52.0939 149.018 51.6886 148.214 50.9398C147.369 50.1704 146.912 49.0643 146.96 47.924C146.919 46.9382 147.28 45.9798 147.967 45.2723C148.798 44.4926 149.811 43.9292 150.91 43.6304C152.631 43.1255 154.383 42.7477 156.159 42.5038V40.9821C156.159 39.7799 155.887 38.8491 155.348 38.1862C154.86 37.5576 154.132 37.1557 153.339 37.0836L149.636 41.5489L147.06 38.7529C147.819 38.2377 148.557 37.798 149.193 37.4545C149.863 37.1111 150.57 36.85 151.302 36.668C152.078 36.4687 152.878 36.3691 153.682 36.376C155.448 36.376 156.87 36.8157 157.972 37.6744C159.075 38.5331 159.642 39.7353 159.642 41.305V48.5629L162.657 50.2322L156.33 52.2175V48.9544H156.31V48.951ZM153.023 49.6895C154.149 49.6895 155.204 49.1502 156.162 48.0682V43.2594C154.225 43.651 152.851 44.1662 151.992 44.8292C151.178 45.4097 150.701 46.3543 150.718 47.3538C150.718 48.1404 150.938 48.7277 151.381 49.0953C151.838 49.4868 152.422 49.6998 153.023 49.6895ZM174.408 49.0746C173.9 49.9677 173.196 50.7302 172.347 51.3073C171.547 51.8328 170.609 52.1076 169.651 52.0905C168.428 52.1317 167.226 51.7607 166.24 51.0359C165.302 50.3215 164.567 49.3735 164.107 48.2881C163.629 47.1202 163.389 45.8699 163.396 44.6093C163.396 43.2423 163.671 41.8924 164.207 40.6352C164.705 39.4158 165.526 38.3579 166.583 37.5713C167.693 36.7676 169.039 36.352 170.41 36.3932C171.839 36.352 173.22 36.9015 174.226 37.9183V33.185L171.258 31.5157L177.709 29.4788V48.6075L180.749 50.2768L174.408 52.2622V49.0746ZM171.368 49.1983C171.894 49.1949 172.416 49.1021 172.91 48.927C173.415 48.7586 173.869 48.4529 174.212 48.0442V43.3625C174.212 41.3737 173.941 39.8796 173.378 38.8491C172.893 37.8633 171.873 37.2588 170.777 37.3034C170.011 37.2965 169.273 37.5885 168.716 38.114C168.105 38.6945 167.652 39.4193 167.394 40.223C167.095 41.1161 166.944 42.0504 166.951 42.9915C166.951 44.0185 167.116 45.0387 167.442 46.0108C167.738 46.8935 168.253 47.687 168.94 48.3155C169.613 48.8995 170.479 49.212 171.368 49.1983ZM188.584 52.0905C187.248 52.1248 185.932 51.7573 184.805 51.0359C183.734 50.3284 182.868 49.346 182.305 48.1919C181.714 46.9794 181.419 45.6432 181.439 44.2933C181.439 42.9606 181.731 41.6485 182.298 40.4429C183.449 37.932 185.987 36.3485 188.749 36.4207C189.841 36.3966 190.919 36.6474 191.888 37.1557C192.795 37.6675 193.53 38.4369 193.997 39.3643C194.543 40.5081 194.835 41.755 194.856 43.019H183.157V42.0126H191.249C191.38 41.2535 191.345 40.4772 191.15 39.7319C190.995 39.0621 190.655 38.4507 190.171 37.9663C189.71 37.5061 189.078 37.2588 188.429 37.2794C187.66 37.2794 186.911 37.5439 186.32 38.0385C185.657 38.5777 185.152 39.2785 184.847 40.0753C184.101 41.9817 184.129 44.101 184.922 45.9867C185.31 46.8832 185.959 47.6423 186.784 48.1679C187.711 48.7106 188.776 48.9853 189.851 48.9544C191.922 48.9476 193.87 47.9755 195.124 46.3302C194.784 47.8518 194.049 49.2567 192.991 50.4005C191.919 51.5271 190.445 52.0905 188.584 52.0905Z" fill="black"/>
</svg>
