<?xml version="1.0" encoding="utf-8"?><svg width="210" height="80" viewBox="0 0 210 80" fill="none" xmlns="http://www.w3.org/2000/svg">
<path d="M141.074 34.5308H138.232C138.069 34.5308 137.907 34.4958 137.757 34.4282C137.608 34.3606 137.475 34.2619 137.367 34.1387L136.216 32.8369C136.136 32.748 136.04 32.6756 135.932 32.6239C135.825 32.5722 135.709 32.5422 135.589 32.5355C135.47 32.5289 135.351 32.5457 135.239 32.5851C135.126 32.6245 135.023 32.6857 134.934 32.7652L134.862 32.8369L133.874 33.9527C133.715 34.1342 133.519 34.2797 133.299 34.3794C133.079 34.4791 132.84 34.5307 132.599 34.5308H117.047C116.598 35.8154 116.314 37.1518 116.202 38.5078H130.882C131.14 38.5078 131.384 38.4025 131.561 38.2166L132.933 36.7871C133.103 36.61 133.34 36.5115 133.587 36.5115H133.641C133.901 36.5115 134.147 36.6235 134.32 36.8139L135.472 38.1157C135.579 38.2397 135.712 38.339 135.861 38.4067C136.01 38.4744 136.173 38.5089 136.337 38.5078H148.314C148.204 37.1515 147.92 35.8148 147.469 34.5308H141.074ZM125.08 46.872C125.338 46.872 125.582 46.7644 125.759 46.5807L127.124 45.1512C127.21 45.0642 127.311 44.9951 127.424 44.9478C127.536 44.9005 127.657 44.8759 127.779 44.8756H127.837C128.097 44.8756 128.343 44.9876 128.516 45.1781L129.663 46.4799C129.883 46.7286 130.196 46.872 130.528 46.872H146.766C147.384 45.5993 147.83 44.2527 148.095 42.8635H132.507C132.177 42.8635 131.866 42.7224 131.646 42.4759L130.494 41.1741C130.322 40.9792 130.075 40.8672 129.815 40.8672C129.688 40.8669 129.561 40.8941 129.445 40.9471C129.328 41.0001 129.225 41.0775 129.141 41.1741L128.153 42.2899C127.828 42.6552 127.362 42.8635 126.873 42.8635H116.422C116.682 44.2572 117.127 45.6083 117.744 46.8832L125.085 46.872H125.08ZM130.398 50.8557H126.176C125.847 50.8557 125.533 50.7123 125.316 50.4636L124.168 49.1618C123.832 48.7854 123.254 48.7563 122.878 49.0924L122.808 49.1618L121.815 50.2978C121.656 50.4793 121.46 50.6248 121.24 50.7245C121.02 50.8242 120.782 50.8758 120.54 50.8759H120.478C126.544 57.3826 136.738 57.7411 143.245 51.6735C143.521 51.4173 143.787 51.1512 144.043 50.8759L130.398 50.8557ZM50.3732 24.8089L36 54.9403H39.7916L43.0701 46.975H57.7233L60.9995 54.9403H64.7934L50.3732 24.8089ZM44.307 43.9525L50.3396 31.1072L56.4438 43.9525H44.307ZM78.4203 24.8089H70.0304V54.9403H73.5665V42.0771H78.38C84.7688 42.0771 88.4282 38.9246 88.4282 33.4755C88.4282 28.0263 84.9817 24.8089 78.4203 24.8089ZM77.571 38.9246H73.5665V27.9367H77.5822C82.6063 27.9367 84.8652 29.5567 84.8652 33.4755C84.8652 37.3943 82.6377 38.9246 77.571 38.9246ZM101.271 28.0196H90.8775V24.7864H115.198V28.0196H104.803V54.9403H101.271V28.0196ZM153.296 49.4419L156.339 47.3761L156.572 47.8645C158.448 51.2747 160.491 52.6437 163.599 52.6437C167.053 52.6437 169.48 50.2597 169.48 47.3604C169.48 44.6358 168.115 42.803 162.665 40.5468C156.404 37.9499 154.273 35.2679 154.273 31.4343C154.273 27.2601 157.556 24 163.216 24C167.391 24 170.244 25.7835 171.864 28.6828L169.394 30.3879L168.673 30.2132C167.393 28.2168 165.816 27.0629 163.133 27.0629C159.857 27.0629 157.939 28.8957 157.939 31.3648C157.939 33.6637 159.171 34.9856 164.498 37.4144C171.44 40.5647 173.146 43.1615 173.146 47.3335C173.146 51.8909 169.226 55.7671 163.644 55.7671C158.961 55.7671 155.725 53.9769 153.298 49.4643V49.4442L153.296 49.4419Z" fill="black"/>
</svg>
