<?xml version="1.0" encoding="utf-8"?>
<svg width="210" height="80" viewBox="0 0 210 80" fill="none" xmlns="http://www.w3.org/2000/svg">
<path d="M107.331 37.3664C107.766 36.3516 108.549 35.6558 109.506 35.1339C110.521 34.583 111.594 34.293 112.753 34.206C114.261 34.0901 115.74 34.293 117.132 34.9019C118.813 35.6268 120.002 36.8735 120.843 38.4682C121.655 40.0339 122.09 41.7156 122.206 43.4552C122.292 44.499 122.321 45.5718 122.264 46.6446C122.177 48.4422 121.916 50.2109 121.191 51.8926C120.466 53.6032 119.393 54.966 117.769 55.8648C116.61 56.5027 115.363 56.7926 114.058 56.8506C113.014 56.9086 111.971 56.8506 110.956 56.5896C109.332 56.1547 108.056 55.2269 107.128 53.8062C107.07 53.7192 106.984 53.6322 106.839 53.5452V56.3577C106.462 56.4737 101.243 56.5027 100.663 56.4157C100.547 56.0967 100.518 24.6669 100.634 23.6811C101.707 23.5071 102.808 23.4781 103.881 23.3622C104.954 23.2462 106.056 23.1592 107.186 23.1012V37.3374C107.186 37.4244 107.215 37.4244 107.215 37.4534C107.259 37.4317 107.298 37.4022 107.331 37.3664ZM107.418 42.4984C107.36 43.0493 107.244 43.6002 107.215 44.1511C107.186 45.2239 107.215 46.2677 107.215 47.3405C107.215 48.0363 107.331 48.6742 107.592 49.3121C108.027 50.3849 108.781 51.1097 109.883 51.4866C110.753 51.7766 111.623 51.8346 112.521 51.6316C113.449 51.4287 114.232 50.9358 114.754 50.1239C115.073 49.631 115.305 49.0801 115.421 48.5002C115.798 46.8476 115.769 45.1659 115.566 43.5132C115.508 43.0203 115.392 42.5564 115.247 42.0635C115.015 41.3386 114.667 40.6718 114.058 40.1789C113.043 39.309 111.826 39.251 110.579 39.425C109.999 39.512 109.477 39.715 109.013 40.0629C108.201 40.6718 107.708 41.5126 107.418 42.4984ZM179.295 44.789L185.384 35.0469C185.587 34.7279 185.79 34.612 186.138 34.612C188.11 34.641 190.081 34.612 192.053 34.612H192.575C192.517 34.7859 192.459 34.8729 192.401 34.9889L186.283 44.731C186.196 44.8469 186.138 44.9919 186.051 45.0789C185.79 45.3688 185.848 45.6298 186.051 45.9197L192.604 56.0967L192.807 56.5027C192.604 56.5317 192.488 56.5317 192.343 56.5317H186.254C185.935 56.5317 185.79 56.4157 185.616 56.1837L182.717 51.6316L179.208 46.0937C179.15 46.0647 179.121 46.0937 179.121 46.1227V56.4157C178.744 56.5317 173.062 56.5606 172.54 56.4447C172.453 56.1257 172.395 24.435 172.511 23.7681C172.859 23.6231 178.512 23.1012 179.092 23.1882C179.092 23.3912 179.121 23.5941 179.121 23.7971V44.731C179.237 44.9339 179.266 44.8759 179.295 44.789ZM50.0387 53.5452C49.6328 54.2701 49.1109 54.937 48.473 55.4589C47.4292 56.3287 46.1825 56.7636 44.8197 56.8796C43.573 56.9666 42.3262 56.9086 41.1085 56.5606C38.7599 55.8938 37.1362 54.3571 36.1504 52.1535C35.5995 50.9647 35.3096 49.689 35.1356 48.3843C34.9327 46.9925 34.9037 45.6008 34.9617 44.2091C35.0486 42.3244 35.3966 40.4398 36.2374 38.7292C37.4552 36.2646 39.4268 34.7569 42.1523 34.322C43.254 34.1481 44.3558 34.0901 45.4576 34.293C47.3712 34.641 48.8499 35.6847 49.8647 37.3374C49.8937 37.3954 49.9227 37.4534 49.9807 37.5404C50.0387 37.6274 50.0967 37.6564 50.1547 37.6854V37.5404L50.1837 34.612H56.4174V56.3867C56.0405 56.4737 50.7346 56.5027 50.1837 56.3867V53.5452C50.0967 53.4003 50.0677 53.4583 50.0387 53.5452ZM47.8931 51.1967C48.1831 50.9358 48.531 50.7038 48.7919 50.4139C49.5168 49.573 49.8357 48.5582 49.8647 47.4274V44.0061C49.8357 43.4552 49.7778 42.8753 49.6328 42.3244C49.3138 41.1357 48.647 40.1789 47.4582 39.686C46.8203 39.425 46.1825 39.396 45.5156 39.396C43.9789 39.425 42.8771 40.1209 42.2392 41.5126C41.8043 42.4114 41.6593 43.3972 41.6014 44.383C41.4854 45.7458 41.5144 47.1085 41.8043 48.4712C42.0073 49.3991 42.3842 50.2109 43.0801 50.8778C44.2108 51.8926 46.4434 52.0665 47.8931 51.1967ZM156.419 56.7056C155.23 56.4737 154.128 56.0967 153.084 55.5168C151.345 54.531 150.127 53.0813 149.373 51.2257C148.793 49.776 148.474 48.2973 148.416 46.7316C148.387 46.1227 148.329 45.5428 148.358 44.9339C148.416 43.2523 148.648 41.5996 149.286 40.0049C150.417 37.1635 152.534 35.3948 155.462 34.612C156.883 34.235 158.332 34.0901 159.811 34.1481C161.667 34.235 163.435 34.554 165.088 35.4528C166.596 36.2646 167.756 37.4244 168.596 38.9031C169.466 40.4978 169.901 42.2085 169.988 44.0351C170.017 44.76 170.075 45.4848 170.046 46.2097C169.988 47.8044 169.756 49.3991 169.176 50.9068C167.988 53.9802 165.755 55.8068 162.595 56.5896C161.522 56.8506 160.449 56.9666 159.347 56.9376C158.39 56.9376 157.405 56.7926 156.419 56.7056ZM163.522 46.1227V44.3251C163.522 43.6292 163.435 42.9333 163.203 42.2955C162.769 40.9327 161.899 39.9759 160.478 39.599C159.637 39.367 158.767 39.367 157.926 39.599C156.97 39.8599 156.216 40.4398 155.694 41.2806C155.201 42.0925 154.969 42.9913 154.969 43.9771V46.9635C154.969 47.3984 154.998 47.8624 155.085 48.2973C155.462 50.3559 156.854 51.7476 158.941 51.8346C161.029 51.9216 162.682 50.7328 163.232 48.7032C163.493 47.8624 163.551 47.0505 163.522 46.1227ZM142.357 54.937C140.936 55.9808 139.341 56.5317 137.659 56.7636C136.993 56.8506 136.326 56.9376 135.63 56.9376C133.629 56.9376 131.629 56.6766 129.802 55.8068C127.888 54.879 126.497 53.4293 125.627 51.4866C125.018 50.1239 124.699 48.7032 124.612 47.2535C124.554 46.2967 124.496 45.3109 124.554 44.354C124.641 42.4114 125.047 40.5268 126.033 38.7871C127.106 36.9025 128.7 35.6268 130.73 34.9019C131.861 34.496 133.049 34.293 134.238 34.206C135.862 34.0901 137.428 34.206 138.993 34.612C140.559 35.0179 141.951 35.7427 143.139 36.8445C144.328 37.9753 145.082 39.367 145.575 40.9327C145.952 42.2085 146.126 43.5132 146.184 44.8469C146.242 46.5286 146.126 48.1523 145.691 49.776C145.14 51.8636 144.096 53.6322 142.357 54.937ZM138.848 49.921C139.399 49.0221 139.602 48.0073 139.631 46.9635C139.66 46.1517 139.66 45.3688 139.631 44.557C139.602 43.9481 139.573 43.3102 139.457 42.7304C139.022 40.7877 137.746 39.512 135.659 39.396C133.803 39.28 132.267 40.1499 131.571 41.7446C131.252 42.4984 131.107 43.2813 131.078 44.0641C131.049 45.0499 131.049 46.0357 131.078 47.0215C131.107 48.0653 131.31 49.1091 131.89 50.0079C132.209 50.5298 132.643 50.9358 133.165 51.2547C134.673 52.1535 137.515 52.0665 138.848 49.921ZM88.8331 56.9956C87.2384 56.9956 85.7017 56.9086 84.223 56.5027C82.8313 56.1257 81.5555 55.5458 80.4827 54.589C79.294 53.5452 78.5111 52.2405 78.0472 50.7328C77.6413 49.457 77.4383 48.1233 77.4093 46.7896C77.3803 45.7458 77.3513 44.731 77.4093 43.6872C77.4963 41.9475 77.8732 40.2369 78.7431 38.7002C79.8448 36.7285 81.5555 35.4528 83.6721 34.7859C84.9188 34.38 86.2236 34.206 87.5283 34.206C88.8621 34.177 90.1958 34.264 91.5005 34.612C92.8923 34.9889 94.139 35.5978 95.1538 36.5836C96.1396 37.5404 96.8355 38.7002 97.2414 40.0339C97.6183 41.2806 97.8213 42.5854 97.7923 43.8901V47.8334C97.5604 47.8624 97.3574 47.8624 97.1834 47.8624H83.991C83.962 47.9783 83.933 48.0653 83.933 48.1233C84.107 49.0511 84.31 50.0079 84.9188 50.7908C85.4118 51.4287 86.1076 51.7766 86.8905 51.9795C87.8183 52.2115 88.7461 52.2115 89.6739 52.2115C91.8195 52.1825 93.8491 51.6896 95.8497 50.9647C95.9077 50.9358 95.9657 50.9358 96.0816 50.9068L96.2556 51.4866L97.2124 54.966C97.3284 55.3719 97.2994 55.4009 96.9225 55.6038C95.6467 56.1837 94.284 56.5317 92.8923 56.7346C91.5585 56.9086 90.2248 57.0246 88.8331 56.9956ZM90.9207 39.7729C90.5437 39.338 90.0798 39.0481 89.5289 38.9031C88.6881 38.6422 87.8183 38.6132 86.9484 38.8451C85.8467 39.1061 85.0638 39.744 84.5419 40.7588C84.165 41.5416 84.049 42.3534 83.962 43.1943C83.962 43.3102 83.991 43.4262 84.02 43.5422H91.9935C92.0224 42.1795 91.8485 40.9037 90.9207 39.7729ZM22.4941 29.538C22.6101 28.5811 22.7841 27.6823 23.161 26.8125C24.0018 24.9569 25.5095 23.9131 27.3942 23.4202C28.6409 23.0722 29.9167 22.9563 31.1924 23.0142L34.4688 23.2172C34.6137 23.5941 34.6427 27.7693 34.5268 28.2622C34.3818 28.2622 34.2078 28.2912 34.0338 28.2912L31.5983 28.3202C31.2504 28.3202 30.9315 28.4072 30.6125 28.4942C29.8587 28.6971 29.3658 29.19 29.1918 29.9729C29.1338 30.2338 29.0758 30.5238 29.0758 30.7847V34.264C29.0758 34.351 29.1048 34.409 29.1048 34.554C29.2788 34.554 29.4527 34.583 29.6267 34.583H34.5268L34.0338 39.9759H29.0758C29.0468 40.9327 29.0758 41.8315 29.0758 42.7304V56.3867C28.6989 56.5027 23.045 56.5027 22.4941 56.4157V39.9759C20.9574 39.9469 19.5077 39.9759 18 39.9469V34.612C18.174 34.612 18.3479 34.583 18.4929 34.583H21.9142C22.0882 34.583 22.2332 34.554 22.4361 34.554C22.4361 34.351 22.4651 34.177 22.4651 34.0321V30.3498C22.4651 30.0599 22.4941 29.8279 22.4941 29.538ZM58.9979 43.8611L59.3459 41.4546C59.8678 39.1061 61.0565 37.1925 63.1151 35.8587C64.2749 35.1339 65.5507 34.6699 66.8844 34.438C69.2619 34.0321 71.6684 34.0321 74.017 34.583C74.7708 34.7569 75.4957 34.9889 76.1626 35.3658C76.4235 35.5108 76.5105 35.7137 76.4235 35.9747L75.1188 40.1209L75.0318 40.2948C74.9448 40.2948 74.8868 40.2948 74.8288 40.2658C73.6981 39.744 72.5093 39.454 71.2625 39.338C70.3057 39.251 69.3489 39.338 68.4501 39.686C66.7684 40.3238 65.8116 41.5996 65.6376 43.3682C65.5217 44.441 65.5507 45.5428 65.5507 46.6446C65.5507 47.1375 65.6086 47.6304 65.6956 48.0943C66.1305 50.1239 67.7252 51.5446 69.8128 51.7766C71.4655 51.9506 73.0022 51.5736 74.5389 50.9937L75.0318 50.7908L76.5395 55.4009C76.1916 55.7198 75.7856 55.8648 75.3797 56.0387C74.104 56.5606 72.7412 56.7636 71.3785 56.8506C70.4217 56.9086 69.4359 56.9086 68.4791 56.8216C66.9134 56.6766 65.3767 56.3577 63.956 55.6618C61.7814 54.589 60.3897 52.8494 59.6358 50.5588C59.2009 49.2251 58.9979 47.8334 58.9979 46.4416V43.8611Z" fill="#0078F6"/>
</svg>
