<?xml version="1.0" encoding="utf-8"?>
<svg width="210" height="80" viewBox="0 0 210 80" fill="none" xmlns="http://www.w3.org/2000/svg">
<path d="M51.128 32.9223C44.6272 32.9223 39.5404 37.8629 39.5404 44.4774C39.5404 51.0919 44.4972 55.9837 51.128 55.9837C57.7588 55.9837 62.7969 51.0107 62.7969 44.4286C62.7969 37.8466 57.8563 32.9223 51.128 32.9223ZM51.1767 51.2219C47.4713 51.2219 44.7572 48.3454 44.7572 44.4774C44.7572 40.6094 47.4226 37.7004 51.128 37.7004C54.8334 37.7004 57.5962 40.6257 57.5962 44.4774C57.5962 48.3291 54.8822 51.2219 51.1767 51.2219ZM64.227 37.9441H67.4611V55.545H72.6292V33.3611H64.227V37.9441ZM26.5389 37.7004C29.2529 37.7004 31.4144 39.3743 32.227 41.8608H37.7039C36.7125 36.5302 32.3083 32.9385 26.5876 32.9385C20.0868 32.9385 15 37.8629 15 44.4774C15 51.0919 19.9568 55.9837 26.5876 55.9837C32.1945 55.9837 36.6638 52.3758 37.6552 47.0127H32.227C31.4469 49.4992 29.3017 51.2219 26.5876 51.2219C22.8334 51.2219 20.2169 48.3454 20.2169 44.4774C20.2169 40.5769 22.8009 37.7004 26.5389 37.7004ZM162.421 42.3321L158.634 41.7796C156.83 41.5196 155.53 40.9182 155.53 39.5043C155.53 37.9604 157.204 37.1803 159.496 37.1803C161.998 37.1803 163.591 38.2529 163.932 40.0081H168.922C168.369 35.5551 164.924 32.9385 159.626 32.9385C154.328 32.9385 150.541 35.7176 150.541 39.6668C150.541 43.616 152.914 45.6313 157.692 46.3139L161.478 46.8664C163.331 47.1265 164.371 47.8578 164.371 49.223C164.371 50.9782 162.567 51.7095 160.064 51.7095C157.009 51.7095 155.286 50.4581 155.026 48.5729H149.94C150.411 52.9121 153.808 55.9512 160.016 55.9512C165.655 55.9512 169.409 53.3672 169.409 48.9467C169.393 45.03 166.695 42.9822 162.421 42.3321Z" fill="#0052FF"/>
<path d="M70.0452 30.7445C71.8762 30.7445 73.3606 29.282 73.3606 27.4779C73.3606 25.6738 71.8762 24.2113 70.0452 24.2113C68.2142 24.2113 66.7298 25.6738 66.7298 27.4779C66.7298 29.282 68.2142 30.7445 70.0452 30.7445Z" fill="#0052FF"/>
<path d="M145.893 50.9619V40.9507C145.893 36.1402 142.967 32.9223 136.759 32.9223C130.909 32.9223 127.626 35.8801 126.976 40.4307H132.095C132.355 38.6755 133.736 37.2128 136.662 37.2128C139.295 37.2128 140.578 38.3667 140.578 39.7806C140.578 41.6333 138.206 42.1046 135.28 42.3972C131.315 42.8197 126.407 44.2011 126.407 49.353C126.407 53.3509 129.381 55.9187 134.11 55.9187C137.816 55.9187 140.14 54.3748 141.31 51.9208C141.489 54.1148 143.114 55.5287 145.405 55.5287H148.428V50.9294H145.893V50.9619ZM140.806 46.5414C140.806 49.4992 138.222 51.6932 135.085 51.6932C133.151 51.6932 131.51 50.8807 131.51 49.1579C131.51 46.9639 134.143 46.3626 136.548 46.1026C138.872 45.8913 140.172 45.3713 140.806 44.3799V46.5414ZM113.373 32.9223C110.48 32.9223 108.075 34.1249 106.352 36.1402V24H101.184V55.5449H106.271V52.6196C107.993 54.7161 110.447 55.9675 113.373 55.9675C119.581 55.9675 124.262 51.0757 124.262 44.4611C124.262 37.8466 119.483 32.9223 113.373 32.9223ZM112.593 51.2219C108.887 51.2219 106.173 48.3454 106.173 44.4774C106.173 40.6094 108.936 37.7004 112.641 37.7004C116.347 37.7004 119.012 40.5769 119.012 44.4774C119.012 48.3779 116.298 51.2219 112.593 51.2219ZM88.8161 32.9223C85.452 32.9223 83.258 34.3037 81.9741 36.2214V33.3611H76.8547V55.5612H82.0229V43.5023C82.0229 40.1056 84.1681 37.7004 87.3697 37.7004C90.3438 37.7004 92.1965 39.7969 92.1965 42.8522V55.5612H97.3646V42.4622C97.3484 36.8715 94.4556 32.9223 88.8161 32.9223ZM183.142 32.9385C176.511 32.9385 171.636 37.9116 171.636 44.4937C171.636 51.4007 176.853 56 183.223 56C188.603 56 192.828 52.8146 193.901 48.3129H188.522C187.741 50.2793 185.856 51.4007 183.305 51.4007C179.989 51.4007 177.487 49.3367 176.934 45.7288H194.031V43.7461C194.031 37.3916 189.383 32.9385 183.142 32.9385ZM177.243 42.0234C178.055 38.9355 180.379 37.4241 183.061 37.4241C185.986 37.4241 188.229 39.098 188.749 42.0234H177.243Z" fill="#0052FF"/>
</svg>
