<?xml version="1.0" encoding="utf-8"?><svg width="210" height="80" viewBox="0 0 210 80" fill="none" xmlns="http://www.w3.org/2000/svg">
<path d="M62.5513 24.4488C58.5775 20.4612 53.0775 18 47 18C34.845 18 25 27.8588 25 40C25 43.0388 25.6188 45.94 26.7325 48.5662C27.8325 51.1925 29.455 53.5712 31.435 55.565L27.255 59.745C26.4163 60.5838 27.0075 62 28.1763 62H47C53.0775 62 58.5775 59.5387 62.5513 55.565C66.5388 51.5775 69 46.0775 69 40C69 33.9225 66.5388 28.4225 62.5513 24.4488ZM61.6575 44.4275C61.5063 50.395 55.0163 55.2075 47.0138 55.2075C39.0113 55.2075 32.5213 50.4087 32.3563 44.4412C30.61 43.6162 29.3863 41.8563 29.3863 39.7938C29.3863 36.9613 31.6825 34.665 34.5288 34.665C35.7113 34.665 36.7838 35.0775 37.65 35.7375C39.9875 34.28 42.9438 33.3725 46.175 33.235C46.175 33.2212 46.1613 33.2213 46.1613 33.2075C46.1613 30.155 48.4988 27.6662 51.4688 27.3637C51.7988 25.6862 53.27 24.435 55.0438 24.435C57.0513 24.435 58.6875 26.0575 58.6875 28.0787C58.6875 30.1 57.0513 31.7088 55.0438 31.7088C53.325 31.7088 51.895 30.5262 51.51 28.9312C49.3925 29.2062 47.7425 31.0075 47.7425 33.2075V33.235C51.0013 33.3587 53.9988 34.2662 56.35 35.7375C57.2163 35.0637 58.2888 34.665 59.4713 34.665C62.3038 34.665 64.6 36.9613 64.6 39.7938C64.6 41.8425 63.39 43.6025 61.6575 44.4275Z" fill="#F04923"/>
<path d="M42.6688 43.1625C42.5863 45.0187 41.3488 45.6787 39.905 45.6787C38.4613 45.6787 37.3613 44.675 37.4575 42.8187C37.54 40.9625 38.7775 39.7525 40.2213 39.7525C41.665 39.7525 42.765 41.2925 42.6688 43.1488V43.1625Z" fill="url(#paint0_radial_807_30)"/>
<path d="M51.345 43.1625C51.4275 45.0187 52.665 45.6787 54.1088 45.6787C55.5525 45.6787 56.6525 44.675 56.5563 42.8187C56.4738 40.9625 55.2363 39.7525 53.7925 39.7525C52.3488 39.7525 51.2488 41.2925 51.345 43.1488V43.1625Z" fill="url(#paint1_radial_807_30)"/>
<path d="M41.2113 42.3238C41.5226 42.3238 41.775 42.0467 41.775 41.705C41.775 41.3633 41.5226 41.0863 41.2113 41.0863C40.8999 41.0863 40.6475 41.3633 40.6475 41.705C40.6475 42.0467 40.8999 42.3238 41.2113 42.3238Z" fill="#FCC39D"/>
<path d="M54.7825 42.3238C55.0939 42.3238 55.3463 42.0467 55.3463 41.705C55.3463 41.3633 55.0939 41.0863 54.7825 41.0863C54.4712 41.0863 54.2188 41.3633 54.2188 41.705C54.2188 42.0467 54.4712 42.3238 54.7825 42.3238Z" fill="#FCC39D"/>
<path d="M47.0138 47.1225C45.2263 47.1225 43.5213 47.205 41.94 47.37C41.665 47.3975 41.5 47.6725 41.61 47.9338C42.49 50.0513 44.58 51.5362 47.0275 51.5362C49.475 51.5362 51.5513 50.0513 52.445 47.9338C52.555 47.6863 52.3763 47.3975 52.115 47.37C50.5338 47.205 48.8288 47.1225 47.0413 47.1225H47.0138Z" fill="url(#paint2_radial_807_30)"/>
<path d="M37.7875 42.9838C37.87 41.2375 39.025 40.0962 40.3725 40.0962C41.6513 40.0962 42.6275 41.4025 42.6688 43.0113C42.71 41.1963 41.6238 39.7525 40.2075 39.7525C38.7913 39.7525 37.5263 40.99 37.4438 42.8462C37.3613 44.7162 38.4613 45.665 39.8913 45.665H40.0013C38.695 45.6375 37.705 44.6887 37.7738 42.97L37.7875 42.9838Z" fill="#842124"/>
<path d="M56.2263 42.9838C56.1438 41.2375 54.9888 40.0962 53.6413 40.0962C52.3625 40.0962 51.3863 41.4025 51.345 43.0113C51.3038 41.1963 52.39 39.7525 53.8063 39.7525C55.2225 39.7525 56.4875 40.99 56.57 42.8462C56.6525 44.7162 55.5525 45.665 54.1225 45.665H54.0125C55.3188 45.6375 56.3088 44.6887 56.24 42.97L56.2263 42.9838Z" fill="#842124"/>
<path d="M94.6438 34.0463L92.21 39.835C91.9075 39.6838 91.1788 39.505 90.4775 39.505C89.7763 39.505 89.1025 39.6837 88.4288 40C87.1088 40.6738 86.1325 42.0075 86.1325 43.9463V54.5613H80.0688V33.9225H85.9538V36.8237H86.0638C87.4388 34.9812 89.5563 33.62 92.2925 33.62C93.2963 33.62 94.245 33.8125 94.63 34.0463H94.6438Z" fill="black"/>
<path d="M93.475 44.3037C93.475 38.3362 97.5588 33.62 103.678 33.62C109.219 33.62 113.193 37.6625 113.193 43.3688C113.193 44.3725 113.096 45.3075 112.89 46.215H99.0025C99.635 48.3875 101.519 50.065 104.338 50.065C105.891 50.065 108.091 49.515 109.288 48.5938L111.171 53.1175C109.425 54.3 106.758 54.8775 104.42 54.8775C97.875 54.8775 93.4888 50.6562 93.4888 44.3037H93.475ZM98.8925 42.4062H107.624C107.624 39.7525 105.823 38.3638 103.609 38.3638C101.12 38.3638 99.4288 39.9725 98.8925 42.4062Z" fill="black"/>
<path d="M165.223 24.655C167.258 24.655 168.921 26.3188 168.921 28.3538C168.921 30.3888 167.258 32.0525 165.223 32.0525C163.188 32.0525 161.524 30.3888 161.524 28.3538C161.524 26.3188 163.188 24.655 165.223 24.655ZM168.248 54.575H162.184V33.9363H168.248V54.575Z" fill="black"/>
<path d="M130.023 25.0263V35.8888H129.885C128.221 34.2938 126.406 33.6475 124.055 33.6475C118.239 33.6475 114.389 38.3225 114.389 44.2625C114.389 50.2025 117.991 54.8912 123.863 54.8912C126.324 54.8912 128.634 54.0525 130.133 52.1275H130.311V54.5888H136.086V25.0263H130.023ZM130.311 49.6525H130.105L128.758 48.25C127.878 49.13 126.668 49.6525 125.265 49.6525C122.295 49.6525 120.219 47.3013 120.219 44.2625C120.219 41.2238 122.295 38.8725 125.265 38.8725C128.235 38.8725 130.311 41.2238 130.311 44.2625V49.6525Z" fill="black"/>
<path d="M153.178 25.0263V35.8888H153.04C151.376 34.2938 149.561 33.6475 147.21 33.6475C141.394 33.6475 137.544 38.3225 137.544 44.2625C137.544 50.2025 141.146 54.8912 147.018 54.8912C149.479 54.8912 151.789 54.0525 153.288 52.1275H153.466V54.5888H159.241V25.0263H153.178ZM153.439 49.6525H153.233L151.885 48.25C151.005 49.13 149.795 49.6525 148.393 49.6525C145.423 49.6525 143.346 47.3013 143.346 44.2625C143.346 41.2238 145.423 38.8725 148.393 38.8725C151.363 38.8725 153.439 41.2238 153.439 44.2625V49.6525Z" fill="black"/>
<path d="M180.004 33.9225H184.431V39.0787H180.004V54.5613H173.94V39.0787H169.526V33.9225H173.94V28.3125H180.004V33.9225Z" fill="black"/>
<defs>
<radialGradient id="paint0_radial_807_30" cx="0" cy="0" r="1" gradientUnits="userSpaceOnUse" gradientTransform="translate(-219.114 59.1905) scale(86.2941 30.1722)">
<stop stop-color="#F26722"/>
<stop offset="0.5" stop-color="#F04923"/>
<stop offset="0.7" stop-color="#EF4823"/>
<stop offset="0.82" stop-color="#EF4223"/>
<stop offset="0.92" stop-color="#E43C26"/>
<stop offset="1" stop-color="#D43227"/>
</radialGradient>
<radialGradient id="paint1_radial_807_30" cx="0" cy="0" r="1" gradientUnits="userSpaceOnUse" gradientTransform="translate(-261.959 -6020.46) rotate(180) scale(86.2941 30.1722)">
<stop stop-color="#F26722"/>
<stop offset="0.5" stop-color="#F04923"/>
<stop offset="0.7" stop-color="#EF4823"/>
<stop offset="0.82" stop-color="#EF4223"/>
<stop offset="0.92" stop-color="#E43C26"/>
<stop offset="1" stop-color="#D43227"/>
</radialGradient>
<radialGradient id="paint2_radial_807_30" cx="0" cy="0" r="1" gradientUnits="userSpaceOnUse" gradientTransform="translate(-102.73 262.645) scale(136.628 62.0935)">
<stop stop-color="#162E35"/>
<stop offset="0.29" stop-color="#0E1C21"/>
<stop offset="0.73" stop-color="#070A0B"/>
<stop offset="1"/>
</radialGradient>
</defs>
</svg>
