<?xml version="1.0" encoding="utf-8"?>
<svg width="210" height="80" viewBox="0 0 210 80" fill="none" xmlns="http://www.w3.org/2000/svg">
<path fill-rule="evenodd" clip-rule="evenodd" d="M36.6075 32.1461C36.2401 32.9729 35.6889 33.6159 34.9541 34.167C34.3111 34.6263 33.5762 34.81 32.7495 34.81C32.382 34.81 32.1065 34.5344 32.1065 34.2589C32.1065 33.8914 32.382 33.6159 32.6576 33.6159C33.2088 33.6159 33.7599 33.4321 34.2192 33.1566C34.7704 32.7891 35.1378 32.3299 35.4134 31.6868C35.5971 31.3194 35.5052 30.952 35.3215 30.5846C35.2354 30.4158 35.1037 30.2747 34.9413 30.1772C34.7788 30.0798 34.5923 30.0299 34.4029 30.0334C33.5762 29.9415 32.9332 30.2171 32.382 30.7683C31.5553 31.6868 31.1879 33.2484 31.0042 33.8914C30.9123 34.4426 29.4426 40.6889 28.8914 43.1691C28.7996 43.5365 28.4322 43.8121 28.0647 43.8121C27.6973 43.8121 27.3299 43.5365 27.238 43.1691L27.0543 42.2505L25.1253 33.8914C24.9415 33.2484 24.666 31.6868 23.7474 30.7683C23.1962 30.2171 22.5532 29.9415 21.7265 30.0334C21.5371 30.0299 21.3506 30.0798 21.1882 30.1772C21.0258 30.2747 20.894 30.4158 20.8079 30.5846C20.6242 30.952 20.5324 31.3194 20.7161 31.6868C20.9916 32.3299 21.3591 32.7891 21.9102 33.1566C22.3695 33.4321 22.9207 33.6159 23.4718 33.6159C23.8392 33.6159 24.1148 33.8914 24.023 34.2589C24.023 34.6263 23.7474 34.9019 23.38 34.81C22.5532 34.81 21.8184 34.5344 21.1754 34.167C20.4405 33.7077 19.8894 33.0647 19.5219 32.1461C19.2463 31.4113 19.2463 30.5846 19.7056 29.8497C20.0731 29.2067 20.8079 28.7474 21.6347 28.6555C22.8288 28.5637 23.8392 28.9311 24.5741 29.7578C25.6764 30.8601 26.1357 32.6973 26.2276 33.4321C26.3194 33.8914 27.3299 38.3006 28.0647 41.1482C28.7077 38.2088 29.7182 33.8914 29.9019 33.4321C30.0856 32.6973 30.453 30.8601 31.5553 29.7578C32.2902 28.9311 33.3925 28.5637 34.4948 28.6555C35.2296 28.6555 35.9645 29.1148 36.4238 29.8497C36.8831 30.5846 36.975 31.4113 36.6075 32.1461ZM31.1879 22.4092C30.3612 22.4092 29.5344 22.5929 28.7077 22.8685C28.3403 22.9603 27.881 22.9603 27.5136 22.8685C26.6868 22.5929 25.8601 22.4092 25.0334 22.4092C20.3486 22.4092 16.3987 27.1858 16.3987 32.7891C16.3987 39.0355 21.0835 44.547 27.881 46.2004H28.3403C35.1378 44.547 39.8225 39.0355 39.8225 32.7891C39.8225 27.1858 35.8727 22.4092 31.1879 22.4092ZM28.6159 47.3946C28.4322 47.3946 28.2484 47.4864 28.1566 47.4864C27.9729 47.4864 27.7891 47.4864 27.6973 47.3946C20.3486 45.6493 15.2965 39.5866 15.2965 32.6973C15.2965 26.3591 19.7975 21.0313 25.1253 21.0313C26.0438 21.0313 27.0543 21.215 27.9729 21.4906H28.3403C29.2589 21.215 30.2693 21.0313 31.1879 21.0313C36.5157 21.0313 41.0167 26.3591 41.0167 32.6973C41.0167 39.5866 35.9645 45.6493 28.6159 47.3946ZM40.3737 45.7411C40.3762 45.8263 40.3613 45.911 40.3299 45.9902C40.2985 46.0693 40.2512 46.1412 40.191 46.2015C40.1308 46.2617 40.0589 46.309 39.9797 46.3404C39.9006 46.3718 39.8158 46.3867 39.7307 46.3841C39.6456 46.3867 39.5608 46.3718 39.4816 46.3404C39.4025 46.309 39.3306 46.2617 39.2704 46.2015C39.2101 46.1412 39.1629 46.0693 39.1314 45.9902C39.1 45.911 39.0851 45.8263 39.0877 45.7411V44.9144C39.0851 44.8293 39.1 44.7445 39.1314 44.6654C39.1629 44.5862 39.2101 44.5143 39.2704 44.4541C39.3306 44.3938 39.4025 44.3466 39.4816 44.3152C39.5608 44.2837 39.6456 44.2689 39.7307 44.2714C39.8158 44.2689 39.9006 44.2837 39.9797 44.3152C40.0589 44.3466 40.1308 44.3938 40.191 44.4541C40.2512 44.5143 40.2985 44.5862 40.3299 44.6654C40.3613 44.7445 40.3762 44.8293 40.3737 44.9144V45.7411ZM40.3737 49.691C40.3762 49.7762 40.3613 49.8609 40.3299 49.9401C40.2985 50.0192 40.2512 50.0911 40.191 50.1514C40.1308 50.2116 40.0589 50.2589 39.9797 50.2903C39.9006 50.3217 39.8158 50.3366 39.7307 50.334C39.6456 50.3366 39.5608 50.3217 39.4816 50.2903C39.4025 50.2589 39.3306 50.2116 39.2704 50.1514C39.2101 50.0911 39.1629 50.0192 39.1314 49.9401C39.1 49.8609 39.0851 49.7762 39.0877 49.691V48.8643C39.0851 48.7792 39.1 48.6944 39.1314 48.6153C39.1629 48.5361 39.2101 48.4642 39.2704 48.404C39.3306 48.3437 39.4025 48.2965 39.4816 48.2651C39.5608 48.2336 39.6456 48.2188 39.7307 48.2213C39.8158 48.2188 39.9006 48.2336 39.9797 48.2651C40.0589 48.2965 40.1308 48.3437 40.191 48.404C40.2512 48.4642 40.2985 48.5361 40.3299 48.6153C40.3613 48.6944 40.3762 48.7792 40.3737 48.8643V49.691ZM36.5157 51.62C36.5182 51.7052 36.5033 51.7899 36.4719 51.8691C36.4405 51.9482 36.3932 52.0201 36.333 52.0804C36.2728 52.1406 36.2009 52.1879 36.1217 52.2193C36.0425 52.2507 35.9578 52.2656 35.8727 52.263C35.7875 52.2656 35.7028 52.2507 35.6236 52.2193C35.5444 52.1879 35.4725 52.1406 35.4123 52.0804C35.3521 52.0201 35.3048 51.9482 35.2734 51.8691C35.242 51.7899 35.2271 51.7052 35.2296 51.62V50.7933C35.2271 50.7082 35.242 50.6234 35.2734 50.5443C35.3048 50.4651 35.3521 50.3932 35.4123 50.333C35.4725 50.2728 35.5444 50.2255 35.6236 50.1941C35.7028 50.1627 35.7875 50.1478 35.8727 50.1503C35.9578 50.1478 36.0425 50.1627 36.1217 50.1941C36.2009 50.2255 36.2728 50.2728 36.333 50.333C36.3932 50.3932 36.4405 50.4651 36.4719 50.5443C36.5033 50.6234 36.5182 50.7082 36.5157 50.7933V51.62ZM36.5157 55.5699C36.5182 55.6551 36.5033 55.7398 36.4719 55.819C36.4405 55.8981 36.3932 55.97 36.333 56.0303C36.2728 56.0905 36.2009 56.1378 36.1217 56.1692C36.0425 56.2006 35.9578 56.2155 35.8727 56.2129C35.7875 56.2155 35.7028 56.2006 35.6236 56.1692C35.5444 56.1378 35.4725 56.0905 35.4123 56.0303C35.3521 55.97 35.3048 55.8981 35.2734 55.819C35.242 55.7398 35.2271 55.6551 35.2296 55.5699V54.7432C35.2271 54.6581 35.242 54.5733 35.2734 54.4942C35.3048 54.415 35.3521 54.3431 35.4123 54.2829C35.4725 54.2227 35.5444 54.1754 35.6236 54.144C35.7028 54.1126 35.7875 54.0977 35.8727 54.1002C35.9578 54.0977 36.0425 54.1126 36.1217 54.144C36.2009 54.1754 36.2728 54.2227 36.333 54.2829C36.3932 54.3431 36.4405 54.415 36.4719 54.4942C36.5033 54.5733 36.5182 54.6581 36.5157 54.7432V55.5699ZM32.5658 53.5491C32.5683 53.6342 32.5534 53.7189 32.522 53.7981C32.4906 53.8773 32.4433 53.9492 32.3831 54.0094C32.3229 54.0696 32.251 54.1169 32.1718 54.1483C32.0926 54.1797 32.0079 54.1946 31.9228 54.1921C31.8376 54.1946 31.7529 54.1797 31.6737 54.1483C31.5945 54.1169 31.5226 54.0696 31.4624 54.0094C31.4022 53.9492 31.3549 53.8773 31.3235 53.7981C31.2921 53.7189 31.2772 53.6342 31.2798 53.5491V52.7223C31.2772 52.6372 31.2921 52.5525 31.3235 52.4733C31.3549 52.3941 31.4022 52.3222 31.4624 52.262C31.5226 52.2018 31.5945 52.1545 31.6737 52.1231C31.7529 52.0917 31.8376 52.0768 31.9228 52.0793C32.0079 52.0768 32.0926 52.0917 32.1718 52.1231C32.251 52.1545 32.3229 52.2018 32.3831 52.262C32.4433 52.3222 32.4906 52.3941 32.522 52.4733C32.5534 52.5525 32.5683 52.6372 32.5658 52.7223V53.5491ZM32.5658 57.499C32.5683 57.5841 32.5534 57.6688 32.522 57.748C32.4906 57.8272 32.4433 57.8991 32.3831 57.9593C32.3229 58.0195 32.251 58.0668 32.1718 58.0982C32.0926 58.1296 32.0079 58.1445 31.9228 58.142C31.8376 58.1445 31.7529 58.1296 31.6737 58.0982C31.5945 58.0668 31.5226 58.0195 31.4624 57.9593C31.4022 57.8991 31.3549 57.8272 31.3235 57.748C31.2921 57.6688 31.2772 57.5841 31.2798 57.499V56.6722C31.2772 56.5871 31.2921 56.5023 31.3235 56.4232C31.3549 56.344 31.4022 56.2721 31.4624 56.2119C31.5226 56.1517 31.5945 56.1044 31.6737 56.073C31.7529 56.0416 31.8376 56.0267 31.9228 56.0292C32.0079 56.0267 32.0926 56.0416 32.1718 56.073C32.251 56.1044 32.3229 56.1517 32.3831 56.2119C32.4433 56.2721 32.4906 56.344 32.522 56.4232C32.5534 56.5023 32.5683 56.5871 32.5658 56.6722V57.499ZM28.7077 51.62C28.7103 51.7052 28.6954 51.7899 28.664 51.8691C28.6325 51.9482 28.5853 52.0201 28.5251 52.0804C28.4648 52.1406 28.3929 52.1879 28.3138 52.2193C28.2346 52.2507 28.1498 52.2656 28.0647 52.263C27.9796 52.2656 27.8948 52.2507 27.8157 52.2193C27.7365 52.1879 27.6646 52.1406 27.6044 52.0804C27.5442 52.0201 27.4969 51.9482 27.4655 51.8691C27.4341 51.7899 27.4192 51.7052 27.4217 51.62V50.7933C27.4192 50.7082 27.4341 50.6234 27.4655 50.5443C27.4969 50.4651 27.5442 50.3932 27.6044 50.333C27.6646 50.2728 27.7365 50.2255 27.8157 50.1941C27.8948 50.1627 27.9796 50.1478 28.0647 50.1503C28.1498 50.1478 28.2346 50.1627 28.3138 50.1941C28.3929 50.2255 28.4648 50.2728 28.5251 50.333C28.5853 50.3932 28.6325 50.4651 28.664 50.5443C28.6954 50.6234 28.7103 50.7082 28.7077 50.7933V51.62ZM28.7077 55.5699C28.7103 55.6551 28.6954 55.7398 28.664 55.819C28.6325 55.8981 28.5853 55.97 28.5251 56.0303C28.4648 56.0905 28.3929 56.1378 28.3138 56.1692C28.2346 56.2006 28.1498 56.2155 28.0647 56.2129C27.9796 56.2155 27.8948 56.2006 27.8157 56.1692C27.7365 56.1378 27.6646 56.0905 27.6044 56.0303C27.5442 55.97 27.4969 55.8981 27.4655 55.819C27.4341 55.7398 27.4192 55.6551 27.4217 55.5699V54.7432C27.4192 54.6581 27.4341 54.5733 27.4655 54.4942C27.4969 54.415 27.5442 54.3431 27.6044 54.2829C27.6646 54.2227 27.7365 54.1754 27.8157 54.144C27.8948 54.1126 27.9796 54.0977 28.0647 54.1002C28.1498 54.0977 28.2346 54.1126 28.3138 54.144C28.3929 54.1754 28.4648 54.2227 28.5251 54.2829C28.5853 54.3431 28.6325 54.415 28.664 54.4942C28.6954 54.5733 28.7103 54.6581 28.7077 54.7432V55.5699ZM24.8497 53.5491C24.8522 53.6342 24.8373 53.7189 24.8059 53.7981C24.7745 53.8773 24.7272 53.9492 24.667 54.0094C24.6068 54.0696 24.5349 54.1169 24.4557 54.1483C24.3766 54.1797 24.2918 54.1946 24.2067 54.1921C24.1216 54.1946 24.0368 54.1797 23.9576 54.1483C23.8785 54.1169 23.8066 54.0696 23.7463 54.0094C23.6861 53.9492 23.6389 53.8773 23.6074 53.7981C23.576 53.7189 23.5611 53.6342 23.5637 53.5491V52.7223C23.5611 52.6372 23.576 52.5525 23.6074 52.4733C23.6389 52.3941 23.6861 52.3222 23.7463 52.262C23.8066 52.2018 23.8785 52.1545 23.9576 52.1231C24.0368 52.0917 24.1216 52.0768 24.2067 52.0793C24.2918 52.0768 24.3766 52.0917 24.4557 52.1231C24.5349 52.1545 24.6068 52.2018 24.667 52.262C24.7272 52.3222 24.7745 52.3941 24.8059 52.4733C24.8373 52.5525 24.8522 52.6372 24.8497 52.7223V53.5491ZM24.8497 57.499C24.8522 57.5841 24.8373 57.6688 24.8059 57.748C24.7745 57.8272 24.7272 57.8991 24.667 57.9593C24.6068 58.0195 24.5349 58.0668 24.4557 58.0982C24.3766 58.1296 24.2918 58.1445 24.2067 58.142C24.1216 58.1445 24.0368 58.1296 23.9576 58.0982C23.8785 58.0668 23.8066 58.0195 23.7463 57.9593C23.6861 57.8991 23.6389 57.8272 23.6074 57.748C23.576 57.6688 23.5611 57.5841 23.5637 57.499V56.6722C23.5611 56.5871 23.576 56.5023 23.6074 56.4232C23.6389 56.344 23.6861 56.2721 23.7463 56.2119C23.8066 56.1517 23.8785 56.1044 23.9576 56.073C24.0368 56.0416 24.1216 56.0267 24.2067 56.0292C24.2918 56.0267 24.3766 56.0416 24.4557 56.073C24.5349 56.1044 24.6068 56.1517 24.667 56.2119C24.7272 56.2721 24.7745 56.344 24.8059 56.4232C24.8373 56.5023 24.8522 56.5871 24.8497 56.6722V57.499ZM20.9917 51.62C20.9942 51.7052 20.9793 51.7899 20.9479 51.8691C20.9165 51.9482 20.8692 52.0201 20.809 52.0804C20.7488 52.1406 20.6769 52.1879 20.5977 52.2193C20.5185 52.2507 20.4338 52.2656 20.3486 52.263C20.2635 52.2656 20.1788 52.2507 20.0996 52.2193C20.0204 52.1879 19.9485 52.1406 19.8883 52.0804C19.8281 52.0201 19.7808 51.9482 19.7494 51.8691C19.718 51.7899 19.7031 51.7052 19.7056 51.62V50.7933C19.7031 50.7082 19.718 50.6234 19.7494 50.5443C19.7808 50.4651 19.8281 50.3932 19.8883 50.333C19.9485 50.2728 20.0204 50.2255 20.0996 50.1941C20.1788 50.1627 20.2635 50.1478 20.3486 50.1503C20.4338 50.1478 20.5185 50.1627 20.5977 50.1941C20.6769 50.2255 20.7488 50.2728 20.809 50.333C20.8692 50.3932 20.9165 50.4651 20.9479 50.5443C20.9793 50.6234 20.9942 50.7082 20.9917 50.7933V51.62ZM20.9917 55.5699C20.9942 55.6551 20.9793 55.7398 20.9479 55.819C20.9165 55.8981 20.8692 55.97 20.809 56.0303C20.7488 56.0905 20.6769 56.1378 20.5977 56.1692C20.5185 56.2006 20.4338 56.2155 20.3486 56.2129C20.2635 56.2155 20.1788 56.2006 20.0996 56.1692C20.0204 56.1378 19.9485 56.0905 19.8883 56.0303C19.8281 55.97 19.7808 55.8981 19.7494 55.819C19.718 55.7398 19.7031 55.6551 19.7056 55.5699V54.7432C19.7031 54.6581 19.718 54.5733 19.7494 54.4942C19.7808 54.415 19.8281 54.3431 19.8883 54.2829C19.9485 54.2227 20.0204 54.1754 20.0996 54.144C20.1788 54.1126 20.2635 54.0977 20.3486 54.1002C20.4338 54.0977 20.5185 54.1126 20.5977 54.144C20.6769 54.1754 20.7488 54.2227 20.809 54.2829C20.8692 54.3431 20.9165 54.415 20.9479 54.4942C20.9793 54.5733 20.9942 54.6581 20.9917 54.7432V55.5699ZM17.1336 45.7411C17.1362 45.8263 17.1213 45.911 17.0898 45.9902C17.0584 46.0693 17.0112 46.1412 16.9509 46.2015C16.8907 46.2617 16.8188 46.309 16.7397 46.3404C16.6605 46.3718 16.5757 46.3867 16.4906 46.3841C16.4055 46.3867 16.3207 46.3718 16.2416 46.3404C16.1624 46.309 16.0905 46.2617 16.0303 46.2015C15.97 46.1412 15.9228 46.0693 15.8914 45.9902C15.8599 45.911 15.8451 45.8263 15.8476 45.7411V44.9144C15.8451 44.8293 15.8599 44.7445 15.8914 44.6654C15.9228 44.5862 15.97 44.5143 16.0303 44.4541C16.0905 44.3938 16.1624 44.3466 16.2416 44.3152C16.3207 44.2837 16.4055 44.2689 16.4906 44.2714C16.5757 44.2689 16.6605 44.2837 16.7397 44.3152C16.8188 44.3466 16.8907 44.3938 16.9509 44.4541C17.0112 44.5143 17.0584 44.5862 17.0898 44.6654C17.1213 44.7445 17.1362 44.8293 17.1336 44.9144V45.7411ZM17.1336 49.691C17.1362 49.7762 17.1213 49.8609 17.0898 49.9401C17.0584 50.0192 17.0112 50.0911 16.9509 50.1514C16.8907 50.2116 16.8188 50.2589 16.7397 50.2903C16.6605 50.3217 16.5757 50.3366 16.4906 50.334C16.4055 50.3366 16.3207 50.3217 16.2416 50.2903C16.1624 50.2589 16.0905 50.2116 16.0303 50.1514C15.97 50.0911 15.9228 50.0192 15.8914 49.9401C15.8599 49.8609 15.8451 49.7762 15.8476 49.691V48.8643C15.8451 48.7792 15.8599 48.6944 15.8914 48.6153C15.9228 48.5361 15.97 48.4642 16.0303 48.404C16.0905 48.3437 16.1624 48.2965 16.2416 48.2651C16.3207 48.2336 16.4055 48.2188 16.4906 48.2213C16.5757 48.2188 16.6605 48.2336 16.7397 48.2651C16.8188 48.2965 16.8907 48.3437 16.9509 48.404C17.0112 48.4642 17.0584 48.5361 17.0898 48.6153C17.1213 48.6944 17.1362 48.7792 17.1336 48.8643V49.691ZM28.1566 18C19.7975 18 13 24.8894 13 33.3403V46.6597C13 55.1106 19.7975 62 28.1566 62C36.5157 62 43.3132 55.1106 43.3132 46.6597V33.3403C43.3132 24.8894 36.5157 18 28.1566 18ZM60.7662 39.3111C58.0104 38.6681 56.8163 38.2088 56.8163 36.6472C56.8163 35.5449 57.8267 34.6263 59.6639 34.6263C61.501 34.6263 62.6952 35.3612 63.5219 36.5553L65.7265 34.7182C64.3486 32.7891 62.4196 31.7787 59.6639 31.7787C56.0814 31.7787 53.785 33.7996 53.785 36.739C53.785 39.8622 55.8977 41.2401 59.4802 42.2505C62.6033 43.0772 63.7975 43.8121 63.7975 45.3737C63.7975 46.8434 62.5115 47.762 60.215 47.762C57.9186 47.762 55.9896 46.6597 54.9791 44.9144L52.499 46.476C54.1524 48.9562 56.7244 50.5177 60.1232 50.5177C64.3486 50.5177 66.9207 48.4969 66.9207 45.0981C67.0125 41.8831 64.5324 40.3215 60.7662 39.3111ZM79.5971 47.5783C76.1065 47.5783 73.7182 44.9144 73.7182 41.1482C73.7182 37.382 76.0146 34.7182 79.5971 34.7182C83.1796 34.7182 85.3841 37.382 85.3841 41.1482C85.3841 44.9144 83.0877 47.5783 79.5971 47.5783ZM85.2004 35.2693C84.0063 33.0647 81.8935 31.7787 78.9541 31.7787C73.9937 31.7787 70.2276 35.8205 70.2276 41.1482C70.2276 46.476 73.9937 50.5177 78.9541 50.5177C81.8935 50.5177 84.0063 49.2317 85.2923 47.0271V50.1503H88.5992V32.238H85.2923L85.2004 35.2693ZM114.411 31.7787C111.564 31.7787 109.543 32.881 108.073 35.0856C107.063 32.881 105.134 31.7787 102.745 31.7787C100.357 31.7787 98.428 32.7891 97.4175 34.6263V32.238H94.1107V50.1503H97.4175V39.8622C97.4175 36.5553 99.071 34.81 102.01 34.81C104.582 34.81 105.777 36.3716 105.777 39.1273V50.1503H109.084V39.6785C109.084 36.5553 110.737 34.7182 113.676 34.7182C116.157 34.7182 117.443 36.1879 117.443 39.0355V50.0585H120.749V38.6681C120.933 34.3507 118.177 31.7787 114.411 31.7787ZM132.875 39.3111C130.119 38.5762 128.925 38.2088 128.925 36.5553C128.925 35.453 129.935 34.5344 131.772 34.5344C133.61 34.5344 134.804 35.2693 135.63 36.4635L137.835 34.6263C136.457 32.7891 134.528 31.7787 131.681 31.7787C128.19 31.7787 125.802 33.7996 125.802 36.739C125.802 39.8622 127.914 41.2401 131.497 42.2505C134.62 43.0772 135.814 43.8121 135.814 45.3737C135.814 46.8434 134.528 47.762 132.232 47.762C129.935 47.762 128.006 46.6597 126.996 44.9144L124.608 46.476C126.261 48.9562 128.833 50.5177 132.232 50.5177C136.457 50.5177 139.029 48.4969 139.029 45.0981C139.121 41.8831 136.733 40.3215 132.875 39.3111ZM151.706 47.5783C148.215 47.5783 145.827 44.9144 145.827 41.1482C145.827 37.382 148.123 34.7182 151.706 34.7182C155.288 34.7182 157.493 37.382 157.493 41.1482C157.493 44.9144 155.196 47.5783 151.706 47.5783ZM157.401 35.2693C156.115 33.0647 154.002 31.7787 151.063 31.7787C146.102 31.7787 142.336 35.8205 142.336 41.1482C142.336 46.476 146.102 50.5177 151.063 50.5177C154.002 50.5177 156.115 49.2317 157.401 47.0271V50.1503H160.708V32.238H157.401V35.2693ZM187.53 47.5783C184.04 47.5783 181.651 44.9144 181.651 41.1482C181.651 37.382 183.948 34.7182 187.53 34.7182C191.113 34.7182 193.317 37.382 193.317 41.1482C193.317 44.9144 191.021 47.5783 187.53 47.5783ZM193.225 32.238V35.2693C191.939 33.0647 189.827 31.7787 186.887 31.7787C181.927 31.7787 178.161 35.8205 178.161 41.1482C178.161 46.476 181.927 50.5177 186.887 50.5177C189.827 50.5177 191.939 49.2317 193.225 47.0271V50.1503H196.532V32.238H193.225ZM169.526 36.3716V32.238H166.219V50.1503H169.526V40.7808L176.875 34.2589L174.67 31.7787L169.526 36.3716Z" fill="#00263E"/>
</svg>
