<?xml version="1.0" encoding="UTF-8"?>
<svg id="Layer_2" xmlns="http://www.w3.org/2000/svg"
    xmlns:xlink="http://www.w3.org/1999/xlink" viewBox="0 0 755.34 205.47">
    <defs>
        <style>
            .cls-1 {
                fill: url(#linear-gradient);
            }

            .cls-2 {
                fill: #fff;
            }

            .cls-3 {
                fill: #663df9;
            }
        </style>
        <linearGradient id="linear-gradient" x1="0" y1="109.02" x2="170.07" y2="109.02" gradientUnits="userSpaceOnUse">
            <stop offset="0" stop-color="#d68800" />
            <stop offset=".01" stop-color="#d48603" />
            <stop offset=".7" stop-color="#8552b2" />
            <stop offset="1" stop-color="#663df9" />
        </linearGradient>
    </defs>
    <g id="Layer_1-2">
        <g>
            <g>
                <path class="cls-2"
                    d="m85.04,130.13l-18.53-10.55v-21.11l18.53-10.55,18.53,10.55v21.11l-18.53,10.55Zm-12.86-13.78l12.86,7.32,12.86-7.32v-14.65l-12.86-7.32-12.86,7.32v14.65Z" />
                <polygon class="cls-2"
                    points="91.5 112.7 91.5 105.34 85.04 101.66 78.58 105.34 78.58 112.7 85.04 116.37 91.5 112.7" />
            </g>
            <path class="cls-1"
                d="m170.07,109.31l-.69-1.18v-47.35L84.69,12.56,0,60.79v47.49h0v48.96l84.69,48.23,84.69-48.23v-47.54l.69-.39Zm-6.34,44.71l-35.83,20.4v-71.94h-.12l8.41-4.79v-12.67l-11.12-6.34-5.66,3.23-25.48-14.84c-1.45.94-3.43,2.23-5.25,3.42l25.27,14.72v12.48l8.41,4.79h-.12v75.16l-37.55,21.39-37.81-21.53v-35.39l-5.65-3.22v35.39l-35.57-20.26v-41.15l68,38.71v9.45l11.12,6.34,11.12-6.34v-9.5l21.36-12.16v-6.44l-24.23,13.79-8.26-4.7-8.3,4.73L5.65,106.44v-42.43l36.35-20.7,32.87,19.15,5.14-3.48-32.39-18.87,37.06-21.11,36.02,20.51-71.91,41.89-4.75-2.7-11.12,6.34v12.67l8.41,4.79h-.11v18.62l5.65,3.22v-21.84h-.12l8.41-4.79v-12.67l-.75-.43,71.76-41.8-.16-.26,37.71,21.47v42.48l-30.85,17.56v6.44l30.85-17.56v41.1Z" />
        </g>
        <g>
            <path class="cls-2"
                d="m250.33,125.69c0,5.66-.7,10.77-2.09,15.32-1.39,4.55-3.47,8.42-6.23,11.63-2.76,3.2-6.21,5.66-10.34,7.38-4.13,1.72-8.94,2.58-14.41,2.58-2.51,0-4.97-.15-7.38-.45-2.41-.3-4.94-.78-7.59-1.43.14-1.86.3-3.71.49-5.57.18-1.86.35-3.71.49-5.57.14-1.02.54-1.84,1.22-2.47.67-.63,1.64-.94,2.89-.94.79,0,1.82.16,3.1.49,1.28.33,2.89.49,4.84.49,2.65,0,4.99-.38,7.03-1.15,2.04-.77,3.75-1.98,5.12-3.66,1.37-1.67,2.4-3.84,3.1-6.51.7-2.67,1.04-5.91,1.04-9.71V60.8h18.73v64.89Z" />
            <path class="cls-2"
                d="m298.37,88.93c5.29,0,10.11.86,14.45,2.58,4.34,1.72,8.05,4.16,11.14,7.31,3.09,3.16,5.47,7.01,7.14,11.56s2.51,9.63,2.51,15.25-.83,10.77-2.51,15.32-4.05,8.42-7.14,11.63c-3.09,3.2-6.8,5.66-11.14,7.38-4.34,1.72-9.16,2.58-14.45,2.58s-10.19-.86-14.55-2.58c-4.36-1.72-8.09-4.18-11.17-7.38-3.09-3.2-5.48-7.08-7.17-11.63s-2.54-9.65-2.54-15.32.85-10.7,2.54-15.25,4.08-8.4,7.17-11.56c3.09-3.16,6.81-5.59,11.17-7.31,4.36-1.72,9.21-2.58,14.55-2.58Zm0,60.36c5.94,0,10.34-2,13.19-5.99s4.28-9.84,4.28-17.55-1.43-13.58-4.28-17.62-7.25-6.06-13.19-6.06-10.5,2.03-13.4,6.09c-2.9,4.06-4.35,9.92-4.35,17.58s1.45,13.5,4.35,17.51c2.9,4.02,7.37,6.02,13.4,6.02Z" />
            <path class="cls-2"
                d="m363.96,98.82c2.88-3.02,6.07-5.42,9.57-7.21,3.5-1.79,7.51-2.68,12.01-2.68,4.13,0,7.86.81,11.17,2.44,3.32,1.62,6.15,3.96,8.49,7,2.34,3.04,4.14,6.72,5.4,11.04,1.25,4.32,1.88,9.17,1.88,14.55,0,5.8-.72,11.07-2.16,15.81-1.44,4.73-3.49,8.78-6.16,12.15-2.67,3.37-5.88,5.98-9.64,7.83-3.76,1.86-7.94,2.78-12.53,2.78-2.23,0-4.25-.22-6.06-.66s-3.48-1.05-5.01-1.84c-1.53-.79-2.94-1.75-4.21-2.89-1.28-1.14-2.5-2.4-3.66-3.79l-.77,4.8c-.28,1.21-.75,2.07-1.43,2.58-.67.51-1.59.77-2.75.77h-11.35V58.02h17.2v40.8Zm0,44.14c1.95,2.37,4.07,4.04,6.37,5.01,2.3.97,4.72,1.46,7.28,1.46s5.02-.48,7.14-1.43c2.11-.95,3.91-2.44,5.4-4.46,1.48-2.02,2.62-4.59,3.41-7.73.79-3.13,1.18-6.88,1.18-11.24,0-7.84-1.3-13.52-3.9-17.02-2.6-3.5-6.34-5.26-11.21-5.26-3.3,0-6.17.75-8.63,2.26-2.46,1.51-4.8,3.63-7.03,6.37v32.03Z" />
            <path class="cls-3"
                d="m480.3,79.11c-.56.97-1.15,1.68-1.78,2.12-.63.44-1.41.66-2.33.66-.97,0-2.03-.36-3.17-1.08-1.14-.72-2.5-1.52-4.07-2.4s-3.42-1.68-5.54-2.4c-2.11-.72-4.61-1.08-7.48-1.08-2.6,0-4.87.31-6.82.94-1.95.63-3.59,1.5-4.91,2.61-1.32,1.11-2.31,2.45-2.96,4-.65,1.56-.98,3.26-.98,5.12,0,2.37.66,4.34,1.98,5.92,1.32,1.58,3.08,2.92,5.26,4.04s4.67,2.11,7.45,2.99c2.79.88,5.64,1.82,8.56,2.82,2.92,1,5.78,2.16,8.56,3.48,2.79,1.32,5.27,2.99,7.45,5.01,2.18,2.02,3.93,4.49,5.26,7.42,1.32,2.92,1.98,6.47,1.98,10.65,0,4.55-.78,8.81-2.33,12.78-1.56,3.97-3.83,7.43-6.82,10.37-2.99,2.95-6.65,5.27-10.97,6.96-4.32,1.69-9.26,2.54-14.83,2.54-3.2,0-6.36-.31-9.47-.94-3.11-.63-6.09-1.52-8.95-2.68-2.85-1.16-5.54-2.55-8.04-4.18s-4.73-3.43-6.68-5.43l5.5-8.98c.46-.65,1.07-1.19,1.81-1.64.74-.44,1.53-.66,2.37-.66,1.16,0,2.41.48,3.76,1.43,1.35.95,2.95,2.01,4.8,3.17,1.86,1.16,4.03,2.22,6.51,3.17,2.48.95,5.47,1.43,8.95,1.43,5.34,0,9.47-1.26,12.39-3.79,2.92-2.53,4.39-6.16,4.39-10.9,0-2.65-.66-4.8-1.98-6.47-1.32-1.67-3.08-3.08-5.26-4.21-2.18-1.14-4.66-2.1-7.45-2.89-2.79-.79-5.62-1.65-8.49-2.58-2.88-.93-5.71-2.04-8.49-3.34-2.79-1.3-5.27-2.99-7.45-5.08-2.18-2.09-3.93-4.7-5.26-7.83-1.32-3.13-1.98-7-1.98-11.59,0-3.67.73-7.24,2.19-10.72,1.46-3.48,3.59-6.57,6.37-9.26,2.78-2.69,6.22-4.85,10.3-6.47,4.08-1.62,8.77-2.44,14.06-2.44,5.94,0,11.42.93,16.43,2.79,5.01,1.86,9.28,4.46,12.81,7.8l-4.66,8.84Z" />
            <path class="cls-3"
                d="m521.1,162.59c-6.22,0-10.99-1.75-14.31-5.26-3.32-3.5-4.98-8.34-4.98-14.52v-39.9h-7.31c-.93,0-1.72-.3-2.37-.91-.65-.6-.97-1.51-.97-2.71v-6.82l11.49-1.88,3.62-19.5c.23-.93.67-1.65,1.32-2.16.65-.51,1.49-.77,2.51-.77h8.91v22.49h19.08v12.25h-19.08v38.71c0,2.23.55,3.97,1.64,5.22,1.09,1.25,2.59,1.88,4.49,1.88,1.07,0,1.96-.13,2.68-.38s1.35-.52,1.88-.8c.53-.28,1.01-.54,1.43-.8.42-.25.84-.38,1.25-.38.51,0,.93.13,1.25.38.32.26.67.64,1.04,1.15l5.15,8.36c-2.51,2.09-5.38,3.67-8.63,4.73s-6.61,1.6-10.1,1.6Z" />
            <path class="cls-3"
                d="m547.42,100c8.22-7.52,18.1-11.28,29.66-11.28,4.18,0,7.91.68,11.21,2.05,3.29,1.37,6.08,3.27,8.35,5.71s4,5.35,5.19,8.74c1.18,3.39,1.78,7.1,1.78,11.14v45.12h-7.8c-1.63,0-2.88-.24-3.76-.73-.88-.49-1.58-1.47-2.09-2.96l-1.53-5.15c-1.81,1.63-3.57,3.05-5.29,4.28-1.72,1.23-3.5,2.26-5.36,3.1-1.86.83-3.84,1.47-5.95,1.91s-4.45.66-7,.66c-3.02,0-5.8-.41-8.35-1.22-2.55-.81-4.76-2.03-6.62-3.66-1.86-1.62-3.3-3.64-4.32-6.06-1.02-2.41-1.53-5.22-1.53-8.42,0-1.81.3-3.61.9-5.4.6-1.79,1.59-3.49,2.96-5.12,1.37-1.62,3.14-3.16,5.33-4.6,2.18-1.44,4.86-2.69,8.04-3.76,3.18-1.07,6.88-1.94,11.11-2.61,4.22-.67,9.05-1.08,14.48-1.22v-4.18c0-4.78-1.02-8.32-3.06-10.62-2.04-2.3-4.99-3.45-8.84-3.45-2.79,0-5.09.33-6.93.97-1.83.65-3.45,1.38-4.84,2.19-1.39.81-2.66,1.54-3.79,2.19-1.14.65-2.4.97-3.79.97-1.21,0-2.23-.31-3.06-.94-.84-.63-1.51-1.36-2.02-2.19l-3.06-5.5Zm39.41,30.98c-4.97.23-9.15.66-12.53,1.29-3.39.63-6.1,1.43-8.15,2.4-2.04.97-3.51,2.11-4.39,3.41-.88,1.3-1.32,2.71-1.32,4.25,0,3.02.89,5.18,2.68,6.47,1.79,1.3,4.12,1.95,7,1.95,3.53,0,6.58-.64,9.16-1.91,2.58-1.28,5.09-3.21,7.55-5.81v-12.05Z" />
            <path class="cls-3"
                d="m663.34,103.97c-.46.74-.95,1.27-1.46,1.57s-1.16.45-1.95.45c-.84,0-1.73-.23-2.68-.7-.95-.46-2.05-.99-3.31-1.57-1.25-.58-2.68-1.1-4.28-1.57s-3.49-.7-5.67-.7c-3.39,0-6.05.72-7.97,2.16-1.93,1.44-2.89,3.32-2.89,5.64,0,1.53.5,2.82,1.5,3.86,1,1.04,2.32,1.96,3.97,2.75,1.65.79,3.52,1.5,5.6,2.12,2.09.63,4.21,1.31,6.37,2.05,2.16.74,4.28,1.59,6.37,2.54,2.09.95,3.96,2.16,5.61,3.62,1.65,1.46,2.97,3.21,3.97,5.26,1,2.04,1.5,4.5,1.5,7.38,0,3.44-.62,6.6-1.84,9.5-1.23,2.9-3.05,5.41-5.47,7.52-2.41,2.11-5.4,3.76-8.95,4.94s-7.65,1.78-12.29,1.78c-2.46,0-4.86-.22-7.21-.66-2.34-.44-4.6-1.05-6.75-1.84-2.16-.79-4.15-1.72-5.99-2.79-1.83-1.07-3.45-2.23-4.84-3.48l3.97-6.54c.51-.79,1.11-1.39,1.81-1.81s1.58-.63,2.65-.63,2.08.3,3.03.91c.95.6,2.05,1.25,3.31,1.95,1.25.7,2.73,1.35,4.42,1.95,1.69.6,3.84.91,6.44.91,2.04,0,3.79-.24,5.26-.73,1.46-.49,2.67-1.12,3.62-1.92.95-.79,1.65-1.71,2.09-2.75.44-1.04.66-2.12.66-3.24,0-1.67-.5-3.04-1.5-4.11-1-1.07-2.32-2-3.97-2.79-1.65-.79-3.53-1.5-5.64-2.12-2.11-.63-4.27-1.31-6.47-2.05-2.21-.74-4.36-1.61-6.48-2.61-2.11-1-3.99-2.26-5.64-3.79-1.65-1.53-2.97-3.41-3.97-5.64-1-2.23-1.5-4.92-1.5-8.08,0-2.92.58-5.71,1.74-8.35,1.16-2.65,2.87-4.96,5.12-6.93,2.25-1.97,5.06-3.55,8.42-4.73,3.36-1.18,7.25-1.78,11.66-1.78,4.92,0,9.4.81,13.44,2.44,4.04,1.62,7.4,3.76,10.1,6.41l-3.9,6.2Z" />
            <path class="cls-3"
                d="m698.15,97.7c2.79-2.6,5.85-4.71,9.19-6.34,3.34-1.62,7.26-2.44,11.77-2.44,3.9,0,7.36.66,10.37,1.98,3.02,1.32,5.54,3.18,7.55,5.57,2.02,2.39,3.55,5.25,4.6,8.56,1.04,3.32,1.57,6.97,1.57,10.97v45.46h-17.2v-45.46c0-4.36-1-7.74-2.99-10.13-2-2.39-5.04-3.59-9.12-3.59-2.97,0-5.76.67-8.35,2.02-2.6,1.35-5.06,3.18-7.38,5.5v51.66h-17.2V58.02h17.2v39.69Z" />
        </g>
    </g>
</svg>