<?xml version="1.0" encoding="utf-8"?><svg width="210" height="80" viewBox="0 0 210 80" fill="none" xmlns="http://www.w3.org/2000/svg">
<path fill-rule="evenodd" clip-rule="evenodd" d="M39.4822 37.6638C39.4822 29.0898 38.0431 25.5355 34.0866 25.5355C30.597 25.5355 28.8345 28.0272 28.8345 36.6747C28.8345 45.2119 30.2014 48.7298 34.2303 48.7298C37.7915 48.7298 39.4822 46.2745 39.4822 37.6638ZM22 37.4442C22 27.8072 28.5107 23.9967 34.3025 23.9967C40.4894 23.9967 46.3166 27.7709 46.3166 36.8578C46.3166 46.5677 39.806 50.2686 34.0141 50.2686C27.8275 50.2686 22 46.2382 22 37.4442Z" fill="#147BD1"/>
<path fill-rule="evenodd" clip-rule="evenodd" d="M75.6135 38.0669L81.7645 37.7371C81.7645 33.3037 81.1894 31.6913 79.0309 31.6913C77.1961 31.6913 75.7573 33.4501 75.6135 38.0669ZM69.9301 40.2288C69.9301 33.8531 74.5701 30.2989 79.3184 30.2989C84.2247 30.2989 87.3036 32.768 87.4789 39.2278C87.4825 39.3534 87.3821 39.4593 87.2583 39.4593H75.8394C75.7155 39.4593 75.6155 39.5652 75.6185 39.6911C75.7794 45.5114 77.9996 47.1175 81.6567 47.1175C83.4417 47.1175 84.8808 46.6951 86.0851 46.151C86.1739 46.1107 86.2767 46.1343 86.3401 46.2098L86.8184 46.7829C86.8905 46.8694 86.8897 46.9973 86.8134 47.0795C85.5012 48.4891 82.8298 50.2687 79.3184 50.2687C73.0593 50.2687 69.9301 46.4579 69.9301 40.2288Z" fill="#147BD1"/>
<path fill-rule="evenodd" clip-rule="evenodd" d="M144.003 40.5219C144.003 33.1203 142.601 31.7279 140.154 31.7279C137.888 31.7279 136.557 33.4135 136.557 39.7159C136.557 47.2276 137.744 48.8394 140.37 48.8394C142.529 48.8394 144.003 47.5571 144.003 40.5219ZM130.514 40.3389C130.514 33.3034 135.406 30.2989 140.262 30.2989C145.478 30.2989 150.047 33.4867 150.047 40.1555C150.047 47.1907 145.227 50.269 140.262 50.269C135.047 50.269 130.514 47.044 130.514 40.3389Z" fill="#147BD1"/>
<path fill-rule="evenodd" clip-rule="evenodd" d="M165.459 40.5219C165.459 33.1203 164.056 31.7279 161.61 31.7279C159.343 31.7279 158.012 33.4135 158.012 39.7159C158.012 47.2276 159.2 48.8394 161.826 48.8394C163.984 48.8394 165.459 47.5571 165.459 40.5219ZM151.969 40.3389C151.969 33.3034 156.861 30.2989 161.717 30.2989C166.933 30.2989 171.502 33.4867 171.502 40.1555C171.502 47.1907 166.682 50.269 161.717 50.269C156.502 50.269 151.969 47.044 151.969 40.3389Z" fill="#147BD1"/>
<path fill-rule="evenodd" clip-rule="evenodd" d="M102.266 30.2989C99.6406 30.2989 97.2664 31.5083 95.36 32.9004H95.216L95.2868 30.5901C95.2923 30.413 95.1425 30.2725 94.9699 30.2922L89.9362 30.8735C89.7883 30.8904 89.6763 31.0177 89.6763 31.1695V49.5385C89.6763 49.699 89.8041 49.8288 89.9614 49.8288H95.1107C95.268 49.8288 95.3957 49.699 95.3957 49.5385V34.1829C96.187 33.9996 97.4821 33.7067 98.7415 33.7067C100.432 33.7067 101.223 34.4029 101.223 36.6379V49.5385C101.223 49.699 101.351 49.8288 101.509 49.8288H106.694C106.851 49.8288 106.979 49.699 106.979 49.5385V35.2092C106.979 31.9113 105.324 30.2989 102.266 30.2989Z" fill="#147BD1"/>
<path fill-rule="evenodd" clip-rule="evenodd" d="M122.411 46.5678C121.836 46.7877 120.864 47.3741 119.39 47.3741C116.656 47.3741 115.217 45.5052 115.217 39.7525C115.217 33.7064 117.015 31.7645 119.605 31.7645C120.936 31.7645 121.8 32.534 122.411 33.3034V46.5678ZM128.131 26.7081C128.131 24.8141 128.194 23.0739 128.227 22.3596C128.237 22.1507 128.063 21.9828 127.859 22.0014L122.678 22.6007C122.527 22.6145 122.411 22.7432 122.411 22.8978V28.0272C122.411 29.3461 122.483 30.7019 122.483 30.7019C121.728 30.482 120.721 30.2989 119.749 30.2989C114.138 30.2989 109.317 33.3403 109.317 40.9618C109.317 47.6304 112.806 50.2687 116.368 50.2687C118.886 50.2687 120.9 49.2427 122.447 47.8872H122.591L122.518 49.9096C122.51 50.1251 122.694 50.2955 122.904 50.2653L127.839 49.704C128.006 49.6804 128.131 49.5345 128.131 49.3624V26.7081Z" fill="#147BD1"/>
<path fill-rule="evenodd" clip-rule="evenodd" d="M184.87 30.2989C182.784 30.2989 180.733 31.9113 179.619 33.1203H179.475L179.545 30.658C179.551 30.4485 179.373 30.2818 179.168 30.3051L174.195 30.8737C174.047 30.8906 173.935 31.0179 173.935 31.17V49.4841C173.935 49.6745 174.086 49.8288 174.273 49.8288H179.316C179.502 49.8288 179.655 49.6745 179.655 49.4841V34.6229C180.158 34.1463 180.985 33.6698 181.633 33.6698C181.957 33.6698 182.173 33.7433 182.388 34.1463C183.072 35.2822 183.613 35.9387 185.158 35.9387C186.561 35.9387 187.816 34.8059 187.816 33.0471C187.816 31.2514 186.597 30.2989 184.87 30.2989Z" fill="#147BD1"/>
<path fill-rule="evenodd" clip-rule="evenodd" d="M57.5635 48.803C56.3403 48.803 55.3693 48.2533 54.7215 47.4838V34.1462C55.2972 33.9265 56.1966 33.4866 57.6354 33.4866C60.3693 33.4866 61.9162 35.3187 61.9162 40.5585C61.9162 47.2642 60.4052 48.803 57.5635 48.803ZM60.7649 30.2991C58.2467 30.2991 56.2328 31.5082 54.7215 32.8273H54.5418L54.6112 30.6348C54.6176 30.4351 54.4483 30.276 54.2537 30.2985L49.262 30.8734C49.1138 30.8905 49.0021 31.0181 49.0021 31.1699V57.7018C49.0021 57.8795 49.1539 58.0181 49.3275 57.9981L54.4619 57.4072C54.6098 57.3903 54.7215 57.2627 54.7215 57.1109V52.1376C54.7215 50.8553 54.6858 49.9025 54.6858 49.9025C55.4771 50.1222 56.6644 50.2686 57.4197 50.2686C63.4269 50.2686 67.8153 46.9344 67.8153 39.3128C67.8153 32.6074 64.1823 30.2991 60.7649 30.2991Z" fill="#147BD1"/>
</svg>
