<?xml version="1.0" encoding="utf-8"?>
<svg width="210" height="80" viewBox="0 0 210 80" fill="none" xmlns="http://www.w3.org/2000/svg">
<path d="M50.1933 43.9155C50.283 46.2759 50.1037 48.457 48.7891 50.4289C48.311 51.1758 47.9226 51.2953 47.2952 50.6082C46.5184 49.7716 45.7117 48.9948 44.8751 48.188C44.4269 47.7698 44.2178 47.3216 44.4269 46.724C44.7257 45.8576 44.7556 44.9911 44.7556 44.0948L44.7855 31.9345C44.7855 30.9485 44.4867 30.6498 43.5007 30.6498L30.8325 30.6796C30.2648 30.6796 29.6972 30.6498 29.2191 30.9187C28.2929 31.4864 27.7252 31.0979 27.0978 30.4107C26.4106 29.6339 25.6338 28.9467 24.9466 28.1998C24.4685 27.6919 24.4685 27.2736 25.096 26.8553C26.7094 25.7797 28.4423 25.1224 30.3843 25.1224L49.058 25.0925C49.9842 25.0925 50.2232 25.3614 50.2232 26.2577L50.1933 43.9155ZM26.4106 38.3284L26.3807 48.4271C26.3508 49.413 26.7393 49.6521 27.6356 49.6521L39.5867 49.6222C40.5727 49.6222 41.5586 49.4728 42.4849 48.9948C42.8434 48.8155 43.1422 48.8155 43.4111 49.0844L46.2793 52.0124C46.7873 52.5203 46.6379 52.9386 46.1001 53.2673C44.5464 54.1935 42.933 54.9703 41.0806 54.9703L22.0186 55.0002C21.182 55.0002 20.9728 54.7313 21.0027 53.9246L21.0326 34.026C21.0326 32.3528 21.6301 30.8888 22.4966 29.4845C22.8551 28.9467 23.1539 28.8571 23.632 29.3351L26.5301 32.2333C26.7691 32.4723 26.9484 32.7412 26.799 33.0699C26.1716 34.8028 26.5002 36.5357 26.4106 38.3284Z" fill="#5AF6F5"/>
<path d="M76.635 35.2209C75.9777 32.8606 74.3643 31.3966 71.8845 31.0679C68.9564 30.6795 65.9686 30.8887 63.0406 30.9484C61.7559 30.9783 61.0388 31.8149 60.8595 33.1594C60.7699 33.8764 60.7998 34.5935 60.7699 35.4301L60.74 53.1775C60.74 53.9244 60.9193 54.2531 61.726 54.1933C62.4729 54.1336 63.2498 54.1635 63.9967 54.1933C64.5943 54.2232 64.7735 54.0141 64.7735 53.4165C64.7437 52.1019 64.8034 50.7873 64.7437 49.5025C64.7138 48.6958 65.0126 48.5166 65.7296 48.5464C67.2833 48.6062 68.8369 48.5763 70.3607 48.5464C73.6174 48.4867 75.8283 46.9928 76.635 44.0648C77.4716 41.1666 77.4417 38.149 76.635 35.2209ZM72.7509 42.8995C72.3326 44.5727 71.2271 45.4391 69.4644 45.469C68.2095 45.4989 66.9247 45.4391 65.64 45.4989C64.9229 45.5288 64.7138 45.3196 64.7138 44.6026L64.7437 35.1313C64.7138 34.2648 65.1619 33.9959 65.8491 34.0258C67.0144 34.0258 68.1796 33.9959 69.3448 34.0557C71.3765 34.1453 72.482 35.0118 72.8405 37.0136C73.1991 38.9258 73.2588 40.9276 72.7509 42.8995ZM183.149 35.7587C183.12 32.8008 181.237 30.9185 178.309 30.9185H170.272C168.121 30.9185 168.151 30.9185 168.151 33.1295C168.151 33.8167 168.36 34.0258 169.047 33.9959H176.666C178.429 33.9959 179.116 34.7728 179.206 36.5356C179.235 37.3721 178.967 37.5813 178.16 37.5514C175.889 37.4917 173.618 37.5215 171.348 37.5215C169.137 37.5215 167.822 38.5075 167.195 40.6587C166.717 42.302 166.747 44.005 167.195 45.6483C167.703 47.5007 168.898 48.5464 170.84 48.5763C174.067 48.666 177.293 48.6361 180.52 48.5763C182.223 48.5464 183.12 47.4708 183.149 45.7678V35.7587ZM179.176 44.4233C179.176 45.1404 178.847 45.469 178.1 45.469C176.307 45.4391 174.545 45.469 172.752 45.4391C171.736 45.4391 171.168 44.9014 171.049 43.9154C170.959 42.9892 170.87 42.063 171.437 41.1666C171.856 40.7483 172.304 40.6288 172.782 40.6288H178.339C178.967 40.6288 179.206 40.838 179.176 41.4654V44.4233ZM105.079 35.699C105.079 32.8307 103.137 30.9185 100.268 30.9185H92.0221C90.08 30.9185 90.1398 30.9185 90.0502 32.8905C90.0203 33.8466 90.3489 34.0258 91.2154 34.0258C93.6953 33.9661 96.1751 33.9959 98.6251 34.0258C100.059 34.0258 100.627 34.474 101.015 35.7886C101.075 36.9837 100.567 37.5514 99.4916 37.5514H93.1873C91.0361 37.5514 89.6916 38.5971 89.0941 40.6288C88.6459 42.1227 88.6459 43.6166 88.9447 45.1105C89.3929 47.3513 90.6776 48.5464 92.7691 48.6062C95.9657 48.666 99.1632 48.666 102.36 48.6062C104.063 48.5763 105.019 47.5306 105.019 45.8276L105.079 35.699ZM101.105 44.5129C101.105 45.0209 100.926 45.469 100.358 45.4391C98.2068 45.4093 96.0556 45.5885 93.8447 45.2898C92.8886 44.3934 92.6197 42.3916 93.2471 41.3459C93.5758 40.838 94.0239 40.5989 94.6215 40.5989H100.388C100.896 40.5989 101.135 40.7483 101.135 41.2861C101.075 42.3916 101.105 43.4373 101.105 44.5129ZM152.674 36.5953C152.196 33.9063 150.762 31.9344 148.073 31.2173C145.115 30.4405 142.067 30.4405 139.11 31.1874C136.839 31.7551 135.315 33.249 134.658 35.4898C133.971 37.9099 134.03 40.3898 134.419 42.8398C134.927 45.9172 136.689 47.8294 139.827 48.3971C142.217 48.8452 144.607 48.8452 146.997 48.4568C149.895 47.9788 151.897 46.3654 152.555 43.4075C152.794 42.3617 152.943 41.316 152.943 40.1508C153.003 38.8959 152.883 37.7307 152.674 36.5953ZM148.521 42.6306C148.013 44.6026 146.579 45.5587 144.069 45.7379C143.143 45.7977 142.217 45.6782 141.321 45.4391C140.006 45.0806 139.11 44.244 138.691 42.9294C138.094 40.9874 138.094 38.9855 138.542 37.0435C139.05 34.9222 140.394 33.9362 142.725 33.8167C143.382 33.7868 144.039 33.8167 144.756 33.8466C147.386 34.3545 148.222 35.1911 148.7 37.7307C148.999 39.3575 148.938 41.03 148.521 42.6306ZM124.41 34.2947C123.842 33.727 123.215 34.0258 122.617 33.9959C122.139 33.9661 121.9 33.8167 121.93 33.3386V32.7112C121.93 30.9783 121.93 30.9783 123.633 30.9185C124.081 30.9185 124.38 30.9185 124.44 30.2911C124.768 27.2436 126.441 25.5704 129.519 25.182C130.415 25.0625 131.311 25.0326 132.178 25.0027C132.805 24.9728 133.164 25.182 133.164 25.9588C133.164 27.871 133.194 27.871 131.282 28.0204C129.549 28.1399 128.742 28.7673 128.473 30.0521C128.324 30.6795 128.473 30.9484 129.16 30.9185C130.206 30.8887 131.222 30.9484 132.268 30.8887C132.925 30.8588 133.194 31.038 133.194 31.7551C133.134 34.474 133.522 33.9063 131.072 33.9661C130.535 33.9661 129.967 34.0258 129.429 33.9661C128.563 33.8764 128.413 34.235 128.413 35.0118L128.443 47.5007C128.443 48.3672 128.174 48.666 127.338 48.5763C126.411 48.4867 125.246 48.9647 124.649 48.3971C124.051 47.8294 124.469 46.6343 124.469 45.708L124.41 34.2947ZM112.877 25.2716C113.863 25.2716 114.341 25.7497 114.341 26.6759V30.082C114.311 30.7094 114.52 30.9484 115.148 30.9185C116.283 30.8887 117.418 30.9185 118.554 30.8887C119.091 30.8887 119.33 30.9783 119.36 31.6057C119.45 33.9661 119.48 33.9661 117.09 33.9661C116.402 33.9661 115.715 33.9959 115.028 33.9661C114.49 33.9362 114.311 34.1752 114.311 34.713L114.341 42.4514C114.371 44.3337 115.536 45.3794 117.568 45.469C119.33 45.5587 119.33 45.5587 119.33 47.2617C119.33 48.8751 119.45 48.5763 117.926 48.6062C116.492 48.6361 115.028 48.6062 113.654 48.1282C111.652 47.441 110.487 46.0068 110.427 43.8257C110.337 40.9276 110.367 38.0593 110.427 35.1612C110.457 34.2051 110.188 33.9063 109.232 33.9661C107.857 34.0258 107.947 34.2051 107.917 32.6514C107.917 32.4722 107.947 32.2929 107.917 32.1435C107.738 31.1277 108.156 30.7393 109.142 30.9185C110.098 31.0978 110.487 30.7393 110.397 29.6935C110.307 28.5283 110.427 27.3631 110.367 26.1978C110.337 25.4509 110.606 25.2119 111.323 25.2716C111.801 25.3314 112.279 25.2716 112.877 25.2716ZM80.9673 44.1245L80.9374 26.407C80.9374 25.5704 81.1167 25.182 82.013 25.2716C82.6703 25.3314 83.3277 25.3314 83.985 25.2716C84.7917 25.2119 85.0307 25.5106 85.0307 26.3173L85.0008 43.3178V47.6501C85.0307 48.3373 84.8514 48.666 84.0746 48.6062C83.0886 48.5166 81.8338 48.9946 81.1765 48.4269C80.4893 47.8294 80.9972 46.5446 80.9374 45.5587L80.9673 44.1245ZM159.397 40.5989V47.7099C159.397 48.3373 159.247 48.666 158.53 48.6062C157.753 48.5464 156.947 48.5763 156.17 48.6062C155.632 48.6361 155.423 48.4269 155.423 47.8891C155.453 44.0648 155.333 40.2703 155.483 36.4459C155.602 33.0697 157.694 31.1874 161.309 30.9185C162.354 30.8588 163.43 30.9185 164.506 30.8887C164.984 30.8887 165.223 31.0679 165.193 31.546V31.7551C165.253 33.1594 164.565 33.9063 163.191 33.9661C160.741 34.0856 159.486 35.3404 159.367 37.9099L159.397 40.5989Z" fill="#0E0E0E"/>
<path fill-rule="evenodd" clip-rule="evenodd" d="M186.287 32.4423C186.466 32.4423 186.645 32.2929 186.645 32.1136V32.0539C186.645 31.8746 186.526 31.7252 186.346 31.6954H185.928V32.4423H186.287ZM185.629 31.5161H186.316C186.615 31.4862 186.884 31.7252 186.914 32.024V32.0838C186.914 32.3228 186.765 32.5319 186.556 32.6216C186.556 32.6216 186.556 32.6514 186.615 32.7411L187.004 33.488H186.705L186.316 32.6813H185.928V33.488H185.659V31.5161H185.629ZM186.227 34.0557C187.063 34.0557 187.751 33.3685 187.751 32.5319V32.4722C187.81 31.6356 187.153 30.9484 186.316 30.8887C185.48 30.8588 184.763 31.4862 184.733 32.3228V32.4722C184.703 33.3088 185.36 33.9959 186.167 34.0258C186.197 34.0557 186.197 34.0557 186.227 34.0557ZM186.227 30.6496C186.702 30.6512 187.157 30.8406 187.493 31.1764C187.829 31.5123 188.018 31.9673 188.02 32.4423V32.4722C188.018 32.9471 187.829 33.4022 187.493 33.738C187.157 34.0739 186.702 34.2633 186.227 34.2648C185.752 34.2633 185.297 34.0739 184.961 33.738C184.625 33.4022 184.436 32.9471 184.434 32.4722C184.404 31.4862 185.181 30.6496 186.167 30.6496H186.227Z" fill="#0E0E0E"/>
</svg>
