<?xml version="1.0" encoding="utf-8"?><svg width="210" height="80" viewBox="0 0 210 80" fill="none" xmlns="http://www.w3.org/2000/svg">
<path d="M34.4161 46.8896C35.4161 47.5031 49.1003 55.9341 49.1003 55.9341C49.1003 55.9341 50.5312 57.0558 51.9737 56.36C53.4153 55.6643 53.3569 54.2564 53.3569 54.0722V35.4513C53.3569 35.4513 53.4104 34.3337 52.9309 33.323C52.3906 32.1832 51.6562 31.5796 50.8561 31.0887C50.0559 30.5977 36.9704 22.5229 36.9704 22.5229C36.9704 22.5229 35.8067 21.6026 34.4169 22.2038C33.0263 22.8049 32.9803 24.1405 32.9803 24.4916V44.6281C32.9901 44.9316 33.0255 45.3345 33.1398 45.5599C33.3388 45.9538 33.4161 46.2753 34.4161 46.8896ZM39.0979 31.0878L47.2377 36.0887V47.4209L39.0979 42.4727V31.0878Z" fill="#26ABFF"/>
<path d="M30 46.2508C30.0099 46.5543 30.0452 46.9827 30.1595 47.2089C30.3594 47.6028 30.4367 47.9252 31.4367 48.5386C32.4367 49.1521 46.1209 57.5831 46.1209 57.5831C46.1209 57.5831 47.5518 58.7048 48.9942 58.009C50.4359 57.3133 50.3775 55.9054 50.3775 55.7212V37.1003C50.3775 37.1003 50.4309 35.9827 49.9515 34.972C49.4112 33.8322 48.6768 33.2286 47.8766 32.7377C47.0765 32.2467 33.991 24.1719 33.991 24.1719C33.991 24.1719 32.8273 23.2516 31.4375 23.8528C30.0461 24.4539 30 25.7895 30 26.1406V46.2508ZM36.1184 32.7377L44.2582 37.7385V49.0707L36.1184 44.1225V32.7377Z" fill="#F50049"/>
<path d="M75.0321 26.6858H62.5658V53.8239H69.8849V45.1068H75.0321C79.1661 45.1068 81.2336 43.3453 81.2336 39.8198V31.9736C81.2336 28.4489 79.1661 26.6858 75.0321 26.6858ZM73.9145 38.745C73.9145 39.3683 73.5641 39.6792 72.8651 39.68H69.9671V31.9497H72.8651C73.5641 31.9497 73.9145 32.2614 73.9145 32.8839V38.745ZM95.0633 26.6858H86.1308L79.2113 53.8239H86.4531L87.3281 49.7943H93.741L94.574 53.8239H101.983L95.0633 26.6858ZM88.4646 44.4489L90.5765 34.7598L92.5658 44.4489H88.4646ZM118.148 43.907C120.567 43.2886 121.776 41.643 121.776 38.9695V31.9275C121.776 28.4333 119.706 26.6858 115.568 26.6858H103.026V53.8239H110.428V44.2022H110.892L115.196 53.8239H123.127L118.148 43.907ZM114.293 38.3313C114.293 38.9563 113.943 39.268 113.243 39.268H110.345V32.0312H113.243C113.942 32.0312 114.293 32.3437 114.293 32.9678V38.3313ZM134.441 47.6323V43.7335C134.441 43.1142 134.09 42.8042 133.391 42.8042H129.361C127.28 42.8042 125.812 42.3478 124.954 41.4333C124.096 40.5196 123.668 39.2038 123.668 37.4884V31.9185C123.668 28.4308 125.72 26.6866 129.825 26.6866H135.603C139.707 26.6866 141.76 28.4316 141.76 31.9185V35.1562H134.359V32.9358C134.359 32.333 134.006 32.0312 133.301 32.0312H132.126C131.422 32.0312 131.069 32.3437 131.069 32.9687V37.0155C131.069 37.6405 131.421 37.953 132.126 37.953H136.097C138.181 37.953 139.624 38.3938 140.512 39.2738C141.399 40.1545 141.842 41.4464 141.842 43.1496V48.5994C141.842 52.0838 139.827 53.8247 135.713 53.8247H129.964C125.821 53.8247 123.75 52.083 123.75 48.5994V45.3535H131.151V47.6323C131.151 48.2515 131.498 48.5608 132.192 48.5608H133.4C134.094 48.5608 134.441 48.2515 134.441 47.6323ZM150.888 48.4785H160.099V53.9062H143.651V26.6858H159.77V32.1134H150.888V37.6233H158.618L158.576 42.7219H150.888V48.4785ZM180 36.8009H172.681V32.4637C172.681 31.8469 172.334 31.5377 171.641 31.5377H170.184C169.491 31.5377 169.144 31.8469 169.144 32.4637L169.101 47.9777C169.101 48.5854 169.451 48.8897 170.154 48.8897H171.627C172.329 48.8897 172.68 48.5854 172.68 47.9777V43.8733H179.999V48.6348C179.999 52.1496 177.938 53.9062 173.817 53.9062H167.844C163.722 53.9062 161.661 52.1496 161.661 48.6348V31.9119C161.661 28.4284 163.765 26.6858 167.887 26.6858H173.817C177.938 26.6858 179.999 28.4284 179.999 31.9119L180 36.8009Z" fill="black"/>
</svg>
