<?xml version="1.0" encoding="utf-8"?><svg width="210" height="80" viewBox="0 0 210 80" fill="none" xmlns="http://www.w3.org/2000/svg">
<path d="M46.865 46.3031L36.3839 40.0315L46.865 33.7599C47.0531 33.6469 47.2087 33.4872 47.3167 33.2962C47.4248 33.1052 47.4816 32.8896 47.4816 32.6702C47.4816 32.4507 47.4248 32.2351 47.3167 32.0441C47.2087 31.8531 47.0531 31.6934 46.865 31.5804L34.6104 24.2404C34.0762 23.9199 33.4031 23.9199 32.8689 24.2404L20.6142 31.5911C20.4326 31.6979 20.283 31.8475 20.1761 32.0184C19.8236 32.6274 20.0159 33.3967 20.6142 33.7599L31.0953 40.0208L20.6142 46.3138C20.4326 46.4206 20.283 46.5702 20.1761 46.7411C19.8236 47.3501 20.0159 48.1194 20.6142 48.4826L32.8795 55.8119C33.4137 56.1325 34.0762 56.1325 34.6104 55.8119L46.865 48.4719C47.0531 48.3589 47.2087 48.1992 47.3167 48.0082C47.4248 47.8172 47.4816 47.6016 47.4816 47.3822C47.4816 47.1628 47.4248 46.9471 47.3167 46.7561C47.2087 46.5652 47.0531 46.4054 46.865 46.2924V46.3031ZM24.2575 32.777C24.2575 32.777 24.1827 32.6595 24.2147 32.606C24.2147 32.5847 24.2468 32.574 24.2575 32.5633L33.6381 26.9648C33.7022 26.9221 33.7877 26.9221 33.8518 26.9648L43.2218 32.5633C43.2859 32.5954 43.3072 32.6702 43.2752 32.7343C43.2645 32.7556 43.2431 32.7663 43.2218 32.777L33.745 38.4503L24.2575 32.777ZM43.2752 47.457C43.2752 47.457 43.2431 47.489 43.2218 47.4997L33.8518 53.1088C33.7877 53.1409 33.7022 53.1409 33.6381 53.1088L24.2575 47.4997C24.2575 47.4997 24.2254 47.4783 24.2147 47.457C24.1827 47.3929 24.204 47.3181 24.2575 47.286L33.745 41.6234L43.2218 47.286C43.2859 47.3181 43.3072 47.3929 43.2752 47.457Z" fill="#4553D6"/>
<path d="M72.774 51.218L67.9555 42.2647C69.2162 41.7198 70.1991 40.9505 70.8829 39.9569C71.5774 38.9526 71.9193 37.7346 71.9193 36.2923C71.9193 34.1661 71.2355 32.5421 69.8573 31.4096C68.4897 30.2878 66.5452 29.7215 64.0237 29.7215H56.7158C56.4808 29.7215 56.2884 29.9139 56.2884 30.1489V51.1111C56.2884 51.3462 56.4808 51.5385 56.7158 51.5385H59.7501C59.9851 51.5385 60.1775 51.3462 60.1775 51.1111V43.1835H64.3229L68.5431 51.3141C68.6072 51.453 68.7568 51.5385 68.917 51.5385H72.5924C72.5924 51.5385 72.6565 51.5278 72.6885 51.5064C72.7847 51.453 72.8274 51.3248 72.774 51.218ZM64.0451 40.0638H60.1775V32.852H64.0237C65.3806 32.852 66.3956 33.1725 67.058 33.8136C67.7097 34.4546 68.041 35.3414 68.041 36.4953C68.041 37.5744 67.6991 38.4398 67.0153 39.0915C66.3315 39.7326 65.3379 40.0638 64.0451 40.0638ZM88.1057 38.8351C87.5929 37.6385 86.8129 36.6983 85.7766 36.0359C84.7402 35.3628 83.4581 35.0315 81.9303 35.0315C80.5307 35.0315 79.2699 35.3734 78.1481 36.0572C77.037 36.7517 76.1609 37.7239 75.5198 38.9847C74.8788 40.2561 74.5583 41.7198 74.5583 43.3865V43.9955C74.5583 45.4806 74.8681 46.8054 75.4985 48.002C76.1185 49.1769 77.0596 50.1514 78.2122 50.812C79.3875 51.4958 80.7657 51.8376 82.347 51.8376C83.8321 51.8376 85.1035 51.5492 86.1505 50.9722C87.1014 50.438 87.8707 49.7863 88.4476 49.0277C88.5438 48.8995 88.5224 48.7179 88.4155 48.6004L86.7595 46.9977H86.7488C86.7488 46.9977 86.674 46.9443 86.642 46.9443C86.5779 46.9443 86.5245 46.9657 86.4924 47.0191C85.4881 48.2264 84.1846 48.8354 82.5713 48.8354C81.7487 48.8354 81.0328 48.6645 80.4238 48.3012C79.8042 47.9379 79.302 47.4251 78.9601 46.8054C78.5862 46.1216 78.3725 45.3738 78.3191 44.6045H88.4583H88.4476C88.6826 44.5938 88.875 44.4122 88.875 44.1771V43.0233C88.875 41.4313 88.6185 40.0424 88.1057 38.8351ZM85.1889 41.9014H78.3939C78.5648 40.6728 78.9494 39.7219 79.5477 39.0381C80.146 38.365 80.9367 38.0231 81.9089 38.0231C83.0201 38.0231 83.8214 38.365 84.3449 39.0381C84.8577 39.7112 85.1462 40.5659 85.1889 41.6236V41.9014ZM97.3261 31.9332C96.8774 32.3712 96.653 32.9909 96.653 33.8029V35.3307H99.5163C99.7514 35.3307 99.9437 35.523 99.9437 35.7581V37.6705C99.9437 37.9056 99.7514 38.0979 99.5163 38.0979H96.653V51.1218C96.653 51.3569 96.4607 51.5492 96.2256 51.5492H93.3409C93.1059 51.5492 92.9136 51.3569 92.9136 51.1218V38.0979H90.8729C90.6378 38.0979 90.4455 37.9056 90.4455 37.6705V35.7581C90.4455 35.523 90.6378 35.3307 90.8729 35.3307H92.9242V33.8029C92.9242 32.6169 93.1593 31.6019 93.6187 30.7579C94.0674 29.9352 94.7512 29.2728 95.5953 28.8561C96.45 28.4288 97.4757 28.2151 98.6509 28.2151C99.0355 28.2151 99.6018 28.2792 100.36 28.4181C100.563 28.4608 100.713 28.6318 100.702 28.8454L100.638 30.9289C100.638 31.1639 100.435 31.3455 100.2 31.3348H100.157C99.8475 31.2921 99.5377 31.2707 99.2172 31.2707C98.3945 31.2707 97.7641 31.4951 97.3154 31.9332H97.3261Z" fill="#202538"/>
<path d="M106.098 28.5254H103.213C102.977 28.5254 102.786 28.7167 102.786 28.9528V51.1116C102.786 51.3476 102.977 51.539 103.213 51.539H106.098C106.334 51.539 106.525 51.3476 106.525 51.1116V28.9528C106.525 28.7167 106.334 28.5254 106.098 28.5254Z" fill="#202538"/>
<path d="M123.342 38.8356C122.829 37.6389 122.049 36.6987 121.013 36.0363C119.976 35.3632 118.694 35.032 117.166 35.032C115.767 35.032 114.506 35.3739 113.395 36.0577C112.273 36.7522 111.397 37.7244 110.756 38.9851C110.115 40.2565 109.794 41.7203 109.794 43.387V44.0067C109.794 45.4811 110.115 46.8166 110.745 48.0025C111.358 49.1791 112.296 50.1546 113.448 50.8124C114.634 51.4962 116.013 51.8381 117.583 51.8381C119.154 51.8381 120.34 51.5496 121.387 50.9727C122.359 50.4385 123.128 49.7761 123.705 49.0068C123.791 48.8893 123.769 48.729 123.673 48.6222L122.006 47.0089H121.996C121.996 47.0089 121.91 46.9555 121.867 46.9555C121.814 46.9555 121.761 46.9768 121.729 47.0196C120.724 48.2376 119.421 48.8359 117.818 48.8359C116.996 48.8359 116.28 48.6542 115.671 48.3017C115.051 47.9384 114.549 47.4256 114.207 46.8059C113.833 46.1221 113.619 45.3742 113.566 44.5943H123.694C123.93 44.5943 124.122 44.4127 124.122 44.1776V43.0237C124.122 41.4318 123.865 40.0429 123.342 38.8356ZM120.436 41.9019H113.63C113.801 40.6732 114.186 39.7223 114.784 39.0386C115.382 38.3655 116.173 38.0236 117.156 38.0236C118.256 38.0236 119.068 38.3655 119.581 39.0386C120.105 39.7116 120.382 40.5664 120.436 41.6241V41.9019ZM132.252 44.6157L130.618 46.2824V51.1223C130.618 51.3573 130.425 51.5496 130.19 51.5496H127.316C127.081 51.5496 126.889 51.3573 126.889 51.1223V28.9528C126.889 28.7177 127.081 28.5254 127.316 28.5254H130.19C130.425 28.5254 130.618 28.7177 130.618 28.9528V41.4211L136.035 35.4701C136.074 35.4275 136.122 35.3932 136.176 35.3694C136.229 35.3455 136.286 35.3325 136.344 35.3312H140.191C140.308 35.3312 140.404 35.4273 140.404 35.5448C140.404 35.5983 140.383 35.6517 140.351 35.6837L134.656 42.0728L140.971 51.0795C141.067 51.2077 141.035 51.4001 140.896 51.4855C140.842 51.5176 140.789 51.539 140.725 51.539H137.199C137.06 51.539 136.932 51.4749 136.847 51.3573L132.252 44.6157ZM150.544 49.103V51.1436C150.544 51.336 150.405 51.5069 150.212 51.5603C149.347 51.7526 148.653 51.8488 148.118 51.8488C146.804 51.8488 145.757 51.4855 144.999 50.759C144.24 50.0325 143.855 48.8679 143.855 47.2653V38.0983H141.644C141.409 38.0983 141.216 37.906 141.216 37.671V35.7585C141.216 35.5235 141.409 35.3312 141.644 35.3312H143.855V31.8054C143.855 31.5704 144.048 31.378 144.283 31.378H147.167C147.402 31.378 147.595 31.5704 147.595 31.8054V35.3419H150.02C150.255 35.3419 150.447 35.5342 150.447 35.7692V37.6817C150.447 37.9167 150.255 38.109 150.02 38.109H147.595V47.0196C147.595 47.7034 147.734 48.1628 148.011 48.4085C148.289 48.6542 148.706 48.7718 149.272 48.7718C149.539 48.7718 149.806 48.7397 150.063 48.697C150.298 48.6649 150.501 48.8252 150.544 49.0496V49.1137V49.103ZM156.837 29.69C157.211 30.0639 157.403 30.5447 157.403 31.1216C157.424 31.6451 157.211 32.158 156.837 32.5319C156.463 32.9059 155.939 33.0875 155.298 33.0875C154.657 33.0875 154.133 32.9059 153.76 32.5426C153.375 32.1794 153.193 31.7093 153.193 31.1323C153.193 30.5554 153.386 30.0746 153.76 29.7006C154.133 29.3267 154.657 29.1344 155.298 29.1344C155.95 29.1344 156.463 29.3267 156.847 29.7006L156.837 29.69Z" fill="#202538"/>
<path d="M156.74 35.3311H153.856C153.62 35.3311 153.428 35.5224 153.428 35.7584V51.1222C153.428 51.3582 153.62 51.5495 153.856 51.5495H156.74C156.976 51.5495 157.168 51.3582 157.168 51.1222V35.7584C157.168 35.5224 156.976 35.3311 156.74 35.3311Z" fill="#202538"/>
<path d="M173.878 35.8964L168.568 51.2602C168.504 51.4311 168.343 51.538 168.172 51.5486H165.491C165.309 51.5486 165.149 51.4311 165.095 51.2709L159.753 35.9071C159.679 35.6934 159.796 35.4477 160.01 35.3729C160.052 35.3622 160.106 35.3515 160.149 35.3515H163.108C163.29 35.3515 163.461 35.4797 163.514 35.6507L166.858 46.8369L170.138 35.6507C170.192 35.4691 170.352 35.3515 170.544 35.3515H173.504C173.739 35.3515 173.931 35.5438 173.92 35.7789C173.92 35.8216 173.92 35.8644 173.899 35.9071L173.878 35.8964ZM189.22 38.8345C188.707 37.6379 187.927 36.6977 186.891 36.0353C185.855 35.3622 184.573 35.031 183.045 35.031C181.645 35.031 180.384 35.3729 179.273 36.0567C178.151 36.7511 177.275 37.7234 176.634 38.9841C175.993 40.2555 175.673 41.7193 175.673 43.386V43.995C175.673 45.4801 175.993 46.8049 176.624 48.0015C177.244 49.1764 178.185 50.1509 179.337 50.8114C180.513 51.4952 181.891 51.8371 183.461 51.8371C185.032 51.8371 186.218 51.5486 187.276 50.961C188.113 50.5122 188.854 49.9022 189.455 49.1661C189.466 49.1447 189.487 49.1233 189.509 49.0913C189.637 48.9203 189.615 48.6853 189.466 48.5357L187.938 47.0506H187.927C187.927 47.0506 187.82 46.9865 187.767 46.9865C187.692 46.9865 187.617 47.0079 187.564 47.072C186.57 48.2472 185.278 48.8349 183.696 48.8349C182.874 48.8349 182.158 48.6532 181.549 48.3007C180.929 47.9374 180.427 47.4246 180.085 46.8049C179.711 46.1211 179.498 45.3732 179.444 44.5933H189.573C189.808 44.5933 190 44.4117 190 44.1766V43.0227C190 41.4308 189.744 40.0419 189.22 38.8345ZM186.314 41.9009H179.519C179.69 40.6722 180.075 39.7213 180.673 39.0375C181.271 38.3644 182.051 38.0226 183.034 38.0226C184.134 38.0226 184.946 38.3644 185.459 39.0375C185.983 39.7106 186.261 40.5654 186.314 41.6231V41.9009Z" fill="#202538"/>
</svg>
