<?xml version="1.0" encoding="utf-8"?>
<svg width="210" height="80" viewBox="0 0 210 80" fill="none" xmlns="http://www.w3.org/2000/svg">
<path d="M53.4286 49.3404C53.3455 49.4241 53.2346 49.3962 53.1238 49.3962H48.9404C48.7742 49.3962 48.6634 49.3404 48.5803 49.1729L47.4998 46.996C47.389 46.7727 47.2782 46.689 47.0288 46.689L35.8085 46.7169C35.6146 46.7169 35.4761 46.6611 35.3652 46.4936L34.1462 44.9586C34.0631 44.8469 34.0077 44.819 33.9523 44.9865L32.7887 47.3867C32.7056 47.5542 32.8164 47.6379 32.8995 47.7495L34.0631 49.2008C34.0908 49.2566 34.1185 49.3125 34.1739 49.3683C34.1185 49.452 34.0631 49.4241 34.0077 49.4241H29.6304C29.4088 49.4241 29.3811 49.3683 29.4919 49.1729L31.8468 44.3725L39.4932 28.6036C39.7703 28.0454 40.1304 27.5431 40.7399 27.2919C40.7676 27.2919 40.7953 27.264 40.823 27.264C41.3771 27.0407 41.4602 27.0965 41.4602 27.6826V29.6921C41.2663 30.2224 41.017 30.6968 40.7953 31.1713L34.3402 44.3725C34.2016 44.6516 34.2016 44.6795 34.5618 44.6795H46.0315C46.3362 44.6795 46.3362 44.6795 46.1977 44.4004L43.9259 39.6837C43.2333 38.2324 42.5684 36.7811 41.8204 35.3577C41.4879 34.7158 41.3771 34.1018 41.4048 33.4041C41.4325 32.3156 41.4048 31.2271 41.4048 30.1666C41.4048 29.9991 41.4048 29.8596 41.4602 29.6921C41.571 29.6921 41.571 29.8037 41.6265 29.8875L44.2861 35.3577L46.2531 39.3767L49.3006 45.6563C49.5499 46.1866 49.827 46.7448 50.104 47.2751C50.2703 47.5821 50.575 47.6937 50.8521 47.8333C51.6832 48.3356 52.5143 48.7822 53.3455 49.2566C53.4009 49.2846 53.4009 49.3125 53.4286 49.3404Z" fill="#BFC1BE"/>
<path d="M190.571 41.8828C190.543 41.8828 190.543 41.8828 190.571 41.8828C190.488 41.8268 190.432 41.8268 190.404 41.8268H188.11C187.915 41.8268 187.831 41.9108 187.803 42.1068C187.803 42.2749 187.775 42.4429 187.747 42.6109C187.635 43.171 187.383 43.6191 186.88 43.8992C186.097 44.3473 185.258 44.3753 184.391 44.0952C183.496 43.7872 182.937 43.031 182.937 42.1068V37.7659C182.937 37.1498 183.217 36.6177 183.692 36.2256C184.251 35.7495 184.922 35.6375 185.622 35.6935C186.712 35.7775 187.719 36.3936 187.803 37.7659C187.831 38.074 187.859 38.102 188.166 38.102H190.292C190.376 38.102 190.46 38.102 190.543 38.018L190.571 37.99C190.571 37.6259 190.571 37.2898 190.543 36.9537C190.348 35.4974 189.565 34.4612 188.278 33.8171C186.908 33.1169 185.482 33.0049 183.972 33.285C181.511 33.7331 179.973 35.5534 179.945 38.074V42.2749C179.973 44.0952 180.867 45.4115 182.489 46.1677C184.028 46.8958 185.65 46.9798 187.271 46.5317C188.642 46.1397 189.704 45.3835 190.236 44.0112C190.376 43.7032 190.404 43.3391 190.516 43.003C190.571 42.5829 190.571 42.2468 190.571 41.8828ZM143.422 33.341H140.401C140.206 33.341 140.122 33.397 140.038 33.593L137.269 40.6225C137.241 40.7065 137.241 40.7905 137.129 40.8466C137.101 40.7905 137.073 40.7065 137.045 40.6505L134.277 33.7331C134.165 33.453 134.025 33.341 133.718 33.369C132.767 33.397 131.816 33.369 130.865 33.369C130.585 33.369 130.529 33.453 130.529 33.7051V46.3077C130.529 46.5317 130.585 46.5878 130.809 46.5598C131.508 46.5598 132.235 46.5317 132.934 46.5598C133.186 46.5598 133.242 46.4757 133.242 46.2237V38.018C133.382 38.074 133.382 38.186 133.41 38.27L135.927 44.6554C136.011 44.8514 136.095 44.9074 136.318 44.9074C136.85 44.8794 137.381 44.9074 137.884 44.9074C138.08 44.9074 138.192 44.8514 138.276 44.6554L140.765 38.298C140.793 38.214 140.821 38.102 140.933 38.018V46.2797C140.933 46.5037 140.989 46.5878 141.212 46.5598H143.394C143.617 46.5598 143.645 46.5037 143.645 46.2797V33.565C143.701 33.369 143.617 33.341 143.422 33.341ZM127.006 37.8219C126.95 36.1696 126.223 34.8533 124.769 34.0411C122.755 32.8929 120.658 32.8649 118.56 33.9011C116.994 34.7973 116.155 36.1416 116.099 37.9339C116.043 39.3903 116.071 40.8466 116.099 42.3029C116.155 43.9552 116.854 45.2435 118.309 46.0276C120.182 47.0359 122.14 47.1199 124.069 46.3077C125.887 45.5235 126.922 44.0952 126.978 42.1068C127.062 40.6505 127.062 39.2222 127.006 37.8219ZM124.125 42.0788C124.097 43.2831 123.23 44.2073 121.944 44.3193C121.021 44.4033 120.154 44.2353 119.483 43.5071C119.371 43.3671 119.259 43.2271 119.175 43.059C119.008 42.6949 118.924 42.3309 118.924 41.9388V37.99C118.924 36.5617 119.847 35.6375 121.273 35.5815C122.168 35.5535 122.979 35.7495 123.594 36.4496C123.93 36.8137 124.097 37.2618 124.097 37.7659C124.153 39.2222 124.153 40.6505 124.125 42.0788ZM99.8792 33.369H97.7259C97.4183 33.369 97.2784 33.509 97.2784 33.8171V41.4347C97.2784 41.7147 97.2505 42.0228 97.2225 42.3029C97.0827 43.3391 96.4954 44.0112 95.4886 44.2073C95.1531 44.2913 94.7895 44.2633 94.426 44.2353C93.4472 44.1512 92.748 43.5631 92.4684 42.5829C92.3845 42.2469 92.3565 41.9108 92.3565 41.5747V33.621C92.3565 33.369 92.3006 33.313 92.0489 33.341H89.7277C89.4761 33.341 89.4481 33.397 89.4481 33.621V41.4067C89.4482 41.9213 89.4762 42.4355 89.532 42.947C89.7837 44.5993 90.6786 45.7476 92.2446 46.3357C93.559 46.8398 94.9014 46.8678 96.2437 46.5878C97.5861 46.3077 98.6767 45.6356 99.4038 44.4313C99.9352 43.5631 100.075 42.5829 100.075 41.5747V33.565C100.131 33.397 100.047 33.369 99.8792 33.369ZM82.7923 34.9653L82.4567 34.1252C82.0932 33.425 81.3101 33.0609 80.583 33.285C79.9957 33.481 79.6322 33.9291 79.4085 34.4892L77.0594 40.6505L74.906 46.2237C74.8221 46.4477 74.8221 46.5317 75.1018 46.5317H77.2831C77.4788 46.5317 77.5907 46.4757 77.6746 46.2797L78.4297 44.2913C78.4856 44.1232 78.5695 44.0952 78.7373 44.0952H83.1558C83.3236 44.0952 83.4075 44.1512 83.4635 44.2913L84.1906 46.2797C84.2465 46.4477 84.3304 46.5317 84.5262 46.5037H86.9871C87.2108 46.5037 87.2947 46.4757 87.1829 46.2237L82.7923 34.9653ZM82.3728 41.7988H79.3805C79.1847 41.7988 79.2127 41.7147 79.2686 41.5747L80.3313 38.7461L80.8627 37.3458L82.0093 40.3144L82.5126 41.6307C82.5686 41.7427 82.5406 41.7988 82.3728 41.7988ZM158.886 46.1397L155.447 37.1498C155.083 36.2256 154.748 35.2734 154.356 34.3492C154.02 33.481 153.209 33.0329 152.398 33.285C151.811 33.453 151.448 33.8731 151.252 34.4052L149.965 37.7379L146.694 46.2517C146.61 46.4477 146.638 46.5037 146.861 46.5037H149.127C149.294 46.5037 149.378 46.4477 149.434 46.3077C149.686 45.6356 149.965 44.9634 150.217 44.3193C150.273 44.1512 150.357 44.0952 150.553 44.0952H154.384C154.636 44.0952 154.943 43.9832 155.139 44.1512C155.307 44.2913 155.335 44.5993 155.447 44.8514L156.006 46.3357C156.034 46.4477 156.118 46.5037 156.258 46.5037H158.886C159.054 46.5037 159.082 46.4477 159.026 46.3077C158.914 46.2797 158.886 46.1957 158.886 46.1397ZM154.132 41.7988C153.909 41.7708 153.657 41.7988 153.377 41.7988H151.224C151.028 41.7988 150.944 41.7708 151.028 41.5467L152.538 37.4578C152.538 37.4298 152.566 37.4018 152.622 37.3458L153.685 40.0624L154.272 41.5467C154.328 41.7427 154.328 41.7988 154.132 41.7988ZM169.653 33.369H159.753C159.586 33.369 159.502 33.397 159.502 33.593V35.4974C159.502 35.7215 159.558 35.7495 159.781 35.7495H162.941C163.193 35.7495 163.277 35.8055 163.277 36.0576V46.3077C163.277 46.5037 163.333 46.5878 163.529 46.5878H165.85C166.102 46.5878 166.158 46.5037 166.158 46.2517V36.0576C166.158 35.8055 166.241 35.7495 166.493 35.7495H169.681C169.877 35.7495 169.933 35.6935 169.933 35.4974V33.593C169.905 33.397 169.821 33.369 169.653 33.369ZM113.443 33.369H103.515C103.319 33.369 103.263 33.453 103.263 33.621V35.4974C103.263 35.7215 103.319 35.7495 103.543 35.7495H106.675C106.955 35.7495 107.038 35.8055 107.038 36.0856V46.2797C107.038 46.5037 107.094 46.5878 107.318 46.5598H109.639C109.863 46.5598 109.919 46.4757 109.919 46.2797V36.0296C109.919 35.8055 109.975 35.7495 110.199 35.7495H113.415C113.61 35.7495 113.666 35.6935 113.666 35.4974V33.565C113.666 33.397 113.61 33.369 113.443 33.369ZM176.085 33.6491C176.085 33.397 176.001 33.341 175.778 33.341H173.457C173.289 33.341 173.205 33.369 173.205 33.593V46.3077C173.205 46.5037 173.261 46.5598 173.457 46.5598H175.75C176.029 46.5598 176.085 46.5037 176.085 46.2237V33.6491Z" fill="#788183"/>
<path d="M62.8571 30.5293C62.8571 28.5902 61.9066 27.0445 60.2852 26.0609L52.681 21.6206L44.0425 16.6464C43.3715 16.2529 42.6726 16.0562 41.8619 16H40.9114C40.1286 16.0562 39.4297 16.2529 38.7587 16.6464L32.0212 20.5808L22.5161 26.1171C21.0064 27.0164 20.2516 28.4215 20 30.1639V49.8923C20.2796 51.6909 21.1462 53.096 22.6838 54.0234C23.5225 54.5293 24.3612 54.9789 25.1999 55.4848L38.7867 63.3817C39.4297 63.7471 40.1006 63.9438 40.8555 64H42.0576C42.9802 63.9157 43.7629 63.5504 44.5178 63.1007L60.3411 53.8829C61.9625 52.9274 62.8571 51.3817 62.8571 49.5269V30.5293ZM54.4702 50.2576H48.5435C48.3478 50.2576 48.236 50.2014 48.1521 50.0047C47.7886 49.2178 47.3973 48.459 47.0338 47.7002C46.95 47.5316 46.8661 47.4754 46.6704 47.4754H36.1588C35.9911 47.4754 35.9072 47.5316 35.8233 47.7002C35.4599 48.4871 35.0405 49.3021 34.6771 50.089C34.6212 50.2014 34.5653 50.2576 34.4255 50.2576H28.1074C28.1074 50.2576 28.0794 50.2576 28.0514 50.2295L28.5547 49.1616L37.2211 31.3724L38.8706 28C39.4297 26.904 40.3243 26.2576 41.6103 26.3419C42.6167 26.3981 43.3436 26.9602 43.8468 27.8033C44.2941 28.5059 44.6016 29.2927 44.993 30.0796L49.5779 39.4941L54.61 49.8642C54.638 49.8923 54.638 49.9204 54.638 49.9485C54.7498 50.1733 54.6939 50.2576 54.4702 50.2576ZM41.778 36.9087L41.4146 36.1499L38.4792 42.2482C38.5351 42.2763 38.5351 42.2763 38.563 42.2763H44.0984C44.378 42.2763 44.2941 42.1639 44.2102 42.0234C43.4275 40.3091 42.6167 38.623 41.778 36.9087Z" fill="#788183"/>
</svg>
