<?xml version="1.0" encoding="utf-8"?>
<svg width="210" height="80" viewBox="0 0 210 80" fill="none" xmlns="http://www.w3.org/2000/svg">
<path d="M8.0747 25.8617H8.3903H17.8978C19.4364 25.8617 20.9355 26.2167 22.2768 26.9663C24.3283 28.1103 25.3934 29.925 25.5512 32.2132C25.6696 33.515 25.4723 34.7774 24.8411 35.961C24.1705 37.2628 23.1053 38.2096 21.764 38.8014C21.6062 38.8803 21.4089 38.9592 21.2117 39.0381C21.9218 39.3537 22.5135 39.7087 23.0264 40.1822C23.8154 40.9712 24.2494 41.918 24.5255 42.9437C24.7622 43.8116 24.8411 44.719 24.8411 45.6263V49.5319C24.8411 49.6108 24.8411 49.7292 24.8017 49.8475H21.4878V49.2952C21.4878 48.1117 21.5273 46.9676 21.4878 45.7841C21.4484 44.9557 21.3695 44.1272 21.2117 43.3382C20.8566 41.6813 19.752 40.7345 18.0951 40.4583C17.6611 40.3794 17.1877 40.34 16.7143 40.34H11.783C11.7041 40.34 11.5858 40.34 11.428 40.3794V49.8475H8.0747C7.95634 49.2558 7.99579 26.2167 8.0747 25.8617ZM11.5069 28.9782V37.3417C11.5858 37.3417 11.6647 37.3812 11.7436 37.3812H17.6611C18.4107 37.3812 19.1603 37.2234 19.8704 36.9078C21.0144 36.4344 21.764 35.5665 22.0007 34.3435C22.119 33.7517 22.1585 33.1205 22.0796 32.4893C21.9218 30.8324 20.9355 29.7278 19.3575 29.2544C18.6474 29.0177 17.8978 28.9782 17.1483 28.9782H12.0592H11.5069ZM46.4599 24.8359H49.7738V33.3967C49.8921 33.3572 49.9316 33.3178 49.971 33.2783C53.0876 30.0828 58.1767 30.6352 60.741 34.2251C61.6089 35.4481 62.1612 36.7894 62.3979 38.2096C62.8713 40.7739 62.753 43.3382 61.7272 45.7841C60.6621 48.3089 58.8079 49.9264 56.0464 50.3604C53.7188 50.7154 51.7069 50.0842 49.9316 48.5851C49.8132 48.5062 49.6949 48.3878 49.5371 48.23C49.3793 48.7823 49.5371 49.3347 49.4582 49.887H46.4599C46.4599 49.9264 46.4599 24.8359 46.4599 24.8359ZM49.8132 40.9317V43.5749C49.8132 44.64 50.2472 45.5474 51.0362 46.2575C53.561 48.5851 57.6639 47.5594 58.8079 44.3639C59.6364 42.0758 59.5969 39.7482 58.8474 37.4601C58.6501 36.8289 58.2951 36.2371 57.8217 35.7637C56.796 34.6591 55.4941 34.2646 53.995 34.3435C51.7858 34.4224 49.7738 36.1582 49.8132 38.683V40.9317ZM158.854 33.3178V24.8359H162.089C162.207 25.2304 162.247 48.7429 162.129 49.887C161.773 50.0053 159.959 50.0448 159.13 49.9264V48.23C158.933 48.4273 158.815 48.5062 158.696 48.5851C156.093 50.9521 151.99 51.1494 149.228 48.9796C148.005 48.0328 147.177 46.7704 146.664 45.3107C145.678 42.3519 145.638 39.3931 146.703 36.4344C147.374 34.6196 148.479 33.1205 150.215 32.1343C152.858 30.5957 156.25 30.8719 158.539 33.16C158.617 33.2389 158.696 33.2783 158.736 33.3572C158.775 33.3572 158.815 33.3572 158.854 33.3178ZM158.815 41.0106V38.4463C158.775 37.4206 158.46 36.5133 157.789 35.7637C156.842 34.6985 155.659 34.2251 154.278 34.2646C152.148 34.304 150.688 35.2903 149.859 37.3023C149.544 38.1307 149.386 38.9592 149.307 39.8665C149.189 41.3657 149.268 42.8253 149.781 44.2455C150.136 45.2318 150.648 46.0997 151.516 46.652C152.858 47.5594 154.278 47.7172 155.816 47.2832C157.671 46.7704 158.933 45.2318 158.854 43.2593C158.815 42.4703 158.854 41.7602 158.815 41.0106ZM91.0389 24.7965H94.3527V33.4756C94.5105 33.3572 94.55 33.3178 94.6289 33.2389C95.773 31.9765 97.2326 31.3453 98.8895 31.1875C100.31 31.0297 101.691 31.2664 102.992 31.9765C104.531 32.8444 105.438 34.1462 105.833 35.8426C105.991 36.5527 106.07 37.2628 106.07 37.9729V49.453C106.07 49.6108 106.07 49.7686 106.03 49.9264H102.677V49.2952V38.9986C102.676 38.3081 102.597 37.6198 102.44 36.9472C102.046 35.4481 101.059 34.5802 99.5207 34.304C98.4161 34.1068 97.3115 34.2646 96.3253 34.8563C94.9839 35.6454 94.3922 36.8683 94.3527 38.3674C94.3133 39.7876 94.3527 41.2079 94.3527 42.6281V49.3347V49.9264H91.0389V24.7965ZM174.634 59H173.372C173.411 58.7238 173.451 58.5266 173.53 58.3293C174.477 54.621 175.423 50.9127 176.686 47.3227C176.765 47.086 176.765 46.8887 176.725 46.6915C176.252 44.6795 175.897 42.6675 175.621 40.6161C175.581 40.3005 175.621 40.0244 175.818 39.7482C177.751 36.9078 179.763 34.1857 181.972 31.582C182.169 31.3453 182.406 31.1875 182.761 31.1086L188.6 29.925C189.586 29.7278 190.572 29.6094 191.559 29.4516C191.716 29.4122 191.874 29.4122 192.032 29.4122C192.071 29.4516 192.071 29.4911 192.111 29.5305L191.795 29.9645L187.574 35.2509C184.852 38.8803 182.446 42.6675 180.315 46.652C178.264 50.4787 176.449 54.4632 174.95 58.5266C174.792 58.6055 174.713 58.8027 174.634 59ZM108.437 41.129C108.437 38.7619 108.831 36.7894 109.936 35.0536C111.435 32.6471 113.605 31.3453 116.484 31.1875C120.351 31.0297 123.23 33.2783 124.375 36.5133C125.558 39.8665 125.479 43.2198 123.822 46.3759C122.52 48.9007 120.351 50.242 117.51 50.4393C115.735 50.5576 114.038 50.242 112.46 49.2952C110.685 48.1906 109.581 46.5337 108.949 44.5611C108.555 43.2987 108.437 42.273 108.437 41.129ZM121.771 40.8528C121.771 39.6298 121.613 38.4069 121.14 37.3023C120.706 36.2371 120.035 35.3692 119.009 34.8169C116.682 33.5939 113.881 34.4618 112.658 36.7894C112.145 37.7362 111.908 38.7619 111.829 39.7876C111.671 41.484 111.829 43.1409 112.539 44.719C113.486 46.8098 115.695 47.9144 117.944 47.3621C119.522 47.0071 120.508 45.9419 121.14 44.4822C121.613 43.2987 121.771 42.1152 121.771 40.8528ZM35.8083 50.5182C33.1257 50.4787 31.0348 49.6897 29.4568 47.8355C28.3917 46.6126 27.7604 45.1529 27.4448 43.5354C26.9714 41.1684 27.0503 38.8408 27.9183 36.5922C28.944 33.9095 30.7587 32.0554 33.5991 31.4242C37.7809 30.4379 41.5286 32.4104 43.0672 36.4344C44.2902 39.5904 44.2507 42.8253 42.87 45.9025C41.4497 48.9401 38.9249 50.4393 35.8083 50.5182ZM40.5424 40.9317C40.5424 39.5115 40.3451 38.2491 39.7928 37.0261C38.6488 34.5013 35.8083 33.4756 33.323 34.7774C32.1394 35.4087 31.4293 36.4344 30.9954 37.6573C30.4431 39.2353 30.4036 40.8528 30.6403 42.4703C30.7587 43.3382 30.9954 44.1272 31.4293 44.9162C32.3367 46.5731 33.7175 47.441 35.6111 47.441C37.4653 47.441 38.846 46.5731 39.7139 44.9162C40.3057 43.6538 40.5029 42.273 40.5424 40.9317ZM143.824 41.2868C143.824 42.5492 143.587 44.1272 142.916 45.6263C141.733 48.3089 139.721 49.9659 136.801 50.3604C134.237 50.7154 131.91 50.1631 129.976 48.3484C128.754 47.2043 128.004 45.7841 127.609 44.1666C126.939 41.484 126.978 38.8014 128.043 36.1977C128.99 33.8701 130.647 32.2132 133.093 31.5031C137.038 30.359 141.18 31.8976 142.956 36.1977C143.547 37.6179 143.863 39.2353 143.824 41.2868ZM140.47 40.8528C140.47 40.4978 140.51 40.1822 140.47 39.8271C140.352 38.6041 140.076 37.4601 139.405 36.3555C137.59 33.3572 133.014 33.5545 131.397 36.6316C130.923 37.5784 130.608 38.5647 130.529 39.6298C130.371 41.2473 130.489 42.8648 131.121 44.3639C131.476 45.2713 132.028 46.0603 132.856 46.6126C135.302 48.2695 138.537 47.3621 139.76 44.6401C140.312 43.4565 140.549 42.1941 140.47 40.8528ZM75.9688 49.9659H72.655V31.7398H75.89V33.3572C75.9294 33.3572 75.9688 33.3967 75.9688 33.3967L76.2056 33.16C77.4285 31.937 78.9276 31.3058 80.624 31.1875C81.7681 31.1086 82.8727 31.2664 83.9378 31.7398C85.7525 32.5288 86.8572 33.9884 87.2911 35.8821C87.4498 36.5275 87.5293 37.1899 87.5278 37.8546V49.453C87.5278 49.6108 87.4884 49.7686 87.4884 49.9264H84.1351V49.2952V38.4463C84.1351 37.6179 83.9773 36.8289 83.6222 36.1188C83.1883 35.2509 82.5176 34.6985 81.5708 34.4618C80.5451 34.1857 79.4799 34.2251 78.4937 34.6196C76.9551 35.172 76.1661 36.3555 75.9688 37.9729C75.9294 38.3674 75.9294 38.7619 75.9294 39.1564V49.3741C75.9688 49.5319 75.9688 49.7292 75.9688 49.9659ZM195.109 38.0518C195.07 37.8546 195.03 37.6179 195.03 37.4206C194.833 34.5802 194.636 31.7398 194.715 28.8993C194.754 27.8736 194.32 27.6764 193.492 27.7947C190.493 28.1498 187.495 28.6626 184.497 29.2544C184.339 29.2938 184.221 29.2938 184.063 29.2938C184.024 29.2544 184.024 29.2149 183.984 29.1755L184.221 28.8204L189.034 23.8102C189.468 23.3763 189.902 22.9423 190.336 22.5478C190.572 22.3111 190.888 22.1139 191.204 21.9955C193.097 21.3643 194.991 20.9304 197.003 21.0093C197.752 21.0487 198.502 21.1276 199.212 21.4038C200.04 21.7194 200.632 22.2717 200.948 23.1001C201.5 24.5203 201.697 26.0195 201.658 27.5186C201.658 28.1892 201.54 28.8993 201.5 29.57C201.461 30.0039 201.263 30.3196 200.987 30.6746L197.082 35.4876C196.529 36.1977 196.016 36.9472 195.504 37.6573C195.425 37.7757 195.306 37.894 195.188 38.0518C195.188 38.0913 195.149 38.0913 195.109 38.0518ZM193.255 30.5563C193.255 30.6746 193.294 30.793 193.334 30.9113C193.373 33.8306 193.649 36.75 193.886 39.6298C193.926 40.0244 193.807 40.3005 193.649 40.6556L189.507 47.8355C189.349 48.0722 189.192 48.2695 188.915 48.3484C185.838 49.2557 182.801 50.3209 179.842 51.5439C179.763 51.5833 179.645 51.5833 179.566 51.6228C179.368 51.4255 179.526 51.2677 179.605 51.1494C180.67 49.1374 181.657 47.086 182.801 45.1135C185.68 40.0638 189.034 35.3692 192.821 30.9902C192.939 30.8324 193.058 30.7141 193.176 30.5957C193.176 30.5168 193.215 30.5168 193.255 30.5563ZM68.7494 49.9659H65.5145V31.7398H68.7494C68.8283 32.0948 68.8283 49.2952 68.7494 49.9659ZM177.672 56.0018C177.711 55.8045 177.711 55.6862 177.751 55.5678L178.54 53.6742C178.658 53.3586 178.895 53.2402 179.171 53.1219L183.984 51.2677L185.049 50.9127C185.128 50.8732 185.246 50.8732 185.444 50.8338L185.01 51.82C184.457 52.8852 184.734 52.5696 183.708 53.0824L178.264 55.7256C178.067 55.844 177.909 55.9229 177.672 56.0018ZM65.3567 24.7965H68.9467V28.3076H65.3567V24.7965Z" fill="#00CB00"/>
</svg>
